<svg width="488" height="241" viewBox="0 0 488 241" fill="none" xmlns="http://www.w3.org/2000/svg">
<path d="M2.57298 281.037L246.634 75.3433L374.597 367.748L2.57298 281.037Z" stroke="url(#paint0_linear_77_1000)" stroke-opacity="0.5"/>
<path d="M373.21 166.027L546.415 158.169L485.233 282.679L373.21 166.027Z" stroke="url(#paint1_linear_77_1000)" stroke-opacity="0.5"/>
<path d="M472.898 291.165L532.194 156.29L348.76 169.589L472.898 291.165Z" stroke="url(#paint2_linear_77_1000)" stroke-opacity="0.5"/>
<path d="M461.237 298.619L517.303 154.674L325.866 173.821L461.237 298.619Z" stroke="url(#paint3_linear_77_1000)" stroke-opacity="0.5"/>
<path d="M450.399 305.887L502.558 152.834L303.479 178.313L450.399 305.887Z" stroke="url(#paint4_linear_77_1000)" stroke-opacity="0.5"/>
<path d="M440.393 312.937L487.965 150.762L281.636 183.049L440.393 312.937Z" stroke="url(#paint5_linear_77_1000)" stroke-opacity="0.5"/>
<path d="M431.197 319.738L473.503 148.454L260.343 188.014L431.197 319.738Z" stroke="url(#paint6_linear_77_1000)" stroke-opacity="0.5"/>
<path d="M422.784 326.252L459.147 145.897L239.603 193.185L422.784 326.252Z" stroke="url(#paint7_linear_77_1000)" stroke-opacity="0.5"/>
<path d="M415.154 332.447L444.899 143.087L219.446 198.543L415.154 332.447Z" stroke="url(#paint8_linear_77_1000)" stroke-opacity="0.5"/>
<path d="M408.278 338.295L430.735 140.021L199.873 204.073L408.278 338.295Z" stroke="url(#paint9_linear_77_1000)" stroke-opacity="0.5"/>
<path d="M402.125 343.755L416.631 136.686L180.886 209.746L402.125 343.755Z" stroke="url(#paint10_linear_77_1000)" stroke-opacity="0.5"/>
<path d="M396.692 348.8L402.589 133.08L162.513 215.546L396.692 348.8Z" stroke="url(#paint11_linear_77_1000)" stroke-opacity="0.5"/>
<path d="M391.939 353.398L388.58 129.198L144.747 221.45L391.939 353.398Z" stroke="url(#paint12_linear_77_1000)" stroke-opacity="0.5"/>
<path d="M387.845 357.519L374.592 125.037L127.599 227.438L387.845 357.519Z" stroke="url(#paint13_linear_77_1000)" stroke-opacity="0.5"/>
<path d="M384.384 361.134L360.61 120.592L111.077 233.488L384.384 361.134Z" stroke="url(#paint14_linear_77_1000)" stroke-opacity="0.5"/>
<path d="M381.515 364.211L346.608 115.859L95.1743 239.574L381.515 364.211Z" stroke="url(#paint15_linear_77_1000)" stroke-opacity="0.5"/>
<path d="M379.223 366.724L332.583 110.837L79.9082 245.678L379.223 366.724Z" stroke="url(#paint16_linear_77_1000)" stroke-opacity="0.5"/>
<path d="M377.466 368.643L318.511 105.522L65.2723 251.771L377.466 368.643Z" stroke="url(#paint17_linear_77_1000)" stroke-opacity="0.5"/>
<path d="M376.203 369.945L304.367 99.9145L51.259 257.835L376.203 369.945Z" stroke="url(#paint18_linear_77_1000)" stroke-opacity="0.5"/>
<path d="M375.414 370.601L290.148 94.0101L37.8825 263.842L375.414 370.601Z" stroke="url(#paint19_linear_77_1000)" stroke-opacity="0.5"/>
<path d="M375.053 370.587L275.831 87.8108L25.1326 269.77L375.053 370.587Z" stroke="url(#paint20_linear_77_1000)" stroke-opacity="0.5"/>
<path d="M375.074 369.883L261.39 81.3181L12.9976 275.598L375.074 369.883Z" stroke="url(#paint21_linear_77_1000)" stroke-opacity="0.5"/>
<defs>
<linearGradient id="paint0_linear_77_1000" x1="30.3433" y1="157.498" x2="404.31" y2="244.662" gradientUnits="userSpaceOnUse">
<stop stop-color="#A82F93"/>
<stop offset="1" stop-color="#33549F"/>
</linearGradient>
<linearGradient id="paint1_linear_77_1000" x1="430.748" y1="132.55" x2="508.627" y2="270.451" gradientUnits="userSpaceOnUse">
<stop stop-color="#A82F93"/>
<stop offset="1" stop-color="#33549F"/>
</linearGradient>
<linearGradient id="paint2_linear_77_1000" x1="408.776" y1="132.952" x2="496.545" y2="276.73" gradientUnits="userSpaceOnUse">
<stop stop-color="#A82F93"/>
<stop offset="1" stop-color="#33549F"/>
</linearGradient>
<linearGradient id="paint3_linear_77_1000" x1="387.062" y1="133.496" x2="485.384" y2="282.707" gradientUnits="userSpaceOnUse">
<stop stop-color="#A82F93"/>
<stop offset="1" stop-color="#33549F"/>
</linearGradient>
<linearGradient id="paint4_linear_77_1000" x1="365.598" y1="134.17" x2="475.133" y2="288.311" gradientUnits="userSpaceOnUse">
<stop stop-color="#A82F93"/>
<stop offset="1" stop-color="#33549F"/>
</linearGradient>
<linearGradient id="paint5_linear_77_1000" x1="344.413" y1="134.968" x2="465.81" y2="293.47" gradientUnits="userSpaceOnUse">
<stop stop-color="#A82F93"/>
<stop offset="1" stop-color="#33549F"/>
</linearGradient>
<linearGradient id="paint6_linear_77_1000" x1="323.508" y1="135.882" x2="457.401" y2="298.111" gradientUnits="userSpaceOnUse">
<stop stop-color="#A82F93"/>
<stop offset="1" stop-color="#33549F"/>
</linearGradient>
<linearGradient id="paint7_linear_77_1000" x1="302.877" y1="136.899" x2="449.877" y2="302.151" gradientUnits="userSpaceOnUse">
<stop stop-color="#A82F93"/>
<stop offset="1" stop-color="#33549F"/>
</linearGradient>
<linearGradient id="paint8_linear_77_1000" x1="282.544" y1="138.011" x2="443.231" y2="305.513" gradientUnits="userSpaceOnUse">
<stop stop-color="#A82F93"/>
<stop offset="1" stop-color="#33549F"/>
</linearGradient>
<linearGradient id="paint9_linear_77_1000" x1="262.507" y1="139.212" x2="437.418" y2="308.119" gradientUnits="userSpaceOnUse">
<stop stop-color="#A82F93"/>
<stop offset="1" stop-color="#33549F"/>
</linearGradient>
<linearGradient id="paint10_linear_77_1000" x1="242.761" y1="140.483" x2="432.385" y2="309.882" gradientUnits="userSpaceOnUse">
<stop stop-color="#A82F93"/>
<stop offset="1" stop-color="#33549F"/>
</linearGradient>
<linearGradient id="paint11_linear_77_1000" x1="223.331" y1="141.819" x2="428.096" y2="310.73" gradientUnits="userSpaceOnUse">
<stop stop-color="#A82F93"/>
<stop offset="1" stop-color="#33549F"/>
</linearGradient>
<linearGradient id="paint12_linear_77_1000" x1="204.205" y1="143.207" x2="424.471" y2="310.588" gradientUnits="userSpaceOnUse">
<stop stop-color="#A82F93"/>
<stop offset="1" stop-color="#33549F"/>
</linearGradient>
<linearGradient id="paint13_linear_77_1000" x1="185.392" y1="144.637" x2="421.437" y2="309.39" gradientUnits="userSpaceOnUse">
<stop stop-color="#A82F93"/>
<stop offset="1" stop-color="#33549F"/>
</linearGradient>
<linearGradient id="paint14_linear_77_1000" x1="166.897" y1="146.1" x2="418.914" y2="307.076" gradientUnits="userSpaceOnUse">
<stop stop-color="#A82F93"/>
<stop offset="1" stop-color="#33549F"/>
</linearGradient>
<linearGradient id="paint15_linear_77_1000" x1="148.711" y1="147.58" x2="416.793" y2="303.592" gradientUnits="userSpaceOnUse">
<stop stop-color="#A82F93"/>
<stop offset="1" stop-color="#33549F"/>
</linearGradient>
<linearGradient id="paint16_linear_77_1000" x1="130.851" y1="149.069" x2="414.988" y2="298.899" gradientUnits="userSpaceOnUse">
<stop stop-color="#A82F93"/>
<stop offset="1" stop-color="#33549F"/>
</linearGradient>
<linearGradient id="paint17_linear_77_1000" x1="113.309" y1="150.553" x2="413.383" y2="292.965" gradientUnits="userSpaceOnUse">
<stop stop-color="#A82F93"/>
<stop offset="1" stop-color="#33549F"/>
</linearGradient>
<linearGradient id="paint18_linear_77_1000" x1="96.0788" y1="152.023" x2="411.854" y2="285.779" gradientUnits="userSpaceOnUse">
<stop stop-color="#A82F93"/>
<stop offset="1" stop-color="#33549F"/>
</linearGradient>
<linearGradient id="paint19_linear_77_1000" x1="79.1739" y1="153.463" x2="410.304" y2="277.334" gradientUnits="userSpaceOnUse">
<stop stop-color="#A82F93"/>
<stop offset="1" stop-color="#33549F"/>
</linearGradient>
<linearGradient id="paint20_linear_77_1000" x1="62.5857" y1="154.863" x2="408.606" y2="267.645" gradientUnits="userSpaceOnUse">
<stop stop-color="#A82F93"/>
<stop offset="1" stop-color="#33549F"/>
</linearGradient>
<linearGradient id="paint21_linear_77_1000" x1="46.3045" y1="156.213" x2="406.639" y2="256.742" gradientUnits="userSpaceOnUse">
<stop stop-color="#A82F93"/>
<stop offset="1" stop-color="#33549F"/>
</linearGradient>
</defs>
</svg>
