<svg width="564" height="398" viewBox="0 0 564 398" fill="none" xmlns="http://www.w3.org/2000/svg">
<path d="M294.709 261.803L409.987 546.355L77.4769 527.49L294.709 261.803Z" stroke="url(#paint0_linear_77_1064)"/>
<path d="M270.897 259.749L412.584 523.561L83.4016 534.685L270.897 259.749Z" stroke="url(#paint1_linear_77_1064)"/>
<path d="M249.369 260.925L414.911 502.321L92.142 542.005L249.369 260.925Z" stroke="url(#paint2_linear_77_1064)"/>
<path d="M230.456 264.991L417.147 482.602L103.686 549.17L230.456 264.991Z" stroke="url(#paint3_linear_77_1064)"/>
<path d="M214.434 271.595L419.452 464.362L117.975 555.916L214.434 271.595Z" stroke="url(#paint4_linear_77_1064)"/>
<path d="M201.549 280.359L421.991 447.538L134.933 561.989L201.549 280.359Z" stroke="url(#paint5_linear_77_1064)"/>
<path d="M191.998 290.904L424.917 432.059L154.453 567.157L191.998 290.904Z" stroke="url(#paint6_linear_77_1064)"/>
<path d="M185.943 302.833L428.38 417.833L176.41 571.199L185.943 302.833Z" stroke="url(#paint7_linear_77_1064)"/>
<path d="M183.474 315.756L432.496 404.765L200.631 573.92L183.474 315.756Z" stroke="url(#paint8_linear_77_1064)"/>
<path d="M184.663 329.278L437.393 392.744L226.948 575.145L184.663 329.278Z" stroke="url(#paint9_linear_77_1064)"/>
<path d="M189.526 343.018L443.176 381.656L255.165 574.724L189.526 343.018Z" stroke="url(#paint10_linear_77_1064)"/>
<path d="M198.039 356.599L449.943 371.374L285.075 572.53L198.039 356.599Z" stroke="url(#paint11_linear_77_1064)"/>
<path d="M210.125 369.665L457.76 361.772L316.447 568.465L210.125 369.665Z" stroke="url(#paint12_linear_77_1064)"/>
<path d="M225.673 381.878L466.691 352.715L349.048 562.454L225.673 381.878Z" stroke="url(#paint13_linear_77_1064)"/>
<path d="M244.553 392.918L476.797 344.069L382.655 554.448L244.553 392.918Z" stroke="url(#paint14_linear_77_1064)"/>
<path d="M266.555 402.501L488.082 335.702L417.001 544.428L266.555 402.501Z" stroke="url(#paint15_linear_77_1064)"/>
<path d="M291.485 410.362L500.581 327.479L451.863 532.396L291.485 410.362Z" stroke="url(#paint16_linear_77_1064)"/>
<path d="M319.086 416.275L514.279 319.272L486.989 518.386L319.086 416.275Z" stroke="url(#paint17_linear_77_1064)"/>
<path d="M349.098 420.04L529.168 310.955L522.153 502.447L349.098 420.04Z" stroke="url(#paint18_linear_77_1064)"/>
<path d="M381.223 421.501L545.207 302.411L557.121 484.659L381.223 421.501Z" stroke="url(#paint19_linear_77_1064)"/>
<path d="M415.163 420.529L562.359 293.526L591.686 465.116L415.163 420.529Z" stroke="url(#paint20_linear_77_1064)"/>
<path d="M450.588 417.039L580.555 284.202L625.635 443.94L450.588 417.039Z" stroke="url(#paint21_linear_77_1064)"/>
<path d="M487.192 410.977L599.742 274.341L658.802 421.26L487.192 410.977Z" stroke="url(#paint22_linear_77_1064)"/>
<path d="M524.626 402.332L619.821 263.866L690.999 397.229L524.626 402.332Z" stroke="url(#paint23_linear_77_1064)"/>
<path d="M562.574 391.123L640.714 252.702L722.09 372.007L562.574 391.123Z" stroke="url(#paint24_linear_77_1064)"/>
<defs>
<linearGradient id="paint0_linear_77_1064" x1="188.194" y1="602.511" x2="379.928" y2="319.547" gradientUnits="userSpaceOnUse">
<stop stop-color="#A82F93"/>
<stop offset="1" stop-color="#33549F"/>
</linearGradient>
<linearGradient id="paint1_linear_77_1064" x1="199.825" y1="597.163" x2="356.301" y2="305.58" gradientUnits="userSpaceOnUse">
<stop stop-color="#A82F93"/>
<stop offset="1" stop-color="#33549F"/>
</linearGradient>
<linearGradient id="paint2_linear_77_1064" x1="212.878" y1="591.879" x2="334.981" y2="296.289" gradientUnits="userSpaceOnUse">
<stop stop-color="#A82F93"/>
<stop offset="1" stop-color="#33549F"/>
</linearGradient>
<linearGradient id="paint3_linear_77_1064" x1="227.35" y1="586.515" x2="316.593" y2="291.003" gradientUnits="userSpaceOnUse">
<stop stop-color="#A82F93"/>
<stop offset="1" stop-color="#33549F"/>
</linearGradient>
<linearGradient id="paint4_linear_77_1064" x1="243.207" y1="580.942" x2="301.546" y2="289.002" gradientUnits="userSpaceOnUse">
<stop stop-color="#A82F93"/>
<stop offset="1" stop-color="#33549F"/>
</linearGradient>
<linearGradient id="paint5_linear_77_1064" x1="260.414" y1="575.027" x2="290.073" y2="289.557" gradientUnits="userSpaceOnUse">
<stop stop-color="#A82F93"/>
<stop offset="1" stop-color="#33549F"/>
</linearGradient>
<linearGradient id="paint6_linear_77_1064" x1="278.916" y1="568.655" x2="282.244" y2="291.99" gradientUnits="userSpaceOnUse">
<stop stop-color="#A82F93"/>
<stop offset="1" stop-color="#33549F"/>
</linearGradient>
<linearGradient id="paint7_linear_77_1064" x1="298.653" y1="561.712" x2="278.01" y2="295.689" gradientUnits="userSpaceOnUse">
<stop stop-color="#A82F93"/>
<stop offset="1" stop-color="#33549F"/>
</linearGradient>
<linearGradient id="paint8_linear_77_1064" x1="319.532" y1="554.104" x2="277.204" y2="300.135" gradientUnits="userSpaceOnUse">
<stop stop-color="#A82F93"/>
<stop offset="1" stop-color="#33549F"/>
</linearGradient>
<linearGradient id="paint9_linear_77_1064" x1="341.469" y1="545.738" x2="279.625" y2="304.894" gradientUnits="userSpaceOnUse">
<stop stop-color="#A82F93"/>
<stop offset="1" stop-color="#33549F"/>
</linearGradient>
<linearGradient id="paint10_linear_77_1064" x1="364.367" y1="536.541" x2="285.025" y2="309.626" gradientUnits="userSpaceOnUse">
<stop stop-color="#A82F93"/>
<stop offset="1" stop-color="#33549F"/>
</linearGradient>
<linearGradient id="paint11_linear_77_1064" x1="388.123" y1="526.447" x2="293.146" y2="314.066" gradientUnits="userSpaceOnUse">
<stop stop-color="#A82F93"/>
<stop offset="1" stop-color="#33549F"/>
</linearGradient>
<linearGradient id="paint12_linear_77_1064" x1="412.616" y1="515.408" x2="303.72" y2="318.028" gradientUnits="userSpaceOnUse">
<stop stop-color="#A82F93"/>
<stop offset="1" stop-color="#33549F"/>
</linearGradient>
<linearGradient id="paint13_linear_77_1064" x1="437.728" y1="503.385" x2="316.497" y2="321.381" gradientUnits="userSpaceOnUse">
<stop stop-color="#A82F93"/>
<stop offset="1" stop-color="#33549F"/>
</linearGradient>
<linearGradient id="paint14_linear_77_1064" x1="463.355" y1="490.353" x2="331.268" y2="324.046" gradientUnits="userSpaceOnUse">
<stop stop-color="#A82F93"/>
<stop offset="1" stop-color="#33549F"/>
</linearGradient>
<linearGradient id="paint15_linear_77_1064" x1="489.349" y1="476.304" x2="347.811" y2="325.99" gradientUnits="userSpaceOnUse">
<stop stop-color="#A82F93"/>
<stop offset="1" stop-color="#33549F"/>
</linearGradient>
<linearGradient id="paint16_linear_77_1064" x1="515.608" y1="461.237" x2="365.981" y2="327.201" gradientUnits="userSpaceOnUse">
<stop stop-color="#A82F93"/>
<stop offset="1" stop-color="#33549F"/>
</linearGradient>
<linearGradient id="paint17_linear_77_1064" x1="541.999" y1="445.17" x2="385.641" y2="327.693" gradientUnits="userSpaceOnUse">
<stop stop-color="#A82F93"/>
<stop offset="1" stop-color="#33549F"/>
</linearGradient>
<linearGradient id="paint18_linear_77_1064" x1="568.41" y1="428.128" x2="406.708" y2="327.482" gradientUnits="userSpaceOnUse">
<stop stop-color="#A82F93"/>
<stop offset="1" stop-color="#33549F"/>
</linearGradient>
<linearGradient id="paint19_linear_77_1064" x1="594.721" y1="410.152" x2="429.123" y2="326.583" gradientUnits="userSpaceOnUse">
<stop stop-color="#A82F93"/>
<stop offset="1" stop-color="#33549F"/>
</linearGradient>
<linearGradient id="paint20_linear_77_1064" x1="620.83" y1="391.288" x2="452.877" y2="324.989" gradientUnits="userSpaceOnUse">
<stop stop-color="#A82F93"/>
<stop offset="1" stop-color="#33549F"/>
</linearGradient>
<linearGradient id="paint21_linear_77_1064" x1="646.623" y1="371.6" x2="477.969" y2="322.667" gradientUnits="userSpaceOnUse">
<stop stop-color="#A82F93"/>
<stop offset="1" stop-color="#33549F"/>
</linearGradient>
<linearGradient id="paint22_linear_77_1064" x1="672.027" y1="351.15" x2="504.442" y2="319.536" gradientUnits="userSpaceOnUse">
<stop stop-color="#A82F93"/>
<stop offset="1" stop-color="#33549F"/>
</linearGradient>
<linearGradient id="paint23_linear_77_1064" x1="696.937" y1="330.018" x2="532.301" y2="315.472" gradientUnits="userSpaceOnUse">
<stop stop-color="#A82F93"/>
<stop offset="1" stop-color="#33549F"/>
</linearGradient>
<linearGradient id="paint24_linear_77_1064" x1="721.29" y1="308.284" x2="561.559" y2="310.289" gradientUnits="userSpaceOnUse">
<stop stop-color="#A82F93"/>
<stop offset="1" stop-color="#33549F"/>
</linearGradient>
</defs>
</svg>
