<svg width="586" height="170" viewBox="0 0 586 170" fill="none" xmlns="http://www.w3.org/2000/svg">
<path d="M644.331 125.237L396.358 334.551L253.352 43.2556L644.331 125.237Z" stroke="url(#paint0_linear_77_1032)" stroke-opacity="0.5"/>
<path d="M261.395 245.354L80.8912 255.511L140.7 129.923L261.395 245.354Z" stroke="url(#paint1_linear_77_1032)" stroke-opacity="0.5"/>
<path d="M153.3 121.283L95.8143 257.192L286.757 241.452L153.3 121.283Z" stroke="url(#paint2_linear_77_1032)" stroke-opacity="0.5"/>
<path d="M165.224 113.66L111.402 258.614L310.505 236.909L165.224 113.66Z" stroke="url(#paint3_linear_77_1032)" stroke-opacity="0.5"/>
<path d="M176.298 106.236L126.848 260.264L333.718 232.114L176.298 106.236Z" stroke="url(#paint4_linear_77_1032)" stroke-opacity="0.5"/>
<path d="M186.508 99.0411L142.14 262.148L356.353 227.082L186.508 99.0411Z" stroke="url(#paint5_linear_77_1032)" stroke-opacity="0.5"/>
<path d="M195.883 92.1049L157.304 264.269L378.408 221.826L195.883 92.1049Z" stroke="url(#paint6_linear_77_1032)" stroke-opacity="0.5"/>
<path d="M204.447 85.4706L172.363 266.644L399.877 216.375L204.447 85.4706Z" stroke="url(#paint7_linear_77_1032)" stroke-opacity="0.5"/>
<path d="M212.211 79.1617L187.323 269.27L420.737 210.74L212.211 79.1617Z" stroke="url(#paint8_linear_77_1032)" stroke-opacity="0.5"/>
<path d="M219.19 73.2127L202.195 272.155L440.973 204.942L219.19 73.2127Z" stroke="url(#paint9_linear_77_1032)" stroke-opacity="0.5"/>
<path d="M225.429 67.6616L217.015 275.311L460.595 199.008L225.429 67.6616Z" stroke="url(#paint10_linear_77_1032)" stroke-opacity="0.5"/>
<path d="M230.937 62.5342L231.785 278.737L479.578 192.954L230.937 62.5342Z" stroke="url(#paint11_linear_77_1032)" stroke-opacity="0.5"/>
<path d="M235.75 57.8655L246.53 282.442L497.925 186.805L235.75 57.8655Z" stroke="url(#paint12_linear_77_1032)" stroke-opacity="0.5"/>
<path d="M239.887 53.6818L261.258 286.426L515.62 180.579L239.887 53.6818Z" stroke="url(#paint13_linear_77_1032)" stroke-opacity="0.5"/>
<path d="M243.379 50.0168L275.988 290.697L532.661 174.302L243.379 50.0168Z" stroke="url(#paint14_linear_77_1032)" stroke-opacity="0.5"/>
<path d="M246.268 46.8953L290.746 295.254L549.05 167.994L246.268 46.8953Z" stroke="url(#paint15_linear_77_1032)" stroke-opacity="0.5"/>
<path d="M248.581 44.3473L305.544 300.1L564.782 161.678L248.581 44.3473Z" stroke="url(#paint16_linear_77_1032)" stroke-opacity="0.5"/>
<path d="M250.351 42.3998L320.397 305.239L579.853 155.379L250.351 42.3998Z" stroke="url(#paint17_linear_77_1032)" stroke-opacity="0.5"/>
<path d="M251.626 41.0812L335.335 310.673L594.276 149.121L251.626 41.0812Z" stroke="url(#paint18_linear_77_1032)" stroke-opacity="0.5"/>
<path d="M252.431 40.4125L350.364 316.4L608.039 142.925L252.431 40.4125Z" stroke="url(#paint19_linear_77_1032)" stroke-opacity="0.5"/>
<path d="M252.804 40.4219L365.498 322.423L621.144 136.819L252.804 40.4219Z" stroke="url(#paint20_linear_77_1032)" stroke-opacity="0.5"/>
<path d="M252.803 41.1284L380.774 328.738L633.615 130.821L252.803 41.1284Z" stroke="url(#paint21_linear_77_1032)" stroke-opacity="0.5"/>
<defs>
<linearGradient id="paint0_linear_77_1032" x1="619.35" y1="249.37" x2="226.365" y2="166.968" gradientUnits="userSpaceOnUse">
<stop stop-color="#A82F93"/>
<stop offset="1" stop-color="#33549F"/>
</linearGradient>
<linearGradient id="paint1_linear_77_1032" x1="202.422" y1="279.641" x2="122.961" y2="138.968" gradientUnits="userSpaceOnUse">
<stop stop-color="#A82F93"/>
<stop offset="1" stop-color="#33549F"/>
</linearGradient>
<linearGradient id="paint2_linear_77_1032" x1="225.333" y1="278.948" x2="135.661" y2="132.05" gradientUnits="userSpaceOnUse">
<stop stop-color="#A82F93"/>
<stop offset="1" stop-color="#33549F"/>
</linearGradient>
<linearGradient id="paint3_linear_77_1032" x1="247.969" y1="278.116" x2="147.361" y2="125.43" gradientUnits="userSpaceOnUse">
<stop stop-color="#A82F93"/>
<stop offset="1" stop-color="#33549F"/>
</linearGradient>
<linearGradient id="paint4_linear_77_1032" x1="270.343" y1="277.158" x2="158.069" y2="119.192" gradientUnits="userSpaceOnUse">
<stop stop-color="#A82F93"/>
<stop offset="1" stop-color="#33549F"/>
</linearGradient>
<linearGradient id="paint5_linear_77_1032" x1="292.418" y1="276.08" x2="167.754" y2="113.414" gradientUnits="userSpaceOnUse">
<stop stop-color="#A82F93"/>
<stop offset="1" stop-color="#33549F"/>
</linearGradient>
<linearGradient id="paint6_linear_77_1032" x1="314.201" y1="274.888" x2="176.431" y2="108.18" gradientUnits="userSpaceOnUse">
<stop stop-color="#A82F93"/>
<stop offset="1" stop-color="#33549F"/>
</linearGradient>
<linearGradient id="paint7_linear_77_1032" x1="335.691" y1="273.599" x2="184.122" y2="103.591" gradientUnits="userSpaceOnUse">
<stop stop-color="#A82F93"/>
<stop offset="1" stop-color="#33549F"/>
</linearGradient>
<linearGradient id="paint8_linear_77_1032" x1="356.871" y1="272.216" x2="190.841" y2="99.7322" gradientUnits="userSpaceOnUse">
<stop stop-color="#A82F93"/>
<stop offset="1" stop-color="#33549F"/>
</linearGradient>
<linearGradient id="paint9_linear_77_1032" x1="377.732" y1="270.75" x2="196.619" y2="96.7005" gradientUnits="userSpaceOnUse">
<stop stop-color="#A82F93"/>
<stop offset="1" stop-color="#33549F"/>
</linearGradient>
<linearGradient id="paint10_linear_77_1032" x1="398.288" y1="269.216" x2="201.525" y2="94.5977" gradientUnits="userSpaceOnUse">
<stop stop-color="#A82F93"/>
<stop offset="1" stop-color="#33549F"/>
</linearGradient>
<linearGradient id="paint11_linear_77_1032" x1="418.52" y1="267.621" x2="205.606" y2="93.5122" gradientUnits="userSpaceOnUse">
<stop stop-color="#A82F93"/>
<stop offset="1" stop-color="#33549F"/>
</linearGradient>
<linearGradient id="paint12_linear_77_1032" x1="438.432" y1="265.979" x2="208.945" y2="93.5375" gradientUnits="userSpaceOnUse">
<stop stop-color="#A82F93"/>
<stop offset="1" stop-color="#33549F"/>
</linearGradient>
<linearGradient id="paint13_linear_77_1032" x1="458.013" y1="264.297" x2="211.625" y2="94.7531" gradientUnits="userSpaceOnUse">
<stop stop-color="#A82F93"/>
<stop offset="1" stop-color="#33549F"/>
</linearGradient>
<linearGradient id="paint14_linear_77_1032" x1="477.26" y1="262.59" x2="213.749" y2="97.2376" gradientUnits="userSpaceOnUse">
<stop stop-color="#A82F93"/>
<stop offset="1" stop-color="#33549F"/>
</linearGradient>
<linearGradient id="paint15_linear_77_1032" x1="496.181" y1="260.866" x2="215.439" y2="101.05" gradientUnits="userSpaceOnUse">
<stop stop-color="#A82F93"/>
<stop offset="1" stop-color="#33549F"/>
</linearGradient>
<linearGradient id="paint16_linear_77_1032" x1="514.769" y1="259.139" x2="216.819" y2="106.243" gradientUnits="userSpaceOnUse">
<stop stop-color="#A82F93"/>
<stop offset="1" stop-color="#33549F"/>
</linearGradient>
<linearGradient id="paint17_linear_77_1032" x1="533.021" y1="257.42" x2="218.018" y2="112.848" gradientUnits="userSpaceOnUse">
<stop stop-color="#A82F93"/>
<stop offset="1" stop-color="#33549F"/>
</linearGradient>
<linearGradient id="paint18_linear_77_1032" x1="550.949" y1="255.723" x2="219.191" y2="120.885" gradientUnits="userSpaceOnUse">
<stop stop-color="#A82F93"/>
<stop offset="1" stop-color="#33549F"/>
</linearGradient>
<linearGradient id="paint19_linear_77_1032" x1="568.543" y1="254.056" x2="220.468" y2="130.347" gradientUnits="userSpaceOnUse">
<stop stop-color="#A82F93"/>
<stop offset="1" stop-color="#33549F"/>
</linearGradient>
<linearGradient id="paint20_linear_77_1032" x1="585.799" y1="252.435" x2="221.991" y2="141.214" gradientUnits="userSpaceOnUse">
<stop stop-color="#A82F93"/>
<stop offset="1" stop-color="#33549F"/>
</linearGradient>
<linearGradient id="paint21_linear_77_1032" x1="602.74" y1="250.868" x2="223.918" y2="153.441" gradientUnits="userSpaceOnUse">
<stop stop-color="#A82F93"/>
<stop offset="1" stop-color="#33549F"/>
</linearGradient>
</defs>
</svg>
