<?xml version="1.0" standalone="no"?>
<!DOCTYPE svg PUBLIC "-//W3C//DTD SVG 20010904//EN"
 "http://www.w3.org/TR/2001/REC-SVG-20010904/DTD/svg10.dtd">
<svg version="1.0" xmlns="http://www.w3.org/2000/svg"
 width="1120.000000pt" height="1120.000000pt" viewBox="0 0 1120.000000 1120.000000"
 preserveAspectRatio="xMidYMid meet">
<metadata>
Created by potrace 1.14, written by Peter Selinger 2001-2017
</metadata>
<g transform="translate(0.000000,1120.000000) scale(0.100000,-0.100000)"
fill="#000000" stroke="none">
<path d="M2882 10379 c-35 -10 -71 -24 -79 -31 -9 -7 -19 -12 -22 -12 -36 8
-190 -122 -226 -190 -11 -20 -23 -36 -27 -36 -5 0 -8 -4 -8 -8 0 -5 -31 -62
-70 -128 -38 -65 -88 -153 -112 -194 -24 -41 -47 -83 -53 -92 -5 -9 -24 -40
-41 -70 -60 -104 -275 -473 -284 -488 -9 -14 -40 -67 -91 -157 -11 -18 -27
-48 -38 -65 -10 -18 -32 -57 -50 -86 -17 -29 -31 -57 -31 -62 0 -6 -3 -10 -8
-10 -4 0 -18 -21 -32 -47 -13 -27 -48 -88 -77 -136 -29 -48 -53 -92 -53 -97 0
-6 -4 -10 -9 -10 -5 0 -11 -8 -14 -17 -4 -10 -21 -43 -39 -74 -18 -31 -50 -88
-72 -125 -21 -38 -41 -71 -45 -74 -5 -5 -31 -49 -70 -125 -9 -16 -18 -32 -21
-35 -3 -3 -11 -15 -17 -27 -7 -13 -19 -33 -25 -45 -7 -13 -15 -25 -18 -28 -3
-3 -11 -16 -18 -30 -7 -14 -23 -43 -37 -65 -13 -22 -27 -47 -31 -55 -5 -8 -49
-84 -99 -170 -50 -86 -94 -162 -98 -170 -4 -8 -16 -28 -26 -45 -10 -16 -43
-73 -74 -125 -54 -94 -55 -95 -33 -110 11 -8 26 -18 31 -23 27 -22 368 -247
374 -247 4 0 20 24 36 53 15 28 35 60 43 70 8 9 11 17 6 17 -5 0 -4 4 2 8 6 4
25 32 42 62 54 95 122 214 132 230 40 64 160 274 160 281 0 5 4 9 8 9 4 0 14
16 21 35 7 19 16 35 21 35 5 0 11 9 15 20 3 10 49 91 101 180 51 88 94 165 94
170 0 6 5 10 10 10 6 0 10 4 10 10 0 5 18 39 40 75 22 36 40 70 40 75 0 6 4
10 9 10 5 0 13 10 17 22 3 12 22 45 40 74 19 29 34 57 34 63 0 5 3 11 8 13 4
2 16 21 28 43 18 35 44 80 139 241 11 18 33 57 49 86 15 29 34 60 40 68 7 8
28 42 46 75 18 33 37 63 42 66 5 3 10 10 10 15 1 17 32 78 48 94 9 9 51 84 63
113 6 15 15 27 19 27 4 0 8 7 8 15 0 8 5 15 11 15 5 0 8 4 5 9 -3 5 1 14 9 21
8 7 15 19 15 26 0 8 5 14 10 14 6 0 10 4 10 10 0 5 20 44 45 86 25 41 45 77
45 78 0 2 25 44 55 94 30 50 55 96 55 102 0 5 5 10 10 10 6 0 10 4 10 9 0 16
79 145 98 161 16 13 83 15 496 15 263 0 480 3 482 6 4 7 7 127 4 144 -1 6 -2
14 0 20 2 11 2 206 -1 220 -1 6 0 15 1 20 1 6 2 30 3 55 l0 45 -519 1 c-472 1
-525 0 -582 -17z"/>
<path d="M4462 10143 l3 -258 1123 0 1122 0 1 30 c0 16 1 131 2 255 l0 225
-1126 3 -1127 2 2 -257z"/>
<path d="M7442 10146 c0 -141 2 -257 6 -257 4 -1 120 -2 257 -3 141 -1 257 -6
266 -11 9 -6 35 -41 58 -80 23 -38 46 -77 51 -85 6 -8 16 -26 22 -40 7 -14 18
-31 25 -38 7 -7 13 -18 13 -24 0 -6 6 -19 14 -27 7 -9 29 -45 47 -81 19 -36
37 -67 40 -70 3 -3 34 -54 69 -115 35 -60 71 -123 81 -140 11 -16 27 -46 36
-65 10 -19 22 -39 26 -45 5 -5 123 -208 264 -450 297 -512 293 -504 307 -531
7 -12 15 -17 21 -12 6 5 39 28 75 51 36 23 67 45 70 48 3 3 61 43 130 89 69
45 129 86 133 90 7 7 -48 123 -73 155 -4 6 -17 26 -28 45 -83 148 -147 257
-159 271 -7 9 -10 19 -6 22 3 4 1 7 -5 7 -7 0 -12 7 -12 15 0 8 -4 15 -10 15
-5 0 -10 5 -10 11 0 9 -34 69 -164 289 -15 25 -29 53 -33 63 -3 9 -9 17 -14
17 -5 0 -9 5 -9 10 0 6 -11 27 -23 48 -13 20 -35 57 -49 82 -59 105 -71 126
-90 153 -11 15 -16 27 -13 27 4 0 -1 7 -9 16 -9 8 -16 22 -16 30 0 8 -3 14 -7
14 -5 0 -13 10 -19 23 -13 27 -120 212 -142 247 -9 14 -17 27 -17 30 0 3 -12
23 -26 45 -14 22 -29 47 -32 55 -4 8 -16 29 -27 45 -11 17 -24 40 -30 52 -12
29 -158 173 -175 173 -3 0 -17 8 -32 17 -14 10 -31 18 -37 20 -6 1 -38 12 -71
25 -56 21 -79 22 -366 26 l-306 4 -1 -256z"/>
<path d="M3845 8968 c5 -41 12 -94 20 -148 2 -14 7 -49 10 -79 4 -30 8 -62 10
-71 2 -9 6 -43 9 -76 4 -32 9 -74 12 -92 4 -17 8 -47 9 -65 2 -17 6 -50 10
-72 3 -22 8 -60 10 -85 2 -25 5 -45 6 -45 0 0 2 -11 4 -25 1 -14 5 -47 9 -75
3 -27 8 -72 11 -100 3 -27 8 -70 11 -95 3 -25 7 -67 10 -95 2 -27 6 -66 8 -85
2 -19 7 -60 10 -90 13 -121 15 -137 20 -180 4 -25 8 -69 10 -99 5 -58 -2 -48
136 -191 492 -509 567 -587 656 -685 62 -68 196 -213 265 -285 36 -39 65 -71
65 -73 -1 -1 12 -15 28 -32 l29 -30 -7 60 c-4 33 -9 74 -11 90 -3 17 -7 50
-10 75 -3 25 -8 63 -10 85 -3 22 -8 56 -11 75 -3 19 -7 55 -9 80 -2 25 -5 45
-5 45 -1 0 -3 11 -5 25 -2 14 -6 45 -9 70 -4 25 -9 61 -11 80 -2 19 -6 51 -9
70 -6 41 -14 115 -22 185 -2 28 -7 64 -9 81 -2 17 -7 57 -10 90 -4 32 -8 75
-10 94 -7 57 -16 142 -20 190 -2 25 -4 45 -5 45 -2 0 -6 30 -14 115 -12 136
-12 135 -99 224 -240 245 -598 618 -708 739 -24 27 -69 75 -99 107 -30 32 -92
98 -136 147 -130 140 -133 143 -139 143 -3 0 -3 -19 0 -42z"/>
<path d="M9718 7678 c-51 -34 -95 -65 -98 -68 -6 -6 -172 -119 -198 -135 -27
-16 -32 -28 -18 -45 7 -8 26 -40 42 -70 16 -30 31 -57 34 -60 10 -10 41 -65
47 -82 3 -10 9 -18 14 -18 5 0 9 -5 9 -11 0 -6 23 -48 50 -95 28 -47 50 -87
50 -90 0 -3 5 -10 10 -17 20 -23 119 -197 112 -197 -4 0 -2 -4 4 -8 13 -8 114
-180 114 -193 0 -5 4 -9 9 -9 5 0 11 -8 14 -17 5 -17 31 -62 85 -153 30 -50
81 -138 107 -185 42 -76 50 -90 56 -95 4 -3 19 -27 34 -55 14 -27 36 -66 47
-85 12 -19 46 -78 76 -130 30 -52 71 -122 92 -155 58 -95 58 -105 5 -190 -14
-22 -28 -47 -32 -55 -4 -8 -24 -43 -45 -78 -21 -34 -38 -67 -38 -72 0 -6 -4
-10 -8 -10 -4 0 -15 -15 -23 -32 -21 -44 -53 -102 -59 -108 -3 -3 -19 -27 -34
-54 l-29 -49 29 -21 c56 -42 315 -216 320 -216 3 0 12 -6 19 -12 35 -32 45
-38 60 -38 8 0 15 4 15 10 0 5 17 38 38 72 21 35 47 80 56 101 10 20 22 37 27
37 5 0 9 5 9 11 0 6 31 63 68 127 38 64 80 137 93 162 13 25 26 47 29 50 7 6
37 78 45 106 23 85 23 223 1 309 -10 36 -58 148 -67 155 -6 5 -20 29 -85 148
-15 26 -33 54 -40 63 -8 8 -14 19 -14 22 0 4 -11 24 -23 45 -13 20 -35 57 -49
82 -37 67 -62 109 -97 168 -17 29 -31 57 -31 62 0 6 -4 10 -9 10 -5 0 -11 8
-15 18 -3 9 -17 35 -30 57 -14 22 -32 54 -40 70 -9 17 -25 44 -35 60 -11 17
-32 53 -47 80 -14 28 -29 52 -33 55 -4 3 -12 16 -19 30 -6 14 -16 32 -21 40
-23 37 -80 135 -132 228 -12 20 -30 49 -41 65 -11 15 -16 27 -11 27 4 0 4 4
-2 8 -5 4 -18 21 -27 37 -73 130 -103 180 -110 183 -4 2 -8 8 -8 13 0 5 -26
53 -57 106 -32 54 -64 110 -72 126 -8 15 -18 27 -22 27 -4 0 -49 -28 -101 -62z"/>
<path d="M5971 7318 c-50 -136 -219 -627 -226 -658 -1 -3 -7 -18 -13 -33 -7
-16 -12 -32 -12 -37 0 -4 -21 -70 -46 -147 -26 -76 -47 -142 -48 -148 -1 -5
-4 -14 -7 -20 -4 -5 -10 -23 -14 -40 -5 -16 -9 -34 -11 -40 -1 -5 -14 -48 -29
-95 -15 -47 -30 -96 -34 -110 -14 -44 -3 -106 32 -182 19 -40 54 -113 77 -163
81 -173 103 -220 105 -225 1 -5 42 -92 111 -235 21 -44 38 -82 39 -85 0 -3 20
-45 44 -95 75 -155 111 -235 111 -245 0 -6 5 -10 10 -10 6 0 9 -3 8 -7 -3 -12
84 -193 92 -193 8 0 38 68 63 140 9 25 37 99 62 165 26 66 48 125 49 130 1 9
18 55 36 100 4 11 18 47 30 80 12 33 28 74 35 90 7 17 16 41 20 54 4 13 14 40
23 60 9 20 15 39 14 43 -1 4 9 31 22 60 40 88 72 190 75 241 3 54 -16 121 -80
282 -7 17 -13 37 -15 45 -2 9 -10 32 -19 53 -8 20 -15 38 -14 39 0 2 -9 28
-21 58 -12 30 -42 111 -66 180 -25 69 -48 132 -51 140 -4 8 -7 17 -8 20 -1 3
-7 18 -13 33 -7 16 -12 32 -12 36 0 8 -34 98 -51 136 -5 11 -11 30 -14 42 -2
12 -8 30 -13 40 -5 10 -26 68 -47 128 -21 61 -42 114 -46 120 -5 5 -9 15 -9
21 0 7 -5 25 -12 41 -6 15 -12 30 -13 33 -1 3 -4 12 -7 20 -26 71 -42 116 -43
120 -3 18 -30 80 -35 80 -3 0 -16 -28 -29 -62z"/>
<path d="M429 6498 c-13 -24 -28 -50 -34 -59 -5 -9 -21 -36 -34 -60 -13 -24
-26 -46 -30 -49 -3 -3 -17 -26 -29 -52 -13 -25 -39 -69 -57 -97 -19 -28 -31
-51 -28 -51 3 0 -1 -8 -9 -17 -8 -10 -26 -38 -39 -63 -13 -25 -28 -52 -35 -60
-24 -32 -87 -156 -106 -209 -25 -71 -32 -214 -14 -299 14 -66 52 -151 115
-255 21 -34 48 -82 62 -107 13 -25 28 -49 32 -55 17 -22 116 -196 122 -215 3
-11 10 -20 14 -20 5 0 14 -15 22 -32 7 -18 16 -35 19 -38 3 -3 46 -75 96 -160
49 -85 94 -162 99 -172 6 -9 17 -29 26 -45 19 -34 125 -216 150 -258 10 -16
37 -64 61 -105 23 -41 64 -110 90 -153 26 -43 48 -81 48 -83 0 -3 28 -52 63
-110 60 -101 75 -128 161 -280 22 -38 44 -71 48 -72 4 -2 8 -8 8 -13 0 -9 41
-81 133 -234 9 -16 20 -38 23 -47 4 -10 9 -18 13 -18 4 0 13 -16 21 -35 8 -19
17 -35 22 -35 4 0 8 -4 8 -10 0 -5 24 -50 54 -99 30 -49 51 -92 48 -95 -3 -3
0 -6 6 -6 7 0 12 -4 12 -8 0 -9 93 -169 110 -189 5 -7 10 -14 10 -17 0 -4 68
-125 76 -135 3 -3 172 106 184 120 3 3 58 40 122 83 65 43 118 83 118 87 0 5
-18 39 -40 75 -22 36 -40 67 -40 69 0 2 -18 33 -40 69 -22 36 -40 70 -40 76 0
5 -4 10 -9 10 -5 0 -11 8 -14 18 -3 9 -19 38 -34 64 -59 98 -83 141 -83 149 0
5 -4 9 -10 9 -5 0 -10 4 -10 9 0 6 -30 61 -67 123 -36 62 -76 131 -88 153 -37
69 -50 90 -56 95 -3 3 -20 30 -36 61 -17 32 -38 68 -46 80 -32 52 -131 224
-132 229 0 3 -8 16 -16 30 -36 56 -109 181 -109 186 0 3 -8 17 -19 32 -16 23
-121 203 -191 327 -13 22 -31 54 -41 70 -11 17 -22 37 -26 45 -3 8 -14 26 -23
40 -10 14 -28 45 -42 70 -49 86 -205 355 -246 422 -22 37 -43 77 -47 88 -3 11
-11 20 -16 20 -6 0 -7 5 -4 10 3 6 1 10 -4 10 -6 0 -11 4 -11 10 0 5 -25 50
-55 101 -30 50 -55 95 -55 99 0 4 -6 13 -14 19 -20 17 -32 91 -16 101 6 4 12
13 13 21 2 8 11 28 22 44 37 56 45 70 61 105 9 19 19 37 23 40 4 3 40 64 81
135 41 72 78 132 82 133 4 2 8 12 8 23 0 10 5 19 10 19 6 0 10 7 10 15 0 8 4
15 9 15 5 0 11 8 14 18 2 9 8 24 11 33 5 12 -32 42 -154 125 -89 60 -169 114
-178 119 -9 6 -30 20 -45 33 -16 12 -32 22 -36 22 -4 0 -18 -19 -32 -42z"/>
<path d="M3710 6324 c0 -3 9 -19 21 -35 11 -16 17 -29 12 -29 -4 0 -3 -4 3 -8
6 -4 23 -29 38 -57 29 -53 41 -74 67 -115 9 -14 33 -56 54 -95 20 -38 44 -77
51 -86 8 -8 14 -18 14 -21 0 -5 150 -262 247 -423 13 -22 26 -48 30 -57 3 -10
9 -18 13 -18 4 0 11 -11 14 -25 4 -14 11 -25 16 -25 6 0 10 -4 10 -10 0 -19
261 -455 291 -488 17 -18 45 -40 63 -49 17 -9 34 -21 38 -27 4 -6 8 -8 8 -4 0
6 113 -29 165 -52 24 -10 69 -24 73 -21 1 1 15 -5 32 -14 16 -8 37 -16 47 -18
10 -2 27 -8 38 -14 11 -6 25 -11 30 -12 21 -2 81 -24 94 -35 8 -6 15 -10 15
-8 1 5 59 -9 71 -18 6 -3 30 -13 55 -20 25 -7 51 -18 58 -23 6 -5 12 -6 12 -3
0 4 10 1 23 -6 12 -6 27 -13 32 -14 25 -4 201 -68 210 -76 5 -4 18 -8 30 -8
12 0 25 -4 31 -9 5 -5 26 -13 47 -16 45 -9 48 -20 -40 165 -35 73 -66 144 -69
157 -3 12 -12 27 -20 34 -8 6 -11 15 -8 20 3 5 0 9 -5 9 -6 0 -11 9 -11 19 0
11 -7 26 -15 35 -8 8 -15 19 -15 25 0 5 -21 54 -47 108 -26 54 -48 100 -49
103 -11 37 -18 50 -25 50 -5 0 -9 6 -9 13 0 6 -15 44 -34 82 -89 185 -106 223
-106 234 0 6 -5 11 -11 11 -5 0 -7 5 -4 10 3 6 1 10 -6 10 -7 0 -10 2 -7 6 11
10 -113 249 -143 276 -16 14 -80 47 -142 73 -62 25 -121 50 -132 55 -74 33
-216 90 -227 90 -7 0 -22 7 -32 15 -10 8 -23 12 -27 9 -5 -3 -9 -1 -9 4 0 5
-6 9 -12 10 -11 0 -109 39 -273 107 -11 4 -24 9 -30 10 -5 2 -84 32 -175 68
-139 54 -226 86 -250 92 -3 1 -14 5 -25 10 -96 39 -95 38 -95 29z"/>
<path d="M6980 5613 c-14 -38 -25 -71 -26 -75 -1 -5 -2 -9 -4 -10 -1 -2 -3
-11 -5 -20 -3 -18 -23 -84 -32 -108 -3 -8 -7 -20 -8 -25 -2 -6 -24 -76 -50
-157 -25 -81 -48 -153 -49 -160 -2 -7 -6 -20 -9 -28 -15 -39 -108 -347 -109
-357 0 -5 -3 -12 -7 -18 -5 -5 -12 -23 -16 -40 -12 -45 -12 -45 -15 -47 -1 -2
-3 -11 -5 -21 -4 -19 -41 -142 -87 -287 -16 -52 -31 -99 -32 -105 -2 -5 -9
-30 -16 -55 -7 -25 -14 -50 -16 -56 -1 -6 -5 -22 -10 -35 -6 -21 -9 -64 -4
-71 1 -2 3 -25 6 -51 2 -27 9 -58 16 -70 7 -12 11 -25 10 -29 -1 -5 2 -8 8 -8
5 0 10 -6 10 -13 0 -12 63 -152 90 -199 6 -10 10 -25 10 -33 0 -8 5 -15 10
-15 6 0 10 -6 10 -13 0 -8 15 -45 34 -83 18 -38 47 -98 64 -134 35 -75 117
-248 175 -370 22 -47 41 -87 42 -90 1 -3 24 -52 52 -110 27 -58 53 -113 56
-122 13 -36 33 -17 56 50 12 37 26 76 31 87 9 20 42 121 46 140 1 6 19 57 39
115 20 58 38 112 40 120 2 8 20 62 40 120 20 58 37 110 39 115 9 41 62 191 68
193 5 2 6 7 3 12 -2 4 9 44 25 88 16 45 32 91 34 104 3 13 28 90 56 173 28 82
53 162 55 177 5 25 -20 117 -45 173 -17 38 -110 281 -110 288 0 4 -8 26 -19
50 -10 23 -29 69 -41 102 -12 33 -26 69 -31 80 -15 34 -113 289 -115 300 -1 6
-30 80 -64 165 -34 85 -74 189 -90 230 -15 41 -32 86 -38 100 -5 14 -10 28
-11 33 -1 9 -31 67 -34 67 -2 0 -14 -30 -27 -67z"/>
<path d="M4387 4452 c3 -9 9 -21 13 -27 4 -5 21 -35 37 -65 46 -84 84 -152
103 -185 10 -16 29 -50 42 -75 77 -141 253 -456 258 -460 3 -3 13 -21 22 -40
15 -31 42 -79 106 -192 12 -21 38 -68 58 -105 21 -37 48 -85 61 -105 13 -21
23 -40 23 -42 0 -10 69 -122 88 -143 18 -22 107 -66 157 -79 9 -2 347 -136
390 -154 19 -8 106 -43 150 -60 11 -4 31 -12 45 -18 22 -10 77 -33 90 -37 14
-5 47 -18 65 -25 98 -42 609 -240 621 -240 16 0 17 4 5 28 -5 9 -23 46 -39 82
-16 36 -53 115 -82 175 -29 61 -53 116 -53 123 0 6 -4 12 -9 12 -4 0 -8 4 -8
10 0 9 -28 71 -132 290 -28 58 -62 130 -75 160 -14 30 -65 136 -113 235 -99
201 -129 240 -225 284 -161 75 -520 226 -520 220 0 -2 -13 4 -30 13 -31 17
-52 26 -165 73 -36 15 -76 32 -90 38 -14 6 -27 11 -30 12 -3 0 -15 6 -26 13
-12 6 -24 8 -28 5 -3 -3 -6 -1 -6 6 0 7 -4 10 -9 6 -5 -3 -12 -1 -15 4 -3 5
-18 12 -32 15 -14 4 -45 15 -68 26 -22 10 -81 35 -131 55 -49 21 -106 44 -125
52 -70 31 -96 42 -160 67 -36 15 -74 31 -85 36 -11 4 -34 13 -52 18 -28 9 -31
8 -26 -6z"/>
<path d="M9780 4430 c-8 -6 -12 -10 -8 -10 4 0 -6 -23 -22 -50 -17 -28 -30
-55 -30 -60 0 -6 -4 -10 -10 -10 -5 0 -10 -4 -10 -10 0 -5 -18 -39 -40 -75
-22 -36 -40 -70 -40 -75 0 -6 -4 -10 -9 -10 -5 0 -12 -9 -16 -20 -5 -16 -93
-171 -125 -220 -6 -8 -14 -24 -20 -35 -5 -11 -23 -42 -40 -70 -17 -27 -38 -65
-47 -82 -9 -18 -20 -33 -25 -33 -4 0 -8 -5 -8 -12 0 -6 -35 -71 -77 -142 -114
-195 -167 -288 -183 -318 -7 -16 -17 -28 -22 -28 -4 0 -8 -9 -8 -20 0 -11 -4
-20 -10 -20 -5 0 -10 -7 -10 -15 0 -8 -4 -15 -10 -15 -5 0 -10 -4 -10 -9 0 -5
-45 -87 -100 -181 -55 -95 -100 -176 -100 -181 0 -5 -4 -9 -8 -9 -5 0 -14 -16
-22 -35 -8 -19 -17 -35 -22 -35 -4 0 -8 -4 -8 -9 0 -6 -61 -113 -135 -240 -74
-126 -135 -234 -135 -240 0 -5 -4 -11 -8 -13 -6 -2 -221 -368 -266 -453 -6
-11 -14 -22 -17 -25 -3 -3 -17 -25 -30 -50 -79 -140 -144 -250 -162 -275 -15
-19 -27 -20 -239 -21 l-223 0 0 -42 c0 -23 -4 -42 -9 -42 -5 0 -4 -6 1 -12 5
-7 8 -24 6 -38 -2 -14 -3 -31 -3 -37 0 -22 0 -42 -1 -55 0 -7 2 -25 4 -40 2
-16 0 -28 -6 -28 -6 0 -6 -5 0 -12 9 -13 9 -95 0 -104 -3 -3 -1 -19 3 -35 5
-16 5 -29 0 -29 -4 0 -6 -9 -3 -20 5 -20 12 -21 257 -19 281 1 331 9 446 70
54 28 154 116 196 170 6 8 55 91 109 184 54 94 107 184 119 200 11 17 21 32
20 35 0 5 10 24 82 145 20 33 46 78 59 100 12 22 52 91 89 154 36 62 66 118
66 122 0 5 5 9 10 9 6 0 10 4 10 9 0 9 79 152 89 161 9 8 39 61 57 103 9 20
20 37 24 37 5 0 12 9 15 20 4 11 40 77 81 146 41 69 74 130 74 135 0 5 5 9 10
9 6 0 10 4 10 10 0 5 24 49 53 97 28 48 63 109 77 136 14 26 28 47 32 47 5 0
8 5 8 10 0 9 130 239 150 265 4 6 19 31 33 56 46 84 52 94 62 101 6 4 6 8 1 8
-5 0 -2 8 6 18 8 9 27 40 43 67 38 68 126 219 197 338 32 54 58 102 58 107 0
4 3 10 8 12 4 2 16 19 26 38 60 110 82 148 103 178 23 35 22 57 -5 66 -9 3
-66 39 -125 81 -59 41 -112 75 -117 75 -4 0 -10 4 -12 8 -1 5 -30 26 -63 47
-33 21 -65 42 -70 46 -6 4 -17 4 -25 -1z"/>
<path d="M2497 2005 c-42 -30 -82 -55 -87 -55 -6 0 -10 -3 -10 -8 0 -4 -8 -12
-19 -17 -27 -15 -105 -67 -111 -75 -3 -3 -23 -17 -45 -30 -22 -13 -49 -32 -59
-42 -19 -18 -19 -18 4 -60 12 -24 28 -50 34 -58 10 -13 27 -43 60 -105 6 -11
13 -22 16 -25 9 -9 51 -85 57 -102 3 -10 9 -18 14 -18 5 0 9 -4 9 -9 0 -10
169 -301 209 -361 30 -44 128 -128 184 -158 24 -12 70 -32 103 -45 57 -21 71
-22 522 -25 439 -3 462 -2 463 15 5 93 0 485 -5 491 -4 4 -193 7 -419 7 l-412
0 -37 55 c-20 30 -45 71 -56 90 -21 39 -36 64 -112 195 -29 50 -61 106 -72
125 -11 19 -42 72 -69 116 -27 45 -49 87 -49 93 0 6 -4 11 -9 11 -5 0 -13 11
-18 25 l-8 25 -78 -55z"/>
<path d="M4250 1068 l0 -258 1269 0 1268 0 -1 258 0 257 -1268 0 -1268 0 0
-257z"/>
</g>
</svg>
