<svg width="606" height="206" viewBox="0 0 606 206" fill="none" xmlns="http://www.w3.org/2000/svg">
<g opacity="0.3">
<path d="M537.938 207.508L-75.1714 78.8068L408.698 -319.109L537.938 207.508Z" stroke="url(#paint0_linear_77_1235)"/>
<path d="M391.442 -299.824L-72.9095 98.4563L532.277 212.506L391.442 -299.824Z" stroke="url(#paint1_linear_77_1235)"/>
<path d="M374.481 -279.011L-69.1572 117.867L525.788 217.397L374.481 -279.011Z" stroke="url(#paint2_linear_77_1235)"/>
<path d="M358.149 -257.562L-65.0201 137.322L519.181 222.852L358.149 -257.562Z" stroke="url(#paint3_linear_77_1235)"/>
<path d="M342.453 -235.52L-60.5133 156.792L512.464 228.852L342.453 -235.52Z" stroke="url(#paint4_linear_77_1235)"/>
<path d="M327.419 -212.884L-55.6328 176.289L505.661 235.417L327.419 -212.884Z" stroke="url(#paint5_linear_77_1235)"/>
<path d="M313.069 -189.703L-50.3783 195.776L498.794 242.519L313.069 -189.703Z" stroke="url(#paint6_linear_77_1235)"/>
<path d="M299.429 -165.98L-44.7431 215.262L491.892 250.175L299.429 -165.98Z" stroke="url(#paint7_linear_77_1235)"/>
<path d="M286.5 -141.743L-38.7475 234.734L484.956 258.379L286.5 -141.743Z" stroke="url(#paint8_linear_77_1235)"/>
<path d="M274.312 -117.018L-32.3811 254.178L478.02 267.126L274.312 -117.018Z" stroke="url(#paint9_linear_77_1235)"/>
<path d="M262.891 -91.8277L-25.6376 273.586L471.111 276.411L262.891 -91.8277Z" stroke="url(#paint10_linear_77_1235)"/>
<path d="M252.236 -66.2005L-18.5349 292.944L464.236 286.228L252.236 -66.2005Z" stroke="url(#paint11_linear_77_1235)"/>
<path d="M242.369 -40.1584L-11.0715 312.245L457.418 296.574L242.369 -40.1584Z" stroke="url(#paint12_linear_77_1235)"/>
<path d="M233.332 -13.7247L-3.2225 331.481L450.706 307.445L233.332 -13.7247Z" stroke="url(#paint13_linear_77_1235)"/>
<path d="M225.091 13.0693L4.96206 350.637L444.073 318.83L225.091 13.0693Z" stroke="url(#paint14_linear_77_1235)"/>
<path d="M217.7 40.2075L13.5178 369.712L437.578 330.732L217.7 40.2075Z" stroke="url(#paint15_linear_77_1235)"/>
<path d="M211.136 67.6544L22.4056 388.688L431.207 343.135L211.136 67.6544Z" stroke="url(#paint16_linear_77_1235)"/>
<path d="M205.444 95.3898L31.6568 407.56L425.013 356.035L205.444 95.3898Z" stroke="url(#paint17_linear_77_1235)"/>
<path d="M200.62 123.379L41.251 426.312L419.001 369.419L200.62 123.379Z" stroke="url(#paint18_linear_77_1235)"/>
<path d="M196.662 151.613L51.1719 444.951L413.177 383.293L196.662 151.613Z" stroke="url(#paint19_linear_77_1235)"/>
<path d="M193.606 180.049L61.4417 463.453L407.589 397.635L193.606 180.049Z" stroke="url(#paint20_linear_77_1235)"/>
</g>
<defs>
<linearGradient id="paint0_linear_77_1235" x1="-76.2935" y1="79.0822" x2="473.804" y2="-55.9197" gradientUnits="userSpaceOnUse">
<stop stop-color="white"/>
<stop offset="0.786458" stop-color="white" stop-opacity="0"/>
</linearGradient>
<linearGradient id="paint1_linear_77_1235" x1="-72.9095" y1="98.4563" x2="460.61" y2="-48.2033" gradientUnits="userSpaceOnUse">
<stop stop-color="white"/>
<stop offset="0.786458" stop-color="white" stop-opacity="0"/>
</linearGradient>
<linearGradient id="paint2_linear_77_1235" x1="-69.1572" y1="117.867" x2="447.455" y2="-39.5984" gradientUnits="userSpaceOnUse">
<stop stop-color="white"/>
<stop offset="0.786458" stop-color="white" stop-opacity="0"/>
</linearGradient>
<linearGradient id="paint3_linear_77_1235" x1="-65.0201" y1="137.322" x2="434.4" y2="-30.0808" gradientUnits="userSpaceOnUse">
<stop stop-color="white"/>
<stop offset="0.786458" stop-color="white" stop-opacity="0"/>
</linearGradient>
<linearGradient id="paint4_linear_77_1235" x1="-60.5133" y1="156.792" x2="421.478" y2="-19.6691" gradientUnits="userSpaceOnUse">
<stop stop-color="white"/>
<stop offset="0.786458" stop-color="white" stop-opacity="0"/>
</linearGradient>
<linearGradient id="paint5_linear_77_1235" x1="-55.6328" y1="176.289" x2="408.743" y2="-8.34414" gradientUnits="userSpaceOnUse">
<stop stop-color="white"/>
<stop offset="0.786458" stop-color="white" stop-opacity="0"/>
</linearGradient>
<linearGradient id="paint6_linear_77_1235" x1="-50.3783" y1="195.776" x2="396.244" y2="3.86268" gradientUnits="userSpaceOnUse">
<stop stop-color="white"/>
<stop offset="0.786458" stop-color="white" stop-opacity="0"/>
</linearGradient>
<linearGradient id="paint7_linear_77_1235" x1="-44.7431" y1="215.262" x2="384.036" y2="16.9613" gradientUnits="userSpaceOnUse">
<stop stop-color="white"/>
<stop offset="0.786458" stop-color="white" stop-opacity="0"/>
</linearGradient>
<linearGradient id="paint8_linear_77_1235" x1="-38.7475" y1="234.734" x2="372.147" y2="30.9351" gradientUnits="userSpaceOnUse">
<stop stop-color="white"/>
<stop offset="0.786458" stop-color="white" stop-opacity="0"/>
</linearGradient>
<linearGradient id="paint9_linear_77_1235" x1="-32.3811" y1="254.178" x2="360.635" y2="45.7659" gradientUnits="userSpaceOnUse">
<stop stop-color="white"/>
<stop offset="0.786458" stop-color="white" stop-opacity="0"/>
</linearGradient>
<linearGradient id="paint10_linear_77_1235" x1="-25.6376" y1="273.586" x2="349.553" y2="61.4344" gradientUnits="userSpaceOnUse">
<stop stop-color="white"/>
<stop offset="0.786458" stop-color="white" stop-opacity="0"/>
</linearGradient>
<linearGradient id="paint11_linear_77_1235" x1="-18.5349" y1="292.944" x2="338.928" y2="77.916" gradientUnits="userSpaceOnUse">
<stop stop-color="white"/>
<stop offset="0.786458" stop-color="white" stop-opacity="0"/>
</linearGradient>
<linearGradient id="paint12_linear_77_1235" x1="-11.0715" y1="312.245" x2="328.806" y2="95.1877" gradientUnits="userSpaceOnUse">
<stop stop-color="white"/>
<stop offset="0.786458" stop-color="white" stop-opacity="0"/>
</linearGradient>
<linearGradient id="paint13_linear_77_1235" x1="-3.22249" y1="331.481" x2="319.253" y2="113.224" gradientUnits="userSpaceOnUse">
<stop stop-color="white"/>
<stop offset="0.786458" stop-color="white" stop-opacity="0"/>
</linearGradient>
<linearGradient id="paint14_linear_77_1235" x1="4.96206" y1="350.637" x2="310.259" y2="131.988" gradientUnits="userSpaceOnUse">
<stop stop-color="white"/>
<stop offset="0.786458" stop-color="white" stop-opacity="0"/>
</linearGradient>
<linearGradient id="paint15_linear_77_1235" x1="13.5178" y1="369.712" x2="301.898" y2="151.458" gradientUnits="userSpaceOnUse">
<stop stop-color="white"/>
<stop offset="0.786458" stop-color="white" stop-opacity="0"/>
</linearGradient>
<linearGradient id="paint16_linear_77_1235" x1="22.4056" y1="388.688" x2="294.165" y2="171.589" gradientUnits="userSpaceOnUse">
<stop stop-color="white"/>
<stop offset="0.786458" stop-color="white" stop-opacity="0"/>
</linearGradient>
<linearGradient id="paint17_linear_77_1235" x1="31.6568" y1="407.56" x2="287.126" y2="192.352" gradientUnits="userSpaceOnUse">
<stop stop-color="white"/>
<stop offset="0.786458" stop-color="white" stop-opacity="0"/>
</linearGradient>
<linearGradient id="paint18_linear_77_1235" x1="41.251" y1="426.312" x2="280.789" y2="213.702" gradientUnits="userSpaceOnUse">
<stop stop-color="white"/>
<stop offset="0.786458" stop-color="white" stop-opacity="0"/>
</linearGradient>
<linearGradient id="paint19_linear_77_1235" x1="51.1719" y1="444.951" x2="275.168" y2="235.617" gradientUnits="userSpaceOnUse">
<stop stop-color="white"/>
<stop offset="0.786458" stop-color="white" stop-opacity="0"/>
</linearGradient>
<linearGradient id="paint20_linear_77_1235" x1="61.4417" y1="463.453" x2="270.309" y2="258.044" gradientUnits="userSpaceOnUse">
<stop stop-color="white"/>
<stop offset="0.786458" stop-color="white" stop-opacity="0"/>
</linearGradient>
</defs>
</svg>
