<svg width="391" height="206" viewBox="0 0 391 206" fill="none" xmlns="http://www.w3.org/2000/svg">
<g opacity="0.5">
<path d="M172.06 237.6L721.709 -22.8754L275.018 -130.221L172.06 237.6Z" stroke="url(#paint0_linear_77_1325)"/>
<path d="M139.079 230.666L692.624 2.52868L292.722 -135.653L139.079 230.666Z" stroke="url(#paint1_linear_77_1325)"/>
<path d="M113.557 221.146L665.396 26.1614L314.149 -140.142L113.557 221.146Z" stroke="url(#paint2_linear_77_1325)"/>
<path d="M95.4433 209.538L640.215 48.135L338.897 -143.384L95.4433 209.538Z" stroke="url(#paint3_linear_77_1325)"/>
<path d="M84.595 196.324L617.233 68.5532L366.529 -145.124L84.595 196.324Z" stroke="url(#paint4_linear_77_1325)"/>
<path d="M80.767 181.996L596.546 87.5417L396.566 -145.123L80.767 181.996Z" stroke="url(#paint5_linear_77_1325)"/>
<path d="M83.6867 167.04L578.266 105.238L428.562 -143.17L83.6867 167.04Z" stroke="url(#paint6_linear_77_1325)"/>
<path d="M92.9713 151.943L562.429 121.798L462.02 -139.076L92.9713 151.943Z" stroke="url(#paint7_linear_77_1325)"/>
<path d="M108.209 137.158L549.074 137.37L496.475 -132.699L108.209 137.158Z" stroke="url(#paint8_linear_77_1325)"/>
<path d="M128.964 123.144L538.24 152.129L531.5 -123.907L128.964 123.144Z" stroke="url(#paint9_linear_77_1325)"/>
<path d="M154.622 110.293L529.805 166.217L566.543 -112.636L154.622 110.293Z" stroke="url(#paint10_linear_77_1325)"/>
<path d="M184.65 99.0178L523.741 179.823L601.19 -98.8125L184.65 99.0178Z" stroke="url(#paint11_linear_77_1325)"/>
<path d="M218.478 89.6606L519.989 193.103L635.046 -82.4276L218.478 89.6606Z" stroke="url(#paint12_linear_77_1325)"/>
<path d="M255.452 82.548L518.404 206.226L667.676 -63.4857L255.452 82.548Z" stroke="url(#paint13_linear_77_1325)"/>
<path d="M294.971 77.9709L518.886 219.364L698.745 -42.0181L294.971 77.9709Z" stroke="url(#paint14_linear_77_1325)"/>
<path d="M336.364 76.1476L521.256 232.65L727.89 -18.1166L336.364 76.1476Z" stroke="url(#paint15_linear_77_1325)"/>
<path d="M379.013 77.2921L525.367 246.249L754.834 8.13834L379.013 77.2921Z" stroke="url(#paint16_linear_77_1325)"/>
<path d="M422.26 81.5507L531.007 260.293L779.292 36.617L422.26 81.5507Z" stroke="url(#paint17_linear_77_1325)"/>
<path d="M465.503 89.0317L537.995 274.911L801.061 67.1738L465.503 89.0317Z" stroke="url(#paint18_linear_77_1325)"/>
<path d="M508.152 99.7888L546.124 290.211L819.967 99.6326L508.152 99.7888Z" stroke="url(#paint19_linear_77_1325)"/>
</g>
<defs>
<linearGradient id="paint0_linear_77_1325" x1="521.366" y1="-168.083" x2="574.217" y2="175.792" gradientUnits="userSpaceOnUse">
<stop stop-color="white"/>
<stop offset="1" stop-color="white" stop-opacity="0"/>
</linearGradient>
<linearGradient id="paint1_linear_77_1325" x1="528.464" y1="-157.895" x2="561.365" y2="190.824" gradientUnits="userSpaceOnUse">
<stop stop-color="white"/>
<stop offset="1" stop-color="white" stop-opacity="0"/>
</linearGradient>
<linearGradient id="paint2_linear_77_1325" x1="537.439" y1="-147.233" x2="548.7" y2="207.326" gradientUnits="userSpaceOnUse">
<stop stop-color="white"/>
<stop offset="1" stop-color="white" stop-opacity="0"/>
</linearGradient>
<linearGradient id="paint3_linear_77_1325" x1="548.095" y1="-135.938" x2="535.24" y2="225.192" gradientUnits="userSpaceOnUse">
<stop stop-color="white"/>
<stop offset="1" stop-color="white" stop-opacity="0"/>
</linearGradient>
<linearGradient id="paint4_linear_77_1325" x1="560.212" y1="-123.883" x2="519.861" y2="244.058" gradientUnits="userSpaceOnUse">
<stop stop-color="white"/>
<stop offset="1" stop-color="white" stop-opacity="0"/>
</linearGradient>
<linearGradient id="paint5_linear_77_1325" x1="573.539" y1="-110.95" x2="501.293" y2="263.198" gradientUnits="userSpaceOnUse">
<stop stop-color="white"/>
<stop offset="1" stop-color="white" stop-opacity="0"/>
</linearGradient>
<linearGradient id="paint6_linear_77_1325" x1="587.862" y1="-97.0314" x2="478.277" y2="281.326" gradientUnits="userSpaceOnUse">
<stop stop-color="white"/>
<stop offset="1" stop-color="white" stop-opacity="0"/>
</linearGradient>
<linearGradient id="paint7_linear_77_1325" x1="602.921" y1="-82.0273" x2="449.71" y2="296.38" gradientUnits="userSpaceOnUse">
<stop stop-color="white"/>
<stop offset="1" stop-color="white" stop-opacity="0"/>
</linearGradient>
<linearGradient id="paint8_linear_77_1325" x1="618.486" y1="-65.8712" x2="415.189" y2="305.298" gradientUnits="userSpaceOnUse">
<stop stop-color="white"/>
<stop offset="1" stop-color="white" stop-opacity="0"/>
</linearGradient>
<linearGradient id="paint9_linear_77_1325" x1="634.361" y1="-48.4895" x2="375.819" y2="304.136" gradientUnits="userSpaceOnUse">
<stop stop-color="white"/>
<stop offset="1" stop-color="white" stop-opacity="0"/>
</linearGradient>
<linearGradient id="paint10_linear_77_1325" x1="650.225" y1="-29.8619" x2="335.051" y2="288.766" gradientUnits="userSpaceOnUse">
<stop stop-color="white"/>
<stop offset="1" stop-color="white" stop-opacity="0"/>
</linearGradient>
<linearGradient id="paint11_linear_77_1325" x1="665.882" y1="-9.93964" x2="299.48" y2="256.77" gradientUnits="userSpaceOnUse">
<stop stop-color="white"/>
<stop offset="1" stop-color="white" stop-opacity="0"/>
</linearGradient>
<linearGradient id="paint12_linear_77_1325" x1="681.148" y1="11.2744" x2="277.597" y2="209.821" gradientUnits="userSpaceOnUse">
<stop stop-color="white"/>
<stop offset="1" stop-color="white" stop-opacity="0"/>
</linearGradient>
<linearGradient id="paint13_linear_77_1325" x1="695.784" y1="33.7809" x2="276.382" y2="154.977" gradientUnits="userSpaceOnUse">
<stop stop-color="white"/>
<stop offset="1" stop-color="white" stop-opacity="0"/>
</linearGradient>
<linearGradient id="paint14_linear_77_1325" x1="709.638" y1="57.569" x2="297.668" y2="102.632" gradientUnits="userSpaceOnUse">
<stop stop-color="white"/>
<stop offset="1" stop-color="white" stop-opacity="0"/>
</linearGradient>
<linearGradient id="paint15_linear_77_1325" x1="722.514" y1="82.5816" x2="337.118" y2="62.0087" gradientUnits="userSpaceOnUse">
<stop stop-color="white"/>
<stop offset="1" stop-color="white" stop-opacity="0"/>
</linearGradient>
<linearGradient id="paint16_linear_77_1325" x1="734.284" y1="108.787" x2="387.057" y2="37.8921" gradientUnits="userSpaceOnUse">
<stop stop-color="white"/>
<stop offset="1" stop-color="white" stop-opacity="0"/>
</linearGradient>
<linearGradient id="paint17_linear_77_1325" x1="744.791" y1="136.116" x2="439.987" y2="30.4264" gradientUnits="userSpaceOnUse">
<stop stop-color="white"/>
<stop offset="1" stop-color="white" stop-opacity="0"/>
</linearGradient>
<linearGradient id="paint18_linear_77_1325" x1="753.941" y1="164.497" x2="490.678" y2="37.035" gradientUnits="userSpaceOnUse">
<stop stop-color="white"/>
<stop offset="1" stop-color="white" stop-opacity="0"/>
</linearGradient>
<linearGradient id="paint19_linear_77_1325" x1="761.647" y1="193.836" x2="536.298" y2="54.326" gradientUnits="userSpaceOnUse">
<stop stop-color="white"/>
<stop offset="1" stop-color="white" stop-opacity="0"/>
</linearGradient>
</defs>
</svg>
