<svg width="640" height="206" viewBox="0 0 640 206" fill="none" xmlns="http://www.w3.org/2000/svg">
<g opacity="0.5">
<path d="M-549.735 288.124L214.42 -84.6675L98.076 757.574L-549.735 288.124Z" stroke="url(#paint0_linear_77_1265)"/>
<path d="M353.577 232.802L718.679 326.636L431.953 610.142L353.577 232.802Z" stroke="url(#paint1_linear_77_1265)"/>
<path d="M396.387 622.569L690.784 312.853L300.19 226.975L396.387 622.569Z" stroke="url(#paint2_linear_77_1265)"/>
<path d="M363.045 634.191L662.544 298.918L248.125 222.908L363.045 634.191Z" stroke="url(#paint3_linear_77_1265)"/>
<path d="M331.617 645.865L634.889 284.489L196.757 219.836L331.617 645.865Z" stroke="url(#paint4_linear_77_1265)"/>
<path d="M302.17 657.531L607.85 269.572L146.19 217.762L302.17 657.531Z" stroke="url(#paint5_linear_77_1265)"/>
<path d="M274.687 669.081L581.375 254.127L96.4408 216.637L274.687 669.081Z" stroke="url(#paint6_linear_77_1265)"/>
<path d="M249.166 680.392L555.434 238.1L47.5524 216.396L249.166 680.392Z" stroke="url(#paint7_linear_77_1265)"/>
<path d="M225.656 691.41L530.046 221.505L-0.385031 217.037L225.656 691.41Z" stroke="url(#paint8_linear_77_1265)"/>
<path d="M204.127 702.009L505.157 204.289L-47.3546 218.492L204.127 702.009Z" stroke="url(#paint9_linear_77_1265)"/>
<path d="M184.572 712.092L480.738 186.428L-93.3138 220.712L184.572 712.092Z" stroke="url(#paint10_linear_77_1265)"/>
<path d="M167.011 721.567L456.789 167.902L-138.192 223.656L167.011 721.567Z" stroke="url(#paint11_linear_77_1265)"/>
<path d="M151.418 730.34L433.269 148.691L-181.963 227.275L151.418 730.34Z" stroke="url(#paint12_linear_77_1265)"/>
<path d="M137.773 738.307L410.144 128.765L-224.589 231.51L137.773 738.307Z" stroke="url(#paint13_linear_77_1265)"/>
<path d="M126.072 745.376L387.401 108.109L-266.018 236.31L126.072 745.376Z" stroke="url(#paint14_linear_77_1265)"/>
<path d="M116.274 751.453L364.99 86.7024L-306.23 241.622L116.274 751.453Z" stroke="url(#paint15_linear_77_1265)"/>
<path d="M108.371 756.447L342.903 64.5302L-345.17 247.388L108.371 756.447Z" stroke="url(#paint16_linear_77_1265)"/>
<path d="M102.321 760.255L321.095 41.5669L-382.817 253.542L102.321 760.255Z" stroke="url(#paint17_linear_77_1265)"/>
<path d="M98.0788 762.793L299.523 17.8025L-419.15 260.029L98.0788 762.793Z" stroke="url(#paint18_linear_77_1265)"/>
<path d="M95.6184 763.967L278.168 -6.78041L-454.128 266.783L95.6184 763.967Z" stroke="url(#paint19_linear_77_1265)"/>
<path d="M94.904 763.698L257.004 -32.1853L-487.717 273.75L94.904 763.698Z" stroke="url(#paint20_linear_77_1265)"/>
<path d="M95.8533 761.89L235.96 -58.4347L-519.93 280.854L95.8533 761.89Z" stroke="url(#paint21_linear_77_1265)"/>
</g>
<defs>
<linearGradient id="paint0_linear_77_1265" x1="215.043" y1="-85.528" x2="-226.123" y2="523.254" gradientUnits="userSpaceOnUse">
<stop stop-color="white" stop-opacity="0"/>
<stop offset="1" stop-color="white"/>
</linearGradient>
<linearGradient id="paint1_linear_77_1265" x1="719.652" y1="326.353" x2="386.856" y2="395.477" gradientUnits="userSpaceOnUse">
<stop stop-color="white" stop-opacity="0"/>
<stop offset="1" stop-color="white"/>
</linearGradient>
<linearGradient id="paint2_linear_77_1265" x1="690.784" y1="312.853" x2="341.714" y2="397.737" gradientUnits="userSpaceOnUse">
<stop stop-color="white" stop-opacity="0"/>
<stop offset="1" stop-color="white"/>
</linearGradient>
<linearGradient id="paint3_linear_77_1265" x1="662.544" y1="298.918" x2="297.838" y2="400.823" gradientUnits="userSpaceOnUse">
<stop stop-color="white" stop-opacity="0"/>
<stop offset="1" stop-color="white"/>
</linearGradient>
<linearGradient id="paint4_linear_77_1265" x1="634.889" y1="284.489" x2="255.263" y2="404.659" gradientUnits="userSpaceOnUse">
<stop stop-color="white" stop-opacity="0"/>
<stop offset="1" stop-color="white"/>
</linearGradient>
<linearGradient id="paint5_linear_77_1265" x1="607.85" y1="269.572" x2="214.101" y2="409.23" gradientUnits="userSpaceOnUse">
<stop stop-color="white" stop-opacity="0"/>
<stop offset="1" stop-color="white"/>
</linearGradient>
<linearGradient id="paint6_linear_77_1265" x1="581.375" y1="254.127" x2="174.379" y2="414.468" gradientUnits="userSpaceOnUse">
<stop stop-color="white" stop-opacity="0"/>
<stop offset="1" stop-color="white"/>
</linearGradient>
<linearGradient id="paint7_linear_77_1265" x1="555.434" y1="238.1" x2="136.146" y2="420.287" gradientUnits="userSpaceOnUse">
<stop stop-color="white" stop-opacity="0"/>
<stop offset="1" stop-color="white"/>
</linearGradient>
<linearGradient id="paint8_linear_77_1265" x1="530.046" y1="221.505" x2="99.5019" y2="426.661" gradientUnits="userSpaceOnUse">
<stop stop-color="white" stop-opacity="0"/>
<stop offset="1" stop-color="white"/>
</linearGradient>
<linearGradient id="paint9_linear_77_1265" x1="505.157" y1="204.289" x2="64.4699" y2="433.494" gradientUnits="userSpaceOnUse">
<stop stop-color="white" stop-opacity="0"/>
<stop offset="1" stop-color="white"/>
</linearGradient>
<linearGradient id="paint10_linear_77_1265" x1="480.738" y1="186.428" x2="31.099" y2="440.709" gradientUnits="userSpaceOnUse">
<stop stop-color="white" stop-opacity="0"/>
<stop offset="1" stop-color="white"/>
</linearGradient>
<linearGradient id="paint11_linear_77_1265" x1="456.789" y1="167.902" x2="-0.536688" y2="448.228" gradientUnits="userSpaceOnUse">
<stop stop-color="white" stop-opacity="0"/>
<stop offset="1" stop-color="white"/>
</linearGradient>
<linearGradient id="paint12_linear_77_1265" x1="433.269" y1="148.691" x2="-30.4076" y2="455.969" gradientUnits="userSpaceOnUse">
<stop stop-color="white" stop-opacity="0"/>
<stop offset="1" stop-color="white"/>
</linearGradient>
<linearGradient id="paint13_linear_77_1265" x1="410.144" y1="128.765" x2="-58.4774" y2="463.833" gradientUnits="userSpaceOnUse">
<stop stop-color="white" stop-opacity="0"/>
<stop offset="1" stop-color="white"/>
</linearGradient>
<linearGradient id="paint14_linear_77_1265" x1="387.401" y1="108.109" x2="-84.6975" y2="471.726" gradientUnits="userSpaceOnUse">
<stop stop-color="white" stop-opacity="0"/>
<stop offset="1" stop-color="white"/>
</linearGradient>
<linearGradient id="paint15_linear_77_1265" x1="364.99" y1="86.7024" x2="-109.056" y2="479.551" gradientUnits="userSpaceOnUse">
<stop stop-color="white" stop-opacity="0"/>
<stop offset="1" stop-color="white"/>
</linearGradient>
<linearGradient id="paint16_linear_77_1265" x1="342.903" y1="64.5302" x2="-131.509" y2="487.203" gradientUnits="userSpaceOnUse">
<stop stop-color="white" stop-opacity="0"/>
<stop offset="1" stop-color="white"/>
</linearGradient>
<linearGradient id="paint17_linear_77_1265" x1="321.095" y1="41.5669" x2="-152.053" y2="494.569" gradientUnits="userSpaceOnUse">
<stop stop-color="white" stop-opacity="0"/>
<stop offset="1" stop-color="white"/>
</linearGradient>
<linearGradient id="paint18_linear_77_1265" x1="299.523" y1="17.8025" x2="-170.688" y2="501.542" gradientUnits="userSpaceOnUse">
<stop stop-color="white" stop-opacity="0"/>
<stop offset="1" stop-color="white"/>
</linearGradient>
<linearGradient id="paint19_linear_77_1265" x1="278.168" y1="-6.78041" x2="-187.4" y2="508.008" gradientUnits="userSpaceOnUse">
<stop stop-color="white" stop-opacity="0"/>
<stop offset="1" stop-color="white"/>
</linearGradient>
<linearGradient id="paint20_linear_77_1265" x1="257.004" y1="-32.1853" x2="-202.188" y2="513.862" gradientUnits="userSpaceOnUse">
<stop stop-color="white" stop-opacity="0"/>
<stop offset="1" stop-color="white"/>
</linearGradient>
<linearGradient id="paint21_linear_77_1265" x1="235.96" y1="-58.4347" x2="-215.102" y2="518.979" gradientUnits="userSpaceOnUse">
<stop stop-color="white" stop-opacity="0"/>
<stop offset="1" stop-color="white"/>
</linearGradient>
</defs>
</svg>
