<svg width="478" height="206" viewBox="0 0 478 206" fill="none" xmlns="http://www.w3.org/2000/svg">
<g opacity="0.5">
<path d="M1073.76 297.265L721.561 -189.561L354.72 286.33L1073.76 297.265Z" stroke="url(#paint0_linear_77_1295)"/>
<path d="M450.698 -81.1624L137.049 -174.601L192.284 81.3679L450.698 -81.1624Z" stroke="url(#paint1_linear_77_1295)"/>
<path d="M211.244 101.715L164.433 -170.984L492.655 -63.4622L211.244 101.715Z" stroke="url(#paint2_linear_77_1295)"/>
<path d="M229.114 120.594L192.307 -167.165L532.458 -45.3536L229.114 120.594Z" stroke="url(#paint3_linear_77_1295)"/>
<path d="M245.564 138.757L220.013 -163.826L571.213 -27.0054L245.564 138.757Z" stroke="url(#paint4_linear_77_1295)"/>
<path d="M260.596 156.149L247.545 -160.974L608.866 -8.45452L260.596 156.149Z" stroke="url(#paint5_linear_77_1295)"/>
<path d="M274.268 172.718L274.948 -158.614L645.415 10.2612L274.268 172.718Z" stroke="url(#paint6_linear_77_1295)"/>
<path d="M286.642 188.405L302.271 -156.756L680.862 29.0974L286.642 188.405Z" stroke="url(#paint7_linear_77_1295)"/>
<path d="M297.731 203.163L329.507 -155.404L715.158 48.0173L297.731 203.163Z" stroke="url(#paint8_linear_77_1295)"/>
<path d="M307.608 216.937L356.711 -154.563L748.315 66.9774L307.608 216.937Z" stroke="url(#paint9_linear_77_1295)"/>
<path d="M316.336 229.682L383.923 -154.235L780.335 85.9375L316.336 229.682Z" stroke="url(#paint10_linear_77_1295)"/>
<path d="M323.953 241.343L411.154 -154.429L811.188 104.85L323.953 241.343Z" stroke="url(#paint11_linear_77_1295)"/>
<path d="M330.519 251.879L438.438 -155.142L840.874 123.676L330.519 251.879Z" stroke="url(#paint12_linear_77_1295)"/>
<path d="M336.106 261.249L465.815 -156.373L869.401 142.374L336.106 261.249Z" stroke="url(#paint13_linear_77_1295)"/>
<path d="M340.776 269.405L493.316 -158.126L896.766 160.899L340.776 269.405Z" stroke="url(#paint14_linear_77_1295)"/>
<path d="M344.601 276.316L520.975 -160.391L922.975 179.212L344.601 276.316Z" stroke="url(#paint15_linear_77_1295)"/>
<path d="M347.634 281.935L548.809 -163.176L948.02 197.263L347.634 281.935Z" stroke="url(#paint16_linear_77_1295)"/>
<path d="M349.968 286.231L576.87 -166.471L971.928 215.014L349.968 286.231Z" stroke="url(#paint17_linear_77_1295)"/>
<path d="M351.673 289.176L605.185 -170.269L994.705 232.425L351.673 289.176Z" stroke="url(#paint18_linear_77_1295)"/>
<path d="M352.819 290.73L633.78 -174.571L1016.36 249.446L352.819 290.73Z" stroke="url(#paint19_linear_77_1295)"/>
<path d="M353.484 290.871L662.685 -179.366L1036.9 266.039L353.484 290.871Z" stroke="url(#paint20_linear_77_1295)"/>
<path d="M353.763 289.576L691.947 -184.641L1056.37 282.167L353.763 289.576Z" stroke="url(#paint21_linear_77_1295)"/>
</g>
<defs>
<linearGradient id="paint0_linear_77_1295" x1="721.574" y1="-190.397" x2="714.233" y2="292.297" gradientUnits="userSpaceOnUse">
<stop stop-color="white"/>
<stop offset="1" stop-color="white" stop-opacity="0"/>
</linearGradient>
<linearGradient id="paint1_linear_77_1295" x1="136.344" y1="-175.268" x2="268.117" y2="34.2444" gradientUnits="userSpaceOnUse">
<stop stop-color="white"/>
<stop offset="1" stop-color="white" stop-opacity="0"/>
</linearGradient>
<linearGradient id="paint2_linear_77_1295" x1="164.433" y1="-170.984" x2="295.476" y2="52.2742" gradientUnits="userSpaceOnUse">
<stop stop-color="white"/>
<stop offset="1" stop-color="white" stop-opacity="0"/>
</linearGradient>
<linearGradient id="paint3_linear_77_1295" x1="192.307" y1="-167.165" x2="321.946" y2="69.8091" gradientUnits="userSpaceOnUse">
<stop stop-color="white"/>
<stop offset="1" stop-color="white" stop-opacity="0"/>
</linearGradient>
<linearGradient id="paint4_linear_77_1295" x1="220.013" y1="-163.826" x2="347.597" y2="86.8199" gradientUnits="userSpaceOnUse">
<stop stop-color="white"/>
<stop offset="1" stop-color="white" stop-opacity="0"/>
</linearGradient>
<linearGradient id="paint5_linear_77_1295" x1="247.545" y1="-160.974" x2="372.442" y2="103.287" gradientUnits="userSpaceOnUse">
<stop stop-color="white"/>
<stop offset="1" stop-color="white" stop-opacity="0"/>
</linearGradient>
<linearGradient id="paint6_linear_77_1295" x1="274.948" y1="-158.614" x2="396.548" y2="119.194" gradientUnits="userSpaceOnUse">
<stop stop-color="white"/>
<stop offset="1" stop-color="white" stop-opacity="0"/>
</linearGradient>
<linearGradient id="paint7_linear_77_1295" x1="302.271" y1="-156.756" x2="419.979" y2="134.523" gradientUnits="userSpaceOnUse">
<stop stop-color="white"/>
<stop offset="1" stop-color="white" stop-opacity="0"/>
</linearGradient>
<linearGradient id="paint8_linear_77_1295" x1="329.507" y1="-155.404" x2="442.743" y2="149.266" gradientUnits="userSpaceOnUse">
<stop stop-color="white"/>
<stop offset="1" stop-color="white" stop-opacity="0"/>
</linearGradient>
<linearGradient id="paint9_linear_77_1295" x1="356.711" y1="-154.563" x2="464.908" y2="163.412" gradientUnits="userSpaceOnUse">
<stop stop-color="white"/>
<stop offset="1" stop-color="white" stop-opacity="0"/>
</linearGradient>
<linearGradient id="paint10_linear_77_1295" x1="383.923" y1="-154.235" x2="486.525" y2="176.958" gradientUnits="userSpaceOnUse">
<stop stop-color="white"/>
<stop offset="1" stop-color="white" stop-opacity="0"/>
</linearGradient>
<linearGradient id="paint11_linear_77_1295" x1="411.154" y1="-154.429" x2="507.612" y2="189.893" gradientUnits="userSpaceOnUse">
<stop stop-color="white"/>
<stop offset="1" stop-color="white" stop-opacity="0"/>
</linearGradient>
<linearGradient id="paint12_linear_77_1295" x1="438.438" y1="-155.142" x2="528.208" y2="202.219" gradientUnits="userSpaceOnUse">
<stop stop-color="white"/>
<stop offset="1" stop-color="white" stop-opacity="0"/>
</linearGradient>
<linearGradient id="paint13_linear_77_1295" x1="465.815" y1="-156.373" x2="548.36" y2="213.936" gradientUnits="userSpaceOnUse">
<stop stop-color="white"/>
<stop offset="1" stop-color="white" stop-opacity="0"/>
</linearGradient>
<linearGradient id="paint14_linear_77_1295" x1="493.316" y1="-158.126" x2="568.095" y2="225.042" gradientUnits="userSpaceOnUse">
<stop stop-color="white"/>
<stop offset="1" stop-color="white" stop-opacity="0"/>
</linearGradient>
<linearGradient id="paint15_linear_77_1295" x1="520.975" y1="-160.391" x2="587.449" y2="235.544" gradientUnits="userSpaceOnUse">
<stop stop-color="white"/>
<stop offset="1" stop-color="white" stop-opacity="0"/>
</linearGradient>
<linearGradient id="paint16_linear_77_1295" x1="548.809" y1="-163.176" x2="606.435" y2="245.437" gradientUnits="userSpaceOnUse">
<stop stop-color="white"/>
<stop offset="1" stop-color="white" stop-opacity="0"/>
</linearGradient>
<linearGradient id="paint17_linear_77_1295" x1="576.87" y1="-166.471" x2="625.099" y2="254.727" gradientUnits="userSpaceOnUse">
<stop stop-color="white"/>
<stop offset="1" stop-color="white" stop-opacity="0"/>
</linearGradient>
<linearGradient id="paint18_linear_77_1295" x1="605.185" y1="-170.269" x2="643.461" y2="263.424" gradientUnits="userSpaceOnUse">
<stop stop-color="white"/>
<stop offset="1" stop-color="white" stop-opacity="0"/>
</linearGradient>
<linearGradient id="paint19_linear_77_1295" x1="633.78" y1="-174.571" x2="661.535" y2="271.523" gradientUnits="userSpaceOnUse">
<stop stop-color="white"/>
<stop offset="1" stop-color="white" stop-opacity="0"/>
</linearGradient>
<linearGradient id="paint20_linear_77_1295" x1="662.685" y1="-179.366" x2="679.34" y2="279.031" gradientUnits="userSpaceOnUse">
<stop stop-color="white"/>
<stop offset="1" stop-color="white" stop-opacity="0"/>
</linearGradient>
<linearGradient id="paint21_linear_77_1295" x1="691.947" y1="-184.641" x2="696.909" y2="285.957" gradientUnits="userSpaceOnUse">
<stop stop-color="white"/>
<stop offset="1" stop-color="white" stop-opacity="0"/>
</linearGradient>
</defs>
</svg>
