<svg width="53" height="53" viewBox="0 0 53 53" fill="none" xmlns="http://www.w3.org/2000/svg">
<path fill-rule="evenodd" clip-rule="evenodd" d="M2.9622 0.242162C2.73186 0.472269 2.69404 0.599795 2.69404 1.14675C2.69404 3.24929 4.13017 5.44881 6.12386 6.39988C7.00761 6.82148 7.80338 7.04072 8.44985 7.04072H8.80743V8.91366V10.7865L8.09423 10.1299C6.95507 9.08094 5.71032 8.42809 4.26756 8.12263C3.47427 7.95463 0.709361 7.91819 0.421824 8.07191C-0.272927 8.44331 -0.0585435 10.4779 0.87494 12.3716C2.16383 14.9862 4.68037 16.6134 7.64174 16.7471L8.80743 16.7997V18.6643V20.5287L8.21163 19.9641C7.10096 18.9115 5.96936 18.2829 4.51666 17.9118C3.86833 17.7462 3.36392 17.7024 2.1029 17.7024C0.524819 17.7024 0.505961 17.7051 0.239666 17.9712C-0.0185474 18.2291 -0.0268368 18.274 0.0330538 19.0839C0.170657 20.944 0.881054 22.573 2.13544 23.9051L2.92282 24.7413H1.82894C0.635896 24.7413 0.290645 24.8383 0.115015 25.2233C0.0397889 25.3883 0 26.4427 0 28.2707C0 31.7706 0.00321214 31.7801 1.20009 31.7801H1.76149V33.5273V35.2746L1.12414 35.3207C0.589269 35.3593 0.447728 35.4122 0.243396 35.6493C0.000310853 35.9317 0 35.9358 0 38.8706V41.8091L0.249924 42.0996C0.499433 42.3895 0.502334 42.3901 2.01141 42.4256L3.52297 42.4613V44.2112V45.9612H2.01587C0.553832 45.9612 0.501091 45.9688 0.254379 46.2153L0 46.4693V49.4321V52.3949L0.302872 52.6974L0.605744 53H7.96471H15.3237L15.6144 52.7503L15.9052 52.5007L15.938 50.1183L15.9709 47.7359L17.4638 47.7026C19.5858 47.6551 19.4202 47.9308 19.4589 44.3806C19.4759 42.831 19.4631 41.457 19.4304 41.3271C19.3978 41.1972 19.279 40.9989 19.1665 40.8865C18.9816 40.7018 18.8172 40.6821 17.4594 40.6821H15.957V38.8706V37.0592H16.5607C17.0754 37.0592 17.2012 37.0198 17.4155 36.7923C17.6641 36.5281 17.667 36.5013 17.698 34.1528L17.7294 31.7801H21.4541C23.7701 31.7801 25.1789 31.8177 25.1789 31.8796C25.1789 31.9344 24.7515 33.1222 24.2289 34.5192L23.2791 37.0592H22.2602H21.2414V37.939V38.8189H30.9856H40.7298L40.6996 37.9649L40.6696 37.1109L39.6361 37.0592L38.6026 37.0074L37.6463 34.4714C37.1203 33.0765 36.6878 31.9014 36.6851 31.8599C36.6825 31.8184 39.7695 31.7718 43.545 31.7564L50.4096 31.7283L50.9948 31.4542C51.74 31.1052 52.3762 30.4696 52.7256 29.7251L53 29.1405V15.891V2.64146L52.7138 2.05921C52.3762 1.37262 51.5837 0.595551 50.8983 0.279219L50.4096 0.0536666L32.4321 0.0247867C12.4761 -0.00730195 13.6976 -0.04674 12.2523 0.676601C11.4473 1.07947 10.502 1.88283 10.0347 2.56135C9.74371 2.98388 9.70102 3.01131 9.60683 2.83607C9.34893 2.3566 8.54808 1.54103 7.90182 1.09996C6.84679 0.379729 5.90554 0.087722 4.43874 0.0255113C3.246 -0.025106 3.22694 -0.0223112 2.9622 0.242162ZM5.95413 2.0472C6.66536 2.32399 7.45917 2.90749 7.87768 3.46128C8.31535 4.04043 8.69801 4.80755 8.70153 5.11322C8.7036 5.28785 8.64838 5.30058 8.15982 5.23775C6.84482 5.06851 5.46506 4.03649 4.86781 2.7753C4.69809 2.41705 4.55924 2.03706 4.55924 1.93096C4.55914 1.75975 4.61395 1.74629 5.04749 1.8113C5.31596 1.85146 5.724 1.95766 5.95413 2.0472ZM14.9208 1.86399C14.9208 2.13043 14.4897 3.05044 14.145 3.51945C13.46 4.45178 11.9667 5.28102 10.9729 5.28102H10.6734L10.87 4.76398C11.3009 3.63135 11.8902 2.91681 12.864 2.34666C13.5719 1.9323 14.9208 1.61566 14.9208 1.86399ZM50.1798 1.90415C50.583 2.0765 51.0301 2.5363 51.1801 2.93285C51.2554 3.1319 51.2903 6.63309 51.2903 13.9827V24.7413H33.9242H16.5582L17.2937 23.9545C17.6984 23.5217 18.0293 23.1257 18.0293 23.0746C18.0293 23.02 24.1721 22.9816 32.8983 22.9816H47.7673V22.1017V21.2219H33.4164C23.004 21.2219 19.0655 21.1905 19.0655 21.1074C19.0655 21.0444 19.1312 20.7301 19.2114 20.4087C19.4437 19.4785 19.5143 18.4775 19.3669 18.2013C19.1223 17.7425 18.9866 17.7092 17.3558 17.7065C14.5926 17.7019 12.9976 18.2924 11.2683 19.9602L10.5689 20.6347V18.717V16.7993L11.7864 16.7438C13.8053 16.6518 15.4417 15.983 16.8402 14.6782C18.3926 13.23 19.2292 11.5263 19.4278 9.40886C19.4978 8.66285 19.4897 8.62083 19.2126 8.29187L18.9247 7.94997L17.104 7.99758C15.589 8.03713 15.1617 8.08422 14.5582 8.27789C13.3306 8.67165 12.2829 9.28134 11.3873 10.1231L10.5641 10.8966L10.5924 8.99968L10.6207 7.10272L11.4497 6.97882C12.7248 6.78846 13.6099 6.40454 14.5688 5.62613C14.9146 5.3454 15.0838 5.28102 15.4755 5.28102H15.957V4.68386C15.957 4.25553 16.0436 3.88071 16.2634 3.35808C16.432 2.95738 16.6012 2.43423 16.6393 2.19553L16.7088 1.76161H33.2776C47.1161 1.76161 49.9012 1.78511 50.1798 1.90415ZM17.7185 4.40117V5.28102H18.5992H19.48V4.40117V3.52132H18.5992H17.7185V4.40117ZM21.2414 4.40117V5.28102H22.1222H23.0029V4.40117V3.52132H22.1222H21.2414V4.40117ZM46.0059 12.3716V19.4621H46.8866H47.7673V12.3716V5.28102H46.8866H46.0059V12.3716ZM38.8814 13.6914L38.9081 19.4104H39.7889H40.6696L40.6963 13.6914L40.7232 7.97233H39.7889H38.8545L38.8814 13.6914ZM4.19534 9.93874C6.35575 10.4908 8.09693 12.2356 8.63719 14.3901L8.77997 14.9594L8.09714 14.9905C5.28207 15.1189 2.43126 12.8696 1.91328 10.1117L1.842 9.73203H2.61415C3.04665 9.73203 3.74202 9.82291 4.19534 9.93874ZM17.6149 9.83016C17.6149 9.88419 17.4993 10.2917 17.3581 10.7359C16.7227 12.7349 15.0703 14.2762 12.994 14.8067C12.1676 15.0178 10.6725 15.0863 10.6725 14.913C10.6725 14.859 10.7881 14.4514 10.9293 14.0073C11.5584 12.0284 13.2088 10.4763 15.2526 9.94133C16.0427 9.73462 17.6149 9.66061 17.6149 9.83016ZM42.4829 14.6012V19.4705L43.3377 19.4404L44.1926 19.4104L44.2195 14.5712L44.2464 9.73203H43.3647H42.4829V14.6012ZM31.8104 15.4769V19.4621H32.6911H33.5718V15.4769V11.4917H32.6911H31.8104V15.4769ZM35.3577 16.3309L35.3851 19.4104L36.24 19.4404L37.0948 19.4705V16.3609V13.2514H36.2125H35.3302L35.3577 16.3309ZM28.2874 17.2366V19.4621H29.1681H30.0489V17.2366V15.0111H29.1681H28.2874V17.2366ZM24.7644 17.7024V19.4621H25.6452H26.5259V17.7024V15.9427H25.6452H24.7644V17.7024ZM21.2414 18.1165V19.4621H22.1222H23.0029V18.1165V16.7708H22.1222H21.2414V18.1165ZM4.09701 19.619C5.88347 20.0727 7.40384 21.2942 8.16604 22.8885C8.39472 23.3666 8.62693 23.9791 8.68205 24.2496L8.78235 24.7413L8.09548 24.7395C6.50817 24.7354 4.92978 24.1326 3.81559 23.105C2.83941 22.2049 2.12787 20.9842 1.91328 19.8418L1.842 19.4621H2.66078C3.11099 19.4621 3.75735 19.5327 4.09701 19.619ZM17.561 19.7986C17.5222 19.9835 17.3836 20.4041 17.2527 20.7332C16.2685 23.2082 14.0276 24.7327 11.3638 24.7395L10.6561 24.7413L10.7282 24.4048C10.993 23.1687 11.5218 22.2221 12.4791 21.2705C13.6844 20.0724 15.093 19.4805 16.7682 19.4684L17.6313 19.4621L17.561 19.7986ZM14.1955 28.2607V30.0204H13.263H12.3304V29.1405V28.2607H11.4497H10.5689V29.1405V30.0204H9.68817H8.80743V29.1405V28.2607H7.92669H7.04594V29.1405V30.0204H6.1652H5.28446V29.1405V28.2607H4.40371H3.52297V29.1405V30.0204H2.64223H1.76149V28.2607V26.501H7.97849H14.1955V28.2607ZM51.2733 27.6735C51.2422 28.7216 51.2111 28.8866 50.9795 29.2278C50.837 29.4376 50.5308 29.7019 50.2991 29.8149C49.8841 30.0173 49.6251 30.0204 32.9174 30.0204H15.957V28.2607V26.501H33.6326H51.3081L51.2733 27.6735ZM15.9336 33.5656L15.962 35.2995H15.083H14.2039L14.1737 34.4455L14.1437 33.5915H13.263H12.3822L12.3522 34.4455L12.322 35.2995H11.4455H10.5689V34.4155V33.5314L9.71408 33.5615L8.85924 33.5915L8.82919 34.4455L8.79904 35.2995H7.92254H7.04594V34.4196V33.5398H6.1652H5.28446V34.4196V35.2995H4.40371H3.52297V33.5389V31.7784L9.71408 31.8051L15.9052 31.8318L15.9336 33.5656ZM35.7214 34.3679C36.2482 35.7627 36.6795 36.9388 36.6798 36.9815C36.6801 37.0243 34.0875 37.0592 30.9185 37.0592C25.4729 37.0592 25.1606 37.0492 25.228 36.878C25.2877 36.7264 26.7791 32.7566 27.0563 32.0117L27.1435 31.7775L30.9535 31.8047L34.7634 31.8318L35.7214 34.3679ZM14.1437 38.8706V40.6303H13.263H12.3822L12.3522 39.7205L12.3222 38.8106L11.4714 38.8406L10.6207 38.8706L10.5907 39.7805L10.5607 40.6904L9.70993 40.6604L8.85924 40.6303L8.82919 39.7205L8.79924 38.8106L7.94845 38.8406L7.09775 38.8706L7.0677 39.7805L7.03776 40.6904L6.18696 40.6604L5.33627 40.6303L5.30622 39.7205L5.27627 38.8106L4.42547 38.8406L3.57478 38.8706L3.54473 39.7805L3.51479 40.6904L2.66399 40.6604L1.81329 40.6303L1.7849 38.8439L1.75662 37.0575L7.9501 37.0842L14.1437 37.1109V38.8706ZM39.8901 40.9177C37.2622 41.8129 35.7866 44.4858 36.4255 47.1937C37.0514 49.8468 39.7381 51.6099 42.4437 51.1432C45.9637 50.5361 47.8431 46.7602 46.2527 43.4905C45.9021 42.7698 44.7896 41.6322 44.0883 41.2775C42.799 40.6253 41.1607 40.4848 39.8901 40.9177ZM17.6951 44.1756L17.6667 45.9094L16.8118 45.9395L15.957 45.9696V45.0855V44.2015H15.0804H14.2039L14.1737 45.0555L14.1437 45.9094H13.263H12.3822L12.3522 45.0555L12.322 44.2015H11.4455H10.5689V45.0855V45.9696L9.71408 45.9395L8.85924 45.9094L8.82919 45.0555L8.79904 44.2015H7.92254H7.04594V45.0813V45.9612H6.1652H5.28446V44.2015V42.4418H11.504H17.7234L17.6951 44.1756ZM26.8476 42.6057C24.6722 43.19 22.9989 45.3929 23.0045 47.665C23.0095 49.6879 24.1578 51.5475 25.936 52.4118C27.167 53.0101 28.2506 53.1398 29.5212 52.8406C32.8457 52.0577 34.5194 48.3951 32.9897 45.2502C32.646 44.5435 31.552 43.4296 30.8182 43.0391C29.7242 42.4567 28.0727 42.2765 26.8476 42.6057ZM42.8366 42.6544C43.583 42.9334 44.3321 43.6187 44.7144 44.3723C44.9871 44.9101 45.0215 45.0821 45.0215 45.9094C45.0215 46.6989 44.9803 46.9279 44.7513 47.4104C43.7315 49.5586 40.9656 50.1257 39.2312 48.5422C37.2498 46.7331 37.8285 43.6305 40.3343 42.6285C40.9654 42.3762 42.1244 42.3882 42.8366 42.6544ZM29.8751 44.5502C30.527 44.8689 31.1541 45.5195 31.5126 46.2494C31.7082 46.6477 31.753 46.9091 31.7554 47.6691C31.7581 48.4605 31.7181 48.6865 31.4898 49.1701C31.1494 49.8908 30.507 50.5318 29.755 50.9007C29.2529 51.1469 29.0409 51.1885 28.2874 51.1885C27.5353 51.1885 27.3215 51.1467 26.8238 50.9026C26.132 50.5632 25.3513 49.7658 25.0544 49.0953C24.2522 47.2837 25.2706 44.9788 27.1476 44.358C27.8933 44.1114 29.1598 44.2007 29.8751 44.5502ZM14.1721 49.4547L14.1437 51.1885H13.263H12.3822L12.3522 50.3346L12.322 49.4806H11.4455H10.5689V50.3605V51.2403H9.68817H8.80743V50.3605V49.4806H7.92669H7.04594V50.3605V51.2403H6.1652H5.28446V50.3605V49.4806H4.40371H3.52297V50.3605V51.2403H2.64223H1.76149V49.4806V47.7209H7.98098H14.2005L14.1721 49.4547Z" fill="#2966FF"/>
</svg>
