<svg width="1659" height="468" viewBox="0 0 1659 468" fill="none" xmlns="http://www.w3.org/2000/svg">
<path opacity="0.2" d="M1023.01 414.673C1045.63 374.262 1056.84 326.476 1056.84 271.5C1056.84 216.533 1045.63 168.979 1023 129.034C1000.96 88.6858 970.034 57.9782 930.295 37.0316C891.132 15.6272 846.024 5 795.117 5C744.195 5 698.821 15.6325 659.126 37.0325C619.919 57.9844 589.007 88.6911 566.428 129.019L566.421 129.031L566.415 129.042C544.329 168.986 533.397 216.535 533.397 271.5C533.397 326.467 544.33 374.243 566.402 414.65L566.421 414.684L566.44 414.718C589.022 454.562 619.921 485.247 659.094 506.664L659.128 506.683L659.162 506.701C698.85 527.612 744.211 538 795.117 538C846.02 538 891.124 527.613 930.287 506.687L930.295 506.683L930.303 506.678C970.029 485.26 1000.95 454.56 1023.01 414.673ZM1023.01 414.673C1023 414.681 1023 414.688 1023 414.695L1018.63 412.253M1023.01 414.673C1023.01 414.673 1023.01 414.672 1023.01 414.672L1018.63 412.253M1018.63 412.253C997.037 451.311 966.803 481.319 927.931 502.277V41.4371C966.803 61.9189 997.037 91.9271 1018.63 131.462C1040.77 170.52 1051.84 217.199 1051.84 271.5C1051.84 325.801 1040.77 372.718 1018.63 412.253ZM511.741 440.831H516.741V435.831V305.081V300.081H511.741H441.426V228.631V223.631H436.426H256.641H251.641V228.631V300.081H189.736L397.497 24.4412L403.535 16.4317H393.505H197.523H195.087L193.586 18.3495L-46.9371 325.576L-48.0001 326.934V328.658V435.831V440.831H-43.0001H245.972V521.568V526.568H250.972H436.426H441.426V521.568V440.831H511.741ZM1649 440.831H1654V435.831V305.081V300.081H1649H1578.68V228.631V223.631H1573.68H1393.9H1388.9V228.631V300.081H1326.99L1534.76 24.4412L1540.79 16.4317H1530.76H1334.78H1332.35L1330.84 18.3495L1090.32 325.576L1089.26 326.934V328.658V435.831V440.831H1094.26H1383.23V521.568V526.568H1388.23H1573.68H1578.68V521.568V440.831H1649ZM854.904 271.5C854.904 313.39 849.512 344.05 839.257 364.068C834.167 374.004 827.953 381.171 820.734 385.868C813.541 390.549 805.064 392.963 795.117 392.963C785.169 392.963 776.693 390.549 769.499 385.868C762.28 381.171 756.066 374.004 750.976 364.068C740.721 344.05 735.329 313.39 735.329 271.5C735.329 229.61 740.721 198.95 750.976 178.932C756.066 168.996 762.28 161.829 769.499 157.132C776.693 152.451 785.169 150.037 795.117 150.037C805.064 150.037 813.541 152.451 820.734 157.132C827.953 161.829 834.167 168.996 839.257 178.932C849.512 198.95 854.904 229.61 854.904 271.5Z" stroke="#2966FF" stroke-width="10"/>
</svg>
