<svg width="1242" height="412" viewBox="0 0 1242 412" fill="none" xmlns="http://www.w3.org/2000/svg">
<path d="M1242.48 200.637C1221.93 217.289 1231.62 236.056 1200.1 252.324C1164.71 270.59 1124 289.14 1046.44 301.82C968.901 314.495 716.033 405.256 624 410.907C527.856 416.811 539.825 369.235 446.589 366.617C353.449 364.003 339.032 316.781 277.991 303.614C220.848 291.289 183.333 276.336 142.857 261.363C97.7144 244.663 53.7006 222.067 37.0438 202.646C17.8571 180.275 -42.755 149.967 51.506 133.284C166.782 112.881 527.604 150.314 653.704 133.009C767.081 117.45 739.298 29.2142 844.744 11.3169C942.1 -5.20709 978.989 1.24166 1089.22 6.54816C1199.35 11.8502 1160.78 69.5887 1222.1 87.8952C1276.65 104.183 1312.44 123.446 1316.21 144.328C1319.61 163.108 1265.97 181.599 1242.48 200.637Z" fill="#3B27B6"/>
</svg>
