<svg width="320" height="842" viewBox="0 0 320 842" fill="none" xmlns="http://www.w3.org/2000/svg">
<mask id="mask0_77_2381" style="mask-type:alpha" maskUnits="userSpaceOnUse" x="-1" y="0" width="321" height="842">
<rect x="-0.000488281" width="320" height="842" fill="#D9D9D9"/>
</mask>
<g mask="url(#mask0_77_2381)">
<path d="M116.685 -370.142L-344.125 416.928L-344.37 416.526L608.241 415.923L607.945 416.605L116.685 -370.142ZM116.669 -370.229L608.617 416.122L608.992 416.767L608.223 416.732L-344.354 417.06L-344.862 417.065L-344.599 416.658L116.669 -370.229Z" fill="url(#paint0_linear_77_2381)"/>
<path d="M170.07 -367.677L-355.003 372.788L-355.166 372.371L595.473 459.111L595.079 459.721L170.07 -367.677ZM170.054 -367.763L595.849 459.309L596.24 460.042L595.471 460.006L-355.233 372.92L-355.74 372.925L-355.477 372.518L170.054 -367.763Z" fill="url(#paint1_linear_77_2381)"/>
<path d="M223.162 -360.421L-362.152 327.766L-362.314 327.349L579.221 500.885L578.745 501.511L223.162 -360.421ZM223.146 -360.508L579.515 501.099L579.824 501.846L579.039 501.724L-362.479 327.827L-362.921 327.73L-362.56 327.394L223.146 -360.508Z" fill="url(#paint2_linear_77_2381)"/>
<path d="M275.477 -348.275L-365.568 282.318L-365.648 281.885L559.507 540.892L559.015 541.432L275.477 -348.275ZM275.477 -348.275L559.817 541.192L560.044 541.955L559.325 541.732L-365.797 282.45L-366.238 282.353L-365.878 282.018L275.477 -348.275Z" fill="url(#paint3_linear_77_2381)"/>
<path d="M326.746 -331.363L-365.241 236.892L-365.321 236.46L536.556 578.916L536.063 579.455L326.746 -331.363ZM326.73 -331.45L536.784 579.231L536.929 580.009L536.194 579.699L-365.568 236.954L-366.026 236.771L-365.665 236.435L326.73 -331.45Z" fill="url(#paint4_linear_77_2381)"/>
<path d="M376.489 -309.872L-361.146 191.747L-361.145 191.3L510.458 614.663L509.868 615.131L376.489 -309.872ZM376.472 -309.959L510.686 614.979L510.832 615.757L510.178 615.431L-361.392 191.793L-361.849 191.61L-361.472 191.361L376.472 -309.959Z" fill="url(#paint5_linear_77_2381)"/>
<path d="M424.361 -283.919L-353.286 147.238L-353.285 146.79L481.493 647.723L480.886 648.105L424.361 -283.919ZM424.345 -284.006L481.655 648.14L481.719 648.933L481.049 648.522L-353.613 147.299L-354.005 147.014L-353.629 146.765L424.345 -284.006Z" fill="url(#paint6_linear_77_2381)"/>
<path d="M469.958 -253.784L-341.789 103.659L-341.706 103.196L449.793 677.981L449.171 678.276L469.958 -253.784ZM469.941 -253.87L450.038 678.383L450.02 679.191L449.432 678.764L-341.952 103.689L-342.344 103.404L-341.87 103.226L469.941 -253.87Z" fill="url(#paint7_linear_77_2381)"/>
<path d="M512.948 -219.578L-326.723 61.3862L-326.64 60.9233L415.685 705.204L414.981 705.515L512.948 -219.578ZM513.03 -219.593L415.913 705.52L415.813 706.344L415.209 705.83L-326.903 61.3303L-327.295 61.0456L-326.82 60.8674L513.03 -219.593Z" fill="url(#paint8_linear_77_2381)"/>
<path d="M553.074 -181.619L-308.057 20.763L-307.974 20.3001L379.415 729.069L378.694 729.293L553.074 -181.619ZM553.156 -181.635L379.577 729.486L379.461 730.223L378.939 729.695L-308.335 20.6359L-308.661 20.2495L-308.17 20.1578L553.156 -181.635Z" fill="url(#paint9_linear_77_2381)"/>
<path d="M589.949 -140.188L-286.158 -17.9562L-285.993 -18.4344L341.236 749.534L340.5 749.671L589.949 -140.188ZM590.031 -140.203L341.399 749.951L341.201 750.704L340.662 750.088L-286.435 -18.0832L-286.762 -18.4697L-286.271 -18.5614L590.031 -140.203Z" fill="url(#paint10_linear_77_2381)"/>
<path d="M623.258 -95.5863L-261.23 -54.4683L-261.05 -54.8601L301.437 766.363L300.684 766.414L623.258 -95.5863ZM623.324 -95.688L301.518 766.795L301.238 767.563L300.781 766.933L-261.41 -54.5242L-261.655 -54.9259L-261.148 -54.9312L623.324 -95.688Z" fill="url(#paint11_linear_77_2381)"/>
<path d="M652.851 -48.2351L-233.212 -88.518L-232.95 -88.925L260.342 779.404L259.59 779.455L652.851 -48.2351ZM652.933 -48.2503L260.341 779.852L259.963 780.549L259.572 779.817L-233.392 -88.574L-233.637 -88.9757L-233.129 -88.9809L652.933 -48.2503Z" fill="url(#paint12_linear_77_2381)"/>
<path d="M678.513 1.64862L-202.37 -119.686L-202.108 -120.093L218.211 788.711L217.524 788.661L678.513 1.64862ZM678.595 1.63333L218.21 789.159L217.816 789.769L217.507 789.022L-202.582 -119.915L-202.761 -120.419L-202.32 -120.322L678.595 1.63333Z" fill="url(#paint13_linear_77_2381)"/>
<path d="M699.912 53.5756L-169.103 -147.913L-168.824 -148.234L175.429 794.018L174.726 793.881L699.912 53.5756ZM700.076 53.545L175.428 794.465L174.952 795.091L174.643 794.344L-169.299 -148.056L-169.477 -148.559L-169.036 -148.463L700.076 53.545Z" fill="url(#paint14_linear_77_2381)"/>
<path d="M717.043 107.196L-133.465 -172.913L-133.104 -173.249L132.335 795.447L131.6 795.137L717.043 107.196ZM717.109 107.094L132.22 795.737L131.744 796.363L131.517 795.6L-133.677 -173.142L-133.774 -173.661L-133.316 -173.478L717.109 107.094Z" fill="url(#paint15_linear_77_2381)"/>
<path d="M729.663 162.013L-95.9299 -194.602L-95.5692 -194.938L89.1599 792.772L88.4406 792.548L729.663 162.013ZM729.745 161.998L89.0609 793.148L88.4871 793.703L88.3416 792.925L-96.044 -194.76L-96.141 -195.278L-95.6834 -195.095L729.745 161.998Z" fill="url(#paint16_linear_77_2381)"/>
<path d="M737.707 217.779L-56.6152 -212.594L-56.2384 -212.843L46.2776 786.288L45.624 785.963L737.707 217.779ZM737.789 217.764L46.1623 786.578L45.5723 787.046L45.5088 786.253L-56.7617 -212.924L-56.8586 -213.443L-56.401 -213.26L737.789 217.764Z" fill="url(#paint17_linear_77_2381)"/>
<path d="M741.073 273.883L-15.9498 -226.989L-15.573 -227.238L3.99486 775.756L3.34132 775.431L741.073 273.883ZM741.253 273.939L3.89587 776.133L3.28966 776.514L3.30792 775.706L-16.0801 -227.233L-16.0952 -227.767L-15.7032 -227.482L741.253 273.939Z" fill="url(#paint18_linear_77_2381)"/>
<path d="M739.881 330.028L25.8578 -237.575L26.2508 -237.738L-37.1936 761.525L-37.7815 761.098L739.881 330.028ZM739.979 330.099L-37.4724 761.846L-38.1604 762.243L-38.1421 761.434L25.8255 -237.748L25.8104 -238.283L26.2024 -237.998L739.979 330.099Z" fill="url(#paint19_linear_77_2381)"/>
<path d="M733.949 385.804L68.3957 -244.184L68.7887 -244.347L-77.3229 743.516L-77.927 743.003L733.949 385.804ZM734.031 385.789L-77.5199 743.821L-78.2241 744.132L-78.1239 743.308L68.3473 -244.443L68.4301 -244.906L68.7564 -244.52L734.031 385.789Z" fill="url(#paint20_linear_77_2381)"/>
<path d="M723.458 440.653L111.516 -246.864L111.925 -246.941L-115.708 722.059L-116.23 721.53L723.458 440.653ZM723.556 440.724L-116.003 722.293L-116.723 722.517L-116.525 721.764L111.467 -247.124L111.55 -247.586L111.876 -247.2L723.556 440.724Z" fill="url(#paint21_linear_77_2381)"/>
<path d="M708.507 494.274L154.778 -245.637L155.187 -245.713L-152.215 697.028L-152.738 696.499L708.507 494.274ZM708.605 494.346L-152.494 697.348L-153.231 697.486L-152.951 696.718L154.729 -245.896L154.894 -246.374L155.22 -245.988L708.605 494.346Z" fill="url(#paint22_linear_77_2381)"/>
<path d="M689.071 546.222L197.746 -240.423L198.172 -240.413L-186.694 668.927L-187.15 668.296L689.071 546.222ZM689.169 546.293L-186.989 669.161L-187.725 669.298L-187.429 668.617L197.73 -240.509L197.895 -240.987L198.139 -240.586L689.169 546.293Z" fill="url(#paint23_linear_77_2381)"/>
<path d="M665.364 596.107L240.192 -231.26L240.617 -231.25L-218.7 637.683L-219.075 637.037L665.364 596.107ZM665.462 596.178L-219.077 637.932L-219.829 637.983L-219.451 637.286L240.144 -231.52L240.406 -231.927L240.651 -231.525L665.462 596.178Z" fill="url(#paint24_linear_77_2381)"/>
<path d="M637.634 643.518L281.822 -218.281L282.264 -218.185L-248.072 603.794L-248.364 603.133L637.634 643.518ZM637.65 643.604L-248.464 603.957L-249.233 603.922L-248.839 603.311L281.79 -218.454L282.053 -218.861L282.231 -218.358L637.65 643.604Z" fill="url(#paint25_linear_77_2381)"/>
</g>
<defs>
<linearGradient id="paint0_linear_77_2381" x1="109.927" y1="527.795" x2="-19.9873" y2="-345.058" gradientUnits="userSpaceOnUse">
<stop stop-color="#A82F93"/>
<stop offset="0.0001" stop-color="#A82F93" stop-opacity="0"/>
<stop offset="0.34375" stop-color="#A82F93"/>
<stop offset="0.985987" stop-color="#4E7BE1"/>
</linearGradient>
<linearGradient id="paint1_linear_77_2381" x1="106.867" y1="569.835" x2="-25.4999" y2="-331.466" gradientUnits="userSpaceOnUse">
<stop stop-color="#A82F93"/>
<stop offset="0.0001" stop-color="#A82F93" stop-opacity="0"/>
<stop offset="0.34375" stop-color="#A82F93"/>
<stop offset="0.985987" stop-color="#4E7BE1"/>
</linearGradient>
<linearGradient id="paint2_linear_77_2381" x1="103.952" y1="609.554" x2="-29.6711" y2="-313.364" gradientUnits="userSpaceOnUse">
<stop stop-color="#A82F93"/>
<stop offset="0.0001" stop-color="#A82F93" stop-opacity="0"/>
<stop offset="0.34375" stop-color="#A82F93"/>
<stop offset="0.985987" stop-color="#4E7BE1"/>
</linearGradient>
<linearGradient id="paint3_linear_77_2381" x1="101.304" y1="646.755" x2="-32.3486" y2="-290.682" gradientUnits="userSpaceOnUse">
<stop stop-color="#A82F93"/>
<stop offset="0.0001" stop-color="#A82F93" stop-opacity="0"/>
<stop offset="0.34375" stop-color="#A82F93"/>
<stop offset="0.985987" stop-color="#4E7BE1"/>
</linearGradient>
<linearGradient id="paint4_linear_77_2381" x1="98.7278" y1="681.121" x2="-33.7328" y2="-263.822" gradientUnits="userSpaceOnUse">
<stop stop-color="#A82F93"/>
<stop offset="0.0001" stop-color="#A82F93" stop-opacity="0"/>
<stop offset="0.34375" stop-color="#A82F93"/>
<stop offset="0.985987" stop-color="#4E7BE1"/>
</linearGradient>
<linearGradient id="paint5_linear_77_2381" x1="113.512" y1="709.233" x2="-18.6054" y2="-235.831" gradientUnits="userSpaceOnUse">
<stop stop-color="#A82F93"/>
<stop offset="0.0001" stop-color="#A82F93" stop-opacity="0"/>
<stop offset="0.34375" stop-color="#A82F93"/>
<stop offset="0.985987" stop-color="#4E7BE1"/>
</linearGradient>
<linearGradient id="paint6_linear_77_2381" x1="145.931" y1="730.77" x2="13.144" y2="-207.021" gradientUnits="userSpaceOnUse">
<stop stop-color="#A82F93"/>
<stop offset="0.0001" stop-color="#A82F93" stop-opacity="0"/>
<stop offset="0.34375" stop-color="#A82F93"/>
<stop offset="0.985987" stop-color="#4E7BE1"/>
</linearGradient>
<linearGradient id="paint7_linear_77_2381" x1="178.277" y1="748.774" x2="45.9628" y2="-174.638" gradientUnits="userSpaceOnUse">
<stop stop-color="#A82F93"/>
<stop offset="0.0001" stop-color="#A82F93" stop-opacity="0"/>
<stop offset="0.34375" stop-color="#A82F93"/>
<stop offset="0.985987" stop-color="#4E7BE1"/>
</linearGradient>
<linearGradient id="paint8_linear_77_2381" x1="210.169" y1="763.142" x2="79.4585" y2="-138.694" gradientUnits="userSpaceOnUse">
<stop stop-color="#A82F93"/>
<stop offset="0.0001" stop-color="#A82F93" stop-opacity="0"/>
<stop offset="0.34375" stop-color="#A82F93"/>
<stop offset="0.985987" stop-color="#4E7BE1"/>
</linearGradient>
<linearGradient id="paint9_linear_77_2381" x1="241.502" y1="773.804" x2="113.497" y2="-99.7078" gradientUnits="userSpaceOnUse">
<stop stop-color="#A82F93"/>
<stop offset="0.0001" stop-color="#A82F93" stop-opacity="0"/>
<stop offset="0.34375" stop-color="#A82F93"/>
<stop offset="0.985987" stop-color="#4E7BE1"/>
</linearGradient>
<linearGradient id="paint10_linear_77_2381" x1="272.087" y1="781.567" x2="143.331" y2="-98.9961" gradientUnits="userSpaceOnUse">
<stop stop-color="#A82F93"/>
<stop offset="0.0001" stop-color="#A82F93" stop-opacity="0"/>
<stop offset="0.34375" stop-color="#A82F93"/>
<stop offset="0.985987" stop-color="#4E7BE1"/>
</linearGradient>
<linearGradient id="paint11_linear_77_2381" x1="301.722" y1="786.258" x2="168.984" y2="-135.397" gradientUnits="userSpaceOnUse">
<stop stop-color="#A82F93"/>
<stop offset="0.0001" stop-color="#A82F93" stop-opacity="0"/>
<stop offset="0.34375" stop-color="#A82F93"/>
<stop offset="0.985987" stop-color="#4E7BE1"/>
</linearGradient>
<linearGradient id="paint12_linear_77_2381" x1="330.024" y1="786.937" x2="194.52" y2="-168.8" gradientUnits="userSpaceOnUse">
<stop stop-color="#A82F93"/>
<stop offset="0.0001" stop-color="#A82F93" stop-opacity="0"/>
<stop offset="0.34375" stop-color="#A82F93"/>
<stop offset="0.985987" stop-color="#4E7BE1"/>
</linearGradient>
<linearGradient id="paint13_linear_77_2381" x1="356.903" y1="783.81" x2="219.866" y2="-198.997" gradientUnits="userSpaceOnUse">
<stop stop-color="#A82F93"/>
<stop offset="0.0001" stop-color="#A82F93" stop-opacity="0"/>
<stop offset="0.34375" stop-color="#A82F93"/>
<stop offset="0.985987" stop-color="#4E7BE1"/>
</linearGradient>
<linearGradient id="paint14_linear_77_2381" x1="381.963" y1="776.833" x2="244.687" y2="-225.315" gradientUnits="userSpaceOnUse">
<stop stop-color="#A82F93"/>
<stop offset="0.0001" stop-color="#A82F93" stop-opacity="0"/>
<stop offset="0.34375" stop-color="#A82F93"/>
<stop offset="0.985987" stop-color="#4E7BE1"/>
</linearGradient>
<linearGradient id="paint15_linear_77_2381" x1="405.137" y1="765.94" x2="268.939" y2="-247.999" gradientUnits="userSpaceOnUse">
<stop stop-color="#A82F93"/>
<stop offset="0.0001" stop-color="#A82F93" stop-opacity="0"/>
<stop offset="0.34375" stop-color="#A82F93"/>
<stop offset="0.985987" stop-color="#4E7BE1"/>
</linearGradient>
<linearGradient id="paint16_linear_77_2381" x1="426.11" y1="751.359" x2="292.302" y2="-266.637" gradientUnits="userSpaceOnUse">
<stop stop-color="#A82F93"/>
<stop offset="0.0001" stop-color="#A82F93" stop-opacity="0"/>
<stop offset="0.34375" stop-color="#A82F93"/>
<stop offset="0.985987" stop-color="#4E7BE1"/>
</linearGradient>
<linearGradient id="paint17_linear_77_2381" x1="400.46" y1="741.4" x2="264.251" y2="-272.539" gradientUnits="userSpaceOnUse">
<stop stop-color="#A82F93"/>
<stop offset="0.0001" stop-color="#A82F93" stop-opacity="0"/>
<stop offset="0.34375" stop-color="#A82F93"/>
<stop offset="0.985987" stop-color="#4E7BE1"/>
</linearGradient>
<linearGradient id="paint18_linear_77_2381" x1="372.77" y1="727.905" x2="235.497" y2="-274.154" gradientUnits="userSpaceOnUse">
<stop stop-color="#A82F93"/>
<stop offset="0.0001" stop-color="#A82F93" stop-opacity="0"/>
<stop offset="0.34375" stop-color="#A82F93"/>
<stop offset="0.985987" stop-color="#4E7BE1"/>
</linearGradient>
<linearGradient id="paint19_linear_77_2381" x1="343.128" y1="711.036" x2="206.09" y2="-271.591" gradientUnits="userSpaceOnUse">
<stop stop-color="#A82F93"/>
<stop offset="0.0001" stop-color="#A82F93" stop-opacity="0"/>
<stop offset="0.34375" stop-color="#A82F93"/>
<stop offset="0.985987" stop-color="#4E7BE1"/>
</linearGradient>
<linearGradient id="paint20_linear_77_2381" x1="311.904" y1="690.728" x2="176.396" y2="-264.918" gradientUnits="userSpaceOnUse">
<stop stop-color="#A82F93"/>
<stop offset="0.0001" stop-color="#A82F93" stop-opacity="0"/>
<stop offset="0.34375" stop-color="#A82F93"/>
<stop offset="0.985987" stop-color="#4E7BE1"/>
</linearGradient>
<linearGradient id="paint21_linear_77_2381" x1="279.313" y1="667.318" x2="146.578" y2="-254.158" gradientUnits="userSpaceOnUse">
<stop stop-color="#A82F93"/>
<stop offset="0.0001" stop-color="#A82F93" stop-opacity="0"/>
<stop offset="0.34375" stop-color="#A82F93"/>
<stop offset="0.985987" stop-color="#4E7BE1"/>
</linearGradient>
<linearGradient id="paint22_linear_77_2381" x1="245.671" y1="640.918" x2="116.925" y2="-239.466" gradientUnits="userSpaceOnUse">
<stop stop-color="#A82F93"/>
<stop offset="0.0001" stop-color="#A82F93" stop-opacity="0"/>
<stop offset="0.34375" stop-color="#A82F93"/>
<stop offset="0.985987" stop-color="#4E7BE1"/>
</linearGradient>
<linearGradient id="paint23_linear_77_2381" x1="218.555" y1="652.008" x2="90.5749" y2="-221.145" gradientUnits="userSpaceOnUse">
<stop stop-color="#A82F93"/>
<stop offset="0.0001" stop-color="#A82F93" stop-opacity="0"/>
<stop offset="0.34375" stop-color="#A82F93"/>
<stop offset="0.985987" stop-color="#4E7BE1"/>
</linearGradient>
<linearGradient id="paint24_linear_77_2381" x1="198.519" y1="701.784" x2="67.8222" y2="-199.783" gradientUnits="userSpaceOnUse">
<stop stop-color="#A82F93"/>
<stop offset="0.0001" stop-color="#A82F93" stop-opacity="0"/>
<stop offset="0.34375" stop-color="#A82F93"/>
<stop offset="0.985987" stop-color="#4E7BE1"/>
</linearGradient>
<linearGradient id="paint25_linear_77_2381" x1="177.965" y1="748.287" x2="45.6763" y2="-174.677" gradientUnits="userSpaceOnUse">
<stop stop-color="#A82F93"/>
<stop offset="0.0001" stop-color="#A82F93" stop-opacity="0"/>
<stop offset="0.34375" stop-color="#A82F93"/>
<stop offset="0.985987" stop-color="#4E7BE1"/>
</linearGradient>
</defs>
</svg>
