<svg width="1920" height="571" viewBox="0 0 1920 571" fill="none" xmlns="http://www.w3.org/2000/svg">
<path d="M1811.17 400.126C1777.02 427.28 1793.09 457.849 1740.71 484.388C1681.91 514.186 1614.27 544.454 1485.41 565.193C1356.6 585.925 936.454 734.07 783.569 743.372C623.855 753.091 643.786 675.559 488.91 671.39C334.195 667.225 310.295 590.297 208.909 568.907C114.001 548.883 51.6985 524.557 -15.5227 500.202C-90.4937 473.039 -163.583 436.266 -191.233 404.638C-223.082 368.207 -323.735 318.886 -167.138 291.606C24.3724 258.244 356.328 46.6949 565.815 18.3694C754.165 -7.09827 952.572 34.1061 1127.75 4.83623C1289.49 -22.1878 1373.68 75.5057 1556.77 84.0388C1739.71 92.5646 1675.59 186.682 1777.43 216.448C1868.03 242.931 1927.46 274.281 1933.7 308.302C1939.33 338.898 1850.21 369.082 1811.17 400.126Z" fill="#3B27B6"/>
</svg>
