<svg width="320" height="556" viewBox="0 0 320 556" fill="none" xmlns="http://www.w3.org/2000/svg">
<path opacity="0.9" d="M326.572 541.884C308.348 539.34 298.311 552.99 276.848 544.75C252.75 535.498 226.751 523.705 193.077 490.634C159.416 457.574 15.046 372.876 -18.335 329.242C-53.2071 283.659 -16.0846 267.423 -44.0637 219.316C-72.0137 171.259 -43.5752 141.921 -53.8779 105.068C-63.5224 70.5699 -65.0523 44.7114 -67.5152 17.3548C-70.262 -13.1558 -68.5208 -45.8572 -60.2546 -63.3174C-50.7328 -83.4294 -48.9019 -128.084 -7.08779 -88.4896C44.0486 -40.0678 133.219 158.877 185.648 214.19C232.787 263.923 285.656 208.68 331.896 253.331C374.588 294.556 381.87 316.121 413.399 374.03C444.902 431.889 392.164 439.505 398.956 478.899C405 513.95 402.961 540.954 389.554 552.62C377.496 563.112 347.407 544.791 326.572 541.884Z" fill="#3B27B6"/>
</svg>
