<svg width="320" height="760" viewBox="0 0 320 760" fill="none" xmlns="http://www.w3.org/2000/svg">
<path d="M619.439 799.312L430.096 804.239C385.17 805.408 343.931 779.503 325.481 738.525L286.594 652.153C263.921 601.795 207.812 575.608 154.652 590.575L52.7633 619.26C13.7462 630.244 -27.9743 615.645 -51.6288 582.729V582.729C-77.5384 546.674 -124.724 532.983 -165.908 549.569L-199.984 563.293" stroke="url(#paint0_linear_222_491)" stroke-width="1.39433"/>
<path d="M685.849 436.871L496.506 441.799C451.581 442.968 410.341 417.063 391.892 376.084L353.004 289.712C330.331 239.354 274.223 213.168 221.062 228.134L119.174 256.819C80.1566 267.804 38.4361 253.204 14.7816 220.288V220.288C-11.128 184.234 -58.314 170.542 -99.4978 187.129L-133.574 200.852" stroke="url(#paint1_linear_222_491)" stroke-width="1.39433"/>
<path d="M622.6 782.053L433.257 786.98C388.332 788.149 347.093 762.244 328.643 721.266L289.755 634.894C267.083 584.536 210.974 558.349 157.814 573.316L55.9249 602.001C16.9078 612.985 -24.8127 598.386 -48.4671 565.47V565.47C-74.3767 529.415 -121.563 515.724 -162.747 532.31L-196.822 546.034" stroke="url(#paint2_linear_222_491)" stroke-width="1.39433"/>
<path d="M625.763 764.793L436.42 769.721C391.495 770.89 350.255 744.985 331.806 704.006L292.918 617.634C270.246 567.276 214.137 541.09 160.977 556.056L59.0878 584.741C20.0707 595.726 -21.6499 581.126 -45.3043 548.21V548.21C-71.2139 512.156 -118.4 498.465 -159.584 515.051L-193.66 528.775" stroke="url(#paint3_linear_222_491)" stroke-width="1.39433"/>
<path d="M628.926 747.534L439.583 752.462C394.658 753.631 353.418 727.726 334.968 686.747L296.081 600.375C273.408 550.017 217.299 523.831 164.139 538.797L62.2506 567.482C23.2335 578.467 -18.487 563.867 -42.1415 530.951V530.951C-68.0511 494.897 -115.237 481.206 -156.421 497.792L-190.497 511.516" stroke="url(#paint4_linear_222_491)" stroke-width="1.39433"/>
<path d="M632.088 730.276L442.745 735.203C397.819 736.372 356.58 710.467 338.13 669.488L299.243 583.117C276.57 532.759 220.461 506.572 167.301 521.539L65.4122 550.224C26.3951 561.208 -15.3254 546.609 -38.9798 513.692V513.692C-64.8894 477.638 -112.076 463.947 -153.259 480.533L-187.335 494.257" stroke="url(#paint5_linear_222_491)" stroke-width="1.39433"/>
<path d="M635.251 713.016L445.908 717.944C400.983 719.113 359.744 693.208 341.294 652.229L302.406 565.857C279.734 515.499 223.625 489.313 170.465 504.279L68.5758 532.964C29.5587 543.949 -12.1618 529.349 -35.8163 496.433V496.433C-61.7259 460.379 -108.912 446.687 -150.096 463.274L-184.172 476.997" stroke="url(#paint6_linear_222_491)" stroke-width="1.39433"/>
<path d="M638.413 695.758L449.07 700.685C404.145 701.854 362.906 675.949 344.456 634.97L305.568 548.599C282.896 498.24 226.787 472.054 173.627 487.02L71.7379 515.706C32.7208 526.69 -8.99973 512.09 -32.6542 479.174V479.174C-58.5637 443.12 -105.75 429.429 -146.934 446.015L-181.009 459.739" stroke="url(#paint7_linear_222_491)" stroke-width="1.39433"/>
<path d="M641.576 678.498L452.233 683.425C407.307 684.594 366.068 658.69 347.618 617.711L308.731 531.339C286.058 480.981 229.949 454.795 176.789 469.761L74.9003 498.446C35.8832 509.431 -5.83737 494.831 -29.4918 461.915V461.915C-55.4014 425.861 -102.587 412.169 -143.771 428.755L-177.847 442.479" stroke="url(#paint8_linear_222_491)" stroke-width="1.39433"/>
<path d="M644.739 661.24L455.396 666.167C410.47 667.336 369.231 641.431 350.781 600.452L311.894 514.08C289.221 463.722 233.112 437.536 179.952 452.502L78.0634 481.188C39.0463 492.172 -2.67429 477.572 -26.3287 444.656V444.656C-52.2383 408.602 -99.4244 394.911 -140.608 411.497L-174.684 425.221" stroke="url(#paint9_linear_222_491)" stroke-width="1.39433"/>
<path d="M647.901 643.981L458.558 648.908C413.633 650.077 372.394 624.172 353.944 583.194L315.056 496.822C292.384 446.464 236.275 420.277 183.115 435.244L81.226 463.929C42.2088 474.913 0.488309 460.314 -23.1661 427.398V427.398C-49.0757 391.343 -96.2618 377.652 -137.446 394.238L-171.521 407.962" stroke="url(#paint10_linear_222_491)" stroke-width="1.39433"/>
<path d="M651.063 626.722L461.719 631.649C416.794 632.818 375.555 606.913 357.105 565.935L318.218 479.563C295.545 429.205 239.436 403.018 186.276 417.985L84.3871 446.67C45.37 457.654 3.64944 443.055 -20.005 410.139V410.139C-45.9146 374.084 -93.1007 360.393 -134.284 376.979L-168.36 390.703" stroke="url(#paint11_linear_222_491)" stroke-width="1.39433"/>
<path d="M654.224 609.462L464.881 614.389C419.956 615.559 378.717 589.654 360.267 548.675L321.379 462.303C298.707 411.945 242.598 385.759 189.438 400.725L87.549 429.41C48.5318 440.395 6.81131 425.795 -16.8431 392.879V392.879C-42.7527 356.825 -89.9388 343.133 -131.123 359.72L-165.198 373.443" stroke="url(#paint12_linear_222_491)" stroke-width="1.39433"/>
<path d="M657.387 592.203L468.044 597.131C423.119 598.3 381.879 572.395 363.429 531.416L324.542 445.044C301.869 394.686 245.76 368.5 192.6 383.466L90.7116 412.151C51.6944 423.136 9.97391 408.536 -13.6805 375.62V375.62C-39.5901 339.566 -86.7762 325.874 -127.96 342.461L-162.036 356.184" stroke="url(#paint13_linear_222_491)" stroke-width="1.39433"/>
<path d="M660.549 574.945L471.206 579.872C426.281 581.041 385.042 555.136 366.592 514.157L327.704 427.786C305.032 377.427 248.923 351.241 195.763 366.207L93.8739 394.893C54.8568 405.877 13.1363 391.277 -10.5182 358.361V358.361C-36.4278 322.307 -83.6138 308.616 -124.798 325.202L-158.874 338.926" stroke="url(#paint14_linear_222_491)" stroke-width="1.39433"/>
<path d="M663.713 557.686L474.37 562.613C429.444 563.782 388.205 537.877 369.755 496.898L330.868 410.526C308.195 360.168 252.086 333.982 198.926 348.948L97.0372 377.634C58.0201 388.618 16.2996 374.018 -7.35484 341.102V341.102C-33.2644 305.048 -80.4505 291.357 -121.634 307.943L-155.71 321.667" stroke="url(#paint15_linear_222_491)" stroke-width="1.39433"/>
<path d="M666.875 540.426L477.532 545.354C432.606 546.523 391.367 520.618 372.917 479.639L334.03 393.267C311.357 342.909 255.248 316.723 202.088 331.689L100.199 360.374C61.1822 371.359 19.4617 356.759 -4.19273 323.843V323.843C-30.1023 287.789 -77.2884 274.097 -118.472 290.684L-152.548 304.407" stroke="url(#paint16_linear_222_491)" stroke-width="1.39433"/>
<path d="M670.038 523.168L480.695 528.095C435.769 529.264 394.53 503.359 376.08 462.381L337.193 376.009C314.52 325.651 258.411 299.464 205.251 314.431L103.362 343.116C64.3453 354.1 22.6248 339.501 -1.02964 306.585V306.585C-26.9392 270.53 -74.1253 256.839 -115.309 273.425L-149.385 287.149" stroke="url(#paint17_linear_222_491)" stroke-width="1.39433"/>
<path d="M673.201 505.908L483.858 510.836C438.933 512.005 397.693 486.1 379.243 445.121L340.356 358.749C317.683 308.391 261.574 282.205 208.414 297.171L106.526 325.856C67.5084 336.841 25.7879 322.241 2.13344 289.325V289.325C-23.7762 253.271 -70.9622 239.58 -112.146 256.166L-146.222 269.89" stroke="url(#paint18_linear_222_491)" stroke-width="1.39433"/>
<path d="M676.363 488.65L487.019 493.577C442.094 494.746 400.855 468.841 382.405 427.863L343.518 341.491C320.845 291.133 264.736 264.946 211.576 279.913L109.687 308.598C70.67 319.582 28.9495 304.983 5.29506 272.067V272.067C-20.6145 236.012 -67.8006 222.321 -108.984 238.907L-143.06 252.631" stroke="url(#paint19_linear_222_491)" stroke-width="1.39433"/>
<path d="M679.524 471.39L490.181 476.317C445.256 477.486 404.016 451.581 385.566 410.603L346.679 324.231C324.006 273.873 267.897 247.686 214.737 262.653L112.849 291.338C73.8314 302.322 32.1109 287.723 8.45644 254.807V254.807C-17.4532 218.752 -64.6392 205.061 -105.823 221.647L-139.899 235.371" stroke="url(#paint20_linear_222_491)" stroke-width="1.39433"/>
<path d="M682.687 454.131L493.344 459.058C448.418 460.227 407.179 434.322 388.729 393.343L349.842 306.972C327.169 256.614 271.06 230.427 217.9 245.393L116.011 274.079C76.9942 285.063 35.2737 270.464 11.6193 237.547V237.547C-14.2903 201.493 -61.4764 187.802 -102.66 204.388L-136.736 218.112" stroke="url(#paint21_linear_222_491)" stroke-width="1.39433"/>
<defs>
<linearGradient id="paint0_linear_222_491" x1="112.707" y1="766.169" x2="244.531" y2="562.419" gradientUnits="userSpaceOnUse">
<stop stop-color="#A82F93"/>
<stop offset="1" stop-color="#4E7BE1" stop-opacity="0.27"/>
</linearGradient>
<linearGradient id="paint1_linear_222_491" x1="179.118" y1="403.728" x2="310.942" y2="199.979" gradientUnits="userSpaceOnUse">
<stop stop-color="#A82F93"/>
<stop offset="1" stop-color="#4E7BE1" stop-opacity="0.27"/>
</linearGradient>
<linearGradient id="paint2_linear_222_491" x1="115.869" y1="748.91" x2="247.693" y2="545.16" gradientUnits="userSpaceOnUse">
<stop stop-color="#A82F93"/>
<stop offset="1" stop-color="#4E7BE1" stop-opacity="0.27"/>
</linearGradient>
<linearGradient id="paint3_linear_222_491" x1="119.032" y1="731.65" x2="250.856" y2="527.901" gradientUnits="userSpaceOnUse">
<stop stop-color="#A82F93"/>
<stop offset="1" stop-color="#4E7BE1" stop-opacity="0.27"/>
</linearGradient>
<linearGradient id="paint4_linear_222_491" x1="122.195" y1="714.391" x2="254.019" y2="510.642" gradientUnits="userSpaceOnUse">
<stop stop-color="#A82F93"/>
<stop offset="1" stop-color="#4E7BE1" stop-opacity="0.27"/>
</linearGradient>
<linearGradient id="paint5_linear_222_491" x1="125.356" y1="697.133" x2="257.18" y2="493.383" gradientUnits="userSpaceOnUse">
<stop stop-color="#A82F93"/>
<stop offset="1" stop-color="#4E7BE1" stop-opacity="0.27"/>
</linearGradient>
<linearGradient id="paint6_linear_222_491" x1="128.52" y1="679.873" x2="260.344" y2="476.124" gradientUnits="userSpaceOnUse">
<stop stop-color="#A82F93"/>
<stop offset="1" stop-color="#4E7BE1" stop-opacity="0.27"/>
</linearGradient>
<linearGradient id="paint7_linear_222_491" x1="131.682" y1="662.615" x2="263.506" y2="458.865" gradientUnits="userSpaceOnUse">
<stop stop-color="#A82F93"/>
<stop offset="1" stop-color="#4E7BE1" stop-opacity="0.27"/>
</linearGradient>
<linearGradient id="paint8_linear_222_491" x1="134.844" y1="645.355" x2="266.668" y2="441.605" gradientUnits="userSpaceOnUse">
<stop stop-color="#A82F93"/>
<stop offset="1" stop-color="#4E7BE1" stop-opacity="0.27"/>
</linearGradient>
<linearGradient id="paint9_linear_222_491" x1="138.007" y1="628.097" x2="269.831" y2="424.347" gradientUnits="userSpaceOnUse">
<stop stop-color="#A82F93"/>
<stop offset="1" stop-color="#4E7BE1" stop-opacity="0.27"/>
</linearGradient>
<linearGradient id="paint10_linear_222_491" x1="141.17" y1="610.838" x2="272.994" y2="407.088" gradientUnits="userSpaceOnUse">
<stop stop-color="#A82F93"/>
<stop offset="1" stop-color="#4E7BE1" stop-opacity="0.27"/>
</linearGradient>
<linearGradient id="paint11_linear_222_491" x1="144.331" y1="593.579" x2="276.155" y2="389.829" gradientUnits="userSpaceOnUse">
<stop stop-color="#A82F93"/>
<stop offset="1" stop-color="#4E7BE1" stop-opacity="0.27"/>
</linearGradient>
<linearGradient id="paint12_linear_222_491" x1="147.493" y1="576.319" x2="279.317" y2="372.57" gradientUnits="userSpaceOnUse">
<stop stop-color="#A82F93"/>
<stop offset="1" stop-color="#4E7BE1" stop-opacity="0.27"/>
</linearGradient>
<linearGradient id="paint13_linear_222_491" x1="150.656" y1="559.06" x2="282.479" y2="355.311" gradientUnits="userSpaceOnUse">
<stop stop-color="#A82F93"/>
<stop offset="1" stop-color="#4E7BE1" stop-opacity="0.27"/>
</linearGradient>
<linearGradient id="paint14_linear_222_491" x1="153.818" y1="541.802" x2="285.642" y2="338.052" gradientUnits="userSpaceOnUse">
<stop stop-color="#A82F93"/>
<stop offset="1" stop-color="#4E7BE1" stop-opacity="0.27"/>
</linearGradient>
<linearGradient id="paint15_linear_222_491" x1="156.981" y1="524.543" x2="288.805" y2="320.793" gradientUnits="userSpaceOnUse">
<stop stop-color="#A82F93"/>
<stop offset="1" stop-color="#4E7BE1" stop-opacity="0.27"/>
</linearGradient>
<linearGradient id="paint16_linear_222_491" x1="160.143" y1="507.283" x2="291.967" y2="303.534" gradientUnits="userSpaceOnUse">
<stop stop-color="#A82F93"/>
<stop offset="1" stop-color="#4E7BE1" stop-opacity="0.27"/>
</linearGradient>
<linearGradient id="paint17_linear_222_491" x1="163.307" y1="490.025" x2="295.13" y2="286.275" gradientUnits="userSpaceOnUse">
<stop stop-color="#A82F93"/>
<stop offset="1" stop-color="#4E7BE1" stop-opacity="0.27"/>
</linearGradient>
<linearGradient id="paint18_linear_222_491" x1="166.47" y1="472.765" x2="298.293" y2="269.016" gradientUnits="userSpaceOnUse">
<stop stop-color="#A82F93"/>
<stop offset="1" stop-color="#4E7BE1" stop-opacity="0.27"/>
</linearGradient>
<linearGradient id="paint19_linear_222_491" x1="169.631" y1="455.507" x2="301.455" y2="251.757" gradientUnits="userSpaceOnUse">
<stop stop-color="#A82F93"/>
<stop offset="1" stop-color="#4E7BE1" stop-opacity="0.27"/>
</linearGradient>
<linearGradient id="paint20_linear_222_491" x1="172.793" y1="438.247" x2="304.616" y2="234.497" gradientUnits="userSpaceOnUse">
<stop stop-color="#A82F93"/>
<stop offset="1" stop-color="#4E7BE1" stop-opacity="0.27"/>
</linearGradient>
<linearGradient id="paint21_linear_222_491" x1="175.955" y1="420.988" x2="307.779" y2="217.238" gradientUnits="userSpaceOnUse">
<stop stop-color="#A82F93"/>
<stop offset="1" stop-color="#4E7BE1" stop-opacity="0.27"/>
</linearGradient>
</defs>
</svg>
