<svg width="154" height="30" viewBox="0 0 154 30" fill="none" xmlns="http://www.w3.org/2000/svg">
<path d="M22.1572 24.478C21.5397 23.1723 20.9285 21.9015 20.3449 20.6196C20.2521 20.4165 20.2106 20.1349 20.2734 19.9269C20.7729 18.25 21.3025 16.583 21.8246 14.9136C21.8409 14.86 21.8711 14.8114 21.9075 14.7317C22.5312 16.3401 23.1424 17.9161 23.7474 19.4946C23.7812 19.583 23.7825 19.7026 23.7524 19.7936C23.2516 21.321 22.7421 22.8471 22.2338 24.3733C22.225 24.4032 22.1949 24.4269 22.1572 24.478Z" fill="white"/>
<path d="M19.2436 18.3062C18.5872 16.9109 17.9384 15.5429 17.3046 14.1712C17.2519 14.0566 17.2469 13.8897 17.2845 13.7676C17.7388 12.3124 18.207 10.8598 18.7466 9.38843C18.9136 9.84067 19.0817 10.2917 19.2461 10.7439C19.6716 11.9138 20.0883 13.0861 20.5238 14.2522C20.6204 14.5126 20.6154 14.7381 20.5162 14.996C20.1109 16.0475 19.7243 17.1065 19.329 18.1629C19.3139 18.2028 19.2838 18.2389 19.2436 18.3062Z" fill="white"/>
<path d="M21.0401 24.994C20.4289 23.6847 19.8415 22.4039 19.2265 21.1357C19.1286 20.9351 18.9379 20.722 18.7371 20.6361C17.1218 19.9384 15.4953 19.2694 13.8713 18.5929C13.8198 18.5717 13.7621 18.5617 13.678 18.5393C14.5189 20.048 15.3409 21.5256 16.1705 23.0007C16.2169 23.0829 16.3086 23.1614 16.3977 23.1975C17.8987 23.798 19.4035 24.3923 20.9083 24.9866C20.9397 24.9978 20.9773 24.9903 21.0401 24.994Z" fill="white"/>
<path d="M18.1376 18.8184C17.4825 17.4218 16.8437 16.0501 16.1923 14.6859C16.1383 14.5713 16.0128 14.4616 15.8936 14.4118C14.4779 13.8225 13.0572 13.2445 11.5737 12.7087C11.8147 13.1261 12.0544 13.5435 12.2979 13.9596C12.9267 15.0347 13.5642 16.1062 14.1842 17.1863C14.3223 17.428 14.5005 17.5688 14.7641 17.6585C15.8359 18.026 16.9014 18.4135 17.9707 18.791C18.0134 18.8059 18.0598 18.8059 18.1376 18.8184Z" fill="white"/>
<path fill-rule="evenodd" clip-rule="evenodd" d="M11.9932 4.30054L13.8356 6.28766L15.6617 8.17014L15.9453 10.7789L16.298 13.4563L14.4556 11.4691L12.6295 9.58667L12.3458 6.97786L11.9932 4.30054Z" fill="white"/>
<path d="M12.4394 0.00124585V1.60839H9.47628C9.41102 1.60839 9.34826 1.64452 9.31438 1.70183L4.01433 10.814L3.87753 11.0507L3.65162 10.8974L2.73168 10.2757L2.53589 10.1437L2.65386 9.94061L7.90998 0.899501C8.23128 0.3451 8.83119 0 9.47628 0H12.4394V0.00124585Z" fill="white"/>
<path d="M6.92627 24.1616L6.73174 24.2937L5.81305 24.9191L5.58714 25.0736L5.45034 24.8369L0.24191 15.8842C-0.0806365 15.3298 -0.0806365 14.6421 0.24191 14.0889L1.28736 12.2887L1.42416 12.0532L1.65007 12.2065L2.57127 12.8269L2.7658 12.9577L2.64908 13.1608L1.64254 14.8925C1.60991 14.9511 1.60991 15.0233 1.64128 15.0806L6.80579 23.961L6.92627 24.1616Z" fill="white"/>
<path d="M12.0061 28.3641V29.9713H9.47841C8.83457 29.9713 8.23466 29.6262 7.91337 29.0718L6.81646 27.1868L6.69849 26.985L6.89302 26.8529L7.81171 26.2275L8.03762 26.073L8.17442 26.3097L9.31525 28.2707C9.34663 28.3255 9.40687 28.3616 9.47088 28.3641H12.0061Z" fill="white"/>
<path d="M21.21 28.364H13.2844V29.9712H21.21V28.364Z" fill="white"/>
<path d="M31.9408 19.5249L31.8229 19.7279L26.3873 29.073C26.0672 29.6274 25.4661 29.9725 24.8197 29.9725H23.5032V28.3654H24.8197C24.885 28.3654 24.9477 28.3305 24.9816 28.2757L24.9841 28.272L30.4624 18.8559L30.5979 18.6191L30.8238 18.7724L31.745 19.3953L31.9408 19.5249Z" fill="white"/>
<path d="M34.0573 15.8844L33.1876 17.3807L33.0508 17.6162L32.8249 17.4629L31.9037 16.8412L31.7091 16.7092L31.8271 16.5061L32.6567 15.0809C32.6893 15.0235 32.6893 14.9525 32.6554 14.894L29.4651 9.40727L29.3484 9.20544L29.5417 9.07338L30.4604 8.44797L30.6875 8.29224L30.8243 8.52895L33.9632 13.9247L34.0586 14.0892C34.3811 14.6411 34.3811 15.33 34.0573 15.8844Z" fill="white"/>
<path d="M29.575 6.3812L29.3804 6.51326L28.4617 7.13992L28.2358 7.29441L28.099 7.0577L24.9853 1.70056C24.9526 1.64325 24.8886 1.60712 24.8209 1.60712H23.2571V0.0012207H24.8209C25.4158 0.0012207 25.9717 0.292749 26.3081 0.773646H26.3156L26.3884 0.899476L29.4595 6.17938L29.575 6.3812Z" fill="white"/>
<path d="M20.9778 0.0012207H13.9382V1.60836H20.9778V0.0012207Z" fill="white"/>
<path d="M61.3892 3.5H44.2829L39.3682 26.5332H44.9732L46.6211 18.6881H58.3294C64.0775 18.6881 66.8172 17.8721 67.8514 13.0295L68.6232 9.36669C68.7876 8.64909 68.8705 7.97259 68.8705 7.3559C68.8717 4.11545 66.2424 3.5 61.3892 3.5ZM58.1951 14.6827H47.4996L49.0082 7.60631H59.9107C62.8287 7.60631 63.0546 8.20806 63.0546 9.05772C63.0546 9.39909 63.0157 9.72176 62.9341 10.0419L62.4949 11.9867C61.9878 14.1782 61.1833 14.6827 58.1951 14.6827Z" fill="white"/>
<path d="M97.4686 3.5L92.5539 26.5332H86.9501L90.4278 10.2512L72.2724 26.5332H66.8418L71.7566 3.5H77.3603L73.8813 19.8119L92.038 3.5H97.4686Z" fill="white"/>
<path d="M122.746 4.21138C121.648 3.71304 120.024 3.5 117.314 3.5H100.106L95.1914 26.5332H112.605C118.324 26.5332 121.052 25.7159 122.095 20.8758L122.565 18.7068C122.663 18.2533 122.711 17.8173 122.711 17.37C122.711 16.2886 122.332 15.4514 121.62 14.9269C122.551 14.4074 123.564 13.4145 123.946 11.5233L124.384 9.34551C124.534 8.52575 124.627 7.90158 124.627 7.3235C124.627 5.80482 124.012 4.78821 122.746 4.21138ZM116.203 13.0469H103.658L104.829 7.60631H116.001C118.732 7.60631 118.944 8.1657 118.944 8.95806C118.944 9.22342 118.889 9.54236 118.833 9.87874L118.616 11.0374C118.346 12.4639 117.645 13.0469 116.203 13.0469ZM117.037 18.875L116.803 19.9003C116.343 21.9298 115.518 22.4257 112.605 22.4257H101.642L102.843 16.919H115.598C116.885 16.919 117.127 17.3115 117.127 18.0365C117.127 18.267 117.099 18.5336 117.037 18.875Z" fill="white"/>
<path d="M149.859 22.4269H152.998L152.112 26.5332H123.3L128.214 3.5H133.819L129.751 22.4269H144.254L148.323 3.5H153.927L149.859 22.4269Z" fill="white"/>
</svg>
