<svg width="276" height="107" viewBox="0 0 276 107" fill="none" xmlns="http://www.w3.org/2000/svg">
<path d="M17.4 61.18V56.12H15.8V48.18H13.06V56.12H3.84V48.18H1.08V58H15.48V61.18H17.4ZM32.8972 58V56.26H24.3772C22.3972 56.26 21.6972 55.84 21.6972 54.38V54.04H30.5172C32.8172 54.04 33.4772 53.56 33.4772 51.7V50.78C33.4772 49 32.5772 48.18 30.1372 48.18H23.3572C20.4772 48.18 19.0172 49.06 19.0172 51.18V54.52C19.0172 57.14 20.3772 58 23.6772 58H32.8972ZM21.6972 52.84V51.42C21.6972 50.38 22.3972 49.94 23.7572 49.94H29.0972C30.3372 49.94 30.8172 50.34 30.8172 51.22V51.72C30.8172 52.6 30.4372 52.84 29.2772 52.84H21.6972ZM38.5462 58V54.06H47.7663V58H50.5062V48.18H47.7663V52.18H38.5462V48.18H35.7862V58H38.5462ZM61.2208 58V50.06H67.1408V48.18H52.5408V50.06H58.4608V58H61.2208ZM78.9439 58C82.4039 58 83.6239 57.44 83.6239 54.96V51.2C83.6239 48.7 82.3839 48.18 78.9439 48.18H69.1839V62.1H71.9239V58H78.9439ZM80.8839 54.54C80.8839 55.78 80.3039 56.12 78.5239 56.12H71.9239V50.06H78.6039C80.2439 50.06 80.8839 50.4 80.8839 51.64V54.54ZM95.3806 58V50.06H104.601V58H107.341V48.18H92.6206V58H95.3806ZM119.675 58C123.135 58 124.355 57.44 124.355 54.96V51.2C124.355 48.7 123.115 48.18 119.675 48.18H109.915V62.1H112.655V58H119.675ZM121.615 54.54C121.615 55.78 121.035 56.12 119.255 56.12H112.655V50.06H119.335C120.975 50.06 121.615 50.4 121.615 51.64V54.54ZM141.539 58V48.18H138.779L129.559 55.68V48.18H126.819V58H129.519L138.799 50.48V58H141.539ZM152.254 58V50.06H158.174V48.18H143.574V50.06H149.494V58H152.254ZM164.083 48.18C160.603 48.18 159.863 48.76 159.863 50.52V52.42C159.863 53.48 160.303 53.9 160.943 54.06C160.343 54.22 159.783 54.62 159.783 55.74V58H162.503V56C162.503 55.1 162.823 54.82 163.663 54.82H171.083V58.06L173.823 58V48.18H164.083ZM162.543 51.08C162.543 50.2 162.903 49.86 164.763 49.86H171.083V53.34H163.523C162.743 53.34 162.543 53.04 162.543 52.22V51.08ZM187.798 58V53.68H192.378C193.678 53.68 194.138 54.16 194.138 55.26V58H196.818V54.98C196.818 53 195.658 51.98 193.198 51.98H191.598L196.638 48.18H193.658L187.798 52.76V48.18H185.178V52.76L179.318 48.18H176.338L181.358 51.98H179.758C177.298 51.98 176.138 53 176.138 54.98V58H178.818V55.26C178.818 54.16 179.278 53.68 180.598 53.68H185.178V58H187.798ZM212.961 58V56.26H204.441C202.461 56.26 201.761 55.84 201.761 54.38V54.04H210.581C212.881 54.04 213.541 53.56 213.541 51.7V50.78C213.541 49 212.641 48.18 210.201 48.18H203.421C200.541 48.18 199.081 49.06 199.081 51.18V54.52C199.081 57.14 200.441 58 203.741 58H212.961ZM201.761 52.84V51.42C201.761 50.38 202.461 49.94 203.821 49.94H209.161C210.401 49.94 210.881 50.34 210.881 51.22V51.72C210.881 52.6 210.501 52.84 209.341 52.84H201.761ZM218.61 58V54.06H227.83V58H230.57V48.18H227.83V52.18H218.61V48.18H215.85V58H218.61ZM247.865 58V48.18H245.105L235.885 55.68V48.18H233.145V58H235.845L245.125 50.48V58H247.865ZM254.579 48.18C251.099 48.18 250.359 48.76 250.359 50.52V52.42C250.359 53.48 250.799 53.9 251.439 54.06C250.839 54.22 250.279 54.62 250.279 55.74V58H252.999V56C252.999 55.1 253.319 54.82 254.159 54.82H261.579V58.06L264.319 58V48.18H254.579ZM253.039 51.08C253.039 50.2 253.399 49.86 255.259 49.86H261.579V53.34H254.019C253.239 53.34 253.039 53.04 253.039 52.22V51.08ZM17.4 83.18V78.12H15.8V70.18H13.06V78.12H3.84V70.18H1.08V80H15.48V83.18H17.4ZM34.1492 80V70.18H31.3892L22.1692 77.68V70.18H19.4292V80H22.1292L31.4092 72.48V80H34.1492ZM47.1237 84.1V80H50.1038C53.5438 80 54.8238 79.52 54.8238 76.98V73.2C54.8238 70.72 53.5438 70.18 50.1038 70.18H47.1237V66.78H44.4037V70.18H41.4437C38.0037 70.18 36.7237 70.72 36.7237 73.2V76.98C36.7237 79.52 38.0037 80 41.4437 80H44.4037V84.1H47.1237ZM47.1237 78.12V72.06H49.7637C51.4237 72.06 52.0837 72.42 52.0837 73.64V76.56C52.0837 77.88 51.4838 78.12 49.7637 78.12H47.1237ZM41.7837 78.12C40.0437 78.12 39.4637 77.88 39.4637 76.56V73.64C39.4637 72.42 40.1037 72.06 41.7837 72.06H44.4037V78.12H41.7837ZM67.1377 80C70.5977 80 71.8177 79.44 71.8177 76.96V73.2C71.8177 70.7 70.5777 70.18 67.1377 70.18H57.3777V84.1H60.1177V80H67.1377ZM69.0777 76.54C69.0777 77.78 68.4977 78.12 66.7177 78.12H60.1177V72.06H66.7977C68.4377 72.06 69.0777 72.4 69.0777 73.64V76.54ZM79.3416 78.12C77.6016 78.12 77.0216 77.88 77.0216 76.56V73.64C77.0216 72.42 77.6616 72.06 79.3416 72.06H84.1616C85.8216 72.06 86.4816 72.42 86.4816 73.64V76.56C86.4816 77.88 85.8816 78.12 84.1616 78.12H79.3416ZM84.5016 80C87.9416 80 89.2216 79.52 89.2216 76.98V73.2C89.2216 70.72 87.9416 70.18 84.5016 70.18H79.0016C75.5616 70.18 74.2816 70.72 74.2816 73.2V76.98C74.2816 79.52 75.5616 80 79.0016 80H84.5016ZM105.851 76.72C105.851 75.56 105.291 75.18 104.691 75.04C105.271 74.86 105.771 74.5 105.771 73.46V72.52C105.771 70.6 104.631 70.18 101.171 70.18H91.7909V80H101.171C104.611 80 105.851 79.6 105.851 77.66V76.72ZM94.5309 74.38V71.68H100.791C102.551 71.68 103.151 71.92 103.151 72.9V73.34C103.151 74.14 102.851 74.38 102.191 74.38H94.5309ZM102.191 75.76C102.851 75.76 103.191 76.02 103.191 76.88V77.3C103.191 78.28 102.531 78.5 100.791 78.5H94.5309V75.76H102.191ZM117.726 80C121.206 80 122.406 79.52 122.406 77.06V75.52C122.406 73.1 121.066 72.58 117.726 72.58H110.966V70.18H108.226V80H117.726ZM119.706 76.6C119.706 77.82 119.106 78.12 117.306 78.12H110.966V74.34H117.306C119.026 74.34 119.706 74.68 119.706 75.92V76.6ZM127.226 80V70.18H124.466V80H127.226ZM144.038 70.18H140.758L136.698 73.6L132.738 70.18H129.358L134.938 75.06L129.058 80H132.598L136.738 76.46L140.878 80H144.258L138.458 74.96L144.038 70.18ZM9.22 103V95.06H15.14V93.18H0.54V95.06H6.46V103H9.22ZM30.6902 103V101.26H22.1702C20.1902 101.26 19.4902 100.84 19.4902 99.38V99.04H28.3102C30.6102 99.04 31.2702 98.56 31.2702 96.7V95.78C31.2702 94 30.3702 93.18 27.9302 93.18H21.1502C18.2702 93.18 16.8102 94.06 16.8102 96.18V99.52C16.8102 102.14 18.1702 103 21.4702 103H30.6902ZM19.4902 97.84V96.42C19.4902 95.38 20.1902 94.94 21.5502 94.94H26.8902C28.1302 94.94 28.6102 95.34 28.6102 96.22V96.72C28.6102 97.6 28.2302 97.84 27.0702 97.84H19.4902ZM47.6434 93.18H44.3634L40.3034 96.6L36.3434 93.18H32.9634L38.5434 98.06L32.6634 103H36.2034L40.3434 99.46L44.4834 103H47.8634L42.0634 97.96L47.6434 93.18ZM52.4619 103V99.06H61.6819V103H64.4219V93.18H61.6819V97.18H52.4619V93.18H49.7019V103H52.4619ZM72.0564 101.12C70.3164 101.12 69.7364 100.88 69.7364 99.56V96.64C69.7364 95.42 70.3764 95.06 72.0564 95.06H76.8764C78.5364 95.06 79.1964 95.42 79.1964 96.64V99.56C79.1964 100.88 78.5964 101.12 76.8764 101.12H72.0564ZM77.2164 103C80.6564 103 81.9364 102.52 81.9364 99.98V96.2C81.9364 93.72 80.6564 93.18 77.2164 93.18H71.7164C68.2764 93.18 66.9964 93.72 66.9964 96.2V99.98C66.9964 102.52 68.2764 103 71.7164 103H77.2164ZM86.0989 95.12C86.0989 100.68 85.6789 101.12 83.7389 101.12H83.3989V103H84.0989C87.5989 103 88.4789 102.06 88.4789 95.42V95.06H96.0189V103H98.7589V93.18H86.0989V95.12ZM106.392 101.12C104.652 101.12 104.072 100.88 104.072 99.56V96.64C104.072 95.42 104.712 95.06 106.392 95.06H111.212C112.872 95.06 113.532 95.42 113.532 96.64V99.56C113.532 100.88 112.932 101.12 111.212 101.12H106.392ZM111.552 103C114.992 103 116.272 102.52 116.272 99.98V96.2C116.272 93.72 114.992 93.18 111.552 93.18H106.052C102.612 93.18 101.332 93.72 101.332 96.2V99.98C101.332 102.52 102.612 103 106.052 103H111.552ZM121.601 103V95.06H130.541V93.18H118.841V103H121.601ZM147.281 103V93.18H144.521L135.301 100.68V93.18H132.561V103H135.261L144.541 95.48V103H147.281ZM164.576 103V93.18H161.816L152.596 100.68V93.18H149.856V103H152.556L161.836 95.48V103H164.576ZM157.756 91.94C160.036 91.94 160.896 91.5 160.896 89.18V87.6H159.516V89.22C159.516 90.58 159.036 90.8 157.756 90.8H156.636C155.316 90.8 154.856 90.58 154.856 89.22V87.6H153.476V89.18C153.476 91.56 154.396 91.94 156.636 91.94H157.756ZM187.743 99.72C187.743 98.56 187.183 98.18 186.583 98.04C187.163 97.86 187.663 97.5 187.663 96.46V95.52C187.663 93.6 186.523 93.18 183.063 93.18H173.683V103H183.063C186.503 103 187.743 102.6 187.743 100.66V99.72ZM176.423 97.38V94.68H182.683C184.443 94.68 185.043 94.92 185.043 95.9V96.34C185.043 97.14 184.743 97.38 184.083 97.38H176.423ZM184.083 98.76C184.743 98.76 185.083 99.02 185.083 99.88V100.3C185.083 101.28 184.423 101.5 182.683 101.5H176.423V98.76H184.083ZM208.891 103H211.791L205.571 89.78H202.131L195.911 103H198.911L200.051 100.36H207.731L208.891 103ZM203.871 91.6L206.931 98.54H200.851L203.871 91.6ZM228.314 103V89.78H213.614V103H216.354V91.66H225.594V103H228.314ZM245.729 103V98.46C245.729 96.5 244.809 95.56 242.209 95.56H237.469L245.669 89.78H242.489L233.589 96.18V89.78H230.869V103H233.589V97.32H240.849C242.429 97.32 243.009 97.84 243.009 99.04V103H245.729Z" fill="white"/>
<path d="M17.4 61.18V61.384H17.604V61.18H17.4ZM17.4 56.12H17.604V55.916H17.4V56.12ZM15.8 56.12H15.596V56.324H15.8V56.12ZM15.8 48.18H16.004V47.976H15.8V48.18ZM13.06 48.18V47.976H12.856V48.18H13.06ZM13.06 56.12V56.324H13.264V56.12H13.06ZM3.84 56.12H3.63603V56.324H3.84V56.12ZM3.84 48.18H4.04397V47.976H3.84V48.18ZM1.08 48.18V47.976H0.876029V48.18H1.08ZM1.08 58H0.876029V58.204H1.08V58ZM15.48 58H15.684V57.796H15.48V58ZM15.48 61.18H15.276V61.384H15.48V61.18ZM17.604 61.18V56.12H17.196V61.18H17.604ZM17.4 55.916H15.8V56.324H17.4V55.916ZM16.004 56.12V48.18H15.596V56.12H16.004ZM15.8 47.976H13.06V48.384H15.8V47.976ZM12.856 48.18V56.12H13.264V48.18H12.856ZM13.06 55.916H3.84V56.324H13.06V55.916ZM4.04397 56.12V48.18H3.63603V56.12H4.04397ZM3.84 47.976H1.08V48.384H3.84V47.976ZM0.876029 48.18V58H1.28397V48.18H0.876029ZM1.08 58.204H15.48V57.796H1.08V58.204ZM15.276 58V61.18H15.684V58H15.276ZM15.48 61.384H17.4V60.976H15.48V61.384ZM32.8972 58V58.204H33.1012V58H32.8972ZM32.8972 56.26H33.1012V56.056H32.8972V56.26ZM21.6972 54.04V53.836H21.4932V54.04H21.6972ZM21.6972 52.84H21.4932V53.044H21.6972V52.84ZM33.1012 58V56.26H32.6932V58H33.1012ZM32.8972 56.056H24.3772V56.464H32.8972V56.056ZM24.3772 56.056C23.3874 56.056 22.7754 55.9479 22.4094 55.6989C22.0679 55.4665 21.9012 55.0801 21.9012 54.38H21.4932C21.4932 55.1399 21.6764 55.6935 22.1799 56.0361C22.6589 56.3621 23.3869 56.464 24.3772 56.464V56.056ZM21.9012 54.38V54.04H21.4932V54.38H21.9012ZM21.6972 54.244H30.5172V53.836H21.6972V54.244ZM30.5172 54.244C31.6639 54.244 32.4714 54.1285 32.985 53.7284C33.5166 53.3143 33.6812 52.6424 33.6812 51.7H33.2732C33.2732 52.6176 33.1077 53.1157 32.7343 53.4066C32.343 53.7115 31.6705 53.836 30.5172 53.836V54.244ZM33.6812 51.7V50.78H33.2732V51.7H33.6812ZM33.6812 50.78C33.6812 49.8572 33.4469 49.135 32.8502 48.6537C32.2649 48.1816 31.3712 47.976 30.1372 47.976V48.384C31.3432 48.384 32.1195 48.5884 32.5941 48.9713C33.0574 49.345 33.2732 49.9228 33.2732 50.78H33.6812ZM30.1372 47.976H23.3572V48.384H30.1372V47.976ZM23.3572 47.976C21.9042 47.976 20.7695 48.1965 19.9938 48.7155C19.2012 49.2457 18.8132 50.0663 18.8132 51.18H19.2212C19.2212 50.1737 19.5632 49.4943 20.2206 49.0545C20.8949 48.6035 21.9302 48.384 23.3572 48.384V47.976ZM18.8132 51.18V54.52H19.2212V51.18H18.8132ZM18.8132 54.52C18.8132 55.8644 19.1637 56.8119 19.9904 57.408C20.7987 57.9907 22.021 58.204 23.6772 58.204V57.796C22.0334 57.796 20.9257 57.5793 20.229 57.077C19.5507 56.5881 19.2212 55.7956 19.2212 54.52H18.8132ZM23.6772 58.204H32.8972V57.796H23.6772V58.204ZM21.9012 52.84V51.42H21.4932V52.84H21.9012ZM21.9012 51.42C21.9012 50.9515 22.0549 50.6514 22.3337 50.4574C22.6275 50.253 23.0918 50.144 23.7572 50.144V49.736C23.0625 49.736 22.4968 49.847 22.1007 50.1226C21.6895 50.4086 21.4932 50.8485 21.4932 51.42H21.9012ZM23.7572 50.144H29.0972V49.736H23.7572V50.144ZM29.0972 50.144C29.7041 50.144 30.0778 50.2437 30.2984 50.4121C30.5053 50.5701 30.6132 50.8176 30.6132 51.22H31.0212C31.0212 50.7424 30.8891 50.3499 30.546 50.0879C30.2166 49.8363 29.7303 49.736 29.0972 49.736V50.144ZM30.6132 51.22V51.72H31.0212V51.22H30.6132ZM30.6132 51.72C30.6132 52.1367 30.5229 52.3312 30.3643 52.4436C30.1825 52.5723 29.8586 52.636 29.2772 52.636V53.044C29.8558 53.044 30.3019 52.9877 30.6001 52.7764C30.9215 52.5488 31.0212 52.1833 31.0212 51.72H30.6132ZM29.2772 52.636H21.6972V53.044H29.2772V52.636ZM38.5462 58V58.204H38.7502V58H38.5462ZM38.5462 54.06V53.856H38.3423V54.06H38.5462ZM47.7663 54.06H47.9702V53.856H47.7663V54.06ZM47.7663 58H47.5623V58.204H47.7663V58ZM50.5062 58V58.204H50.7102V58H50.5062ZM50.5062 48.18H50.7102V47.976H50.5062V48.18ZM47.7663 48.18V47.976H47.5623V48.18H47.7663ZM47.7663 52.18V52.384H47.9702V52.18H47.7663ZM38.5462 52.18H38.3423V52.384H38.5462V52.18ZM38.5462 48.18H38.7502V47.976H38.5462V48.18ZM35.7863 48.18V47.976H35.5823V48.18H35.7863ZM35.7863 58H35.5823V58.204H35.7863V58ZM38.7502 58V54.06H38.3423V58H38.7502ZM38.5462 54.264H47.7663V53.856H38.5462V54.264ZM47.5623 54.06V58H47.9702V54.06H47.5623ZM47.7663 58.204H50.5062V57.796H47.7663V58.204ZM50.7102 58V48.18H50.3023V58H50.7102ZM50.5062 47.976H47.7663V48.384H50.5062V47.976ZM47.5623 48.18V52.18H47.9702V48.18H47.5623ZM47.7663 51.976H38.5462V52.384H47.7663V51.976ZM38.7502 52.18V48.18H38.3423V52.18H38.7502ZM38.5462 47.976H35.7863V48.384H38.5462V47.976ZM35.5823 48.18V58H35.9902V48.18H35.5823ZM35.7863 58.204H38.5462V57.796H35.7863V58.204ZM61.2208 58V58.204H61.4248V58H61.2208ZM61.2208 50.06V49.856H61.0168V50.06H61.2208ZM67.1408 50.06V50.264H67.3448V50.06H67.1408ZM67.1408 48.18H67.3448V47.976H67.1408V48.18ZM52.5408 48.18V47.976H52.3368V48.18H52.5408ZM52.5408 50.06H52.3368V50.264H52.5408V50.06ZM58.4608 50.06H58.6648V49.856H58.4608V50.06ZM58.4608 58H58.2568V58.204H58.4608V58ZM61.4248 58V50.06H61.0168V58H61.4248ZM61.2208 50.264H67.1408V49.856H61.2208V50.264ZM67.3448 50.06V48.18H66.9368V50.06H67.3448ZM67.1408 47.976H52.5408V48.384H67.1408V47.976ZM52.3368 48.18V50.06H52.7448V48.18H52.3368ZM52.5408 50.264H58.4608V49.856H52.5408V50.264ZM58.2568 50.06V58H58.6648V50.06H58.2568ZM58.4608 58.204H61.2208V57.796H58.4608V58.204ZM69.1839 48.18V47.976H68.9799V48.18H69.1839ZM69.1839 62.1H68.9799V62.304H69.1839V62.1ZM71.9239 62.1V62.304H72.1279V62.1H71.9239ZM71.9239 58V57.796H71.7199V58H71.9239ZM71.9239 56.12H71.7199V56.324H71.9239V56.12ZM71.9239 50.06V49.856H71.7199V50.06H71.9239ZM78.9439 58.204C80.669 58.204 81.895 58.0678 82.6876 57.5841C83.5131 57.0805 83.8279 56.232 83.8279 54.96H83.4199C83.4199 56.168 83.1248 56.8395 82.4752 57.2359C81.7928 57.6522 80.6788 57.796 78.9439 57.796V58.204ZM83.8279 54.96V51.2H83.4199V54.96H83.8279ZM83.8279 51.2C83.8279 49.9175 83.5077 49.0732 82.6786 48.5774C81.8837 48.1021 80.658 47.976 78.9439 47.976V48.384C80.6698 48.384 81.7841 48.5179 82.4692 48.9276C83.1201 49.3168 83.4199 49.9825 83.4199 51.2H83.8279ZM78.9439 47.976H69.1839V48.384H78.9439V47.976ZM68.9799 48.18V62.1H69.3879V48.18H68.9799ZM69.1839 62.304H71.9239V61.896H69.1839V62.304ZM72.1279 62.1V58H71.7199V62.1H72.1279ZM71.9239 58.204H78.9439V57.796H71.9239V58.204ZM80.6799 54.54C80.6799 55.1311 80.5428 55.4395 80.2599 55.6242C79.9486 55.8275 79.4162 55.916 78.5239 55.916V56.324C79.4117 56.324 80.0592 56.2425 80.4829 55.9658C80.9351 55.6705 81.0879 55.1889 81.0879 54.54H80.6799ZM78.5239 55.916H71.9239V56.324H78.5239V55.916ZM72.1279 56.12V50.06H71.7199V56.12H72.1279ZM71.9239 50.264H78.6039V49.856H71.9239V50.264ZM78.6039 50.264C79.4234 50.264 79.9373 50.3519 80.2468 50.5554C80.5309 50.7422 80.6799 51.0546 80.6799 51.64H81.0879C81.0879 50.9854 80.9169 50.5078 80.471 50.2146C80.0505 49.9381 79.4244 49.856 78.6039 49.856V50.264ZM80.6799 51.64V54.54H81.0879V51.64H80.6799ZM95.3806 58V58.204H95.5846V58H95.3806ZM95.3806 50.06V49.856H95.1767V50.06H95.3806ZM104.601 50.06H104.805V49.856H104.601V50.06ZM104.601 58H104.397V58.204H104.601V58ZM107.341 58V58.204H107.545V58H107.341ZM107.341 48.18H107.545V47.976H107.341V48.18ZM92.6206 48.18V47.976H92.4167V48.18H92.6206ZM92.6206 58H92.4167V58.204H92.6206V58ZM95.5846 58V50.06H95.1767V58H95.5846ZM95.3806 50.264H104.601V49.856H95.3806V50.264ZM104.397 50.06V58H104.805V50.06H104.397ZM104.601 58.204H107.341V57.796H104.601V58.204ZM107.545 58V48.18H107.137V58H107.545ZM107.341 47.976H92.6206V48.384H107.341V47.976ZM92.4167 48.18V58H92.8246V48.18H92.4167ZM92.6206 58.204H95.3806V57.796H92.6206V58.204ZM109.915 48.18V47.976H109.711V48.18H109.915ZM109.915 62.1H109.711V62.304H109.915V62.1ZM112.655 62.1V62.304H112.859V62.1H112.655ZM112.655 58V57.796H112.451V58H112.655ZM112.655 56.12H112.451V56.324H112.655V56.12ZM112.655 50.06V49.856H112.451V50.06H112.655ZM119.675 58.204C121.4 58.204 122.626 58.0678 123.419 57.5841C124.244 57.0805 124.559 56.232 124.559 54.96H124.151C124.151 56.168 123.856 56.8395 123.206 57.2359C122.524 57.6522 121.41 57.796 119.675 57.796V58.204ZM124.559 54.96V51.2H124.151V54.96H124.559ZM124.559 51.2C124.559 49.9175 124.239 49.0732 123.41 48.5774C122.615 48.1021 121.389 47.976 119.675 47.976V48.384C121.401 48.384 122.515 48.5179 123.2 48.9276C123.851 49.3168 124.151 49.9825 124.151 51.2H124.559ZM119.675 47.976H109.915V48.384H119.675V47.976ZM109.711 48.18V62.1H110.119V48.18H109.711ZM109.915 62.304H112.655V61.896H109.915V62.304ZM112.859 62.1V58H112.451V62.1H112.859ZM112.655 58.204H119.675V57.796H112.655V58.204ZM121.411 54.54C121.411 55.1311 121.274 55.4395 120.991 55.6242C120.68 55.8275 120.147 55.916 119.255 55.916V56.324C120.143 56.324 120.79 56.2425 121.214 55.9658C121.666 55.6705 121.819 55.1889 121.819 54.54H121.411ZM119.255 55.916H112.655V56.324H119.255V55.916ZM112.859 56.12V50.06H112.451V56.12H112.859ZM112.655 50.264H119.335V49.856H112.655V50.264ZM119.335 50.264C120.155 50.264 120.669 50.3519 120.978 50.5554C121.262 50.7422 121.411 51.0546 121.411 51.64H121.819C121.819 50.9854 121.648 50.5078 121.202 50.2146C120.782 49.9381 120.156 49.856 119.335 49.856V50.264ZM121.411 51.64V54.54H121.819V51.64H121.411ZM141.539 58V58.204H141.743V58H141.539ZM141.539 48.18H141.743V47.976H141.539V48.18ZM138.779 48.18V47.976H138.707L138.65 48.0218L138.779 48.18ZM129.559 55.68H129.355V56.1089L129.688 55.8382L129.559 55.68ZM129.559 48.18H129.763V47.976H129.559V48.18ZM126.819 48.18V47.976H126.615V48.18H126.819ZM126.819 58H126.615V58.204H126.819V58ZM129.519 58V58.204H129.591L129.647 58.1585L129.519 58ZM138.799 50.48H139.003V50.0522L138.671 50.3215L138.799 50.48ZM138.799 58H138.595V58.204H138.799V58ZM141.743 58V48.18H141.335V58H141.743ZM141.539 47.976H138.779V48.384H141.539V47.976ZM138.65 48.0218L129.43 55.5218L129.688 55.8382L138.908 48.3382L138.65 48.0218ZM129.763 55.68V48.18H129.355V55.68H129.763ZM129.559 47.976H126.819V48.384H129.559V47.976ZM126.615 48.18V58H127.023V48.18H126.615ZM126.819 58.204H129.519V57.796H126.819V58.204ZM129.647 58.1585L138.927 50.6385L138.671 50.3215L129.391 57.8415L129.647 58.1585ZM138.595 50.48V58H139.003V50.48H138.595ZM138.799 58.204H141.539V57.796H138.799V58.204ZM152.254 58V58.204H152.458V58H152.254ZM152.254 50.06V49.856H152.05V50.06H152.254ZM158.174 50.06V50.264H158.378V50.06H158.174ZM158.174 48.18H158.378V47.976H158.174V48.18ZM143.574 48.18V47.976H143.37V48.18H143.574ZM143.574 50.06H143.37V50.264H143.574V50.06ZM149.494 50.06H149.698V49.856H149.494V50.06ZM149.494 58H149.29V58.204H149.494V58ZM152.458 58V50.06H152.05V58H152.458ZM152.254 50.264H158.174V49.856H152.254V50.264ZM158.378 50.06V48.18H157.97V50.06H158.378ZM158.174 47.976H143.574V48.384H158.174V47.976ZM143.37 48.18V50.06H143.778V48.18H143.37ZM143.574 50.264H149.494V49.856H143.574V50.264ZM149.29 50.06V58H149.698V50.06H149.29ZM149.494 58.204H152.254V57.796H149.494V58.204ZM160.943 54.06L160.996 54.2571L161.759 54.0536L160.993 53.8621L160.943 54.06ZM159.783 58H159.579V58.204H159.783V58ZM162.503 58V58.204H162.707V58H162.503ZM171.083 54.82H171.287V54.616H171.083V54.82ZM171.083 58.06H170.879V58.2685L171.088 58.2639L171.083 58.06ZM173.823 58L173.828 58.2039L174.027 58.1996V58H173.823ZM173.823 48.18H174.027V47.976H173.823V48.18ZM171.083 49.86H171.287V49.656H171.083V49.86ZM171.083 53.34V53.544H171.287V53.34H171.083ZM164.083 47.976C163.209 47.976 162.499 48.0124 161.926 48.0963C161.355 48.1801 160.907 48.3129 160.565 48.5142C160.217 48.7189 159.986 48.9906 159.845 49.3345C159.706 49.6719 159.659 50.0687 159.659 50.52H160.067C160.067 50.0913 160.113 49.7556 160.222 49.4892C160.329 49.2294 160.499 49.0261 160.772 48.8658C161.05 48.7021 161.44 48.5799 161.985 48.4999C162.53 48.4201 163.218 48.384 164.083 48.384V47.976ZM159.659 50.52V52.42H160.067V50.52H159.659ZM159.659 52.42C159.659 52.9763 159.775 53.3943 159.999 53.6986C160.225 54.0053 160.543 54.1702 160.894 54.2579L160.993 53.8621C160.703 53.7898 160.481 53.6647 160.327 53.4564C160.172 53.2457 160.067 52.9237 160.067 52.42H159.659ZM160.891 53.8629C160.566 53.9495 160.232 54.1062 159.981 54.41C159.729 54.7154 159.579 55.1454 159.579 55.74H159.987C159.987 55.2146 160.118 54.8846 160.295 54.67C160.474 54.4538 160.72 54.3305 160.996 54.2571L160.891 53.8629ZM159.579 55.74V58H159.987V55.74H159.579ZM159.783 58.204H162.503V57.796H159.783V58.204ZM162.707 58V56H162.299V58H162.707ZM162.707 56C162.707 55.5638 162.787 55.3405 162.912 55.2177C163.036 55.0945 163.255 55.024 163.663 55.024V54.616C163.231 54.616 162.87 54.6855 162.625 54.9273C162.38 55.1695 162.299 55.5362 162.299 56H162.707ZM163.663 55.024H171.083V54.616H163.663V55.024ZM170.879 54.82V58.06H171.287V54.82H170.879ZM171.088 58.2639L173.828 58.2039L173.819 57.7961L171.079 57.8561L171.088 58.2639ZM174.027 58V48.18H173.619V58H174.027ZM173.823 47.976H164.083V48.384H173.823V47.976ZM162.747 51.08C162.747 50.871 162.769 50.7149 162.818 50.5945C162.864 50.4804 162.937 50.3896 163.061 50.3145C163.329 50.1524 163.83 50.064 164.763 50.064V49.656C163.837 49.656 163.227 49.7376 162.85 49.9655C162.652 50.0854 162.519 50.2446 162.439 50.4418C162.362 50.6326 162.339 50.849 162.339 51.08H162.747ZM164.763 50.064H171.083V49.656H164.763V50.064ZM170.879 49.86V53.34H171.287V49.86H170.879ZM171.083 53.136H163.523V53.544H171.083V53.136ZM163.523 53.136C163.15 53.136 162.985 53.0622 162.898 52.9571C162.801 52.8405 162.747 52.6283 162.747 52.22H162.339C162.339 52.6317 162.386 52.9795 162.584 53.2179C162.792 53.4678 163.117 53.544 163.523 53.544V53.136ZM162.747 52.22V51.08H162.339V52.22H162.747ZM187.798 58V58.204H188.002V58H187.798ZM187.798 53.68V53.476H187.594V53.68H187.798ZM194.138 58H193.934V58.204H194.138V58ZM196.818 58V58.204H197.022V58H196.818ZM191.598 51.98L191.476 51.8171L190.989 52.184H191.598V51.98ZM196.638 48.18L196.761 48.3429L197.248 47.976H196.638V48.18ZM193.658 48.18V47.976H193.588L193.533 48.0193L193.658 48.18ZM187.798 52.76H187.594V53.1783L187.924 52.9207L187.798 52.76ZM187.798 48.18H188.002V47.976H187.798V48.18ZM185.178 48.18V47.976H184.974V48.18H185.178ZM185.178 52.76L185.053 52.9207L185.382 53.1783V52.76H185.178ZM179.318 48.18L179.444 48.0193L179.389 47.976H179.318V48.18ZM176.338 48.18V47.976H175.731L176.215 48.3426L176.338 48.18ZM181.358 51.98V52.184H181.966L181.482 51.8174L181.358 51.98ZM176.138 58H175.934V58.204H176.138V58ZM178.818 58V58.204H179.022V58H178.818ZM185.178 53.68H185.382V53.476H185.178V53.68ZM185.178 58H184.974V58.204H185.178V58ZM188.002 58V53.68H187.594V58H188.002ZM187.798 53.884H192.378V53.476H187.798V53.884ZM192.378 53.884C193.012 53.884 193.387 54.0026 193.607 54.207C193.823 54.4075 193.934 54.7323 193.934 55.26H194.342C194.342 54.6877 194.224 54.2225 193.885 53.908C193.55 53.5974 193.045 53.476 192.378 53.476V53.884ZM193.934 55.26V58H194.342V55.26H193.934ZM194.138 58.204H196.818V57.796H194.138V58.204ZM197.022 58V54.98H196.614V58H197.022ZM197.022 54.98C197.022 53.9492 196.719 53.1336 196.062 52.5814C195.413 52.035 194.451 51.776 193.198 51.776V52.184C194.405 52.184 195.254 52.435 195.8 52.8936C196.338 53.3464 196.614 54.0308 196.614 54.98H197.022ZM193.198 51.776H191.598V52.184H193.198V51.776ZM191.721 52.1429L196.761 48.3429L196.516 48.0171L191.476 51.8171L191.721 52.1429ZM196.638 47.976H193.658V48.384H196.638V47.976ZM193.533 48.0193L187.673 52.5993L187.924 52.9207L193.784 48.3407L193.533 48.0193ZM188.002 52.76V48.18H187.594V52.76H188.002ZM187.798 47.976H185.178V48.384H187.798V47.976ZM184.974 48.18V52.76H185.382V48.18H184.974ZM185.304 52.5993L179.444 48.0193L179.193 48.3407L185.053 52.9207L185.304 52.5993ZM179.318 47.976H176.338V48.384H179.318V47.976ZM176.215 48.3426L181.235 52.1426L181.482 51.8174L176.462 48.0174L176.215 48.3426ZM181.358 51.776H179.758V52.184H181.358V51.776ZM179.758 51.776C178.505 51.776 177.544 52.035 176.895 52.5814C176.238 53.1336 175.934 53.9492 175.934 54.98H176.342C176.342 54.0308 176.619 53.3464 177.157 52.8936C177.703 52.435 178.551 52.184 179.758 52.184V51.776ZM175.934 54.98V58H176.342V54.98H175.934ZM176.138 58.204H178.818V57.796H176.138V58.204ZM179.022 58V55.26H178.614V58H179.022ZM179.022 55.26C179.022 54.7324 179.134 54.408 179.352 54.2076C179.574 54.0029 179.954 53.884 180.598 53.884V53.476C179.923 53.476 179.413 53.5971 179.075 53.9074C178.733 54.222 178.614 54.6876 178.614 55.26H179.022ZM180.598 53.884H185.178V53.476H180.598V53.884ZM184.974 53.68V58H185.382V53.68H184.974ZM185.178 58.204H187.798V57.796H185.178V58.204ZM212.961 58V58.204H213.165V58H212.961ZM212.961 56.26H213.165V56.056H212.961V56.26ZM201.761 54.04V53.836H201.557V54.04H201.761ZM201.761 52.84H201.557V53.044H201.761V52.84ZM213.165 58V56.26H212.757V58H213.165ZM212.961 56.056H204.441V56.464H212.961V56.056ZM204.441 56.056C203.451 56.056 202.84 55.9479 202.473 55.6989C202.132 55.4665 201.965 55.0801 201.965 54.38H201.557C201.557 55.1399 201.741 55.6935 202.244 56.0361C202.723 56.3621 203.451 56.464 204.441 56.464V56.056ZM201.965 54.38V54.04H201.557V54.38H201.965ZM201.761 54.244H210.581V53.836H201.761V54.244ZM210.581 54.244C211.728 54.244 212.535 54.1285 213.049 53.7284C213.581 53.3143 213.745 52.6424 213.745 51.7H213.337C213.337 52.6176 213.172 53.1157 212.798 53.4066C212.407 53.7115 211.735 53.836 210.581 53.836V54.244ZM213.745 51.7V50.78H213.337V51.7H213.745ZM213.745 50.78C213.745 49.8572 213.511 49.135 212.914 48.6537C212.329 48.1816 211.435 47.976 210.201 47.976V48.384C211.407 48.384 212.184 48.5884 212.658 48.9713C213.122 49.345 213.337 49.9228 213.337 50.78H213.745ZM210.201 47.976H203.421V48.384H210.201V47.976ZM203.421 47.976C201.968 47.976 200.834 48.1965 200.058 48.7155C199.265 49.2457 198.877 50.0663 198.877 51.18H199.285C199.285 50.1737 199.627 49.4943 200.285 49.0545C200.959 48.6035 201.994 48.384 203.421 48.384V47.976ZM198.877 51.18V54.52H199.285V51.18H198.877ZM198.877 54.52C198.877 55.8644 199.228 56.8119 200.054 57.408C200.863 57.9907 202.085 58.204 203.741 58.204V57.796C202.097 57.796 200.99 57.5793 200.293 57.077C199.615 56.5881 199.285 55.7956 199.285 54.52H198.877ZM203.741 58.204H212.961V57.796H203.741V58.204ZM201.965 52.84V51.42H201.557V52.84H201.965ZM201.965 51.42C201.965 50.9515 202.119 50.6514 202.398 50.4574C202.692 50.253 203.156 50.144 203.821 50.144V49.736C203.127 49.736 202.561 49.847 202.165 50.1226C201.754 50.4086 201.557 50.8485 201.557 51.42H201.965ZM203.821 50.144H209.161V49.736H203.821V50.144ZM209.161 50.144C209.768 50.144 210.142 50.2437 210.362 50.4121C210.569 50.5701 210.677 50.8176 210.677 51.22H211.085C211.085 50.7424 210.953 50.3499 210.61 50.0879C210.281 49.8363 209.794 49.736 209.161 49.736V50.144ZM210.677 51.22V51.72H211.085V51.22H210.677ZM210.677 51.72C210.677 52.1367 210.587 52.3312 210.428 52.4436C210.247 52.5723 209.923 52.636 209.341 52.636V53.044C209.92 53.044 210.366 52.9877 210.664 52.7764C210.986 52.5488 211.085 52.1833 211.085 51.72H210.677ZM209.341 52.636H201.761V53.044H209.341V52.636ZM218.61 58V58.204H218.814V58H218.61ZM218.61 54.06V53.856H218.406V54.06H218.61ZM227.83 54.06H228.034V53.856H227.83V54.06ZM227.83 58H227.626V58.204H227.83V58ZM230.57 58V58.204H230.774V58H230.57ZM230.57 48.18H230.774V47.976H230.57V48.18ZM227.83 48.18V47.976H227.626V48.18H227.83ZM227.83 52.18V52.384H228.034V52.18H227.83ZM218.61 52.18H218.406V52.384H218.61V52.18ZM218.61 48.18H218.814V47.976H218.61V48.18ZM215.85 48.18V47.976H215.646V48.18H215.85ZM215.85 58H215.646V58.204H215.85V58ZM218.814 58V54.06H218.406V58H218.814ZM218.61 54.264H227.83V53.856H218.61V54.264ZM227.626 54.06V58H228.034V54.06H227.626ZM227.83 58.204H230.57V57.796H227.83V58.204ZM230.774 58V48.18H230.366V58H230.774ZM230.57 47.976H227.83V48.384H230.57V47.976ZM227.626 48.18V52.18H228.034V48.18H227.626ZM227.83 51.976H218.61V52.384H227.83V51.976ZM218.814 52.18V48.18H218.406V52.18H218.814ZM218.61 47.976H215.85V48.384H218.61V47.976ZM215.646 48.18V58H216.054V48.18H215.646ZM215.85 58.204H218.61V57.796H215.85V58.204ZM247.865 58V58.204H248.069V58H247.865ZM247.865 48.18H248.069V47.976H247.865V48.18ZM245.105 48.18V47.976H245.032L244.976 48.0218L245.105 48.18ZM235.885 55.68H235.681V56.1089L236.014 55.8382L235.885 55.68ZM235.885 48.18H236.089V47.976H235.885V48.18ZM233.145 48.18V47.976H232.941V48.18H233.145ZM233.145 58H232.941V58.204H233.145V58ZM235.845 58V58.204H235.917L235.973 58.1585L235.845 58ZM245.125 50.48H245.329V50.0522L244.996 50.3215L245.125 50.48ZM245.125 58H244.921V58.204H245.125V58ZM248.069 58V48.18H247.661V58H248.069ZM247.865 47.976H245.105V48.384H247.865V47.976ZM244.976 48.0218L235.756 55.5218L236.014 55.8382L245.234 48.3382L244.976 48.0218ZM236.089 55.68V48.18H235.681V55.68H236.089ZM235.885 47.976H233.145V48.384H235.885V47.976ZM232.941 48.18V58H233.349V48.18H232.941ZM233.145 58.204H235.845V57.796H233.145V58.204ZM235.973 58.1585L245.253 50.6385L244.996 50.3215L235.716 57.8415L235.973 58.1585ZM244.921 50.48V58H245.329V50.48H244.921ZM245.125 58.204H247.865V57.796H245.125V58.204ZM251.439 54.06L251.492 54.2571L252.255 54.0536L251.489 53.8621L251.439 54.06ZM250.279 58H250.075V58.204H250.279V58ZM252.999 58V58.204H253.203V58H252.999ZM261.579 54.82H261.783V54.616H261.579V54.82ZM261.579 58.06H261.375V58.2685L261.584 58.2639L261.579 58.06ZM264.319 58L264.324 58.2039L264.523 58.1996V58H264.319ZM264.319 48.18H264.523V47.976H264.319V48.18ZM261.579 49.86H261.783V49.656H261.579V49.86ZM261.579 53.34V53.544H261.783V53.34H261.579ZM254.579 47.976C253.705 47.976 252.995 48.0124 252.422 48.0963C251.851 48.1801 251.403 48.3129 251.061 48.5142C250.713 48.7189 250.482 48.9906 250.341 49.3345C250.202 49.6719 250.155 50.0687 250.155 50.52H250.563C250.563 50.0913 250.609 49.7556 250.718 49.4892C250.825 49.2294 250.995 49.0261 251.268 48.8658C251.546 48.7021 251.936 48.5799 252.481 48.4999C253.026 48.4201 253.714 48.384 254.579 48.384V47.976ZM250.155 50.52V52.42H250.563V50.52H250.155ZM250.155 52.42C250.155 52.9763 250.271 53.3943 250.495 53.6986C250.722 54.0053 251.039 54.1702 251.39 54.2579L251.489 53.8621C251.199 53.7898 250.977 53.6647 250.824 53.4564C250.668 53.2457 250.563 52.9237 250.563 52.42H250.155ZM251.387 53.8629C251.062 53.9495 250.728 54.1062 250.477 54.41C250.225 54.7154 250.075 55.1454 250.075 55.74H250.483C250.483 55.2146 250.614 54.8846 250.792 54.67C250.97 54.4538 251.216 54.3305 251.492 54.2571L251.387 53.8629ZM250.075 55.74V58H250.483V55.74H250.075ZM250.279 58.204H252.999V57.796H250.279V58.204ZM253.203 58V56H252.795V58H253.203ZM253.203 56C253.203 55.5638 253.283 55.3405 253.408 55.2177C253.533 55.0945 253.751 55.024 254.159 55.024V54.616C253.727 54.616 253.366 54.6855 253.121 54.9273C252.876 55.1695 252.795 55.5362 252.795 56H253.203ZM254.159 55.024H261.579V54.616H254.159V55.024ZM261.375 54.82V58.06H261.783V54.82H261.375ZM261.584 58.2639L264.324 58.2039L264.315 57.7961L261.575 57.8561L261.584 58.2639ZM264.523 58V48.18H264.115V58H264.523ZM264.319 47.976H254.579V48.384H264.319V47.976ZM253.243 51.08C253.243 50.871 253.265 50.7149 253.314 50.5945C253.36 50.4804 253.433 50.3896 253.557 50.3145C253.826 50.1524 254.326 50.064 255.259 50.064V49.656C254.333 49.656 253.723 49.7376 253.346 49.9655C253.148 50.0854 253.015 50.2446 252.936 50.4418C252.859 50.6326 252.835 50.849 252.835 51.08H253.243ZM255.259 50.064H261.579V49.656H255.259V50.064ZM261.375 49.86V53.34H261.783V49.86H261.375ZM261.579 53.136H254.019V53.544H261.579V53.136ZM254.019 53.136C253.646 53.136 253.481 53.0622 253.394 52.9571C253.297 52.8405 253.243 52.6283 253.243 52.22H252.835C252.835 52.6317 252.882 52.9795 253.08 53.2179C253.288 53.4678 253.613 53.544 254.019 53.544V53.136ZM253.243 52.22V51.08H252.835V52.22H253.243ZM17.4 83.18V83.384H17.604V83.18H17.4ZM17.4 78.12H17.604V77.916H17.4V78.12ZM15.8 78.12H15.596V78.324H15.8V78.12ZM15.8 70.18H16.004V69.976H15.8V70.18ZM13.06 70.18V69.976H12.856V70.18H13.06ZM13.06 78.12V78.324H13.264V78.12H13.06ZM3.84 78.12H3.63603V78.324H3.84V78.12ZM3.84 70.18H4.04397V69.976H3.84V70.18ZM1.08 70.18V69.976H0.876029V70.18H1.08ZM1.08 80H0.876029V80.204H1.08V80ZM15.48 80H15.684V79.796H15.48V80ZM15.48 83.18H15.276V83.384H15.48V83.18ZM17.604 83.18V78.12H17.196V83.18H17.604ZM17.4 77.916H15.8V78.324H17.4V77.916ZM16.004 78.12V70.18H15.596V78.12H16.004ZM15.8 69.976H13.06V70.384H15.8V69.976ZM12.856 70.18V78.12H13.264V70.18H12.856ZM13.06 77.916H3.84V78.324H13.06V77.916ZM4.04397 78.12V70.18H3.63603V78.12H4.04397ZM3.84 69.976H1.08V70.384H3.84V69.976ZM0.876029 70.18V80H1.28397V70.18H0.876029ZM1.08 80.204H15.48V79.796H1.08V80.204ZM15.276 80V83.18H15.684V80H15.276ZM15.48 83.384H17.4V82.976H15.48V83.384ZM34.1492 80V80.204H34.3532V80H34.1492ZM34.1492 70.18H34.3532V69.976H34.1492V70.18ZM31.3892 70.18V69.976H31.3167L31.2605 70.0218L31.3892 70.18ZM22.1692 77.68H21.9652V78.1089L22.2979 77.8382L22.1692 77.68ZM22.1692 70.18H22.3732V69.976H22.1692V70.18ZM19.4292 70.18V69.976H19.2252V70.18H19.4292ZM19.4292 80H19.2252V80.204H19.4292V80ZM22.1292 80V80.204H22.2015L22.2576 80.1585L22.1292 80ZM31.4092 72.48H31.6132V72.0522L31.2808 72.3215L31.4092 72.48ZM31.4092 80H31.2052V80.204H31.4092V80ZM34.3532 80V70.18H33.9452V80H34.3532ZM34.1492 69.976H31.3892V70.384H34.1492V69.976ZM31.2605 70.0218L22.0405 77.5218L22.2979 77.8382L31.5179 70.3382L31.2605 70.0218ZM22.3732 77.68V70.18H21.9652V77.68H22.3732ZM22.1692 69.976H19.4292V70.384H22.1692V69.976ZM19.2252 70.18V80H19.6332V70.18H19.2252ZM19.4292 80.204H22.1292V79.796H19.4292V80.204ZM22.2576 80.1585L31.5376 72.6385L31.2808 72.3215L22.0008 79.8415L22.2576 80.1585ZM31.2052 72.48V80H31.6132V72.48H31.2052ZM31.4092 80.204H34.1492V79.796H31.4092V80.204ZM47.1237 84.1V84.304H47.3277V84.1H47.1237ZM47.1237 80V79.796H46.9198V80H47.1237ZM47.1237 70.18H46.9198V70.384H47.1237V70.18ZM47.1237 66.78H47.3277V66.576H47.1237V66.78ZM44.4038 66.78V66.576H44.1998V66.78H44.4038ZM44.4038 70.18V70.384H44.6077V70.18H44.4038ZM44.4038 80H44.6077V79.796H44.4038V80ZM44.4038 84.1H44.1998V84.304H44.4038V84.1ZM47.1237 78.12H46.9198V78.324H47.1237V78.12ZM47.1237 72.06V71.856H46.9198V72.06H47.1237ZM44.4038 72.06H44.6077V71.856H44.4038V72.06ZM44.4038 78.12V78.324H44.6077V78.12H44.4038ZM47.3277 84.1V80H46.9198V84.1H47.3277ZM47.1237 80.204H50.1038V79.796H47.1237V80.204ZM50.1038 80.204C50.967 80.204 51.7031 80.174 52.3208 80.0873C52.9379 80.0008 53.4495 79.8561 53.8565 79.6187C54.2686 79.3783 54.566 79.0471 54.7572 78.6043C54.9462 78.1669 55.0277 77.6298 55.0277 76.98H54.6198C54.6198 77.6002 54.5413 78.0756 54.3828 78.4425C54.2265 78.8042 53.9889 79.0692 53.651 79.2663C53.308 79.4664 52.8547 79.6005 52.2642 79.6833C51.6744 79.766 50.9605 79.796 50.1038 79.796V80.204ZM55.0277 76.98V73.2H54.6198V76.98H55.0277ZM55.0277 73.2C55.0277 71.9247 54.6959 71.0818 53.8578 70.5846C53.0535 70.1074 51.8189 69.976 50.1038 69.976V70.384C51.8286 70.384 52.954 70.5226 53.6497 70.9354C54.3116 71.3282 54.6198 71.9953 54.6198 73.2H55.0277ZM50.1038 69.976H47.1237V70.384H50.1038V69.976ZM47.3277 70.18V66.78H46.9198V70.18H47.3277ZM47.1237 66.576H44.4038V66.984H47.1237V66.576ZM44.1998 66.78V70.18H44.6077V66.78H44.1998ZM44.4038 69.976H41.4437V70.384H44.4038V69.976ZM41.4437 69.976C39.7286 69.976 38.4939 70.1074 37.6897 70.5846C36.8516 71.0818 36.5198 71.9247 36.5198 73.2H36.9277C36.9277 71.9953 37.2359 71.3282 37.8978 70.9354C38.5935 70.5226 39.7189 70.384 41.4437 70.384V69.976ZM36.5198 73.2V76.98H36.9277V73.2H36.5198ZM36.5198 76.98C36.5198 77.6298 36.6013 78.1669 36.7903 78.6043C36.9815 79.0471 37.2789 79.3783 37.691 79.6187C38.098 79.8561 38.6096 80.0008 39.2267 80.0873C39.8444 80.174 40.5805 80.204 41.4437 80.204V79.796C40.587 79.796 39.8731 79.766 39.2833 79.6833C38.6928 79.6005 38.2395 79.4664 37.8965 79.2663C37.5586 79.0692 37.321 78.8042 37.1647 78.4425C37.0062 78.0756 36.9277 77.6002 36.9277 76.98H36.5198ZM41.4437 80.204H44.4038V79.796H41.4437V80.204ZM44.1998 80V84.1H44.6077V80H44.1998ZM44.4038 84.304H47.1237V83.896H44.4038V84.304ZM47.3277 78.12V72.06H46.9198V78.12H47.3277ZM47.1237 72.264H49.7637V71.856H47.1237V72.264ZM49.7637 72.264C50.5918 72.264 51.1171 72.3565 51.435 72.5634C51.7277 72.754 51.8798 73.0679 51.8798 73.64H52.2877C52.2877 72.9921 52.1098 72.516 51.6575 72.2216C51.2304 71.9435 50.5957 71.856 49.7637 71.856V72.264ZM51.8798 73.64V76.56H52.2877V73.64H51.8798ZM51.8798 76.56C51.8798 77.194 51.7363 77.4921 51.4617 77.6614C51.3124 77.7534 51.1069 77.8189 50.8227 77.86C50.5391 77.901 50.1907 77.916 49.7637 77.916V78.324C50.1968 78.324 50.5684 78.309 50.8811 78.2637C51.1931 78.2186 51.4601 78.1416 51.6758 78.0086C52.1312 77.7279 52.2877 77.246 52.2877 76.56H51.8798ZM49.7637 77.916H47.1237V78.324H49.7637V77.916ZM41.7837 77.916C41.3517 77.916 41.0008 77.901 40.7163 77.86C40.4311 77.8189 40.2266 77.7534 40.0788 77.6617C39.8074 77.4932 39.6677 77.1961 39.6677 76.56H39.2598C39.2598 77.2439 39.4101 77.7268 39.8637 78.0083C40.0784 78.1416 40.3451 78.2186 40.6581 78.2638C40.9717 78.309 41.3458 78.324 41.7837 78.324V77.916ZM39.6677 76.56V73.64H39.2598V76.56H39.6677ZM39.6677 73.64C39.6677 73.0659 39.816 72.7529 40.1056 72.5631C40.4205 72.3567 40.9451 72.264 41.7837 72.264V71.856C40.9424 71.856 40.307 71.9433 39.8819 72.2219C39.4315 72.5171 39.2598 72.9941 39.2598 73.64H39.6677ZM41.7837 72.264H44.4038V71.856H41.7837V72.264ZM44.1998 72.06V78.12H44.6077V72.06H44.1998ZM44.4038 77.916H41.7837V78.324H44.4038V77.916ZM57.3777 70.18V69.976H57.1737V70.18H57.3777ZM57.3777 84.1H57.1737V84.304H57.3777V84.1ZM60.1177 84.1V84.304H60.3216V84.1H60.1177ZM60.1177 80V79.796H59.9137V80H60.1177ZM60.1177 78.12H59.9137V78.324H60.1177V78.12ZM60.1177 72.06V71.856H59.9137V72.06H60.1177ZM67.1377 80.204C68.8628 80.204 70.0888 80.0678 70.8814 79.5841C71.7068 79.0805 72.0216 78.232 72.0216 76.96H71.6137C71.6137 78.168 71.3185 78.8395 70.6689 79.2359C69.9865 79.6522 68.8725 79.796 67.1377 79.796V80.204ZM72.0216 76.96V73.2H71.6137V76.96H72.0216ZM72.0216 73.2C72.0216 71.9175 71.7015 71.0732 70.8723 70.5774C70.0775 70.1021 68.8517 69.976 67.1377 69.976V70.384C68.8636 70.384 69.9779 70.5179 70.663 70.9276C71.3139 71.3168 71.6137 71.9825 71.6137 73.2H72.0216ZM67.1377 69.976H57.3777V70.384H67.1377V69.976ZM57.1737 70.18V84.1H57.5816V70.18H57.1737ZM57.3777 84.304H60.1177V83.896H57.3777V84.304ZM60.3216 84.1V80H59.9137V84.1H60.3216ZM60.1177 80.204H67.1377V79.796H60.1177V80.204ZM68.8737 76.54C68.8737 77.1311 68.7365 77.4395 68.4536 77.6242C68.1424 77.8275 67.6099 77.916 66.7177 77.916V78.324C67.6054 78.324 68.253 78.2425 68.6767 77.9658C69.1288 77.6705 69.2816 77.1889 69.2816 76.54H68.8737ZM66.7177 77.916H60.1177V78.324H66.7177V77.916ZM60.3216 78.12V72.06H59.9137V78.12H60.3216ZM60.1177 72.264H66.7977V71.856H60.1177V72.264ZM66.7977 72.264C67.6172 72.264 68.131 72.3519 68.4406 72.5554C68.7246 72.7422 68.8737 73.0546 68.8737 73.64H69.2816C69.2816 72.9854 69.1107 72.5078 68.6647 72.2146C68.2443 71.9381 67.6181 71.856 66.7977 71.856V72.264ZM68.8737 73.64V76.54H69.2816V73.64H68.8737ZM79.3416 77.916C78.9096 77.916 78.5586 77.901 78.2741 77.86C77.9889 77.8189 77.7844 77.7534 77.6366 77.6617C77.3652 77.4932 77.2255 77.1961 77.2255 76.56H76.8176C76.8176 77.2439 76.968 77.7268 77.4215 78.0083C77.6363 78.1416 77.9029 78.2186 78.2159 78.2638C78.5295 78.309 78.9036 78.324 79.3416 78.324V77.916ZM77.2255 76.56V73.64H76.8176V76.56H77.2255ZM77.2255 73.64C77.2255 73.0659 77.3738 72.7529 77.6634 72.5631C77.9784 72.3567 78.503 72.264 79.3416 72.264V71.856C78.5002 71.856 77.8648 71.9433 77.4398 72.2219C76.9893 72.5171 76.8176 72.9941 76.8176 73.64H77.2255ZM79.3416 72.264H84.1616V71.856H79.3416V72.264ZM84.1616 72.264C84.9896 72.264 85.5149 72.3565 85.8328 72.5634C86.1255 72.754 86.2776 73.0679 86.2776 73.64H86.6855C86.6855 72.9921 86.5076 72.516 86.0553 72.2216C85.6282 71.9435 84.9935 71.856 84.1616 71.856V72.264ZM86.2776 73.64V76.56H86.6855V73.64H86.2776ZM86.2776 76.56C86.2776 77.194 86.1341 77.4921 85.8595 77.6614C85.7102 77.7534 85.5047 77.8189 85.2205 77.86C84.9369 77.901 84.5885 77.916 84.1616 77.916V78.324C84.5946 78.324 84.9662 78.309 85.2789 78.2637C85.5909 78.2186 85.8579 78.1416 86.0736 78.0086C86.529 77.7279 86.6855 77.246 86.6855 76.56H86.2776ZM84.1616 77.916H79.3416V78.324H84.1616V77.916ZM84.5016 80.204C85.3648 80.204 86.1009 80.174 86.7186 80.0873C87.3357 80.0008 87.8473 79.8561 88.2543 79.6187C88.6664 79.3783 88.9638 79.0471 89.1551 78.6043C89.344 78.1669 89.4255 77.6298 89.4255 76.98H89.0176C89.0176 77.6002 88.9391 78.0756 88.7806 78.4425C88.6243 78.8042 88.3867 79.0692 88.0488 79.2663C87.7058 79.4664 87.2525 79.6005 86.662 79.6833C86.0723 79.766 85.3583 79.796 84.5016 79.796V80.204ZM89.4255 76.98V73.2H89.0176V76.98H89.4255ZM89.4255 73.2C89.4255 71.9247 89.0937 71.0818 88.2556 70.5846C87.4514 70.1074 86.2167 69.976 84.5016 69.976V70.384C86.2264 70.384 87.3518 70.5226 88.0475 70.9354C88.7094 71.3282 89.0176 71.9953 89.0176 73.2H89.4255ZM84.5016 69.976H79.0016V70.384H84.5016V69.976ZM79.0016 69.976C77.2864 69.976 76.0518 70.1074 75.2475 70.5846C74.4094 71.0818 74.0776 71.9247 74.0776 73.2H74.4855C74.4855 71.9953 74.7937 71.3282 75.4556 70.9354C76.1514 70.5226 77.2767 70.384 79.0016 70.384V69.976ZM74.0776 73.2V76.98H74.4855V73.2H74.0776ZM74.0776 76.98C74.0776 77.6298 74.1591 78.1669 74.3481 78.6043C74.5393 79.0471 74.8367 79.3783 75.2488 79.6187C75.6558 79.8561 76.1675 80.0008 76.7845 80.0873C77.4023 80.174 78.1383 80.204 79.0016 80.204V79.796C78.1448 79.796 77.4309 79.766 76.8411 79.6833C76.2507 79.6005 75.7973 79.4664 75.4543 79.2663C75.1164 79.0692 74.8788 78.8042 74.7226 78.4425C74.564 78.0756 74.4855 77.6002 74.4855 76.98H74.0776ZM79.0016 80.204H84.5016V79.796H79.0016V80.204ZM104.691 75.04L104.63 74.8452L103.913 75.0679L104.645 75.2386L104.691 75.04ZM91.7909 70.18V69.976H91.587V70.18H91.7909ZM91.7909 80H91.587V80.204H91.7909V80ZM94.5309 74.38H94.327V74.584H94.5309V74.38ZM94.5309 71.68V71.476H94.327V71.68H94.5309ZM94.5309 78.5H94.327V78.704H94.5309V78.5ZM94.5309 75.76V75.556H94.327V75.76H94.5309ZM106.055 76.72C106.055 76.1074 105.907 75.6711 105.653 75.3668C105.399 75.0633 105.062 74.9172 104.737 74.8414L104.645 75.2386C104.92 75.3028 105.163 75.4167 105.339 75.6282C105.515 75.8389 105.647 76.1726 105.647 76.72H106.055ZM104.751 75.2348C105.061 75.1388 105.374 74.9875 105.607 74.7013C105.841 74.413 105.975 74.0132 105.975 73.46H105.567C105.567 73.9468 105.451 74.247 105.29 74.4437C105.128 74.6425 104.901 74.7612 104.63 74.8452L104.751 75.2348ZM105.975 73.46V72.52H105.567V73.46H105.975ZM105.975 72.52C105.975 72.022 105.901 71.5994 105.72 71.2502C105.536 70.8964 105.249 70.635 104.857 70.4462C104.091 70.078 102.894 69.976 101.171 69.976V70.384C102.907 70.384 104.011 70.492 104.68 70.8138C105.005 70.97 105.22 71.1736 105.358 71.4385C105.498 71.7081 105.567 72.058 105.567 72.52H105.975ZM101.171 69.976H91.7909V70.384H101.171V69.976ZM91.587 70.18V80H91.9949V70.18H91.587ZM91.7909 80.204H101.171V79.796H91.7909V80.204ZM101.171 80.204C102.885 80.204 104.1 80.1068 104.887 79.7426C105.289 79.5562 105.588 79.2968 105.782 78.9421C105.975 78.5912 106.055 78.1649 106.055 77.66H105.647C105.647 78.1251 105.572 78.4763 105.425 78.7461C105.279 79.0119 105.053 79.2163 104.715 79.3724C104.022 79.6932 102.897 79.796 101.171 79.796V80.204ZM106.055 77.66V76.72H105.647V77.66H106.055ZM94.7349 74.38V71.68H94.327V74.38H94.7349ZM94.5309 71.884H100.791V71.476H94.5309V71.884ZM100.791 71.884C101.676 71.884 102.219 71.9468 102.541 72.1054C102.692 72.1803 102.788 72.2736 102.849 72.3904C102.912 72.5113 102.947 72.674 102.947 72.9H103.355C103.355 72.636 103.315 72.4012 103.21 72.2015C103.104 71.9977 102.939 71.8472 102.721 71.7396C102.303 71.5332 101.666 71.476 100.791 71.476V71.884ZM102.947 72.9V73.34H103.355V72.9H102.947ZM102.947 73.34C102.947 73.7236 102.873 73.9152 102.773 74.0169C102.674 74.1172 102.505 74.176 102.191 74.176V74.584C102.537 74.584 102.847 74.5228 103.064 74.3031C103.279 74.0848 103.355 73.7564 103.355 73.34H102.947ZM102.191 74.176H94.5309V74.584H102.191V74.176ZM102.191 75.964C102.501 75.964 102.682 76.0262 102.792 76.1396C102.904 76.2552 102.987 76.4691 102.987 76.88H103.395C103.395 76.4309 103.308 76.0848 103.085 75.8554C102.86 75.6238 102.541 75.556 102.191 75.556V75.964ZM102.987 76.88V77.3H103.395V76.88H102.987ZM102.987 77.3C102.987 77.5235 102.949 77.683 102.883 77.801C102.818 77.9158 102.717 78.0084 102.558 78.0825C102.222 78.2384 101.666 78.296 100.791 78.296V78.704C101.656 78.704 102.3 78.6516 102.729 78.4525C102.952 78.3491 103.125 78.203 103.238 78.0009C103.35 77.802 103.395 77.5665 103.395 77.3H102.987ZM100.791 78.296H94.5309V78.704H100.791V78.296ZM94.7349 78.5V75.76H94.327V78.5H94.7349ZM94.5309 75.964H102.191V75.556H94.5309V75.964ZM110.966 72.58H110.762V72.784H110.966V72.58ZM110.966 70.18H111.17V69.976H110.966V70.18ZM108.226 70.18V69.976H108.022V70.18H108.226ZM108.226 80H108.022V80.204H108.226V80ZM110.966 78.12H110.762V78.324H110.966V78.12ZM110.966 74.34V74.136H110.762V74.34H110.966ZM127.226 80V80.204H127.43V80H127.226ZM127.226 70.18H127.43V69.976H127.226V70.18ZM124.466 70.18V69.976H124.262V70.18H124.466ZM124.466 80H124.262V80.204H124.466V80ZM117.726 80.204C118.599 80.204 119.338 80.174 119.953 80.0886C120.568 80.0034 121.074 79.8613 121.474 79.6288C121.879 79.3932 122.167 79.0691 122.352 78.6373C122.534 78.2111 122.61 77.6891 122.61 77.06H122.202C122.202 77.6609 122.128 78.1214 121.977 78.4771C121.827 78.8272 121.599 79.0843 121.269 79.2762C120.933 79.4712 120.486 79.6029 119.897 79.6845C119.309 79.766 118.593 79.796 117.726 79.796V80.204ZM122.61 77.06V75.52H122.202V77.06H122.61ZM122.61 75.52C122.61 74.8981 122.524 74.3799 122.33 73.9549C122.134 73.5255 121.832 73.2021 121.42 72.9657C120.615 72.5026 119.392 72.376 117.726 72.376V72.784C119.4 72.784 120.518 72.9174 121.217 73.3193C121.558 73.5154 121.8 73.7758 121.959 74.1245C122.12 74.4776 122.202 74.9319 122.202 75.52H122.61ZM117.726 72.376H110.966V72.784H117.726V72.376ZM111.17 72.58V70.18H110.762V72.58H111.17ZM110.966 69.976H108.226V70.384H110.966V69.976ZM108.022 70.18V80H108.43V70.18H108.022ZM108.226 80.204H117.726V79.796H108.226V80.204ZM119.502 76.6C119.502 77.1774 119.362 77.469 119.075 77.6431C118.755 77.8374 118.21 77.916 117.306 77.916V78.324C118.202 78.324 118.857 78.2526 119.287 77.9919C119.75 77.711 119.91 77.2426 119.91 76.6H119.502ZM117.306 77.916H110.966V78.324H117.306V77.916ZM111.17 78.12V74.34H110.762V78.12H111.17ZM110.966 74.544H117.306V74.136H110.966V74.544ZM117.306 74.544C118.166 74.544 118.712 74.6318 119.043 74.8381C119.346 75.0269 119.502 75.3392 119.502 75.92H119.91C119.91 75.2608 119.726 74.7831 119.259 74.4919C118.82 74.2182 118.166 74.136 117.306 74.136V74.544ZM119.502 75.92V76.6H119.91V75.92H119.502ZM127.43 80V70.18H127.022V80H127.43ZM127.226 69.976H124.466V70.384H127.226V69.976ZM124.262 70.18V80H124.67V70.18H124.262ZM124.466 80.204H127.226V79.796H124.466V80.204ZM144.038 70.18L144.171 70.3349L144.59 69.976H144.038V70.18ZM140.758 70.18V69.976H140.684L140.627 70.024L140.758 70.18ZM136.698 73.6L136.565 73.7544L136.696 73.8681L136.829 73.756L136.698 73.6ZM132.738 70.18L132.871 70.0256L132.814 69.976H132.738V70.18ZM129.358 70.18V69.976H128.815L129.224 70.3335L129.358 70.18ZM134.938 75.06L135.069 75.2162L135.251 75.0631L135.072 74.9065L134.938 75.06ZM129.058 80L128.927 79.8438L128.498 80.204H129.058V80ZM132.598 80V80.204H132.673L132.731 80.155L132.598 80ZM136.738 76.46L136.871 76.305L136.738 76.1916L136.605 76.305L136.738 76.46ZM140.878 80L140.745 80.155L140.803 80.204H140.878V80ZM144.258 80V80.204H144.804L144.392 79.846L144.258 80ZM138.458 74.96L138.325 74.8051L138.146 74.9589L138.324 75.114L138.458 74.96ZM144.038 69.976H140.758V70.384H144.038V69.976ZM140.627 70.024L136.567 73.444L136.829 73.756L140.889 70.336L140.627 70.024ZM136.831 73.4456L132.871 70.0256L132.605 70.3344L136.565 73.7544L136.831 73.4456ZM132.738 69.976H129.358V70.384H132.738V69.976ZM129.224 70.3335L134.804 75.2135L135.072 74.9065L129.492 70.0265L129.224 70.3335ZM134.807 74.9038L128.927 79.8438L129.189 80.1562L135.069 75.2162L134.807 74.9038ZM129.058 80.204H132.598V79.796H129.058V80.204ZM132.731 80.155L136.871 76.615L136.605 76.305L132.465 79.845L132.731 80.155ZM136.605 76.615L140.745 80.155L141.011 79.845L136.871 76.305L136.605 76.615ZM140.878 80.204H144.258V79.796H140.878V80.204ZM144.392 79.846L138.592 74.806L138.324 75.114L144.124 80.154L144.392 79.846ZM138.591 75.1149L144.171 70.3349L143.905 70.0251L138.325 74.8051L138.591 75.1149ZM9.22 103V103.204H9.42397V103H9.22ZM9.22 95.06V94.856H9.01603V95.06H9.22ZM15.14 95.06V95.264H15.344V95.06H15.14ZM15.14 93.18H15.344V92.976H15.14V93.18ZM0.54 93.18V92.976H0.336029V93.18H0.54ZM0.54 95.06H0.336029V95.264H0.54V95.06ZM6.46 95.06H6.66397V94.856H6.46V95.06ZM6.46 103H6.25603V103.204H6.46V103ZM9.42397 103V95.06H9.01603V103H9.42397ZM9.22 95.264H15.14V94.856H9.22V95.264ZM15.344 95.06V93.18H14.936V95.06H15.344ZM15.14 92.976H0.54V93.384H15.14V92.976ZM0.336029 93.18V95.06H0.743971V93.18H0.336029ZM0.54 95.264H6.46V94.856H0.54V95.264ZM6.25603 95.06V103H6.66397V95.06H6.25603ZM6.46 103.204H9.22V102.796H6.46V103.204ZM30.6902 103V103.204H30.8941V103H30.6902ZM30.6902 101.26H30.8941V101.056H30.6902V101.26ZM19.4902 99.04V98.836H19.2862V99.04H19.4902ZM19.4902 97.84H19.2862V98.044H19.4902V97.84ZM30.8941 103V101.26H30.4862V103H30.8941ZM30.6902 101.056H22.1702V101.464H30.6902V101.056ZM22.1702 101.056C21.1804 101.056 20.5684 100.948 20.2024 100.699C19.8609 100.466 19.6941 100.08 19.6941 99.38H19.2862C19.2862 100.14 19.4694 100.694 19.9729 101.036C20.4519 101.362 21.1799 101.464 22.1702 101.464V101.056ZM19.6941 99.38V99.04H19.2862V99.38H19.6941ZM19.4902 99.244H28.3102V98.836H19.4902V99.244ZM28.3102 99.244C29.4568 99.244 30.2644 99.1285 30.778 98.7284C31.3096 98.3143 31.4741 97.6424 31.4741 96.7H31.0662C31.0662 97.6176 30.9007 98.1157 30.5273 98.4066C30.136 98.7115 29.4635 98.836 28.3102 98.836V99.244ZM31.4741 96.7V95.78H31.0662V96.7H31.4741ZM31.4741 95.78C31.4741 94.8572 31.2399 94.135 30.6432 93.6537C30.0578 93.1816 29.1642 92.976 27.9302 92.976V93.384C29.1361 93.384 29.9125 93.5884 30.3871 93.9713C30.8504 94.345 31.0662 94.9228 31.0662 95.78H31.4741ZM27.9302 92.976H21.1502V93.384H27.9302V92.976ZM21.1502 92.976C19.6971 92.976 18.5625 93.1965 17.7867 93.7155C16.9941 94.2457 16.6062 95.0663 16.6062 96.18H17.0141C17.0141 95.1737 17.3562 94.4943 18.0136 94.0545C18.6878 93.6035 19.7232 93.384 21.1502 93.384V92.976ZM16.6062 96.18V99.52H17.0141V96.18H16.6062ZM16.6062 99.52C16.6062 100.864 16.9566 101.812 17.7834 102.408C18.5917 102.991 19.8139 103.204 21.4702 103.204V102.796C19.8264 102.796 18.7187 102.579 18.0219 102.077C17.3437 101.588 17.0141 100.796 17.0141 99.52H16.6062ZM21.4702 103.204H30.6902V102.796H21.4702V103.204ZM19.6941 97.84V96.42H19.2862V97.84H19.6941ZM19.6941 96.42C19.6941 95.9515 19.8479 95.6514 20.1266 95.4574C20.4205 95.253 20.8848 95.144 21.5502 95.144V94.736C20.8555 94.736 20.2898 94.847 19.8937 95.1226C19.4824 95.4086 19.2862 95.8485 19.2862 96.42H19.6941ZM21.5502 95.144H26.8902V94.736H21.5502V95.144ZM26.8902 95.144C27.4971 95.144 27.8708 95.2437 28.0914 95.4121C28.2982 95.5701 28.4062 95.8176 28.4062 96.22H28.8141C28.8141 95.7424 28.6821 95.3499 28.3389 95.0879C28.0095 94.8363 27.5233 94.736 26.8902 94.736V95.144ZM28.4062 96.22V96.72H28.8141V96.22H28.4062ZM28.4062 96.72C28.4062 97.1367 28.3159 97.3312 28.1573 97.4436C27.9754 97.5723 27.6516 97.636 27.0702 97.636V98.044C27.6487 98.044 28.0949 97.9877 28.3931 97.7764C28.7144 97.5488 28.8141 97.1833 28.8141 96.72H28.4062ZM27.0702 97.636H19.4902V98.044H27.0702V97.636ZM47.6434 93.18L47.7761 93.3349L48.1951 92.976H47.6434V93.18ZM44.3634 93.18V92.976H44.289L44.232 93.024L44.3634 93.18ZM40.3034 96.6L40.1701 96.7544L40.3018 96.8681L40.4348 96.756L40.3034 96.6ZM36.3434 93.18L36.4768 93.0256L36.4193 92.976H36.3434V93.18ZM32.9634 93.18V92.976H32.4204L32.8292 93.3335L32.9634 93.18ZM38.5434 98.06L38.6746 98.2162L38.8568 98.0631L38.6777 97.9065L38.5434 98.06ZM32.6634 103L32.5322 102.844L32.1036 103.204H32.6634V103ZM36.2034 103V103.204H36.2788L36.336 103.155L36.2034 103ZM40.3434 99.46L40.476 99.305L40.3434 99.1916L40.2109 99.305L40.3434 99.46ZM44.4834 103L44.3509 103.155L44.4081 103.204H44.4834V103ZM47.8634 103V103.204H48.4091L47.9972 102.846L47.8634 103ZM42.0634 97.96L41.9307 97.8051L41.7512 97.9589L41.9296 98.114L42.0634 97.96ZM47.6434 92.976H44.3634V93.384H47.6434V92.976ZM44.232 93.024L40.172 96.444L40.4348 96.756L44.4948 93.336L44.232 93.024ZM40.4368 96.4456L36.4768 93.0256L36.2101 93.3344L40.1701 96.7544L40.4368 96.4456ZM36.3434 92.976H32.9634V93.384H36.3434V92.976ZM32.8292 93.3335L38.4092 98.2135L38.6777 97.9065L33.0977 93.0265L32.8292 93.3335ZM38.4122 97.9038L32.5322 102.844L32.7946 103.156L38.6746 98.2162L38.4122 97.9038ZM32.6634 103.204H36.2034V102.796H32.6634V103.204ZM36.336 103.155L40.476 99.615L40.2109 99.305L36.0709 102.845L36.336 103.155ZM40.2109 99.615L44.3509 103.155L44.616 102.845L40.476 99.305L40.2109 99.615ZM44.4834 103.204H47.8634V102.796H44.4834V103.204ZM47.9972 102.846L42.1972 97.806L41.9296 98.114L47.7296 103.154L47.9972 102.846ZM42.1961 98.1149L47.7761 93.3349L47.5107 93.0251L41.9307 97.8051L42.1961 98.1149ZM52.4619 103V103.204H52.6658V103H52.4619ZM52.4619 99.06V98.856H52.2579V99.06H52.4619ZM61.6819 99.06H61.8858V98.856H61.6819V99.06ZM61.6819 103H61.4779V103.204H61.6819V103ZM64.4219 103V103.204H64.6258V103H64.4219ZM64.4219 93.18H64.6258V92.976H64.4219V93.18ZM61.6819 93.18V92.976H61.4779V93.18H61.6819ZM61.6819 97.18V97.384H61.8858V97.18H61.6819ZM52.4619 97.18H52.2579V97.384H52.4619V97.18ZM52.4619 93.18H52.6658V92.976H52.4619V93.18ZM49.7019 93.18V92.976H49.4979V93.18H49.7019ZM49.7019 103H49.4979V103.204H49.7019V103ZM52.6658 103V99.06H52.2579V103H52.6658ZM52.4619 99.264H61.6819V98.856H52.4619V99.264ZM61.4779 99.06V103H61.8858V99.06H61.4779ZM61.6819 103.204H64.4219V102.796H61.6819V103.204ZM64.6258 103V93.18H64.2179V103H64.6258ZM64.4219 92.976H61.6819V93.384H64.4219V92.976ZM61.4779 93.18V97.18H61.8858V93.18H61.4779ZM61.6819 96.976H52.4619V97.384H61.6819V96.976ZM52.6658 97.18V93.18H52.2579V97.18H52.6658ZM52.4619 92.976H49.7019V93.384H52.4619V92.976ZM49.4979 93.18V103H49.9058V93.18H49.4979ZM49.7019 103.204H52.4619V102.796H49.7019V103.204ZM72.0564 100.916C71.6244 100.916 71.2734 100.901 70.989 100.86C70.7038 100.819 70.4992 100.753 70.3515 100.662C70.08 100.493 69.9404 100.196 69.9404 99.56H69.5324C69.5324 100.244 69.6828 100.727 70.1363 101.008C70.3511 101.142 70.6178 101.219 70.9307 101.264C71.2444 101.309 71.6184 101.324 72.0564 101.324V100.916ZM69.9404 99.56V96.64H69.5324V99.56H69.9404ZM69.9404 96.64C69.9404 96.0659 70.0886 95.7529 70.3782 95.5631C70.6932 95.3567 71.2178 95.264 72.0564 95.264V94.856C71.215 94.856 70.5796 94.9433 70.1546 95.2219C69.7042 95.5171 69.5324 95.9941 69.5324 96.64H69.9404ZM72.0564 95.264H76.8764V94.856H72.0564V95.264ZM76.8764 95.264C77.7044 95.264 78.2297 95.3565 78.5476 95.5634C78.8404 95.754 78.9924 96.0679 78.9924 96.64H79.4004C79.4004 95.9921 79.2225 95.516 78.7702 95.2216C78.3431 94.9435 77.7084 94.856 76.8764 94.856V95.264ZM78.9924 96.64V99.56H79.4004V96.64H78.9924ZM78.9924 99.56C78.9924 100.194 78.8489 100.492 78.5744 100.661C78.4251 100.753 78.2195 100.819 77.9353 100.86C77.6518 100.901 77.3033 100.916 76.8764 100.916V101.324C77.3095 101.324 77.681 101.309 77.9937 101.264C78.3058 101.219 78.5727 101.142 78.7884 101.009C79.2439 100.728 79.4004 100.246 79.4004 99.56H78.9924ZM76.8764 100.916H72.0564V101.324H76.8764V100.916ZM77.2164 103.204C78.0796 103.204 78.8157 103.174 79.4335 103.087C80.0505 103.001 80.5622 102.856 80.9692 102.619C81.3812 102.378 81.6786 102.047 81.8699 101.604C82.0589 101.167 82.1404 100.63 82.1404 99.98H81.7324C81.7324 100.6 81.6539 101.076 81.4954 101.443C81.3392 101.804 81.1016 102.069 80.7636 102.266C80.4206 102.466 79.9673 102.6 79.3768 102.683C78.7871 102.766 78.0732 102.796 77.2164 102.796V103.204ZM82.1404 99.98V96.2H81.7324V99.98H82.1404ZM82.1404 96.2C82.1404 94.9247 81.8085 94.0818 80.9705 93.5846C80.1662 93.1074 78.9316 92.976 77.2164 92.976V93.384C78.9412 93.384 80.0666 93.5226 80.7623 93.9354C81.4243 94.3282 81.7324 94.9953 81.7324 96.2H82.1404ZM77.2164 92.976H71.7164V93.384H77.2164V92.976ZM71.7164 92.976C70.0012 92.976 68.7666 93.1074 67.9623 93.5846C67.1243 94.0818 66.7924 94.9247 66.7924 96.2H67.2004C67.2004 94.9953 67.5085 94.3282 68.1705 93.9354C68.8662 93.5226 69.9916 93.384 71.7164 93.384V92.976ZM66.7924 96.2V99.98H67.2004V96.2H66.7924ZM66.7924 99.98C66.7924 100.63 66.8739 101.167 67.0629 101.604C67.2542 102.047 67.5516 102.378 67.9636 102.619C68.3706 102.856 68.8823 103.001 69.4993 103.087C70.1171 103.174 70.8532 103.204 71.7164 103.204V102.796C70.8596 102.796 70.1457 102.766 69.556 102.683C68.9655 102.6 68.5122 102.466 68.1692 102.266C67.8312 102.069 67.5936 101.804 67.4374 101.443C67.2789 101.076 67.2004 100.6 67.2004 99.98H66.7924ZM71.7164 103.204H77.2164V102.796H71.7164V103.204ZM83.3989 101.12V100.916H83.1949V101.12H83.3989ZM83.3989 103H83.1949V103.204H83.3989V103ZM88.4789 95.06V94.856H88.2749V95.06H88.4789ZM96.0189 95.06H96.2229V94.856H96.0189V95.06ZM96.0189 103H95.8149V103.204H96.0189V103ZM98.7589 103V103.204H98.9629V103H98.7589ZM98.7589 93.18H98.9629V92.976H98.7589V93.18ZM86.0989 93.18V92.976H85.8949V93.18H86.0989ZM85.8949 95.12C85.8949 96.5088 85.8687 97.5717 85.7997 98.3859C85.7305 99.2033 85.6195 99.7527 85.4591 100.124C85.3034 100.485 85.1047 100.671 84.8486 100.776C84.5772 100.887 84.2237 100.916 83.7389 100.916V101.324C84.2242 101.324 84.6506 101.298 85.0035 101.153C85.3719 101.002 85.642 100.73 85.8337 100.286C86.0208 99.8523 86.136 99.2492 86.2062 98.4203C86.2767 97.5883 86.3029 96.5112 86.3029 95.12H85.8949ZM83.7389 100.916H83.3989V101.324H83.7389V100.916ZM83.1949 101.12V103H83.6029V101.12H83.1949ZM83.3989 103.204H84.0989V102.796H83.3989V103.204ZM84.0989 103.204C85.8522 103.204 87.0551 102.973 87.775 101.807C88.1256 101.239 88.3501 100.466 88.4889 99.4328C88.6279 98.3973 88.6829 97.0828 88.6829 95.42H88.2749C88.2749 97.0772 88.2199 98.3702 88.0846 99.3785C87.949 100.389 87.7347 101.096 87.4278 101.593C86.8328 102.557 85.8456 102.796 84.0989 102.796V103.204ZM88.6829 95.42V95.06H88.2749V95.42H88.6829ZM88.4789 95.264H96.0189V94.856H88.4789V95.264ZM95.8149 95.06V103H96.2229V95.06H95.8149ZM96.0189 103.204H98.7589V102.796H96.0189V103.204ZM98.9629 103V93.18H98.5549V103H98.9629ZM98.7589 92.976H86.0989V93.384H98.7589V92.976ZM85.8949 93.18V95.12H86.3029V93.18H85.8949ZM106.392 100.916C105.96 100.916 105.609 100.901 105.324 100.86C105.039 100.819 104.834 100.753 104.687 100.662C104.415 100.493 104.276 100.196 104.276 99.56H103.868C103.868 100.244 104.018 100.727 104.471 101.008C104.686 101.142 104.953 101.219 105.266 101.264C105.58 101.309 105.954 101.324 106.392 101.324V100.916ZM104.276 99.56V96.64H103.868V99.56H104.276ZM104.276 96.64C104.276 96.0659 104.424 95.7529 104.713 95.5631C105.028 95.3567 105.553 95.264 106.392 95.264V94.856C105.55 94.856 104.915 94.9433 104.49 95.2219C104.039 95.5171 103.868 95.9941 103.868 96.64H104.276ZM106.392 95.264H111.212V94.856H106.392V95.264ZM111.212 95.264C112.04 95.264 112.565 95.3565 112.883 95.5634C113.176 95.754 113.328 96.0679 113.328 96.64H113.736C113.736 95.9921 113.558 95.516 113.105 95.2216C112.678 94.9435 112.044 94.856 111.212 94.856V95.264ZM113.328 96.64V99.56H113.736V96.64H113.328ZM113.328 99.56C113.328 100.194 113.184 100.492 112.91 100.661C112.76 100.753 112.555 100.819 112.27 100.86C111.987 100.901 111.638 100.916 111.212 100.916V101.324C111.645 101.324 112.016 101.309 112.329 101.264C112.641 101.219 112.908 101.142 113.124 101.009C113.579 100.728 113.736 100.246 113.736 99.56H113.328ZM111.212 100.916H106.392V101.324H111.212V100.916ZM111.552 103.204C112.415 103.204 113.151 103.174 113.769 103.087C114.386 103.001 114.897 102.856 115.304 102.619C115.716 102.378 116.014 102.047 116.205 101.604C116.394 101.167 116.476 100.63 116.476 99.98H116.068C116.068 100.6 115.989 101.076 115.831 101.443C115.674 101.804 115.437 102.069 115.099 102.266C114.756 102.466 114.302 102.6 113.712 102.683C113.122 102.766 112.408 102.796 111.552 102.796V103.204ZM116.476 99.98V96.2H116.068V99.98H116.476ZM116.476 96.2C116.476 94.9247 116.144 94.0818 115.306 93.5846C114.501 93.1074 113.267 92.976 111.552 92.976V93.384C113.276 93.384 114.402 93.5226 115.097 93.9354C115.759 94.3282 116.068 94.9953 116.068 96.2H116.476ZM111.552 92.976H106.052V93.384H111.552V92.976ZM106.052 92.976C104.336 92.976 103.102 93.1074 102.297 93.5846C101.459 94.0818 101.128 94.9247 101.128 96.2H101.536C101.536 94.9953 101.844 94.3282 102.506 93.9354C103.201 93.5226 104.327 93.384 106.052 93.384V92.976ZM101.128 96.2V99.98H101.536V96.2H101.128ZM101.128 99.98C101.128 100.63 101.209 101.167 101.398 101.604C101.589 102.047 101.887 102.378 102.299 102.619C102.706 102.856 103.217 103.001 103.834 103.087C104.452 103.174 105.188 103.204 106.052 103.204V102.796C105.195 102.796 104.481 102.766 103.891 102.683C103.301 102.6 102.847 102.466 102.504 102.266C102.166 102.069 101.929 101.804 101.773 101.443C101.614 101.076 101.536 100.6 101.536 99.98H101.128ZM106.052 103.204H111.552V102.796H106.052V103.204ZM121.601 103V103.204H121.805V103H121.601ZM121.601 95.06V94.856H121.397V95.06H121.601ZM130.541 95.06V95.264H130.745V95.06H130.541ZM130.541 93.18H130.745V92.976H130.541V93.18ZM118.841 93.18V92.976H118.637V93.18H118.841ZM118.841 103H118.637V103.204H118.841V103ZM121.805 103V95.06H121.397V103H121.805ZM121.601 95.264H130.541V94.856H121.601V95.264ZM130.745 95.06V93.18H130.337V95.06H130.745ZM130.541 92.976H118.841V93.384H130.541V92.976ZM118.637 93.18V103H119.045V93.18H118.637ZM118.841 103.204H121.601V102.796H118.841V103.204ZM147.281 103V103.204H147.485V103H147.281ZM147.281 93.18H147.485V92.976H147.281V93.18ZM144.521 93.18V92.976H144.449L144.393 93.0218L144.521 93.18ZM135.301 100.68H135.097V101.109L135.43 100.838L135.301 100.68ZM135.301 93.18H135.505V92.976H135.301V93.18ZM132.561 93.18V92.976H132.357V93.18H132.561ZM132.561 103H132.357V103.204H132.561V103ZM135.261 103V103.204H135.334L135.39 103.158L135.261 103ZM144.541 95.48H144.745V95.0522L144.413 95.3215L144.541 95.48ZM144.541 103H144.337V103.204H144.541V103ZM147.485 103V93.18H147.077V103H147.485ZM147.281 92.976H144.521V93.384H147.281V92.976ZM144.393 93.0218L135.173 100.522L135.43 100.838L144.65 93.3382L144.393 93.0218ZM135.505 100.68V93.18H135.097V100.68H135.505ZM135.301 92.976H132.561V93.384H135.301V92.976ZM132.357 93.18V103H132.765V93.18H132.357ZM132.561 103.204H135.261V102.796H132.561V103.204ZM135.39 103.158L144.67 95.6385L144.413 95.3215L135.133 102.842L135.39 103.158ZM144.337 95.48V103H144.745V95.48H144.337ZM144.541 103.204H147.281V102.796H144.541V103.204ZM164.576 103V103.204H164.78V103H164.576ZM164.576 93.18H164.78V92.976H164.576V93.18ZM161.816 93.18V92.976H161.743L161.687 93.0218L161.816 93.18ZM152.596 100.68H152.392V101.109L152.725 100.838L152.596 100.68ZM152.596 93.18H152.8V92.976H152.596V93.18ZM149.856 93.18V92.976H149.652V93.18H149.856ZM149.856 103H149.652V103.204H149.856V103ZM152.556 103V103.204H152.628L152.684 103.158L152.556 103ZM161.836 95.48H162.04V95.0522L161.707 95.3215L161.836 95.48ZM161.836 103H161.632V103.204H161.836V103ZM160.896 87.6H161.1V87.396H160.896V87.6ZM159.516 87.6V87.396H159.312V87.6H159.516ZM154.856 87.6H155.06V87.396H154.856V87.6ZM153.476 87.6V87.396H153.272V87.6H153.476ZM164.78 103V93.18H164.372V103H164.78ZM164.576 92.976H161.816V93.384H164.576V92.976ZM161.687 93.0218L152.467 100.522L152.725 100.838L161.945 93.3382L161.687 93.0218ZM152.8 100.68V93.18H152.392V100.68H152.8ZM152.596 92.976H149.856V93.384H152.596V92.976ZM149.652 93.18V103H150.06V93.18H149.652ZM149.856 103.204H152.556V102.796H149.856V103.204ZM152.684 103.158L161.964 95.6385L161.707 95.3215L152.427 102.842L152.684 103.158ZM161.632 95.48V103H162.04V95.48H161.632ZM161.836 103.204H164.576V102.796H161.836V103.204ZM157.756 92.144C158.891 92.144 159.746 92.039 160.308 91.5893C160.885 91.1279 161.1 90.3531 161.1 89.18H160.692C160.692 90.3269 160.477 90.9321 160.053 91.2707C159.616 91.621 158.9 91.736 157.756 91.736V92.144ZM161.1 89.18V87.6H160.692V89.18H161.1ZM160.896 87.396H159.516V87.804H160.896V87.396ZM159.312 87.6V89.22H159.72V87.6H159.312ZM159.312 89.22C159.312 89.89 159.19 90.1984 158.988 90.361C158.771 90.5352 158.403 90.596 157.756 90.596V91.004C158.388 91.004 158.9 90.9548 159.244 90.679C159.601 90.3916 159.72 89.91 159.72 89.22H159.312ZM157.756 90.596H156.636V91.004H157.756V90.596ZM156.636 90.596C156.309 90.596 156.048 90.5822 155.838 90.5437C155.628 90.5054 155.483 90.4449 155.379 90.361C155.177 90.1991 155.06 89.8922 155.06 89.22H154.652C154.652 89.9078 154.764 90.3909 155.123 90.679C155.299 90.8201 155.516 90.8996 155.764 90.945C156.011 90.9903 156.302 91.004 156.636 91.004V90.596ZM155.06 89.22V87.6H154.652V89.22H155.06ZM154.856 87.396H153.476V87.804H154.856V87.396ZM153.272 87.6V89.18H153.68V87.6H153.272ZM153.272 89.18C153.272 90.3846 153.502 91.1608 154.091 91.6141C154.663 92.0543 155.523 92.144 156.636 92.144V91.736C155.509 91.736 154.788 91.6357 154.34 91.2909C153.909 90.9592 153.68 90.3554 153.68 89.18H153.272ZM156.636 92.144H157.756V91.736H156.636V92.144ZM186.583 98.04L186.523 97.8452L185.805 98.0679L186.537 98.2386L186.583 98.04ZM173.683 93.18V92.976H173.479V93.18H173.683ZM173.683 103H173.479V103.204H173.683V103ZM176.423 97.38H176.219V97.584H176.423V97.38ZM176.423 94.68V94.476H176.219V94.68H176.423ZM176.423 101.5H176.219V101.704H176.423V101.5ZM176.423 98.76V98.556H176.219V98.76H176.423ZM187.947 99.72C187.947 99.1074 187.799 98.6711 187.545 98.3668C187.291 98.0633 186.954 97.9172 186.629 97.8414L186.537 98.2386C186.812 98.3028 187.055 98.4167 187.232 98.6282C187.407 98.8389 187.539 99.1726 187.539 99.72H187.947ZM186.644 98.2348C186.953 98.1388 187.266 97.9875 187.499 97.7013C187.734 97.413 187.867 97.0132 187.867 96.46H187.459C187.459 96.9468 187.343 97.247 187.182 97.4437C187.021 97.6425 186.793 97.7612 186.523 97.8452L186.644 98.2348ZM187.867 96.46V95.52H187.459V96.46H187.867ZM187.867 95.52C187.867 95.022 187.794 94.5994 187.612 94.2502C187.428 93.8964 187.142 93.635 186.749 93.4462C185.983 93.078 184.787 92.976 183.063 92.976V93.384C184.8 93.384 185.903 93.492 186.572 93.8138C186.897 93.97 187.112 94.1736 187.25 94.4385C187.39 94.7081 187.459 95.058 187.459 95.52H187.867ZM183.063 92.976H173.683V93.384H183.063V92.976ZM173.479 93.18V103H173.887V93.18H173.479ZM173.683 103.204H183.063V102.796H173.683V103.204ZM183.063 103.204C184.777 103.204 185.992 103.107 186.779 102.743C187.181 102.556 187.48 102.297 187.674 101.942C187.867 101.591 187.947 101.165 187.947 100.66H187.539C187.539 101.125 187.465 101.476 187.317 101.746C187.171 102.012 186.945 102.216 186.607 102.372C185.914 102.693 184.789 102.796 183.063 102.796V103.204ZM187.947 100.66V99.72H187.539V100.66H187.947ZM176.627 97.38V94.68H176.219V97.38H176.627ZM176.423 94.884H182.683V94.476H176.423V94.884ZM182.683 94.884C183.568 94.884 184.111 94.9468 184.433 95.1054C184.585 95.1803 184.68 95.2736 184.741 95.3904C184.804 95.5113 184.839 95.674 184.839 95.9H185.247C185.247 95.636 185.207 95.4012 185.103 95.2015C184.996 94.9977 184.832 94.8472 184.613 94.7396C184.195 94.5332 183.558 94.476 182.683 94.476V94.884ZM184.839 95.9V96.34H185.247V95.9H184.839ZM184.839 96.34C184.839 96.7236 184.765 96.9152 184.665 97.0169C184.567 97.1172 184.397 97.176 184.083 97.176V97.584C184.429 97.584 184.74 97.5228 184.956 97.3031C185.171 97.0848 185.247 96.7564 185.247 96.34H184.839ZM184.083 97.176H176.423V97.584H184.083V97.176ZM184.083 98.964C184.393 98.964 184.574 99.0262 184.684 99.1396C184.797 99.2552 184.879 99.4691 184.879 99.88H185.287C185.287 99.4309 185.2 99.0848 184.977 98.8554C184.752 98.6238 184.433 98.556 184.083 98.556V98.964ZM184.879 99.88V100.3H185.287V99.88H184.879ZM184.879 100.3C184.879 100.524 184.841 100.683 184.775 100.801C184.71 100.916 184.609 101.008 184.45 101.082C184.114 101.238 183.558 101.296 182.683 101.296V101.704C183.548 101.704 184.193 101.652 184.621 101.453C184.844 101.349 185.017 101.203 185.131 101.001C185.242 100.802 185.287 100.566 185.287 100.3H184.879ZM182.683 101.296H176.423V101.704H182.683V101.296ZM176.627 101.5V98.76H176.219V101.5H176.627ZM176.423 98.964H184.083V98.556H176.423V98.964ZM208.891 103L208.704 103.082L208.758 103.204H208.891V103ZM211.791 103V103.204H212.112L211.976 102.913L211.791 103ZM205.571 89.78L205.756 89.6932L205.701 89.576H205.571V89.78ZM202.131 89.78V89.576H202.002L201.947 89.6932L202.131 89.78ZM195.911 103L195.727 102.913L195.59 103.204H195.911V103ZM198.911 103V103.204H199.045L199.098 103.081L198.911 103ZM200.051 100.36V100.156H199.917L199.864 100.279L200.051 100.36ZM207.731 100.36L207.918 100.278L207.864 100.156H207.731V100.36ZM203.871 91.6L204.058 91.5177L203.87 91.0916L203.684 91.5186L203.871 91.6ZM206.931 98.54V98.744H207.244L207.118 98.4577L206.931 98.54ZM200.851 98.54L200.664 98.4586L200.54 98.744H200.851V98.54ZM208.891 103.204H211.791V102.796H208.891V103.204ZM211.976 102.913L205.756 89.6932L205.387 89.8668L211.607 103.087L211.976 102.913ZM205.571 89.576H202.131V89.984H205.571V89.576ZM201.947 89.6932L195.727 102.913L196.096 103.087L202.316 89.8668L201.947 89.6932ZM195.911 103.204H198.911V102.796H195.911V103.204ZM199.098 103.081L200.238 100.441L199.864 100.279L198.724 102.919L199.098 103.081ZM200.051 100.564H207.731V100.156H200.051V100.564ZM207.544 100.442L208.704 103.082L209.078 102.918L207.918 100.278L207.544 100.442ZM203.684 91.6823L206.744 98.6223L207.118 98.4577L204.058 91.5177L203.684 91.6823ZM206.931 98.336H200.851V98.744H206.931V98.336ZM201.038 98.6214L204.058 91.6814L203.684 91.5186L200.664 98.4586L201.038 98.6214ZM228.314 103V103.204H228.518V103H228.314ZM228.314 89.78H228.518V89.576H228.314V89.78ZM213.614 89.78V89.576H213.41V89.78H213.614ZM213.614 103H213.41V103.204H213.614V103ZM216.354 103V103.204H216.558V103H216.354ZM216.354 91.66V91.456H216.15V91.66H216.354ZM225.594 91.66H225.798V91.456H225.594V91.66ZM225.594 103H225.39V103.204H225.594V103ZM228.518 103V89.78H228.11V103H228.518ZM228.314 89.576H213.614V89.984H228.314V89.576ZM213.41 89.78V103H213.818V89.78H213.41ZM213.614 103.204H216.354V102.796H213.614V103.204ZM216.558 103V91.66H216.15V103H216.558ZM216.354 91.864H225.594V91.456H216.354V91.864ZM225.39 91.66V103H225.798V91.66H225.39ZM225.594 103.204H228.314V102.796H225.594V103.204ZM245.729 103V103.204H245.933V103H245.729ZM237.469 95.56L237.352 95.3933L236.826 95.764H237.469V95.56ZM245.669 89.78L245.787 89.9467L246.312 89.576H245.669V89.78ZM242.489 89.78V89.576H242.423L242.37 89.6144L242.489 89.78ZM233.589 96.18H233.385V96.5779L233.708 96.3456L233.589 96.18ZM233.589 89.78H233.793V89.576H233.589V89.78ZM230.869 89.78V89.576H230.665V89.78H230.869ZM230.869 103H230.665V103.204H230.869V103ZM233.589 103V103.204H233.793V103H233.589ZM233.589 97.32V97.116H233.385V97.32H233.589ZM243.009 103H242.805V103.204H243.009V103ZM245.933 103V98.46H245.525V103H245.933ZM245.933 98.46C245.933 97.4515 245.696 96.6558 245.077 96.1207C244.467 95.5923 243.525 95.356 242.209 95.356V95.764C243.493 95.764 244.312 95.9977 244.811 96.4293C245.302 96.8542 245.525 97.5085 245.525 98.46H245.933ZM242.209 95.356H237.469V95.764H242.209V95.356ZM237.587 95.7267L245.787 89.9467L245.552 89.6133L237.352 95.3933L237.587 95.7267ZM245.669 89.576H242.489V89.984H245.669V89.576ZM242.37 89.6144L233.47 96.0144L233.708 96.3456L242.608 89.9456L242.37 89.6144ZM233.793 96.18V89.78H233.385V96.18H233.793ZM233.589 89.576H230.869V89.984H233.589V89.576ZM230.665 89.78V103H231.073V89.78H230.665ZM230.869 103.204H233.589V102.796H230.869V103.204ZM233.793 103V97.32H233.385V103H233.793ZM233.589 97.524H240.849V97.116H233.589V97.524ZM240.849 97.524C241.626 97.524 242.106 97.6538 242.392 97.8879C242.668 98.1131 242.805 98.4701 242.805 99.04H243.213C243.213 98.4099 243.06 97.9069 242.651 97.5721C242.252 97.2462 241.652 97.116 240.849 97.116V97.524ZM242.805 99.04V103H243.213V99.04H242.805ZM243.009 103.204H245.729V102.796H243.009V103.204Z" fill="white"/>
<path d="M17.8758 18.48C23.4438 18.48 25.3958 17.648 25.3958 13.424V9.904C25.3958 5.712 23.5398 4.848 17.8758 4.848H1.97175V26H6.35575V18.48H17.8758ZM21.0438 12.624C21.0438 14.992 20.0838 15.568 17.1078 15.568H6.35575V7.856H17.1078C20.0838 7.856 21.0438 8.464 21.0438 10.768V12.624ZM52.288 26V4.848H47.872L33.152 21.328V4.848H28.768V26H33.184L47.904 9.552V26H52.288ZM79.8968 18.864C79.8968 16.464 78.7128 15.6 77.5608 15.312C78.6808 14.992 79.7368 14.064 79.7368 11.984V9.904C79.7368 5.776 77.9448 4.848 72.3768 4.848H56.3768V26H72.3768C77.9128 26 79.8968 25.136 79.8968 20.944V18.864ZM60.7608 14V7.856H71.7688C74.5848 7.856 75.5128 8.432 75.5128 10.672V11.696C75.5128 13.36 74.8088 14 73.2728 14H60.7608ZM73.2728 16.784C74.8088 16.784 75.6088 17.36 75.6088 19.216V20.208C75.6088 22.48 74.5528 22.992 71.7688 22.992H60.7608V16.784H73.2728ZM110.263 32.56V22.992H107.287V4.848H102.903V22.992H88.1508V4.848H83.7667V26H106.775V32.56H110.263ZM141.169 17.264V15.088H122.705V17.264H141.169Z" fill="white"/>
<path d="M1.97175 4.848V4.34916H1.47291V4.848H1.97175ZM1.97175 26H1.47291V26.4988H1.97175V26ZM6.35575 26V26.4988H6.8546V26H6.35575ZM6.35575 18.48V17.9812H5.85691V18.48H6.35575ZM6.35575 15.568H5.85691V16.0668H6.35575V15.568ZM6.35575 7.856V7.35716H5.85691V7.856H6.35575ZM17.8758 18.9788C19.2762 18.9788 20.471 18.9268 21.4733 18.7774C22.4742 18.6282 23.3147 18.3777 23.9871 17.9597C25.3892 17.0881 25.8946 15.6026 25.8946 13.424H24.8969C24.8969 15.4694 24.4263 16.5119 23.4604 17.1123C22.9488 17.4303 22.2573 17.6518 21.3262 17.7906C20.3965 17.9292 19.2593 17.9812 17.8758 17.9812V18.9788ZM25.8946 13.424V9.904H24.8969V13.424H25.8946ZM25.8946 9.904C25.8946 7.7475 25.4166 6.26015 24.0261 5.3822C23.3589 4.96097 22.5204 4.70706 21.5147 4.55524C20.5075 4.4032 19.3005 4.34916 17.8758 4.34916V5.34684C19.283 5.34684 20.432 5.40079 21.3658 5.54175C22.3011 5.68294 22.9886 5.90703 23.4934 6.2258C24.4469 6.82785 24.8969 7.8685 24.8969 9.904H25.8946ZM17.8758 4.34916H1.97175V5.34684H17.8758V4.34916ZM1.47291 4.848V26H2.47059V4.848H1.47291ZM1.97175 26.4988H6.35575V25.5012H1.97175V26.4988ZM6.8546 26V18.48H5.85691V26H6.8546ZM6.35575 18.9788H17.8758V17.9812H6.35575V18.9788ZM20.5449 12.624C20.5449 13.761 20.3114 14.2836 19.9006 14.579C19.4336 14.9147 18.6046 15.0692 17.1078 15.0692V16.0668C18.5869 16.0668 19.7259 15.9333 20.483 15.389C21.2961 14.8044 21.5426 13.855 21.5426 12.624H20.5449ZM17.1078 15.0692H6.35575V16.0668H17.1078V15.0692ZM6.8546 15.568V7.856H5.85691V15.568H6.8546ZM6.35575 8.35484H17.1078V7.35716H6.35575V8.35484ZM17.1078 8.35484C18.6009 8.35484 19.4323 8.51641 19.9006 8.85303C20.3136 9.15002 20.5449 9.66763 20.5449 10.768H21.5426C21.5426 9.56437 21.2939 8.62598 20.483 8.04297C19.7272 7.49959 18.5906 7.35716 17.1078 7.35716V8.35484ZM20.5449 10.768V12.624H21.5426V10.768H20.5449ZM52.288 26V26.4988H52.7868V26H52.288ZM52.288 4.848H52.7868V4.34916H52.288V4.848ZM47.872 4.848V4.34916H47.6487L47.5 4.51569L47.872 4.848ZM33.152 21.328H32.6532V22.6353L33.524 21.6603L33.152 21.328ZM33.152 4.848H33.6508V4.34916H33.152V4.848ZM28.768 4.848V4.34916H28.2692V4.848H28.768ZM28.768 26H28.2692V26.4988H28.768V26ZM33.184 26V26.4988H33.407L33.5557 26.3327L33.184 26ZM47.904 9.552H48.4028V8.24657L47.5323 9.21933L47.904 9.552ZM47.904 26H47.4052V26.4988H47.904V26ZM52.7868 26V4.848H51.7892V26H52.7868ZM52.288 4.34916H47.872V5.34684H52.288V4.34916ZM47.5 4.51569L32.78 20.9957L33.524 21.6603L48.244 5.18031L47.5 4.51569ZM33.6508 21.328V4.848H32.6532V21.328H33.6508ZM33.152 4.34916H28.768V5.34684H33.152V4.34916ZM28.2692 4.848V26H29.2668V4.848H28.2692ZM28.768 26.4988H33.184V25.5012H28.768V26.4988ZM33.5557 26.3327L48.2757 9.88467L47.5323 9.21933L32.8123 25.6673L33.5557 26.3327ZM47.4052 9.552V26H48.4028V9.552H47.4052ZM47.904 26.4988H52.288V25.5012H47.904V26.4988ZM77.5608 15.312L77.4237 14.8323L75.6325 15.3441L77.4398 15.7959L77.5608 15.312ZM56.3768 4.848V4.34916H55.8779V4.848H56.3768ZM56.3768 26H55.8779V26.4988H56.3768V26ZM60.7607 14H60.2619V14.4988H60.7607V14ZM60.7607 7.856V7.35716H60.2619V7.856H60.7607ZM60.7607 22.992H60.2619V23.4908H60.7607V22.992ZM60.7607 16.784V16.2852H60.2619V16.784H60.7607ZM80.3956 18.864C80.3956 17.5812 80.078 16.6464 79.5508 15.9851C79.0246 15.3248 78.3321 14.9906 77.6817 14.8281L77.4398 15.7959C77.9414 15.9214 78.4169 16.1632 78.7707 16.6069C79.1235 17.0496 79.3979 17.7468 79.3979 18.864H80.3956ZM77.6978 15.7916C78.3407 15.608 78.9848 15.2433 79.466 14.6097C79.9483 13.9746 80.2356 13.1105 80.2356 11.984H79.2379C79.2379 12.9374 78.9972 13.5774 78.6715 14.0063C78.3447 14.4367 77.9008 14.696 77.4237 14.8323L77.6978 15.7916ZM80.2356 11.984V9.904H79.2379V11.984H80.2356ZM80.2356 9.904C80.2356 7.78234 79.7753 6.29811 78.4177 5.41048C77.7646 4.98344 76.9423 4.72228 75.9542 4.56487C74.965 4.40728 73.7787 4.34916 72.3768 4.34916V5.34684C73.7588 5.34684 74.8845 5.40472 75.7973 5.55013C76.7112 5.69572 77.3809 5.92456 77.8718 6.24552C78.8022 6.85389 79.2379 7.89766 79.2379 9.904H80.2356ZM72.3768 4.34916H56.3768V5.34684H72.3768V4.34916ZM55.8779 4.848V26H56.8756V4.848H55.8779ZM56.3768 26.4988H72.3768V25.5012H56.3768V26.4988ZM72.3768 26.4988C75.1301 26.4988 77.1513 26.2929 78.4765 25.4674C79.8801 24.5931 80.3956 23.1106 80.3956 20.944H79.3979C79.3979 22.9694 78.9214 24.0149 77.949 24.6206C76.8982 25.2751 75.1594 25.5012 72.3768 25.5012V26.4988ZM80.3956 20.944V18.864H79.3979V20.944H80.3956ZM61.2596 14V7.856H60.2619V14H61.2596ZM60.7607 8.35484H71.7688V7.35716H60.7607V8.35484ZM71.7688 8.35484C73.182 8.35484 73.9641 8.50854 74.4037 8.82767C74.79 9.10813 75.0139 9.60235 75.0139 10.672H76.0116C76.0116 9.50165 75.7715 8.58786 74.9898 8.02033C74.2614 7.49146 73.1715 7.35716 71.7688 7.35716V8.35484ZM75.0139 10.672V11.696H76.0116V10.672H75.0139ZM75.0139 11.696C75.0139 12.4724 74.8475 12.8878 74.616 13.1193C74.385 13.3503 73.9861 13.5012 73.2728 13.5012V14.4988C74.0954 14.4988 74.8165 14.3297 75.3215 13.8247C75.826 13.3202 76.0116 12.5836 76.0116 11.696H75.0139ZM73.2728 13.5012H60.7607V14.4988H73.2728V13.5012ZM73.2728 17.2828C73.9965 17.2828 74.4192 17.4221 74.6714 17.664C74.9199 17.9024 75.1099 18.3445 75.1099 19.216H76.1076C76.1076 18.2315 75.8976 17.4576 75.3621 16.944C74.8303 16.4339 74.085 16.2852 73.2728 16.2852V17.2828ZM75.1099 19.216V20.208H76.1076V19.216H75.1099ZM75.1099 20.208C75.1099 21.2777 74.8625 21.7633 74.4542 22.0382C73.9826 22.3557 73.1686 22.4932 71.7688 22.4932V23.4908C73.1529 23.4908 74.2589 23.3723 75.0113 22.8658C75.827 22.3167 76.1076 21.4103 76.1076 20.208H75.1099ZM71.7688 22.4932H60.7607V23.4908H71.7688V22.4932ZM61.2596 22.992V16.784H60.2619V22.992H61.2596ZM60.7607 17.2828H73.2728V16.2852H60.7607V17.2828ZM110.263 32.56V33.0588H110.762V32.56H110.263ZM110.263 22.992H110.762V22.4932H110.263V22.992ZM107.287 22.992H106.788V23.4908H107.287V22.992ZM107.287 4.848H107.786V4.34916H107.287V4.848ZM102.903 4.848V4.34916H102.404V4.848H102.903ZM102.903 22.992V23.4908H103.402V22.992H102.903ZM88.1507 22.992H87.6519V23.4908H88.1507V22.992ZM88.1507 4.848H88.6496V4.34916H88.1507V4.848ZM83.7667 4.848V4.34916H83.2679V4.848H83.7667ZM83.7667 26H83.2679V26.4988H83.7667V26ZM106.775 26H107.274V25.5012H106.775V26ZM106.775 32.56H106.276V33.0588H106.775V32.56ZM110.762 32.56V22.992H109.764V32.56H110.762ZM110.263 22.4932H107.287V23.4908H110.263V22.4932ZM107.786 22.992V4.848H106.788V22.992H107.786ZM107.287 4.34916H102.903V5.34684H107.287V4.34916ZM102.404 4.848V22.992H103.402V4.848H102.404ZM102.903 22.4932H88.1507V23.4908H102.903V22.4932ZM88.6496 22.992V4.848H87.6519V22.992H88.6496ZM88.1507 4.34916H83.7667V5.34684H88.1507V4.34916ZM83.2679 4.848V26H84.2656V4.848H83.2679ZM83.7667 26.4988H106.775V25.5012H83.7667V26.4988ZM106.276 26V32.56H107.274V26H106.276ZM106.775 33.0588H110.263V32.0612H106.775V33.0588ZM141.169 17.264V17.7628H141.668V17.264H141.169ZM141.169 15.088H141.668V14.5892H141.169V15.088ZM122.705 15.088V14.5892H122.206V15.088H122.705ZM122.705 17.264H122.206V17.7628H122.705V17.264ZM141.668 17.264V15.088H140.67V17.264H141.668ZM141.169 14.5892H122.705V15.5868H141.169V14.5892ZM122.206 15.088V17.264H123.204V15.088H122.206ZM122.705 17.7628H141.169V16.7652H122.705V17.7628Z" fill="white"/>
</svg>
