<svg width="18" height="16" viewBox="0 0 18 16" fill="none" xmlns="http://www.w3.org/2000/svg">
<path fill-rule="evenodd" clip-rule="evenodd" d="M9.01007 3.76868C4.06957 5.84504 0.0151377 7.55577 0.000172433 7.57034C-0.0147576 7.58487 0.941752 7.97235 2.12578 8.43143L4.27856 9.2661L5.39464 12.0804C6.00846 13.6282 6.51778 14.902 6.52642 14.9109C6.53507 14.9198 7.19764 14.2657 7.99878 13.4573L9.45539 11.9875L11.9593 13.9976C13.3365 15.1032 14.4674 16.0042 14.4725 16C14.4855 15.989 18.0088 0.00805668 18 5.71465e-06C17.996 -0.00359228 13.9506 1.69228 9.01007 3.76868ZM12.6802 4.73722C12.6126 4.80323 11.3793 5.94073 9.9395 7.26504C7.34232 9.6539 7.32132 9.67435 7.26837 9.86134C7.23904 9.965 7.08519 10.5468 6.9265 11.1542C6.76781 11.7615 6.63355 12.2633 6.62818 12.2691C6.60983 12.289 5.37141 9.13333 5.38338 9.0971C5.39316 9.06746 12.7307 4.63002 12.7861 4.62023C12.7955 4.61855 12.7478 4.67121 12.6802 4.73722Z" fill="white"/>
</svg>
