<svg width="24" height="13" viewBox="0 0 24 13" fill="none" xmlns="http://www.w3.org/2000/svg">
<path fill-rule="evenodd" clip-rule="evenodd" d="M10.0566 0.0137161C9.60127 0.0450243 9.02169 0.129168 8.78988 0.197635C8.39228 0.315052 7.89681 0.733804 7.98843 0.874981C8.00528 0.90093 8.09751 0.936035 8.19336 0.952962C8.62366 1.02902 8.9866 1.2614 9.1493 1.56497C9.42736 2.0839 9.55244 3.70692 9.40282 4.8559C9.30397 5.61538 9.26217 5.79144 9.11561 6.06683C8.72331 6.80384 7.81278 6.20108 6.82349 4.54943C6.46712 3.95453 5.47177 2.06304 5.25052 1.56028C4.9817 0.949523 4.8966 0.837063 4.59095 0.689008L4.33296 0.564043L2.38599 0.577353C0.627807 0.589367 0.42429 0.598344 0.28697 0.669759C0.0692846 0.783022 -0.0237008 0.937642 0.00510501 1.13871C0.055867 1.49346 1.17662 3.72371 2.11989 5.34718C3.25805 7.30607 4.76289 9.34597 5.85338 10.408C6.80031 11.3303 8.26007 12.2325 9.43735 12.6232C10.2168 12.8819 10.6498 12.9432 11.8863 12.9702C13.1122 12.9969 13.4644 12.9633 13.7242 12.7946C13.9381 12.6556 14.0043 12.4639 14.0443 11.8679C14.0837 11.2796 14.2043 10.7752 14.3702 10.5058C14.5166 10.2681 14.8346 9.99352 14.9711 9.98709C15.4473 9.96476 15.7139 10.1531 16.7086 11.2146C17.6413 12.2099 17.986 12.5028 18.5013 12.7377C18.7335 12.8435 19.0185 12.9509 19.1346 12.9762C19.4161 13.0377 23.2158 12.9686 23.4611 12.8975C23.704 12.8272 23.9656 12.5829 23.9716 12.4209C23.9876 11.9889 23.9345 11.8094 23.6778 11.4266C23.2697 10.8179 22.7446 10.2498 21.5458 9.12011C20.2156 7.86662 20.1227 7.75001 20.1209 7.33063C20.1193 6.9786 20.2921 6.70813 21.4598 5.23553C23.107 3.1582 23.7665 2.15482 23.9499 1.44742C24.0578 1.03125 23.9962 0.830855 23.7187 0.69477C23.4576 0.566723 23.0591 0.554575 20.5953 0.599729L18.6547 0.635324L18.5076 0.797359C18.4267 0.88646 18.2684 1.17788 18.1557 1.44496C17.5692 2.83592 16.4214 4.7488 15.6435 5.63181C15.3397 5.97674 14.8675 6.32975 14.7099 6.32975C14.49 6.32975 14.3087 6.19456 14.1713 5.92815L14.0444 5.68215L14.0572 3.36333C14.0687 1.29918 14.0615 1.01964 13.992 0.81759C13.8315 0.351406 13.6328 0.212999 12.9571 0.0967878C12.5588 0.028276 10.6427 -0.0266138 10.0566 0.0137161Z" fill="white"/>
</svg>
