<svg width="177" height="51" viewBox="0 0 177 51" fill="none" xmlns="http://www.w3.org/2000/svg">
<path fill-rule="evenodd" clip-rule="evenodd" d="M93.5991 0C95.6999 2.33446 110.872 10.2716 90.7982 14.2402C85.8965 15.174 84.0292 14.7071 78.6607 17.9753C70.2578 23.8114 75.6263 29.1807 71.4249 38.752C70.0244 41.7868 70.7246 42.4871 74.4592 42.4871C75.6263 42.4871 76.56 42.2537 77.2602 41.7868C77.4936 38.2851 70.4912 41.5533 77.727 30.5814C81.4616 24.9787 85.1963 19.376 93.1323 17.5084C96.1667 16.8081 99.4345 16.3412 102.469 15.4074C105.503 14.7071 109.004 13.5398 106.904 9.33782C105.737 5.83614 97.5672 0.233446 93.5991 0Z" fill="#E2E2E2"/>
<path fill-rule="evenodd" clip-rule="evenodd" d="M70.4907 41.3196C66.7561 43.8875 69.7905 52.2916 76.7929 50.424C83.095 49.0233 82.6282 41.0862 77.7265 39.9189C79.127 42.7203 78.1934 46.222 75.6258 47.1558C73.7585 47.8561 72.358 46.6889 71.6578 45.7551C70.2573 44.3544 70.4907 43.4206 70.4907 41.3196Z" fill="#E2E2E2"/>
<path fill-rule="evenodd" clip-rule="evenodd" d="M70.9574 35.9503C71.4242 34.3162 72.1244 31.7483 72.1244 29.8807C70.4906 29.4139 67.6896 29.1804 65.3555 26.846C63.7216 25.2118 63.2547 23.1108 61.8543 20.7764C61.6208 23.3443 62.7879 28.7135 63.955 30.5811C64.8886 32.2152 68.6233 35.4834 70.9574 35.9503Z" fill="#E2E2E2"/>
<path fill-rule="evenodd" clip-rule="evenodd" d="M82.8613 31.7481V32.215L84.2618 31.9815C86.3625 31.5146 86.8294 29.1802 86.8294 26.8457C84.4952 27.0791 82.8613 29.4136 82.8613 31.7481Z" fill="#E2E2E2"/>
<path fill-rule="evenodd" clip-rule="evenodd" d="M3.96803 40.3857H0L3.96803 21.4767H12.3709C13.7714 21.4767 14.9384 21.7101 15.8721 21.9435C16.5723 22.177 17.2726 22.8773 17.7394 23.5777C18.2062 24.278 18.4396 25.2118 18.4396 26.379C18.4396 28.0131 17.9728 29.4138 17.0392 30.3476C16.1055 31.2814 14.705 31.9817 12.6043 32.2152C13.0711 32.682 13.538 33.1489 14.0048 34.0827C14.9384 35.4834 15.8721 37.5844 17.0392 40.3857H12.8377C12.6043 39.2185 11.9041 37.5844 10.737 35.4834C10.2702 34.3162 9.56994 33.3824 9.10312 32.9155C8.63629 32.682 8.16947 32.4486 7.23581 32.4486H5.60192L3.96803 40.3857ZM6.06875 29.6473H8.16947C10.2702 29.6473 11.6707 29.4138 12.3709 29.1804C13.0711 28.9469 13.538 28.48 14.0048 28.0131C14.4716 27.5462 14.705 26.8459 14.705 26.379C14.705 25.6787 14.4716 25.2118 13.7714 24.7449C13.538 24.5114 12.6043 24.5114 11.4372 24.5114H7.23581L6.06875 29.6473ZM19.1399 40.3857L23.1079 21.4767H37.3461L36.6459 24.5114H26.3757L25.442 28.7135H35.2454L34.5452 31.9817H24.5084L23.3413 37.1175H34.3117L33.6115 40.3857H19.1399ZM47.6163 30.1141H56.2526L54.6187 38.2847C53.6851 38.9851 52.2846 39.452 50.8841 39.9189C49.4836 40.3857 47.8497 40.6192 46.4492 40.6192C44.1151 40.6192 42.2478 40.1523 41.0807 38.9851C39.4468 37.5844 38.5132 35.4834 38.5132 32.682C38.5132 30.8145 38.98 29.1804 39.6803 27.3128C40.6139 25.2118 41.781 23.8111 43.4149 22.6439C45.0488 21.4767 46.9161 21.0098 49.2502 21.0098C51.3509 21.0098 53.2182 21.4767 54.6187 22.4104C56.0192 23.3442 56.7194 24.9783 57.1862 26.8459L53.4516 27.3128C53.2182 26.1456 52.518 25.4452 51.8177 24.9783C51.1175 24.5114 50.1839 24.278 49.0168 24.278C47.8497 24.278 46.6827 24.5114 45.5156 25.2118C44.3485 25.9121 43.6483 26.8459 42.948 28.2466C42.2478 29.6472 42.0144 31.0479 42.0144 32.682C42.0144 34.3162 42.4812 35.4834 43.1815 36.1837C43.8817 36.8841 45.0488 37.351 46.4492 37.351C47.3829 37.351 48.0831 37.1175 49.0168 36.8841C49.9504 36.6506 50.6507 36.4172 51.3509 35.9503L52.0512 33.1489H47.1495L47.6163 30.1141Z" fill="#E2E2E2"/>
<path fill-rule="evenodd" clip-rule="evenodd" d="M109.705 35.9503H102.236L99.9016 40.1523H95.9336L106.671 21.2433H111.105L114.14 40.1523H110.405L109.705 35.9503ZM109.238 32.6821L108.071 24.9784L103.87 32.6821H109.238ZM126.978 29.8807H135.614L133.98 38.0513C133.046 38.7517 131.646 39.2186 130.245 39.6855C128.845 40.1523 127.211 40.3858 125.81 40.3858C123.476 40.3858 121.609 39.9189 120.442 38.7517C118.808 37.351 117.874 35.25 117.874 32.4486C117.874 30.5811 118.341 28.947 119.042 27.0794C119.975 24.9784 121.142 23.5777 122.776 22.4105C124.41 21.2433 126.277 20.7764 128.611 20.7764C130.712 20.7764 132.579 21.2433 133.98 22.177C135.38 23.1108 136.081 24.7449 136.547 26.6125L132.813 27.0794C132.579 25.9122 131.879 25.2118 131.179 24.7449C130.479 24.278 129.545 24.0446 128.378 24.0446C127.211 24.0446 126.044 24.2781 124.877 24.9784C123.71 25.6787 123.01 26.6125 122.309 28.0132C121.609 29.4139 121.376 30.8145 121.376 32.4486C121.376 34.0828 121.842 35.25 122.543 35.9503C123.243 36.6507 124.41 37.1176 125.81 37.1176C126.744 37.1176 127.444 36.8841 128.378 36.6507C129.312 36.4172 130.012 36.1838 130.712 35.7169L131.412 32.9155H126.511L126.978 29.8807ZM141.216 39.9189H137.248L141.216 21.0098H149.619C151.019 21.0098 152.186 21.2433 153.12 21.4767C153.82 21.7101 154.52 22.4105 154.987 23.1108C155.454 23.8112 155.687 24.7449 155.687 25.9122C155.687 27.5463 155.221 28.947 154.287 29.8807C153.353 30.8145 151.953 31.5149 149.852 31.7483C150.319 32.2152 150.786 32.6821 151.253 33.6159C152.186 35.0165 153.12 37.1176 154.287 39.9189H150.085C149.852 38.7517 149.152 37.1176 147.985 35.0165C147.518 33.8493 146.818 32.9155 146.351 32.4486C145.884 32.2152 145.417 31.9818 144.484 31.9818H142.85L141.216 39.9189ZM143.55 29.4139H145.651C147.751 29.4139 149.152 29.1804 149.852 28.947C150.552 28.7135 151.019 28.2466 151.486 27.7797C151.953 27.3128 152.186 26.6125 152.186 26.1456C152.186 25.4453 151.953 24.9784 151.253 24.5115C151.019 24.2781 150.085 24.2781 148.918 24.2781H144.717L143.55 29.4139ZM157.555 32.6821C157.555 31.5149 157.788 30.3476 158.022 29.1804C158.488 27.5463 159.189 26.1456 160.122 24.7449C161.056 23.5777 162.223 22.6439 163.623 21.9436C165.024 21.2433 166.658 20.7764 168.292 20.7764C170.626 20.7764 172.493 21.4767 174.127 22.8774C175.528 24.2781 176.228 26.1456 176.228 28.7135C176.228 30.8145 175.761 32.6821 174.827 34.5497C173.894 36.4172 172.493 37.8179 170.859 38.7517C169.225 39.6855 167.358 40.1523 165.257 40.1523C163.39 40.1523 161.99 39.6855 160.822 38.9851C159.655 38.2848 158.722 37.1176 158.255 35.9503C158.022 35.0165 157.555 33.8493 157.555 32.6821ZM161.523 32.4486C161.523 33.8493 161.99 34.7831 162.69 35.7169C163.39 36.6507 164.557 37.1176 165.724 37.1176C166.891 37.1176 167.825 36.8841 168.759 36.1838C169.692 35.4834 170.626 34.5497 171.093 32.9155C171.793 31.5149 172.026 30.1142 172.026 28.7135C172.026 27.3128 171.559 26.1456 170.859 25.2118C170.159 24.2781 168.992 24.0446 167.825 24.0446C165.958 24.0446 164.324 24.9784 163.157 26.6125C162.223 28.4801 161.523 30.3476 161.523 32.4486Z" fill="#E2E2E2"/>
</svg>
