<svg width="159" height="64" viewBox="0 0 159 64" fill="none" xmlns="http://www.w3.org/2000/svg">
<path fill-rule="evenodd" clip-rule="evenodd" d="M20.2476 0.230642C18.6907 1.02324 18.7902 3.48073 20.3999 3.99153C20.7408 4.0997 20.7642 4.42085 20.7642 8.99708V13.8869L21.7529 14.641L22.7417 15.395V18.0435V20.6919H20.2698H17.7979V18.2395V15.7872L18.4997 15.3731C18.9233 15.1231 19.3251 14.6645 19.5134 14.2164C19.7849 13.5697 19.79 13.3724 19.5531 12.6893C18.7734 10.4407 15.689 10.5018 15.0066 12.7793C14.7141 13.7562 15.164 14.8164 16.1073 15.3731L16.8091 15.7872V18.2395V20.6919H13.7439H10.6787V18.0034V15.3151L9.19557 13.9301L7.71241 12.5448V10.6003C7.71241 8.83769 7.74899 8.64389 8.10278 8.53157C8.70869 8.33935 9.29444 7.3662 9.29444 6.55165C9.29444 5.9841 9.14415 5.67046 8.62208 5.14839C7.61413 4.14044 6.2872 4.29508 5.52782 5.50929C4.92645 6.47077 5.12124 7.3664 6.12148 8.23869L6.92139 8.93637V10.8777V12.8191L8.40455 14.2041L9.8877 15.5894V18.1406V20.6919H9.34546C8.90249 20.6919 7.99737 21.4973 4.40161 25.0903L0 29.4886V42.3428V55.1968L4.39845 59.5984L8.7967 64H21.9863H35.1757L39.6374 59.6267L44.0992 55.2531V42.3396V29.4259L39.6042 25.0589C35.3596 20.9351 35.0677 20.6919 34.3637 20.6919H33.6182V19.2532V17.8145L35.1013 16.3413L36.5845 14.868V12.9512V11.0341L37.2533 10.6208C38.9682 9.56088 38.5215 7.03872 36.5633 6.72647C34.5708 6.40848 33.2753 8.69452 34.6305 10.1369C34.8694 10.3914 35.2289 10.6517 35.4292 10.7152C35.7494 10.8168 35.7935 11.0585 35.7935 12.7149V14.5989L34.3103 15.9839L32.8272 17.3692V19.0305V20.6919H31.2451H29.6631V19.0481C29.6631 17.4511 29.6799 17.3919 30.2564 16.9658C31.484 16.0581 30.797 14.166 29.2399 14.166C27.7358 14.166 27.0793 16.0788 28.2788 16.9658C28.8553 17.3919 28.8721 17.4511 28.8721 19.0481V20.6919H26.2024H23.5327V17.8458V14.9995L22.544 14.2455L21.5552 13.4914V8.8899V4.28836L22.1364 3.98777C22.9409 3.57189 23.335 2.93849 23.335 2.06204C23.335 0.530437 21.6371 -0.476724 20.2476 0.230642ZM103.218 27.6722C101.45 28.1737 100.284 29.1737 99.375 30.968C98.3091 33.0713 98.0099 35.8202 98.5826 38.2487C99.1278 40.5614 100.206 42.0948 101.924 43.0011C102.822 43.4747 103.145 43.5323 104.909 43.5323C107.2 43.5325 107.917 43.2516 109.287 41.8185C110.127 40.9395 110.828 39.7763 110.67 39.5214C110.621 39.4425 109.963 39.1637 109.207 38.9016L107.833 38.4251L107.099 39.2374C105.77 40.7087 104.271 40.7633 103.061 39.3846C102.219 38.426 101.942 37.4458 101.942 35.4245C101.942 33.8904 102.016 33.4945 102.477 32.5555C103.105 31.277 103.826 30.7767 105.038 30.7787C105.961 30.7801 106.764 31.1981 107.458 32.0388L107.875 32.5429L109.253 31.9466C110.01 31.619 110.668 31.3134 110.713 31.2681C110.758 31.2227 110.685 30.9179 110.549 30.5908C110.219 29.7927 108.742 28.4592 107.656 27.9791C106.54 27.4853 104.399 27.3372 103.218 27.6722ZM51.6138 29.2942V30.9751H53.9869H56.3599V37.2043V43.4336H58.0408H59.7217V37.2043V30.9751H61.9959H64.2701V29.2942V27.6133H57.9419H51.6138V29.2942ZM66.8409 35.5007V43.4336H68.5218H70.2027V40.665V37.8965H71.7697H73.3369L74.7789 40.665L76.2211 43.4336H78.157H80.093L78.5912 40.4354C77.3311 37.9194 77.1385 37.4098 77.393 37.2672C79.6063 36.0287 80.5684 32.9156 79.5031 30.4396C78.9786 29.2204 78.5141 28.7598 77.2206 28.1767C76.3078 27.7653 75.8842 27.726 71.5375 27.65L66.8409 27.568V35.5007ZM84.6751 35.5303L81.5061 43.4476L83.3856 43.3911L85.2652 43.3347L85.8585 41.797L86.4516 40.2594L89.4509 40.3138L92.45 40.3684L93.0433 41.8966L93.6366 43.4249L95.4658 43.4292C96.4718 43.4316 97.295 43.3673 97.295 43.2863C97.295 43.2054 95.8985 39.6458 94.1919 35.3761L91.0885 27.6133H89.4663H87.8443L84.6751 35.5303ZM113.511 35.5234V43.4336H115.192H116.873V41.7258V40.0182L118.375 38.15C119.736 36.4588 119.901 36.3162 120.123 36.6443C120.257 36.8434 121.147 38.4527 122.1 40.2201L123.833 43.4336H125.791C126.868 43.4336 127.749 43.3895 127.749 43.3357C127.749 43.2516 124.058 36.5919 122.698 34.222L122.234 33.4148L124.596 30.5989C125.895 29.0501 126.958 27.7448 126.958 27.6981C126.958 27.6514 126.046 27.6186 124.931 27.6253L122.904 27.6372L119.938 31.3534L116.972 35.0696L116.918 31.3415L116.864 27.6133H115.187H113.511V35.5234ZM130.32 35.5205V43.4336H136.253H142.185V41.8515V40.2695H137.933H133.682V38.5886V36.9077H135.956H138.23V35.3257V33.7436H135.956H133.682V32.3635V30.9832L137.686 30.9298L141.691 30.8762V29.2942V27.7121L136.005 27.6597L130.32 27.6071V35.5205ZM144.904 27.725C144.823 27.8086 144.756 31.3771 144.756 35.6553V43.4336H146.536H148.316V40.665V37.8965H149.867H151.419L152.857 40.665L154.295 43.4336H156.15C157.272 43.4336 158.006 43.3543 158.006 43.2333C158.006 43.1229 157.372 41.7683 156.598 40.2226C155.321 37.674 155.222 37.3936 155.537 37.2095C156.422 36.6912 157.039 36.0123 157.522 35.0243C157.984 34.0812 158.039 33.76 157.977 32.3975C157.88 30.2596 157.216 29.1462 155.538 28.3086L154.357 27.7183L149.705 27.6457C147.146 27.6057 144.986 27.6415 144.904 27.725ZM75.9265 31.4578C76.4278 31.9913 76.53 33.2038 76.1359 33.9404C75.7922 34.5827 75.1165 34.7324 72.5629 34.7324H70.2027V32.8537V30.9751H72.838C75.3761 30.9751 75.4899 30.9929 75.9265 31.4578ZM154.039 31.4578C154.541 31.9913 154.643 33.2038 154.249 33.9404C153.905 34.5827 153.229 34.7324 150.676 34.7324H148.316V32.8537V30.9751H150.951C153.489 30.9751 153.603 30.9929 154.039 31.4578ZM89.5367 37.2615C88.5553 37.2929 87.714 37.2805 87.6672 37.2336C87.6203 37.1867 88.0041 36.1105 88.5201 34.842L89.4582 32.5355L90.3896 34.87L91.3209 37.2043L89.5367 37.2615ZM55.1734 50.0421C55.1734 50.0876 55.5738 51.0101 56.0633 52.0924C56.5527 53.1745 56.9532 54.2361 56.9532 54.4511C56.9532 55.089 56.2686 55.5674 55.5584 55.4252C55.1164 55.3368 54.9665 55.3712 55.0245 55.5478C55.1366 55.8893 56.3876 55.9641 56.7938 55.6538C57.1432 55.3866 59.5926 50.16 59.4399 50.0073C59.2349 49.8022 58.9428 50.2448 58.2354 51.8324C57.8221 52.7601 57.4284 53.519 57.3605 53.519C57.2927 53.519 56.8869 52.7181 56.4588 51.7393C56.0307 50.7604 55.5663 49.9595 55.4269 49.9595C55.2875 49.9595 55.1734 49.9966 55.1734 50.0421ZM60.5127 52.1348C60.5127 53.9098 60.5659 54.3101 60.8015 54.3101C61.0265 54.3101 61.1026 53.9505 61.1475 52.6786L61.2049 51.0471L61.9959 52.3782C62.431 53.1103 62.8759 53.7093 62.9847 53.7093C63.0934 53.7093 63.5384 53.1103 63.9734 52.3782L64.7645 51.0471L64.8218 52.6786C64.8667 53.9505 64.9428 54.3101 65.1679 54.3101C65.4034 54.3101 65.4566 53.9098 65.4566 52.1348C65.4566 49.4265 65.2594 49.3478 63.9734 51.5415C63.4632 52.4116 63.0183 53.1235 62.9847 53.1235C62.9511 53.1235 62.5061 52.4116 61.9959 51.5415C60.7099 49.3478 60.5127 49.4265 60.5127 52.1348ZM67.2364 52.1348C67.2364 53.3691 67.3173 54.3101 67.4233 54.3101C67.5261 54.3101 67.6374 53.8875 67.6705 53.3707L67.7308 52.4314H69.1151H70.4993L70.5596 53.3707C70.5927 53.8875 70.704 54.3101 70.8068 54.3101C70.9128 54.3101 70.9937 53.3691 70.9937 52.1348C70.9937 50.8163 70.9158 49.9595 70.796 49.9595C70.6872 49.9595 70.5982 50.4084 70.5982 50.9569V51.9544L69.1645 51.8963L67.7308 51.8381L67.6705 50.8988C67.6374 50.3821 67.5261 49.9595 67.4233 49.9595C67.3173 49.9595 67.2364 50.9004 67.2364 52.1348ZM72.9713 52.1348V54.3101H74.0461C75.446 54.3101 76.0936 54.0506 76.25 53.4271C76.5593 52.1951 75.8652 51.5415 74.2474 51.5415H73.3668V50.7505C73.3668 50.3154 73.2778 49.9595 73.169 49.9595C73.0492 49.9595 72.9713 50.8163 72.9713 52.1348ZM77.1241 52.1348C77.1241 53.9365 77.1751 54.3101 77.4207 54.3101C77.6663 54.3101 77.7174 53.9365 77.7174 52.1348C77.7174 50.333 77.6663 49.9595 77.4207 49.9595C77.1751 49.9595 77.1241 50.333 77.1241 52.1348ZM80.1122 50.2355C78.7053 51.0151 78.7742 53.3468 80.2257 54.0892C81.1476 54.5606 82.859 54.2466 82.859 53.6059C82.859 53.3462 82.7894 53.3472 82.2756 53.6128C81.9546 53.7787 81.4773 53.9145 81.2146 53.9145C80.5959 53.9145 79.6949 53.2026 79.6949 52.7136C79.6949 52.3655 79.8491 52.3325 81.4747 52.3325H83.2545V51.8183C83.2545 51.4972 83.0019 51.0517 82.5821 50.6318C81.8433 49.893 80.9801 49.7544 80.1122 50.2355ZM86.814 52.9258C86.814 55.4307 86.8601 55.8921 87.1107 55.8921C87.3385 55.8921 87.4073 55.6394 87.4073 54.8044C87.4073 53.6476 87.4819 53.5616 88.0878 54.0198C88.6356 54.434 89.8314 54.3836 90.4191 53.9213C92.1671 52.5463 91.0986 49.7655 88.9245 50.0312C88.5082 50.0821 87.9966 50.2784 87.7874 50.4677C87.4235 50.797 87.4073 50.7936 87.4073 50.3856C87.4073 50.1386 87.2825 49.9595 87.1107 49.9595C86.8601 49.9595 86.814 50.4208 86.814 52.9258ZM93.3617 50.2355C91.9549 51.0151 92.0237 53.3468 93.4752 54.0892C94.0781 54.3975 95.3647 54.3648 95.8231 54.0296C96.3412 53.6507 96.0369 53.398 95.4078 53.6848C94.5793 54.0623 93.9443 53.9561 93.3247 53.3365C93.0067 53.0185 92.7467 52.6626 92.7467 52.5455C92.7467 52.4082 93.4153 52.3325 94.6253 52.3325C96.3571 52.3325 96.504 52.3023 96.504 51.9463C96.504 50.4406 94.7321 49.4758 93.3617 50.2355ZM97.8883 52.1183V54.3101H100.855H103.821V52.1348C103.821 49.4198 103.462 49.2169 103.383 51.8876L103.327 53.8157H102.239H101.151L101.095 51.8876C101.02 49.3324 100.657 49.3733 100.657 51.937V53.9145H99.5763H98.4958L98.4392 52.0025C98.4005 50.6908 98.3051 50.0647 98.1355 50.0085C97.9476 49.9462 97.8883 50.4531 97.8883 52.1183ZM106.392 50.2112C105.691 50.5594 105.133 51.7843 105.29 52.6258C105.466 53.5596 106.399 54.3101 107.386 54.3101C108.148 54.3101 109.16 53.9723 109.16 53.718C109.16 53.3968 108.879 53.3573 108.497 53.6248C107.704 54.1801 106.408 53.8501 106.018 52.9936C105.897 52.7284 105.798 52.4713 105.798 52.4221C105.798 52.3729 106.644 52.3325 107.677 52.3325C109.748 52.3325 109.838 52.2647 109.256 51.1395C108.727 50.1175 107.427 49.6961 106.392 50.2112ZM110.94 52.1348C110.94 53.3691 111.021 54.3101 111.127 54.3101C111.23 54.3101 111.341 53.8875 111.374 53.3707L111.434 52.4314L112.868 52.3732L114.302 52.3151V53.3126C114.302 53.8611 114.391 54.3101 114.5 54.3101C114.619 54.3101 114.697 53.4532 114.697 52.1348C114.697 50.8163 114.619 49.9595 114.5 49.9595C114.391 49.9595 114.302 50.4084 114.302 50.9569V51.9544L112.868 51.8963L111.434 51.8381L111.374 50.8988C111.341 50.3821 111.23 49.9595 111.127 49.9595C111.021 49.9595 110.94 50.9004 110.94 52.1348ZM116.675 52.1348C116.675 53.4332 116.754 54.3101 116.87 54.3101C116.977 54.3101 117.712 53.5465 118.501 52.6133L119.938 50.9164L119.995 52.6133C120.04 53.9434 120.114 54.3101 120.341 54.3101C120.577 54.3101 120.63 53.9108 120.63 52.1348C120.63 50.4705 120.569 49.9595 120.37 49.9595C120.227 49.9595 119.449 50.7382 118.64 51.6898L117.169 53.4202L117.112 51.6898C117.029 49.1742 116.675 49.5347 116.675 52.1348ZM122.884 50.2419C121.877 50.6805 121.715 51.6562 122.518 52.4589L123.022 52.9626L122.508 53.6363C122.114 54.1528 122.065 54.3101 122.299 54.3101C122.467 54.3101 122.805 53.9998 123.051 53.6203C123.445 53.0118 123.596 52.9303 124.338 52.9281C125.167 52.9258 125.178 52.9351 125.178 53.6179C125.178 54.1012 125.268 54.3101 125.475 54.3101C125.721 54.3101 125.772 53.9365 125.772 52.1348V49.9595L124.635 49.9672C124.009 49.9715 123.222 50.0951 122.884 50.2419ZM82.2954 50.8776C82.4749 51.0392 82.6667 51.3437 82.7219 51.5543C82.8147 51.9089 82.7071 51.937 81.2583 51.937C79.8705 51.937 79.6949 51.8961 79.6949 51.5721C79.6949 50.5409 81.4126 50.0821 82.2954 50.8776ZM95.5647 50.9909C96.2475 51.7735 96.0339 51.937 94.3287 51.937C93.4586 51.937 92.7467 51.8678 92.7467 51.7833C92.7467 51.4691 93.3963 50.7167 93.806 50.5559C94.3884 50.3277 95.1502 50.5159 95.5647 50.9909ZM108.616 50.9708C109.29 51.7818 109.091 51.937 107.38 51.937C106.382 51.937 105.798 51.8585 105.798 51.724C105.798 51.607 106.069 51.2405 106.4 50.9099C106.903 50.4068 107.104 50.3287 107.636 50.4313C107.985 50.4987 108.426 50.7416 108.616 50.9708ZM90.2836 51.0382C91.2952 52.0495 90.5201 53.9145 89.0882 53.9145C87.6563 53.9145 86.8813 52.0495 87.8928 51.0382C88.5531 50.3777 89.6233 50.3777 90.2836 51.0382ZM125.178 51.566V52.5793L124.073 52.4875C122.933 52.393 122.616 52.1646 122.611 51.4327C122.606 50.7857 123.008 50.5527 124.13 50.5527H125.178V51.566ZM75.5375 52.328C75.9225 52.713 75.9071 53.1245 75.4871 53.6674C75.3805 53.8052 74.8691 53.9145 74.3314 53.9145H73.3668V52.9258V51.937H74.2567C74.8794 51.937 75.2638 52.0543 75.5375 52.328Z" fill="#E2E2E2"/>
<path d="M32.2406 51.918H27.5641L25.7051 47.0817H17.1945L15.4372 51.918H10.877L19.1697 30.6269H23.7155L32.2406 51.918ZM24.3254 43.4945L21.3918 35.5939L18.5162 43.4945H24.3254Z" fill="#171A3D"/>
</svg>
