<svg width="178" height="34" viewBox="0 0 178 34" fill="none" xmlns="http://www.w3.org/2000/svg">
<path d="M52.9843 7.08496C52.9843 9.65286 52.9843 11.9873 52.9843 14.5552C52.9843 16.8897 52.9843 19.2241 52.9843 21.5586C52.9843 22.9593 52.2841 23.6596 50.8836 23.6596H50.6502C47.6158 24.1265 45.2817 23.1927 43.181 20.8582C39.9132 17.3566 36.412 14.0883 32.6774 10.5866C32.6774 11.287 32.6774 11.7539 32.6774 12.2208C32.6774 15.2556 32.6774 18.2903 32.6774 21.0917C32.6774 22.9593 32.2105 23.4262 30.3432 23.6596C27.3089 24.1265 24.9747 23.1927 22.874 20.8582C19.8396 17.59 16.8052 14.5552 13.5375 11.5204C13.304 11.287 13.0706 11.0535 12.3704 10.5866C12.3704 15.0221 12.3704 19.2241 12.3704 23.6596C10.9699 23.6596 9.8029 23.6596 8.63583 23.6596C8.40242 23.6596 7.93555 23.1927 7.93555 22.7258C7.93555 18.5238 7.93555 14.3218 7.93555 10.1198C7.93555 8.48563 8.86921 7.55185 10.5031 7.31841C12.8372 7.08496 14.938 6.85152 16.5719 8.95253C19.8397 12.4542 23.3408 15.7224 26.842 18.9907C27.0754 19.2241 27.5423 19.4576 28.0091 20.1579C28.0091 19.4576 28.2425 19.2241 28.2425 18.7572C28.2425 15.9559 28.2425 13.388 28.2425 10.5866C28.2425 8.71908 28.9428 7.7853 30.8101 7.55185C33.3776 7.31841 35.4783 7.55185 37.3456 9.65286C40.38 13.1545 43.8812 16.1893 47.3824 19.4576C47.6158 19.691 47.8493 19.9245 48.3161 20.3914C48.3161 18.7572 48.3161 17.3566 48.3161 15.9559C48.3161 14.5552 48.3161 13.1545 48.3161 11.9873C48.3161 8.48564 49.95 7.08496 52.9843 7.08496Z" fill="#E2E2E2"/>
<path d="M81.6953 33.9312C81.6953 33.4644 81.6953 32.9975 81.6953 32.2971C81.6953 25.7607 81.6953 18.9907 81.6953 12.4543C81.6953 9.18602 83.796 7.08501 87.0638 6.85156C90.7984 6.85156 94.5331 6.85156 98.2677 6.85156C101.535 6.85156 103.636 9.18602 103.636 12.4543C103.636 14.3218 103.636 16.1894 103.636 17.8235C103.636 21.0917 101.535 23.1928 98.2677 23.4262C94.9999 23.4262 91.4986 23.4262 88.2309 23.4262C87.764 23.4262 87.2972 23.4262 86.3636 23.4262C86.3636 25.5272 86.3636 27.6282 86.3636 29.7292C86.1302 32.2971 84.4963 33.9312 81.6953 33.9312ZM92.6658 20.158C94.0662 20.158 95.2333 20.158 96.6337 20.158H96.8672C98.5011 20.158 99.2013 19.4576 99.2013 17.8235C99.2013 16.1894 99.2013 14.5553 99.2013 12.6877C99.2013 11.287 98.5011 10.5867 97.1006 10.5867C94.2996 10.5867 91.2652 10.5867 88.4643 10.5867C86.8304 10.5867 86.3636 11.287 86.1302 12.9211C86.1302 14.5553 86.1302 16.1894 86.1302 17.5901C86.1302 19.2242 86.8304 19.9245 88.4643 20.158C89.8648 20.158 91.2653 20.158 92.6658 20.158Z" fill="#E2E2E2"/>
<path d="M67.4567 23.6596C65.5894 23.6596 63.7222 23.6596 62.0883 23.6596C58.8205 23.6596 56.7197 21.3251 56.7197 18.0569C56.7197 16.1893 56.9531 14.3218 56.7197 12.6877C56.4863 9.18597 59.5207 7.08496 62.0883 7.08496C65.8229 7.08496 69.5575 7.08496 73.2921 7.08496C76.5599 7.08496 78.6606 9.41942 78.6606 12.6877C78.6606 14.5552 78.6606 16.4228 78.6606 18.2903C78.6606 21.3251 76.5599 23.6596 73.2921 23.6596C71.1913 23.6596 69.324 23.6596 67.4567 23.6596ZM67.4567 10.5866C66.0563 10.5866 64.4224 10.5866 63.0219 10.5866C61.6214 10.5866 60.9212 11.287 60.9212 12.6877C60.9212 14.5552 60.9212 16.1893 60.9212 18.0569C60.9212 19.4576 61.6214 20.1579 63.0219 20.1579C66.0563 20.1579 68.8572 20.1579 71.8916 20.1579C73.2921 20.1579 73.9924 19.4576 73.9924 18.0569C73.9924 16.4228 73.9924 14.5552 73.9924 12.9211C73.9924 11.287 73.2921 10.8201 71.6582 10.8201C70.2577 10.5866 68.8572 10.5866 67.4567 10.5866Z" fill="#E2E2E2"/>
<path d="M118.107 23.6596C116.24 23.6596 114.606 23.6596 112.739 23.6596C109.237 23.6596 107.137 21.5586 107.137 18.0569C107.137 16.1893 107.137 14.3218 107.137 12.4542C107.137 9.41942 109.237 7.08496 112.505 7.08496C116.24 7.08496 119.974 7.08496 123.709 7.08496C126.977 7.08496 128.844 9.41942 129.078 12.4542C129.078 14.3218 129.078 16.1893 129.078 18.2903C129.078 21.5586 126.977 23.6596 123.709 23.6596C121.608 23.6596 119.741 23.6596 118.107 23.6596ZM118.107 10.5866C116.707 10.5866 115.306 10.5866 113.906 10.5866C112.272 10.5866 111.572 11.287 111.572 12.9211C111.572 14.5552 111.572 16.1893 111.572 18.0569C111.572 19.4576 112.272 20.3914 113.672 20.3914C116.473 20.3914 119.508 20.3914 122.309 20.3914C123.709 20.3914 124.409 19.691 124.409 18.0569C124.409 16.4228 124.409 14.5552 124.409 12.9211C124.409 11.5204 123.709 10.8201 122.309 10.8201C120.908 10.5866 119.508 10.5866 118.107 10.5866Z" fill="#E2E2E2"/>
<path d="M176.46 6.85087C176.694 9.18533 175.527 10.3526 173.193 10.3526C169.458 10.3526 165.723 10.3526 161.989 10.3526C161.289 10.3526 160.355 10.8194 160.121 11.2863C159.421 12.4536 160.355 13.6208 161.989 13.6208C165.49 13.6208 168.991 13.6208 172.259 13.6208C175.293 13.6208 177.394 15.7218 177.394 18.2897C177.394 21.091 175.527 23.1921 172.726 23.1921C167.357 23.1921 161.755 23.1921 156.387 23.1921H156.153C155.92 21.0911 156.854 19.9238 158.954 19.9238C162.922 19.9238 166.89 19.9238 170.859 19.9238C171.325 19.9238 171.559 19.9238 172.026 19.9238C173.193 19.9238 174.126 19.4569 173.893 18.0563C173.893 16.889 172.959 16.4221 171.792 16.4221C168.291 16.4221 164.556 16.4221 161.055 16.4221C158.254 16.4221 156.153 14.5546 155.92 11.9867C155.687 9.18533 157.554 6.85087 160.588 6.61743C165.257 6.38398 169.925 6.61743 174.826 6.61743C175.293 6.85087 175.76 6.85087 176.46 6.85087Z" fill="#E2E2E2"/>
<path d="M143.782 21.0915C144.249 23.4259 144.249 23.6594 142.148 23.6594C140.748 23.6594 139.581 23.6594 138.18 23.6594C134.679 23.6594 132.578 21.5583 132.578 18.0567C132.578 13.3877 132.578 8.71883 132.578 4.04992C132.578 1.94891 133.745 0.54824 135.613 0.0813486C136.78 -0.152097 137.246 0.0813486 137.246 1.24858C137.246 6.61782 137.246 11.9871 137.246 17.3563C137.246 20.3911 138.18 21.3249 140.981 21.3249C141.915 21.0915 142.848 21.0915 143.782 21.0915Z" fill="#E2E2E2"/>
<path d="M0 23.6596C0 19.2241 0 15.0221 0 11.0535C0 8.71908 1.86729 7.31841 4.43484 7.08496C4.43484 7.55185 4.43484 7.7853 4.43484 8.25219C4.43484 12.9211 4.43484 17.59 4.43484 22.2589C4.43484 23.4262 3.968 23.893 3.03434 23.6596C2.10069 23.4262 1.16707 23.6596 0 23.6596Z" fill="#E2E2E2"/>
<path d="M151.951 6.85156C151.951 12.4543 151.951 17.8235 151.951 23.4262C150.784 23.4262 149.617 23.4262 148.45 23.4262C148.217 23.4262 147.75 22.7259 147.75 22.4924C147.75 18.5238 147.75 14.5553 147.75 10.5867C147.75 8.48568 149.384 7.08501 151.951 6.85156Z" fill="#E2E2E2"/>
</svg>
