<svg width="114" height="33" viewBox="0 0 114 33" fill="none" xmlns="http://www.w3.org/2000/svg">
<path d="M109.004 4.66853C109.938 4.43509 110.405 3.73475 110.405 3.03442C110.405 2.33408 109.704 1.86719 108.771 1.86719C108.07 1.86719 107.37 1.86719 106.903 1.86719C106.67 1.86719 106.67 1.86719 106.67 2.10063C106.67 3.50131 106.67 4.90198 106.67 6.30265C106.67 6.76954 106.903 6.5361 107.137 6.5361C107.37 6.5361 107.604 6.5361 107.604 6.30265C107.604 6.06921 107.604 5.60232 107.604 5.36887C107.604 5.13543 107.37 4.66853 107.604 4.66853C108.07 4.66853 108.304 4.66853 108.771 4.90198C108.771 4.90198 109.004 5.13543 109.004 5.36887C109.237 5.60232 109.471 6.06921 109.471 6.30265C109.938 7.00299 109.938 7.00299 110.638 6.76954C109.938 6.06921 109.704 5.36887 109.004 4.66853ZM107.37 4.20164C107.37 4.20164 107.137 4.20164 107.37 4.20164C107.137 3.9682 107.137 3.73475 107.137 3.50131C107.137 2.56752 107.137 2.56752 108.07 2.56752C108.304 2.56752 108.537 2.56752 108.771 2.56752C109.238 2.56752 109.471 2.80097 109.471 3.26786C109.471 3.73475 109.238 3.9682 108.771 3.9682C108.304 4.20164 107.837 4.20164 107.37 4.20164Z" fill="#E2E2E2"/>
<path d="M111.572 1.16723C110.872 0.466891 109.938 0.233446 109.004 0H107.837H107.604C105.503 0.466891 103.869 2.33445 103.869 4.43546C103.869 7.47026 106.904 9.33782 109.704 8.63749C111.338 8.17059 112.505 7.00337 112.972 5.1358C113.206 3.73513 112.739 2.33446 111.572 1.16723ZM108.537 8.1706C106.437 8.1706 104.803 6.53648 104.803 4.43546C104.803 2.33445 106.437 0.700337 108.771 0.700337C110.872 0.700337 112.505 2.33445 112.505 4.43546C112.272 6.53648 110.638 8.1706 108.537 8.1706Z" fill="#E2E2E2"/>
<path d="M18.2052 24.2784C24.0406 24.2784 29.8759 24.2784 35.7112 24.2784C36.1781 24.2784 36.1781 24.2784 36.1781 24.7453C35.7113 28.0135 32.6769 31.0483 29.1757 31.5152C27.7752 31.7486 26.3747 31.5152 25.2076 31.5152C20.306 31.5152 15.4043 31.5152 10.5026 31.5152C7.23484 31.5152 3.96705 31.5152 0.465849 31.5152C0.232436 31.5152 0.232422 31.5152 0.232422 31.2817C0.232422 28.9473 0.232422 26.8463 0.232422 24.5118C0.232422 24.0449 0.465828 24.0449 0.699241 24.0449C6.06775 24.0449 11.6697 24.0449 17.0382 24.0449C17.505 24.2784 17.9718 24.2784 18.2052 24.2784Z" fill="#E2E2E2"/>
<path d="M18.2052 9.10405C12.3699 9.10405 6.53457 9.10405 0.699241 9.10405C0.232415 9.10405 0.232422 9.10405 0.232422 8.63716C0.699248 5.36892 3.73363 2.56757 6.768 1.86724C8.40189 1.63379 10.0358 1.63379 11.6697 1.63379C19.6057 1.63379 27.5418 1.63379 35.4778 1.63379C35.9447 1.63379 35.9447 1.63379 35.9447 2.10068C35.9447 4.20169 35.9447 6.3027 35.9447 8.63716C35.9447 8.8706 35.9447 9.10405 35.4778 9.10405C29.8759 9.10405 24.0406 9.10405 18.2052 9.10405Z" fill="#E2E2E2"/>
<path d="M14.4716 12.6064C18.9065 12.6064 23.3413 12.6064 27.7762 12.6064C31.5108 12.6064 35.012 15.1743 35.9456 18.9095C36.4125 20.3101 36.4125 20.3101 34.7786 20.3101C28.7098 20.3101 22.6411 20.3101 16.3389 20.3101C13.538 20.3101 10.9704 20.3101 8.16946 20.3101C4.90168 20.0767 2.3341 18.676 0.700211 15.6412C0.233385 14.9409 0 14.0071 0 13.0733C0 12.8399 -7.13016e-06 12.6064 0.466819 12.6064C2.33413 12.6064 4.43484 12.6064 6.30215 12.6064C9.33652 12.8399 11.9041 12.8399 14.4716 12.6064C14.4716 12.8399 14.4716 12.8399 14.4716 12.6064Z" fill="#E2E2E2"/>
<path d="M64.6544 22.878C66.9886 22.878 69.3227 22.878 71.6568 22.878C73.991 22.878 76.3251 22.878 78.6592 22.878C78.8926 22.878 79.1261 22.878 79.1261 22.4111C79.1261 21.4773 79.1261 20.3101 78.8927 19.3763C78.4258 16.575 77.2588 14.474 74.6912 13.0733C72.5905 11.9061 70.4898 11.6726 68.1556 12.1395C64.8878 12.6064 62.7872 14.474 61.6201 17.5088C60.6864 20.0767 60.453 22.6446 61.1532 25.2125C61.6201 28.0138 63.254 30.1148 66.0549 31.2821C68.3891 32.2158 70.7232 32.4493 73.2908 31.7489C76.3251 31.0486 77.959 29.181 79.1261 26.3797C79.1261 26.1462 79.1261 25.9128 78.8927 25.9128C77.959 25.9128 77.0253 25.6794 76.3251 25.6794C76.0917 25.6794 75.8583 25.6794 75.8583 26.1462C75.1581 28.0138 73.7576 29.4145 71.6568 29.6479C69.5561 29.8814 67.6888 29.181 66.5218 27.5469C65.5881 26.3797 65.1213 24.979 64.8879 23.3449C64.1876 22.878 64.421 22.878 64.6544 22.878ZM64.4211 19.6098C64.6545 17.9757 65.3547 16.8084 66.5218 15.6412C69.0893 13.5402 73.7576 14.2405 74.9247 17.9757C75.1581 18.4425 75.158 19.1429 75.3915 19.6098C75.3915 19.8432 75.3915 20.0767 74.9247 20.0767C73.2908 20.0767 71.4234 20.0767 69.7896 20.0767C68.1557 20.0767 66.5218 20.0767 64.8879 20.0767C64.421 20.0767 64.4211 20.0767 64.4211 19.6098Z" fill="#E2E2E2"/>
<path d="M43.8811 14.707C44.5813 14.0067 45.0482 13.5398 45.515 13.3063C48.0825 11.6722 52.0505 11.6722 54.3847 13.5398C55.7852 14.4736 56.252 15.8742 56.4854 17.5084C56.7188 18.909 56.7188 20.5432 56.7188 21.9438C56.7188 25.2121 56.7188 28.2469 56.7188 31.5151C56.7188 31.7485 56.7188 31.982 56.252 31.982C55.3184 31.982 54.6181 31.982 53.6845 31.982C53.451 31.982 53.2176 31.982 53.2176 31.5151C53.2176 27.78 53.2176 24.0448 53.2176 20.3097C53.2176 19.6094 53.2176 18.6756 52.9842 17.9752C52.5174 16.3411 51.5837 15.1739 49.9498 14.9405C48.0825 14.707 46.4486 15.1739 45.0481 16.5746C44.3479 17.2749 44.1145 18.2087 43.8811 19.1425C43.6477 21.4769 43.8811 23.8114 43.6477 26.3793C43.6477 28.0134 43.6477 29.881 43.6477 31.5151C43.6477 31.982 43.4143 31.982 43.1809 31.982C42.2472 31.982 41.547 31.982 40.6133 31.982C40.1465 31.982 40.1465 31.982 40.1465 31.5151C40.1465 25.679 40.1465 19.8428 40.1465 14.0067C40.1465 11.2053 40.1465 8.40398 40.1465 5.60263C40.1465 5.13574 40.1465 5.13574 40.6133 5.13574C41.547 5.13574 42.2472 5.13574 43.1809 5.13574C43.4143 5.13574 43.6477 5.13574 43.6477 5.60263C43.6477 8.40398 43.6477 11.2053 43.6477 14.2401C43.8811 14.2401 43.8811 14.2401 43.8811 14.707Z" fill="#E2E2E2"/>
<path d="M92.4316 23.3446C92.4316 20.7767 92.4316 17.9753 92.4316 15.4074C92.4316 15.174 92.4316 14.9405 91.9647 14.9405C91.2645 14.9405 90.5643 14.9405 89.864 14.9405C89.6306 14.9405 89.6306 14.9405 89.6306 14.7071C89.6306 14.0067 89.6306 13.3064 89.6306 12.8395C89.6306 12.6061 89.8641 12.6061 90.0975 12.6061C90.7977 12.6061 91.4979 12.6061 92.4316 12.6061C92.665 12.6061 92.8984 12.6061 92.8984 12.1392C92.8984 10.9719 92.8984 9.80472 92.8984 8.63749C93.1318 6.76993 94.5323 5.13581 96.633 4.90236C98.0335 4.66891 99.4339 4.90236 100.834 5.13581C101.068 5.13581 101.301 5.36925 101.068 5.6027C100.834 6.30303 100.834 7.00337 100.601 7.70371C100.601 7.93715 100.601 7.93715 100.134 7.93715C99.2006 7.70371 98.2669 7.70371 97.3332 7.93715C96.3996 8.1706 95.6994 8.63749 95.6994 9.80472C95.466 10.7385 95.6994 11.6723 95.6994 12.3726C95.6994 12.6061 95.9328 12.6061 95.9328 12.6061C96.8665 12.6061 98.0335 12.6061 98.9671 12.6061C99.434 12.6061 99.434 12.8395 99.434 13.073C99.434 13.5398 99.434 14.2402 99.434 14.7071C99.434 14.9405 99.434 15.174 98.9671 15.174C98.0335 15.174 96.8665 15.174 95.9328 15.174C95.466 15.174 95.4659 15.174 95.4659 15.6409C95.4659 21.0101 95.4659 26.1459 95.4659 31.5152C95.4659 31.982 95.4659 32.2155 94.9991 32.2155C94.2989 32.2155 93.3652 32.2155 92.665 32.2155C92.1981 32.2155 92.1982 32.2155 92.1982 31.7486C92.4316 28.7138 92.4316 25.9125 92.4316 23.3446Z" fill="#E2E2E2"/>
<path d="M83.0957 18.4421C83.0957 14.2401 83.0957 9.80465 83.0957 5.60263C83.0957 5.36919 83.0957 5.13574 83.5625 5.13574C84.2627 5.13574 85.1964 5.13574 85.8966 5.13574C86.3634 5.13574 86.3635 5.13574 86.3635 5.60263C86.3635 10.2715 86.3635 14.9405 86.3635 19.3759C86.3635 22.6442 86.3635 25.9124 86.3635 29.1806C86.3635 29.881 86.3635 30.5813 86.3635 31.5151C86.3635 31.7485 86.3635 31.982 86.13 31.982C85.1964 31.982 84.4961 31.982 83.5625 31.982C83.0957 31.982 83.0957 31.982 83.0957 31.5151C83.0957 26.8462 83.0957 22.6442 83.0957 18.4421Z" fill="#E2E2E2"/>
<path d="M109.004 4.66853C109.938 4.43509 110.405 3.73475 110.405 3.03442C110.405 2.33408 109.704 1.86719 108.771 1.86719C108.07 1.86719 107.37 1.86719 106.903 1.86719C106.67 1.86719 106.67 1.86719 106.67 2.10063C106.67 3.50131 106.67 4.90198 106.67 6.30265C106.67 6.76954 106.903 6.5361 107.137 6.5361C107.37 6.5361 107.604 6.5361 107.604 6.30265C107.604 6.06921 107.604 5.60232 107.604 5.36887C107.604 5.13543 107.37 4.66853 107.604 4.66853C108.07 4.66853 108.304 4.66853 108.771 4.90198C108.771 4.90198 109.004 5.13543 109.004 5.36887C109.237 5.60232 109.471 6.06921 109.471 6.30265C109.938 7.00299 109.938 7.00299 110.638 6.76954C109.938 6.06921 109.704 5.36887 109.004 4.66853ZM107.37 4.20164C107.37 4.20164 107.137 4.20164 107.37 4.20164C107.137 3.9682 107.137 3.73475 107.137 3.50131C107.137 2.56752 107.137 2.56752 108.07 2.56752C108.304 2.56752 108.537 2.56752 108.771 2.56752C109.238 2.56752 109.471 2.80097 109.471 3.26786C109.471 3.73475 109.238 3.9682 108.771 3.9682C108.304 4.20164 107.837 4.20164 107.37 4.20164Z" fill="#E2E2E2"/>
<path d="M109.004 4.66853C109.938 4.43509 110.405 3.73475 110.405 3.03442C110.405 2.33408 109.704 1.86719 108.771 1.86719C108.07 1.86719 107.37 1.86719 106.903 1.86719C106.67 1.86719 106.67 1.86719 106.67 2.10063C106.67 3.50131 106.67 4.90198 106.67 6.30265C106.67 6.76954 106.903 6.5361 107.137 6.5361C107.37 6.5361 107.604 6.5361 107.604 6.30265C107.604 6.06921 107.604 5.60232 107.604 5.36887C107.604 5.13543 107.37 4.66853 107.604 4.66853C108.07 4.66853 108.304 4.66853 108.771 4.90198C108.771 4.90198 109.004 5.13543 109.004 5.36887C109.237 5.60232 109.471 6.06921 109.471 6.30265C109.938 7.00299 109.938 7.00299 110.638 6.76954C109.938 6.06921 109.704 5.36887 109.004 4.66853ZM107.37 4.20164C107.37 4.20164 107.137 4.20164 107.37 4.20164C107.137 3.9682 107.137 3.73475 107.137 3.50131C107.137 2.56752 107.137 2.56752 108.07 2.56752C108.304 2.56752 108.537 2.56752 108.771 2.56752C109.238 2.56752 109.471 2.80097 109.471 3.26786C109.471 3.73475 109.238 3.9682 108.771 3.9682C108.304 4.20164 107.837 4.20164 107.37 4.20164Z" fill="#E2E2E2"/>
</svg>
