<svg width="190" height="51" viewBox="0 0 190 51" fill="none" xmlns="http://www.w3.org/2000/svg">
<g clip-path="url(#clip0_239_226)">
<path d="M59.7985 33.7109H49.3225V16.4073H57.7403C60.0914 16.4073 61.9287 17.1905 63.2519 18.7568C64.5753 20.3231 65.2383 22.5863 65.2408 25.5465C65.2408 27.9273 64.696 29.8643 63.6066 31.3574C63.172 32.0009 62.6076 32.5431 61.9512 32.9481C61.2947 33.3531 60.5609 33.6119 59.7985 33.7069V33.7109ZM57.6709 19.5321H53.2461V30.5861H57.9908C58.4252 30.5943 58.8543 30.488 59.236 30.2773C59.6177 30.0666 59.939 29.7588 60.1685 29.384C60.7801 28.4729 61.0872 27.152 61.0897 25.4213C61.0897 23.4635 60.7582 21.9728 60.0953 20.9496C59.8506 20.5141 59.4957 20.153 59.0673 19.9037C58.639 19.6545 58.1529 19.5262 57.6594 19.5321H57.6709ZM67.6613 19.8688V16.4073H71.0686V19.8688H67.6613ZM67.6613 33.7109V21.0749H71.0686V33.7109H67.6613ZM86.5937 34.2825C86.5934 34.4475 86.5819 34.6124 86.559 34.7759C86.4636 35.3654 86.2625 35.9322 85.9655 36.4479C85.7337 36.7883 85.4604 37.0974 85.1522 37.3681C84.4585 38.018 83.3985 38.3469 81.98 38.3469H74.7648V35.7548H80.8546C81.2163 35.7639 81.5783 35.747 81.9377 35.7039C82.149 35.6535 82.3433 35.5467 82.5004 35.3946L82.6893 35.234C82.8614 35.0491 83.0056 34.8392 83.1171 34.6115C83.15 34.5446 83.1734 34.4735 83.1865 34.4V33.7109H78.7771C78.1501 33.7125 77.529 33.5881 76.9495 33.3449C76.3701 33.1016 75.8437 32.7441 75.4008 32.2933C74.3602 31.2624 73.7082 29.8934 73.5584 28.4246C73.5129 28.1135 73.4897 27.7994 73.4891 27.4849C73.4972 27.0782 73.5332 26.6726 73.5969 26.271C73.6833 25.7083 73.8414 25.1594 74.0672 24.6381C74.3035 24.0738 74.6176 23.5465 74.9999 23.0719C75.4909 22.4511 76.1122 21.9497 76.8183 21.6042C77.5246 21.2587 78.2978 21.0779 79.0816 21.0749H86.5937V34.2825ZM83.1865 23.8589H80.2187C79.8353 23.8607 79.4572 23.9498 79.1123 24.12C78.7674 24.2901 78.4644 24.5367 78.2259 24.8418C77.653 25.5515 77.3568 26.4503 77.3935 27.3674C77.3955 27.665 77.4187 27.962 77.4628 28.2563C77.7635 30.0497 78.7849 30.9463 80.527 30.9463H83.1865V23.8589ZM89.2108 19.8688V16.4073H92.618V19.8688H89.2108ZM89.2108 33.7109V21.0749H92.618V33.7109H89.2108ZM99.4633 33.7109C98.9969 33.7343 98.5311 33.6528 98.0994 33.4721C97.6676 33.2913 97.2805 33.0158 96.9657 32.6653C96.3619 31.9683 96.0587 30.9633 96.056 29.6502V23.6631H94.021V21.0749H96.056V16.4073H99.4633V21.0749H102.701V23.6671H99.4594V29.478C99.4529 29.6639 99.4859 29.849 99.5564 30.0207C99.627 30.1925 99.7333 30.3465 99.868 30.4725C100.238 30.7651 100.69 30.9309 101.159 30.9463H102.701V33.7109H99.4633ZM107.465 33.7109C106.887 33.7145 106.315 33.5916 105.788 33.3506C105.171 33.0692 104.65 32.6085 104.291 32.0267C103.931 31.4448 103.75 30.7677 103.769 30.081V29.7912C103.794 29.6898 103.809 29.5862 103.815 29.4818C103.863 29.0005 104.005 28.5337 104.232 28.1088C104.46 27.6839 104.769 27.3093 105.141 27.0072C105.737 26.5421 106.471 26.2963 107.222 26.3101H113.108V25.6367C113.11 25.428 113.079 25.2203 113.015 25.0219C112.927 24.8015 112.796 24.6015 112.63 24.4345C112.444 24.2298 112.211 24.0761 111.951 23.9881C111.608 23.8911 111.252 23.8476 110.895 23.8589H104.628V21.0749H111.759C112.024 21.0819 112.29 21.1055 112.553 21.1453C113.169 21.2279 113.77 21.4021 114.337 21.6623C114.782 21.8955 115.175 22.2179 115.493 22.6098C115.861 23.0823 116.13 23.6259 116.284 24.2075C116.358 24.4647 116.417 24.7262 116.461 24.9906C116.504 25.3451 116.524 25.7023 116.519 26.0595V33.7109H107.465ZM113.108 28.6869H108.806C108.428 28.6868 108.062 28.8259 107.777 29.0785C107.645 29.1746 107.537 29.2994 107.459 29.4437C107.381 29.588 107.335 29.7482 107.326 29.9126C107.323 30.0564 107.357 30.1987 107.424 30.3251C107.492 30.4515 107.591 30.5577 107.712 30.6331L108.02 30.8015C108.231 30.887 108.455 30.9361 108.683 30.9463H113.108V28.6869ZM119.101 33.7109V16.4073H122.508V33.7109H119.101Z" fill="#E2E2E2"/>
<path d="M137.872 33.7109L136.453 29.7677H129.45L127.907 33.7109H123.726L130.664 16.4073H134.803L142.127 33.7109H137.872ZM132.834 20.7107L130.61 26.7644H135.15L132.838 20.7107H132.834ZM156.275 34.2825C156.275 34.4475 156.263 34.6124 156.241 34.7759C156.145 35.3654 155.944 35.9322 155.647 36.4479C155.416 36.7883 155.142 37.0974 154.835 37.3681C154.141 38.018 153.08 38.3469 151.662 38.3469H144.454V35.7548H150.544C150.906 35.7639 151.269 35.747 151.627 35.7039C151.838 35.6535 152.033 35.5467 152.19 35.3946L152.379 35.234C152.551 35.0491 152.695 34.8392 152.807 34.6115C152.839 34.5446 152.863 34.4735 152.876 34.4V33.7109H148.467C147.841 33.7115 147.221 33.5865 146.643 33.3433C146.065 33.1001 145.54 32.7433 145.099 32.2933C144.057 31.2624 143.405 29.8934 143.256 28.4246C143.21 28.1135 143.187 27.7994 143.186 27.4849C143.194 27.0782 143.23 26.6726 143.295 26.271C143.38 25.7083 143.539 25.1594 143.765 24.6381C144 24.0731 144.313 23.5455 144.697 23.0719C145.187 22.4521 145.808 21.9513 146.512 21.6059C147.217 21.2604 147.989 21.0789 148.772 21.0749H156.275V34.2825ZM152.868 23.8589H149.901C149.517 23.8601 149.139 23.949 148.793 24.1191C148.449 24.2893 148.146 24.5364 147.908 24.8418C147.335 25.5515 147.039 26.4503 147.076 27.3674C147.077 27.665 147.101 27.962 147.145 28.2563C147.445 30.0497 148.467 30.9463 150.209 30.9463H152.868V23.8589ZM162.293 23.8824V33.7109H158.885V21.0749H162.293V22.8291L162.458 22.4375C162.654 22.0715 162.922 21.7506 163.245 21.4951C163.569 21.2397 163.942 21.0553 164.339 20.9534C164.521 20.9001 164.708 20.8674 164.898 20.8556L165.283 20.8281H165.669L166.028 20.9065V23.8903L162.293 23.8824ZM180.848 31.5455C180.138 32.4123 179.191 33.045 178.125 33.3623C176.717 33.8006 175.247 34.0068 173.774 33.9732C171.718 33.7957 170.149 33.0986 169.064 31.8822C167.98 30.6657 167.444 29.072 167.453 27.1011C167.429 26.3198 167.566 25.5421 167.856 24.8178C168.146 24.0935 168.581 23.4387 169.134 22.8956C170.251 21.7914 171.758 21.1271 173.652 20.9025C174.1 20.8537 174.549 20.8289 175.001 20.8281C176.842 20.8281 178.356 21.285 179.54 22.1987C180.732 23.1269 181.541 24.4724 181.81 25.9734C181.883 26.273 181.931 26.5782 181.954 26.8857C181.984 27.2382 182 27.5514 182 27.8216C182.005 28.5103 181.906 29.1956 181.707 29.8538C181.52 30.4653 181.228 31.0382 180.843 31.5455H180.848ZM175.293 23.5457C175.075 23.5185 174.854 23.5029 174.634 23.4986C174.175 23.4851 173.72 23.5698 173.294 23.7471C172.87 23.9246 172.487 24.1908 172.171 24.5285C171.505 25.2767 171.157 26.262 171.204 27.2695V27.9665C171.278 28.8299 171.61 29.6496 172.156 30.3159C172.666 30.9044 173.368 31.2855 174.133 31.3889C174.368 31.4327 174.606 31.4563 174.846 31.4593C175.321 31.4778 175.793 31.3808 176.223 31.1766C176.654 30.9722 177.03 30.6663 177.32 30.2846C177.926 29.5171 178.229 28.4729 178.226 27.152C178.257 26.2653 177.968 25.3977 177.413 24.7125C176.875 24.0654 176.12 23.6462 175.293 23.5379V23.5457Z" fill="#E2E2E2"/>
<path fill-rule="evenodd" clip-rule="evenodd" d="M41.6871 23.6162L27.0792 8.7757C26.5862 8.27881 25.9199 8 25.2253 8C24.5308 8 23.8645 8.27881 23.3715 8.7757L8.76354 23.6162C8.27444 24.1171 8 24.7941 8 25.4996C8 26.2052 8.27444 26.8821 8.76354 27.3831L23.3715 42.2197C23.8645 42.7166 24.5308 42.9954 25.2253 42.9954C25.9199 42.9954 26.5862 42.7166 27.0792 42.2197L41.6871 27.3792C42.175 26.8784 42.4488 26.2023 42.4488 25.4977C42.4488 24.793 42.175 24.117 41.6871 23.6162ZM19.7175 16.9125L24.5316 12.0101C24.7158 11.8236 24.9652 11.7188 25.2253 11.7188C25.4855 11.7188 25.7349 11.8236 25.9191 12.0101L30.7448 16.9125C30.9283 17.0997 31.0314 17.3531 31.0314 17.6173C31.0314 17.8816 30.9283 18.135 30.7448 18.3222L25.9191 23.2246C25.7349 23.4111 25.4855 23.5159 25.2253 23.5159C24.9652 23.5159 24.7158 23.4111 24.5316 23.2246L19.706 18.3339C19.6133 18.241 19.5397 18.1304 19.4895 18.0084C19.4393 17.8864 19.4135 17.7555 19.4135 17.6232C19.4135 17.491 19.4393 17.3601 19.4895 17.2381C19.5397 17.1161 19.6133 17.0054 19.706 16.9125H19.7175ZM16.7728 31.107L11.9472 26.2045C11.7636 26.0173 11.6605 25.7638 11.6605 25.4996C11.6605 25.2355 11.7636 24.9819 11.9472 24.7948L16.7728 19.9002C16.957 19.7137 17.2065 19.609 17.4666 19.609C17.7267 19.609 17.9761 19.7137 18.1604 19.9002L22.9859 24.7948C23.1696 24.9819 23.2727 25.2355 23.2727 25.4996C23.2727 25.7638 23.1696 26.0173 22.9859 26.2045L18.1604 31.107C17.9761 31.2934 17.7267 31.3982 17.4666 31.3982C17.2065 31.3982 16.957 31.2934 16.7728 31.107ZM30.7448 34.0868L25.9191 38.9893C25.7349 39.1758 25.4855 39.2804 25.2253 39.2804C24.9652 39.2804 24.7158 39.1758 24.5316 38.9893L19.706 34.0868C19.5224 33.8996 19.4193 33.6462 19.4193 33.3819C19.4193 33.1177 19.5224 32.8642 19.706 32.6772L24.5316 27.7747C24.7158 27.5882 24.9652 27.4834 25.2253 27.4834C25.4855 27.4834 25.7349 27.5882 25.9191 27.7747L30.7448 32.6772C30.9283 32.8642 31.0314 33.1177 31.0314 33.3819C31.0314 33.6462 30.9283 33.8996 30.7448 34.0868ZM38.5035 26.2045L33.6779 31.107C33.4936 31.2934 33.2442 31.3982 32.9841 31.3982C32.724 31.3982 32.4745 31.2934 32.2903 31.107L27.4646 26.2045C27.2811 26.0173 27.178 25.7638 27.178 25.4996C27.178 25.2355 27.2811 24.9819 27.4646 24.7948L32.2903 19.9002C32.4745 19.7137 32.724 19.609 32.9841 19.609C33.2442 19.609 33.4936 19.7137 33.6779 19.9002L38.5035 24.7948C38.687 24.9819 38.7901 25.2355 38.7901 25.4996C38.7901 25.7638 38.687 26.0173 38.5035 26.2045Z" fill="#E2E2E2"/>
<path fill-rule="evenodd" clip-rule="evenodd" d="M26.4702 18.882C26.2237 19.1319 25.9098 19.3019 25.5682 19.3706C25.2266 19.4394 24.8727 19.4037 24.551 19.2682C24.2294 19.1326 23.9545 18.9032 23.7611 18.6091C23.5678 18.3149 23.4646 17.969 23.4646 17.6153C23.4646 17.2615 23.5678 16.9157 23.7611 16.6215C23.9545 16.3273 24.2294 16.0979 24.551 15.9624C24.8727 15.8268 25.2266 15.7912 25.5682 15.8599C25.9098 15.9286 26.2237 16.0987 26.4702 16.3486C26.6341 16.5148 26.7642 16.7122 26.853 16.9296C26.9417 17.1469 26.9874 17.38 26.9874 17.6153C26.9874 17.8506 26.9417 18.0836 26.853 18.301C26.7642 18.5183 26.6341 18.7158 26.4702 18.882Z" fill="#E2E2E2"/>
<path fill-rule="evenodd" clip-rule="evenodd" d="M18.7116 26.7648C18.4651 27.0147 18.1513 27.1847 17.8097 27.2535C17.4681 27.3222 17.1142 27.2866 16.7925 27.151C16.4709 27.0154 16.196 26.7861 16.0026 26.4918C15.8093 26.1977 15.7061 25.8519 15.7061 25.4981C15.7061 25.1443 15.8093 24.7985 16.0026 24.5044C16.196 24.2101 16.4709 23.9808 16.7925 23.8452C17.1142 23.7096 17.4681 23.674 17.8097 23.7427C18.1513 23.8115 18.4651 23.9815 18.7116 24.2314C18.8756 24.3976 19.0057 24.595 19.0945 24.8124C19.1832 25.0297 19.2289 25.2628 19.2289 25.4981C19.2289 25.7334 19.1832 25.9665 19.0945 26.1838C19.0057 26.4012 18.8756 26.5986 18.7116 26.7648Z" fill="#E2E2E2"/>
<path fill-rule="evenodd" clip-rule="evenodd" d="M34.2289 26.7648C33.9825 27.0147 33.6687 27.1847 33.3271 27.2535C32.9854 27.3222 32.6315 27.2866 32.3099 27.151C31.9883 27.0154 31.7133 26.7861 31.52 26.4918C31.3266 26.1977 31.2234 25.8519 31.2234 25.4981C31.2234 25.1443 31.3266 24.7985 31.52 24.5044C31.7133 24.2101 31.9883 23.9808 32.3099 23.8452C32.6315 23.7096 32.9854 23.674 33.3271 23.7427C33.6687 23.8115 33.9825 23.9815 34.2289 24.2314C34.3929 24.3976 34.5231 24.595 34.6119 24.8124C34.7005 25.0297 34.7463 25.2628 34.7463 25.4981C34.7463 25.7334 34.7005 25.9665 34.6119 26.1838C34.5231 26.4012 34.3929 26.5986 34.2289 26.7648Z" fill="#E2E2E2"/>
<path fill-rule="evenodd" clip-rule="evenodd" d="M26.5393 37.8694C25.2328 37.3446 23.9608 36.4793 22.7082 36.2326C22.5454 36.2005 22.3805 36.1822 22.2148 36.1777L24.7471 38.7504C24.8699 38.8747 25.0363 38.9446 25.2097 38.9446C25.3831 38.9446 25.5493 38.8747 25.6722 38.7504L26.5393 37.8694Z" fill="#E2E2E2"/>
<path fill-rule="evenodd" clip-rule="evenodd" d="M22.635 35.8176C22.8325 35.8584 23.0319 35.8885 23.2324 35.9076C24.2924 36.1504 25.6145 37.0118 26.8825 37.5208L28.2817 36.0956C27.9376 35.9157 27.5838 35.7562 27.2217 35.6179C26.5021 35.3184 25.7363 35.15 24.9592 35.1206C24.1492 35.1854 23.3615 35.4214 22.6466 35.8136L22.635 35.8176Z" fill="#E2E2E2"/>
<path fill-rule="evenodd" clip-rule="evenodd" d="M21.6906 35.6458C23.2708 34.9175 25.8377 33.919 28.1581 33.8837C26.8126 33.6087 25.4307 33.5703 24.0725 33.7702L23.6871 33.8406C23.5561 33.8641 23.4404 33.8955 23.3016 33.919C22.4544 34.126 21.6284 34.4143 20.8349 34.7805L21.6906 35.6458ZM19.7634 33.1672C21.2627 32.8225 23.6871 32.6229 25.6143 33.3629C23.4674 33.2885 22.419 33.6762 20.5226 34.4671L19.9176 33.8524C19.8319 33.7639 19.7721 33.6529 19.7448 33.532C19.7176 33.411 19.724 33.2847 19.7634 33.1672Z" fill="#E2E2E2"/>
<path fill-rule="evenodd" clip-rule="evenodd" d="M20.5269 34.4671C22.4231 33.684 23.4715 33.2925 25.6184 33.3629C23.6912 32.6229 21.263 32.8225 19.7675 33.1672C19.7282 33.2847 19.7218 33.411 19.749 33.532C19.7762 33.6529 19.836 33.7639 19.9217 33.8524L20.5269 34.4671Z" fill="#E2E2E2"/>
<path fill-rule="evenodd" clip-rule="evenodd" d="M25.314 34.7797C25.314 34.7797 25.314 34.7797 25.3641 34.7797C25.4759 34.7797 25.5877 34.7797 25.7496 34.7797C26.7541 34.9191 27.7264 35.2386 28.621 35.7235L30.1627 34.1572C29.8506 34.1141 29.5345 34.0828 29.2878 34.0632C28.1083 33.9653 26.3546 34.3961 25.3448 34.7289L25.314 34.7797Z" fill="#E2E2E2"/>
<path fill-rule="evenodd" clip-rule="evenodd" d="M23.7222 32.4738C23.7975 32.3422 23.8895 32.221 23.9959 32.1136C24.2355 31.8713 24.5385 31.7039 24.8691 31.6314C25.1996 31.5589 25.5437 31.5845 25.8603 31.7049C26.177 31.8253 26.4529 32.0356 26.6554 32.3107C26.8579 32.5859 26.9782 32.9143 27.0022 33.2571L26.4627 33.214L25.7727 32.9477C25.1585 32.7183 24.5191 32.5657 23.8686 32.4935H23.7222V32.4738Z" fill="#E2E2E2"/>
</g>
<defs>
<clipPath id="clip0_239_226">
<rect width="174" height="36" fill="white" transform="translate(8 8)"/>
</clipPath>
</defs>
</svg>
