<svg width="49" height="66" viewBox="0 0 49 66" fill="none" xmlns="http://www.w3.org/2000/svg">
<path d="M4.34918 65.606C3.61831 65.606 3.08677 65.5396 2.68811 65.44C1.35925 65.0748 0.694824 64.1784 0.694824 62.7176V56.7417C0.694824 55.6129 1.22637 54.8493 2.25623 54.4177C2.78777 54.2185 3.25287 54.0857 3.68475 54.0857H4.48206C5.01361 54.0857 5.44549 54.1189 5.74448 54.1521C6.01025 54.2185 6.17636 54.3513 6.17636 54.4841V56.0777C6.17636 56.1773 6.10991 56.2437 5.97703 56.2437H5.94381C5.61159 56.1441 5.34582 56.1109 5.11327 56.0777C5.08005 56.0777 4.91394 56.0777 4.64817 56.0777C4.11663 56.0777 3.71797 56.1773 3.4522 56.4097C3.18643 56.6421 3.05354 56.9741 3.05354 57.4057V61.954C3.05354 62.6512 3.28609 63.116 3.78442 63.282C3.98374 63.3484 4.28274 63.3484 4.71461 63.3484H5.27938C5.41226 63.282 5.47871 63.282 5.51193 63.282C5.54515 63.282 5.71126 63.282 5.94381 63.282C6.10991 63.282 6.20958 63.282 6.2428 63.282L6.34246 63.5144V64.0788V64.8424C6.34246 64.9752 6.30924 65.0748 6.2428 65.1744C6.14314 65.3404 5.97703 65.44 5.67804 65.5064C5.54515 65.5396 5.34582 65.5728 5.08005 65.5728H4.34918V65.606ZM10.329 65.606C9.00018 65.606 8.06998 65.0748 7.6381 64.0456C7.47199 63.6472 7.40555 63.282 7.40555 62.9832V59.0988C7.40555 58.7668 7.47199 58.4349 7.6381 58.0365C7.93709 57.3725 8.33575 56.9077 8.90051 56.7085C9.33239 56.5425 9.79749 56.4429 10.3623 56.4429C10.7609 56.4429 11.0599 56.4761 11.3257 56.5425C12.2891 56.7749 12.8871 57.3725 13.1529 58.3021C13.2525 58.6673 13.319 58.966 13.319 59.1984V63.0164C13.319 63.3484 13.2525 63.7136 13.0864 64.0788C12.7874 64.776 12.3555 65.2076 11.824 65.4068C11.3257 65.5064 10.8274 65.606 10.329 65.606ZM10.329 63.78C10.8606 63.78 11.1263 63.5476 11.1263 63.116V58.8997C11.1263 58.4349 10.8606 58.2025 10.329 58.2025C9.79749 58.2025 9.53172 58.4349 9.53172 58.8997V63.116C9.53172 63.5808 9.79749 63.78 10.329 63.78ZM16.6411 56.9077C16.6743 56.9077 16.7408 56.8745 16.8404 56.8081C17.3387 56.5425 17.7706 56.3765 18.1693 56.3765C18.5679 56.3765 18.9002 56.4761 19.1659 56.6421C19.3653 56.8081 19.5314 56.9077 19.6642 56.9741C19.7639 57.0405 19.8304 57.0737 19.8636 57.0737H19.8968C20.528 56.6089 21.1924 56.4097 21.8236 56.4097C22.3552 56.4097 22.6874 56.5093 22.8867 56.6753C23.4847 57.2065 23.7837 57.7709 23.7837 58.3353V65.2076C23.7837 65.3736 23.7173 65.44 23.5512 65.44H21.9565C21.7572 65.44 21.6575 65.3736 21.6575 65.2076V58.9992C21.6575 58.6673 21.425 58.5013 20.9267 58.5013C20.4283 58.5013 20.1626 58.7004 20.1626 59.0988V65.2408C20.1626 65.4068 20.0629 65.4732 19.8636 65.4732H18.2689C18.0696 65.4732 17.97 65.4068 17.97 65.2408V59.0324C17.97 58.7004 17.7374 58.5345 17.2391 58.5345C16.7408 58.5345 16.475 58.7337 16.475 59.132V65.274C16.475 65.44 16.3753 65.5064 16.176 65.5064H14.5814C14.4153 65.5064 14.3488 65.44 14.3488 65.274V56.8081C14.3488 56.6421 14.4153 56.5757 14.5814 56.5757H16.2424C16.2757 56.5757 16.3421 56.6421 16.4086 56.7417C16.4418 56.8413 16.475 56.9077 16.475 56.9077C16.6079 56.9077 16.6411 56.9077 16.6411 56.9077Z" fill="#E2E2E2"/>
<path d="M25.7104 54.5173L25.943 54.2849H27.7037L28.0027 54.5173V63.4148H31.2584L31.4245 63.614V65.1744C31.4245 65.3404 31.3249 65.4068 31.1588 65.4068H25.9762C25.8101 65.4068 25.7437 65.3072 25.7437 65.0748V54.5173H25.7104ZM32.5873 54.0193H34.1819C34.348 54.0193 34.4145 54.1189 34.4145 54.2849V55.6129C34.4145 55.7789 34.348 55.8453 34.1819 55.8453H32.5873C32.4212 55.8453 32.3547 55.7789 32.3547 55.6129V54.2849C32.3547 54.0857 32.4212 54.0193 32.5873 54.0193ZM32.5873 56.5757H34.1819C34.348 56.5757 34.4145 56.6421 34.4145 56.8081V65.1744C34.4145 65.3404 34.348 65.4068 34.1819 65.4068H32.5873C32.4212 65.4068 32.3547 65.3404 32.3547 65.1744V56.8081C32.3547 56.6753 32.4212 56.5757 32.5873 56.5757ZM37.9359 56.9409C38.0024 56.9409 38.0688 56.9077 38.1353 56.8413C38.6336 56.5757 39.0655 56.4097 39.4641 56.4097C39.9957 56.4097 40.3611 56.5093 40.6269 56.7417C41.1916 57.2397 41.4574 57.7377 41.4574 58.3352V65.2076C41.4574 65.3736 41.3577 65.44 41.1916 65.44H39.597C39.3977 65.44 39.298 65.3736 39.298 65.2076V58.9992C39.298 58.6672 39.0655 58.5012 38.5671 58.5012C38.0688 58.5012 37.803 58.7004 37.803 59.0988V65.2408C37.803 65.4068 37.7034 65.4732 37.504 65.4732H35.9094C35.7433 65.4732 35.6769 65.4068 35.6769 65.2408V56.8081C35.6769 56.6421 35.7433 56.5757 35.9094 56.5757H37.5705C37.6037 56.5757 37.6702 56.6421 37.7366 56.7417C37.7698 56.8413 37.803 56.9077 37.803 56.9077C37.9027 56.9409 37.9027 56.9409 37.9359 56.9409ZM46.1748 65.606C45.444 65.606 44.8792 65.5396 44.5138 65.3736C43.2846 64.8424 42.6866 64.0124 42.6866 62.8836V59.0656C42.6866 58.7336 42.753 58.3684 42.9191 58.0033C43.2181 57.3061 43.65 56.8745 44.1815 56.6753C44.6466 56.5093 45.1117 56.4097 45.6765 56.4097C46.1416 56.4097 46.5403 56.4761 46.9389 56.5757C47.5369 56.7417 47.9688 57.1401 48.2678 57.8041C48.4671 58.302 48.6 58.7336 48.6 59.132V60.2276V61.3232C48.5668 61.5224 48.4671 61.622 48.3674 61.622H44.9456L44.8792 61.7548V62.7508C44.8792 62.9832 45.0785 63.2488 45.4772 63.4812C45.6765 63.614 46.0419 63.6472 46.507 63.6472C46.8393 63.6472 47.0054 63.6472 47.0386 63.6472C47.5037 63.5476 47.8691 63.448 48.2013 63.4148C48.2346 63.4148 48.2678 63.3816 48.3342 63.3816C48.4671 63.3816 48.5336 63.448 48.5336 63.5476V65.0416C48.5336 65.1744 48.3674 65.274 48.0352 65.3736C47.9023 65.4068 47.8027 65.44 47.6698 65.44C47.5369 65.4732 47.404 65.5064 47.3044 65.5064C46.9057 65.5728 46.5403 65.606 46.1748 65.606ZM44.8128 59.796H46.4406C46.4406 59.5968 46.4406 59.2648 46.4074 58.8C46.3742 58.3352 46.1416 58.136 45.6765 58.136C45.145 58.136 44.8792 58.3684 44.846 58.8C44.846 59.2648 44.8128 59.5968 44.8128 59.796Z" fill="#E2E2E2"/>
<path d="M45.4441 40.9387C47.1716 40.9387 48.6001 42.3663 48.6001 44.0927C48.6001 45.8191 47.1716 47.2466 45.4441 47.2466H3.85086C2.12334 47.2466 0.694824 45.8191 0.694824 44.0927V2.52665C0.694824 0.800268 2.12334 -0.627319 3.85086 -0.627319H45.4441C47.1716 -0.627319 48.6001 0.800268 48.6001 2.52665V14.7773C48.6001 16.5037 47.1716 17.9313 45.4441 17.9313C43.7165 17.9313 42.288 16.5037 42.288 14.7773V5.68062H7.00689V40.9387H45.4441Z" fill="#E2E2E2"/>
<path d="M32.7868 28.2564C34.5143 28.2564 35.9428 29.684 35.9428 31.4104C35.9428 33.1367 34.5143 34.5643 32.7868 34.5643H16.5415C14.814 34.5643 13.3855 33.1367 13.3855 31.4104V15.1757C13.3855 13.4493 14.814 12.0217 16.5415 12.0217C18.269 12.0217 19.6976 13.4493 19.6976 15.1757V28.2564H32.7868Z" fill="#E2E2E2"/>
</svg>
