<svg width="66" height="66" viewBox="0 0 66 66" fill="none" xmlns="http://www.w3.org/2000/svg">
<path d="M13.4742 43.5468V49.8314H11.7479V46.1732L9.29357 49.8314H7.61426V43.5468H9.34054V47.2167L11.7949 43.5468H13.4742Z" fill="#E2E2E2"/>
<path d="M20.7172 43.5468V49.8314H18.9322V47.4277H16.7362V49.8314H14.9512V43.5468H16.7362V45.9621H18.9322V43.5468H20.7172Z" fill="#E2E2E2"/>
<path d="M27.9626 43.5468V49.8314H26.1776V47.4277H23.9815V49.8314H22.1965V43.5468H23.9815V45.9621H26.1776V43.5468H27.9626Z" fill="#E2E2E2"/>
<path d="M34.961 49.0221C34.3113 49.6553 33.501 49.9719 32.5301 49.9719C31.5591 49.9719 30.7489 49.6591 30.0992 49.0339C29.4571 48.4007 29.1362 47.6231 29.1362 46.7006C29.1362 45.786 29.4613 45.0122 30.1109 44.379C30.7686 43.7459 31.5826 43.4293 32.5536 43.4293C33.5245 43.4293 34.3306 43.7459 34.9727 44.379C35.6224 45.0042 35.9474 45.7781 35.9474 46.7006C35.9474 47.6151 35.6186 48.389 34.961 49.0221ZM32.5536 48.4359C33.0468 48.4359 33.4423 48.2717 33.7397 47.9434C34.037 47.6072 34.1859 47.193 34.1859 46.7006C34.1859 46.2236 34.0295 45.8174 33.7162 45.4812C33.4108 45.1374 33.0153 44.9653 32.5301 44.9653C32.0369 44.9653 31.6414 45.1332 31.344 45.4695C31.0466 45.7978 30.8977 46.2081 30.8977 46.7006C30.8977 47.1776 31.0504 47.5879 31.3557 47.9317C31.669 48.268 32.0683 48.4359 32.5536 48.4359Z" fill="#E2E2E2"/>
<path d="M12.2059 54.2835H9.39926V59.0439H7.61426V52.7593H12.2059V54.2835Z" fill="#E2E2E2"/>
<path d="M16.0418 59.1844C15.0867 59.1844 14.2999 58.8833 13.6814 58.2816C13.0629 57.6719 12.7537 56.8825 12.7537 55.9131C12.7537 54.9986 13.0472 54.2247 13.6344 53.5916C14.2216 52.9584 14.9653 52.6418 15.8657 52.6418C16.8599 52.6418 17.6193 52.9701 18.1439 53.6267C18.6684 54.2833 18.9307 55.0924 18.9307 56.0538C18.9307 56.1476 18.9229 56.3038 18.9072 56.5228H14.5269C14.613 56.9215 14.7892 57.2263 15.0554 57.4374C15.3215 57.6484 15.6582 57.7539 16.0653 57.7539C16.6212 57.7539 17.13 57.5391 17.592 57.1091L18.6136 58.0119C17.9795 58.7937 17.1222 59.1844 16.0418 59.1844ZM14.5034 55.4089H17.1927C17.1379 55.0023 16.993 54.6782 16.7582 54.4358C16.5311 54.1933 16.2336 54.0723 15.8657 54.0723C15.5055 54.0723 15.2041 54.1933 14.9614 54.4358C14.7266 54.6703 14.5739 54.9948 14.5034 55.4089Z" fill="#E2E2E2"/>
<path d="M25.6629 58.2347C25.0131 58.8678 24.2028 59.1844 23.232 59.1844C22.2612 59.1844 21.4509 58.8716 20.8011 58.2464C20.1591 57.6132 19.8381 56.8356 19.8381 55.9131C19.8381 54.9986 20.163 54.2247 20.8128 53.5916C21.4705 52.9584 22.2847 52.6418 23.2555 52.6418C24.2263 52.6418 25.0327 52.9584 25.6746 53.5916C26.3244 54.2168 26.6493 54.9906 26.6493 55.9131C26.6493 56.8277 26.3205 57.6015 25.6629 58.2347ZM23.2555 57.6484C23.7487 57.6484 24.1441 57.4843 24.4416 57.156C24.7391 56.8197 24.8878 56.4056 24.8878 55.9131C24.8878 55.4362 24.7312 55.03 24.4181 54.6937C24.1127 54.3499 23.7174 54.1778 23.232 54.1778C22.7388 54.1778 22.3434 54.3457 22.0459 54.682C21.7484 55.0103 21.5996 55.4207 21.5996 55.9131C21.5996 56.3901 21.7523 56.8005 22.0576 57.1442C22.3708 57.4805 22.7701 57.6484 23.2555 57.6484Z" fill="#E2E2E2"/>
<path d="M32.7449 52.7593V54.2835H30.8777V59.0439H29.0692V54.2835H27.2021V52.7593H32.7449Z" fill="#E2E2E2"/>
<path d="M36.5845 59.1844C35.6296 59.1844 34.8427 58.8833 34.2241 58.2816C33.6055 57.6719 33.2964 56.8825 33.2964 55.9131C33.2964 54.9986 33.59 54.2247 34.1771 53.5916C34.7643 52.9584 35.5079 52.6418 36.4084 52.6418C37.4028 52.6418 38.1619 52.9701 38.6866 53.6267C39.2113 54.2833 39.4734 55.0924 39.4734 56.0538C39.4734 56.1476 39.4655 56.3038 39.4499 56.5228H35.0696C35.1556 56.9215 35.3318 57.2263 35.5981 57.4374C35.8644 57.6484 36.2008 57.7539 36.608 57.7539C37.1637 57.7539 37.6729 57.5391 38.1347 57.1091L39.1564 58.0119C38.5222 58.7937 37.6649 59.1844 36.5845 59.1844ZM35.0462 55.4089H37.7354C37.6805 55.0023 37.5358 54.6782 37.3009 54.4358C37.074 54.1933 36.7762 54.0723 36.4084 54.0723C36.0481 54.0723 35.747 54.1933 35.5042 54.4358C35.2693 54.6703 35.1166 54.9948 35.0462 55.4089Z" fill="#E2E2E2"/>
<path d="M40.158 59.0439L42.3657 55.8547L40.2402 52.7593H42.1543L43.3287 54.5884L44.5148 52.7593H46.382L44.2564 55.8195L46.4759 59.0439H44.5617L43.2935 57.0858L42.0252 59.0439H40.158Z" fill="#E2E2E2"/>
<path fill-rule="evenodd" clip-rule="evenodd" d="M63.525 2.475H2.475V63.525H63.525V2.475ZM0 0V66H66V0H0Z" fill="#E2E2E2"/>
<path d="M48.7565 58.2063C48.7565 58.669 48.3811 59.0438 47.9177 59.0438C47.4542 59.0438 47.0789 58.669 47.0789 58.2063C47.0789 57.7436 47.4542 57.3688 47.9177 57.3688C48.3811 57.3688 48.7565 57.7436 48.7565 58.2063Z" fill="#E2E2E2"/>
</svg>
