<svg width="133" height="65" viewBox="0 0 133 65" fill="none" xmlns="http://www.w3.org/2000/svg">
<path fill-rule="evenodd" clip-rule="evenodd" d="M111.95 0.199764C111.084 0.465954 110.203 1.36777 109.876 2.32128C109.571 3.20831 109.57 4.61226 109.872 5.3183C110.084 5.81201 110.083 5.83616 109.86 5.74987C109.085 5.45044 107.781 5.25033 107.048 5.31843C104.268 5.57676 103.187 7.15965 103.997 9.78384C104.209 10.4691 104.4 10.7842 104.865 11.2132C106.005 12.2645 107.47 12.7817 111.658 13.6113C116.035 14.4784 115.97 14.4587 115.882 14.9018C115.841 15.1036 115.263 16.545 114.597 18.1047C113.268 21.2155 112.731 22.7734 112.551 24.0433C112.416 25.0032 112.564 26.1782 112.883 26.6649C113.672 27.8695 114.949 28.7376 115.936 28.7403C116.629 28.7422 117.735 28.1407 118.386 27.4075C118.988 26.7293 119.673 25.4279 119.809 24.7005L119.893 24.2546L120.298 24.8054C121.005 25.7669 122.132 26.3962 123.367 26.5177C124.833 26.6622 125.964 25.9987 126.659 24.587C127.02 23.8522 127.101 23.5271 127.104 22.79C127.112 20.4902 125.421 18.8762 120.657 16.6397C119.418 16.0575 118.106 15.4133 117.742 15.2082C117.165 14.8826 117.122 14.8295 117.401 14.7899C117.958 14.7111 119.416 15.0307 121.741 15.7416C126.282 17.1296 127.907 17.4142 129.366 17.0771C131.473 16.5899 132.888 14.8119 132.986 12.5288C133.027 11.5894 132.989 11.3613 132.708 10.8329C131.907 9.33055 129.793 8.56875 127.958 9.12135L127.334 9.30925L127.722 8.61257C128.276 7.61728 128.539 6.59362 128.539 5.43104C128.539 4.05627 128.323 3.42675 127.592 2.67173C126.807 1.86054 125.809 1.53506 124.456 1.64862C122.972 1.77316 122.453 1.98821 121.606 2.82978C120.609 3.81952 119.903 5.28859 118.638 9.00128C117.687 11.7938 116.989 13.4807 116.56 14.0212C116.357 14.2764 116.344 14.24 116.341 13.4106C116.339 12.9256 116.529 11.3382 116.764 9.88315C117.285 6.65481 117.36 4.00987 116.961 2.89599C116.451 1.46776 115.565 0.610853 114.172 0.196779C113.286 -0.0664262 112.814 -0.0657484 111.95 0.199764ZM7.32183 6.83051V13.5463H8.66904H10.0161L10.0588 10.2563C10.1067 6.55862 10.1799 6.23599 11.0551 5.87008C11.6721 5.61216 12.6118 5.626 13.0007 5.89857C13.6232 6.33476 13.6945 6.78614 13.6945 10.2858V13.5463H15.0504H16.4063V9.90784C16.4063 5.76548 16.3133 5.18615 15.5205 4.39287C14.318 3.18959 11.7999 3.23151 10.5566 4.47563L10.0336 4.99892V2.55681V0.114697H8.67772H7.32183V6.83051ZM1.71751 0.883555C1.66775 0.933212 1.62707 1.60479 1.62707 2.37596V3.77787H0.813536H0V4.65974V5.54162H0.804858H1.60958L1.65229 8.85597C1.69215 11.9556 1.71304 12.1946 1.97445 12.5446C2.12821 12.7506 2.4059 13.0325 2.59165 13.1713C3.02242 13.4931 4.57275 13.7151 5.58777 13.6002L6.3727 13.5113V12.4774V11.4434H5.56594C5.08555 11.4434 4.68787 11.3722 4.58292 11.2673C4.45289 11.1373 4.39513 10.3637 4.36272 8.3164L4.31893 5.54162H5.34575H6.3727V4.65974V3.77787H5.35578H4.33886V2.28546V0.793062H3.0734C2.37729 0.793062 1.76714 0.833763 1.71751 0.883555ZM21.2515 3.64626C19.9136 3.98233 18.6644 5.03108 18.0564 6.32906C17.7299 7.02615 17.6944 7.25476 17.6944 8.66209C17.6944 10.0986 17.7257 10.2902 18.0888 11.0771C18.8933 12.8202 20.4263 13.7249 22.5756 13.7249C24.5434 13.7249 25.9727 12.9693 26.6881 11.5507C27.2678 10.4011 27.2834 10.4258 25.9776 10.4258C24.8937 10.4258 24.8049 10.4475 24.5986 10.7626C24.1077 11.5123 23.0357 11.8717 21.99 11.6373C21.0211 11.4199 20.3384 10.6125 20.3384 9.68398V9.34046H23.8129H27.2875L27.2284 8.21505C27.0855 5.4902 25.3296 3.65033 22.7817 3.55591C22.2209 3.53501 21.5324 3.57571 21.2515 3.64626ZM23.4524 5.77931C23.9375 6.02407 24.3189 6.55333 24.4792 7.20361L24.5711 7.57671H22.4377H20.3045L20.3857 7.17023C20.5124 6.53705 20.8875 6.0683 21.4852 5.79668C22.1779 5.48178 22.8513 5.47581 23.4524 5.77931ZM30.372 14.3576V19.9175L29.389 18.9228C28.2641 17.7846 27.1659 17.1851 25.5911 16.8494C24.2805 16.5702 21.9617 16.6696 20.7452 17.0571C17.355 18.1372 14.8877 21.3072 14.1525 25.5269C13.8355 27.347 13.9562 30.2544 14.4233 32.0483C15.7964 37.3222 19.2937 40.0523 24.3982 39.8354C26.9419 39.7273 28.8296 38.8786 30.0103 37.3123L30.5754 36.5627L30.614 37.9434L30.6527 39.3242H33.4953H36.3379V24.061V8.79777H33.355H30.372V14.3576ZM63.8626 11.3077V13.8177H66.9134H69.9641V11.3077V8.79777H66.9134H63.8626V11.3077ZM47.3504 16.8877C44.1114 17.3878 41.7051 18.9236 40.5748 21.2118C40.3271 21.7136 40.1271 22.4553 39.9438 23.5522L39.87 23.9931H42.9148H45.9596L46.0394 23.62C46.3211 22.3027 46.9375 21.4867 47.9887 21.0398C48.2552 20.9265 49.0568 20.8044 49.7701 20.7685C52.1911 20.6465 53.4907 21.3447 53.8229 22.946C54.0861 24.2148 53.7682 24.9628 52.7434 25.4859C52.0254 25.8525 51.4274 25.9751 48.4732 26.3612C44.1811 26.9221 42.4061 27.4938 41.0193 28.762C39.613 30.0482 38.9842 32.0949 39.3029 34.3493C39.8075 37.9204 42.4254 39.8572 46.757 39.8646C49.4052 39.8689 51.6951 39.1976 53.3544 37.9303C54.1117 37.3519 54.1707 37.3293 54.2075 37.6043C54.2294 37.7667 54.31 38.2202 54.3867 38.6119L54.5262 39.3242H57.6399C60.7381 39.3242 60.7528 39.3228 60.6046 39.0458C60.1009 38.1041 60.034 37.0882 59.9476 29.0809L59.8627 21.2118L59.4982 20.4336C58.5666 18.4447 56.3737 17.2172 53.019 16.8072C51.4545 16.6161 48.8728 16.6527 47.3504 16.8877ZM84.8887 16.8827C82.9647 17.4002 81.168 18.751 80.2011 20.4069L79.6588 21.3356L79.6213 19.2725L79.5839 17.2095H76.7401H73.8962V28.2668V39.3242H76.8649H79.8338L79.9031 33.5242C79.9412 30.3342 80.0345 27.4486 80.1105 27.1117C80.8312 23.9185 82.6917 22.3648 85.8281 22.337C86.4619 22.3313 87.24 22.3713 87.5568 22.4257L88.1331 22.5246V19.6805V16.8364L87.7094 16.7516C87.0051 16.6106 85.669 16.6728 84.8887 16.8827ZM63.8626 28.2668V39.3242H66.9134H69.9641V28.2668V17.2095H66.9134H63.8626V28.2668ZM88.6162 17.5123C88.6691 17.6815 90.437 22.4416 92.545 28.0902C94.653 33.7387 96.4192 38.6054 96.4698 38.9051C96.631 39.86 96.2454 40.8303 95.3344 41.7618L94.5439 42.5703L95.3458 43.2006C96.2535 43.9143 97.3594 45.1868 97.7674 45.9869L98.0418 46.525L98.8585 46.0895C99.8175 45.578 100.652 44.6974 101.26 43.5565C101.579 42.9571 109.251 22.5835 110.99 17.7183L111.171 17.2095H108.016H104.861L102.516 24.5697C101.226 28.6178 100.123 32.0179 100.064 32.1255C99.9961 32.2501 99.0541 29.5906 97.4688 24.7992L94.9803 17.2773L91.7502 17.241L88.5201 17.2045L88.6162 17.5123ZM27.2102 21.5719C27.7382 21.7696 28.2142 22.0877 28.6812 22.5556C30.0402 23.9164 30.5932 25.8475 30.4705 28.8045C30.3576 31.5231 29.8084 33.01 28.4732 34.2112C27.5846 35.0106 26.6937 35.3198 25.281 35.319C24.323 35.3184 24.0797 35.264 23.2882 34.8741C21.1842 33.8377 20.0645 31.5433 20.0695 28.279C20.0752 24.6421 21.2904 22.3058 23.5925 21.5049C24.5197 21.1824 26.2558 21.2146 27.2102 21.5719ZM53.8443 31.6574C53.7709 32.2574 53.5888 33.0336 53.4394 33.3821C53.103 34.1674 52.2258 35.063 51.4617 35.4012C49.7064 36.1782 46.853 35.905 45.918 34.8704C45.5899 34.5074 45.3 33.6777 45.2935 33.0832C45.273 31.2069 46.5131 30.2169 49.4728 29.7469C51.8482 29.3696 52.9216 29.1338 53.412 28.8814L53.8968 28.6321L53.9372 29.5994C53.9594 30.1314 53.9177 31.0575 53.8443 31.6574ZM11.7963 42.7974C10.0579 43.2617 8.51583 44.3246 7.48521 45.7687L7.19478 46.1757L7.19057 44.6493L7.18624 43.123H4.40665H1.62707V53.8439V64.5647L4.57614 64.5282L7.52521 64.4915L7.593 57.5722C7.65931 50.8111 7.66785 50.6344 7.96601 49.8433C8.5904 48.1865 9.70698 47.3738 11.55 47.2342C13.5195 47.0852 14.7045 47.7377 15.3419 49.3217C15.6572 50.1053 15.6596 50.1547 15.7277 57.3009L15.7962 64.4915H18.7113H21.6265L21.6662 57.5722C21.7089 50.1092 21.6288 48.6729 21.0711 46.9063C20.3494 44.6203 18.6574 43.1947 16.0873 42.7069C15.0918 42.5181 12.6494 42.5695 11.7963 42.7974ZM31.913 42.7829C29.5457 43.298 27.1049 44.8633 25.7156 46.7569C23.0102 50.4448 22.8087 56.1845 25.2393 60.3213C25.9506 61.5318 27.5542 63.0469 28.8195 63.7038C30.6513 64.6547 32.1138 64.9782 34.5753 64.977C39.3444 64.9747 42.5848 62.8324 44.175 58.6306C44.3219 58.2427 44.4084 57.8916 44.3673 57.8505C44.3262 57.8094 43.1797 57.7757 41.8196 57.7757H39.3467L38.9966 58.3733C37.5227 60.8899 32.8675 61.3869 30.82 59.2463C30.1011 58.4948 29.4316 56.6344 29.424 55.3675C29.4232 55.2339 31.0585 55.1979 37.1515 55.1979H44.8801L44.8793 54.2143C44.8768 51.2201 43.8789 48.095 42.3025 46.1457C40.9515 44.475 38.9272 43.2047 36.9481 42.7859C35.7738 42.5373 33.0488 42.5357 31.913 42.7829ZM83.9786 42.7806C80.3313 43.4431 78.222 45.3534 77.8335 48.3464C77.5737 50.3461 78.0197 51.7411 79.2908 52.9033C80.3766 53.8963 81.4103 54.3143 84.9892 55.2073C89.1546 56.2467 89.8103 56.4806 90.5542 57.1919C91.146 57.7579 91.1493 57.7663 91.0922 58.5576C91.0179 59.5841 90.6599 60.0892 89.6597 60.579C88.6735 61.0617 86.7097 61.1892 85.5329 60.8469C84.1221 60.4365 83.1232 59.3815 82.914 58.081L82.8212 57.5044H80.0536H77.2859L77.2938 58.0131C77.3285 60.279 78.9747 62.6884 81.2514 63.8056C84.4453 65.3728 90.1245 65.4022 93.2603 63.8674C95.7463 62.6507 97.212 60.0987 97.044 57.2797C96.8976 54.8246 95.4418 53.2106 92.4719 52.2111C91.9872 52.0479 90.2913 51.6176 88.7031 51.255C85.5338 50.5313 84.4676 50.1063 83.9637 49.3655C83.3712 48.4942 83.6601 47.4761 84.6634 46.9007C85.1606 46.6157 85.3863 46.5827 86.845 46.5827C88.3816 46.5827 88.5172 46.6053 89.2856 46.9897C90.1921 47.4433 90.6655 48.0242 90.7965 48.8445L90.8796 49.364H93.7062H96.5328L96.4577 48.923C96.2914 47.9469 95.8506 46.6832 95.4645 46.0754C94.4483 44.4758 92.6032 43.3226 90.3025 42.849C88.7762 42.5349 85.5256 42.4997 83.9786 42.7806ZM43.932 43.2248C43.9327 43.2808 45.4441 48.0887 47.2909 53.909L50.6485 64.4915H53.6954H56.7422L58.516 57.5044C59.4916 53.6614 60.3179 50.4343 60.3523 50.3328C60.3868 50.2315 61.2693 53.3757 62.3135 57.32L64.2121 64.4915H67.2385H70.2648L73.6208 53.8412L76.9767 43.1909L73.9929 43.1542C72.3517 43.1342 70.984 43.1427 70.9536 43.1731C70.9231 43.2036 70.0362 46.41 68.9828 50.2986C67.9293 54.1872 67.0321 57.3687 66.989 57.3687C66.946 57.3687 66.1147 54.1787 65.1417 50.2798L63.3728 43.1909L60.5051 43.1542L57.6374 43.1176L57.4999 43.6291C57.4243 43.9105 56.6292 47.1263 55.7331 50.7755C54.8369 54.4247 54.0801 57.4339 54.0512 57.4628C54.0223 57.4917 53.8778 57.0703 53.7301 56.5263C53.5825 55.9822 52.7071 52.744 51.7848 49.3301L50.108 43.123H47.0195C45.3207 43.123 43.9315 43.1688 43.932 43.2248ZM35.9835 47.2497C36.8204 47.5016 37.4694 48.0108 37.9075 48.7588C38.3104 49.4466 38.7011 50.4419 38.8241 51.0938L38.9074 51.5348H34.1532H29.399L29.4908 50.9581C29.7639 49.2432 30.9312 47.8149 32.5254 47.2449C33.1848 47.0091 35.1941 47.0118 35.9835 47.2497Z" fill="#E2E2E2"/>
</svg>
