<svg width="560" height="242" viewBox="0 0 560 242" fill="none" xmlns="http://www.w3.org/2000/svg">
<mask id="mask0_3_607" style="mask-type:alpha" maskUnits="userSpaceOnUse" x="0" y="0" width="560" height="242">
<rect width="560" height="242" fill="#D9D9D9"/>
</mask>
<g mask="url(#mask0_3_607)">
<path d="M475.932 205.623C368.846 249.299 194.7 249.299 87.6135 205.623C-19.473 161.946 -19.473 90.9197 87.6135 47.2435C194.7 3.56735 368.846 3.56734 475.932 47.2435C582.759 90.8137 583.019 161.946 475.932 205.623ZM89.9528 48.1976C-15.8341 91.3437 -15.5742 161.416 89.9528 204.457C195.74 247.603 367.546 247.497 473.073 204.457C578.86 161.31 578.6 91.2377 473.073 48.1976C367.546 5.15749 195.48 5.15751 89.9528 48.1976Z" fill="url(#paint0_linear_3_607)" fill-opacity="0.9"/>
<path d="M435.902 189.296C350.908 223.962 212.372 224.068 127.118 189.296C42.1249 154.631 41.8649 98.1276 127.118 63.3563C212.112 28.691 350.648 28.585 435.902 63.3563C520.895 98.2336 520.895 154.631 435.902 189.296ZM129.977 64.5224C46.2836 98.6577 46.0236 154.101 129.717 188.236C213.411 222.371 349.609 222.371 433.303 188.236C516.996 154.101 516.996 98.5517 433.303 64.4164C349.349 30.3871 213.671 30.3871 129.977 64.5224Z" fill="url(#paint1_linear_3_607)" fill-opacity="0.9"/>
<path d="M473.073 204.457C472.293 204.775 471.253 205.199 470.474 205.517L462.676 202.337C463.456 202.019 464.495 201.595 465.275 201.277L473.073 204.457ZM480.091 201.595L472.033 198.521C472.813 198.203 473.853 197.779 474.632 197.46L482.95 200.429C481.91 200.853 481.13 201.171 480.091 201.595ZM459.557 209.758C458.777 210.076 457.738 210.5 456.698 210.712L449.42 207.319C450.2 207.001 451.5 206.683 452.279 206.365L459.557 209.758ZM492.307 195.764L483.729 192.902C484.509 192.584 485.029 192.16 486.069 191.736L494.906 194.492C494.126 195.022 493.346 195.34 492.307 195.764ZM444.742 214.528C443.962 214.846 442.662 215.164 441.883 215.482L435.385 211.772C436.164 211.454 437.204 211.242 438.244 210.818L444.742 214.528ZM503.743 189.616L494.646 186.966C495.166 186.541 495.946 186.223 496.725 185.693L505.823 188.132C505.043 188.874 504.523 189.298 503.743 189.616ZM429.666 218.981C428.627 219.193 427.587 219.617 426.547 219.829L420.829 216.012C421.869 215.8 422.649 215.482 423.948 215.164L429.666 218.981ZM513.88 183.149L504.523 180.817C505.043 180.393 505.563 179.969 506.342 179.651L515.959 181.877C515.18 182.407 514.66 182.831 513.88 183.149ZM413.291 222.903C412.252 223.115 410.952 223.433 409.913 223.645L404.714 219.617C405.754 219.405 406.794 219.193 407.833 218.981L413.291 222.903ZM522.977 176.471L513.1 174.35C513.62 173.926 514.14 173.502 514.66 173.078L524.537 174.986C524.017 175.622 523.497 176.046 522.977 176.471ZM396.917 226.401C395.877 226.613 394.837 226.825 393.278 227.037L388.859 222.903C389.899 222.691 390.938 222.479 391.978 222.267L396.917 226.401ZM530.775 169.686L520.638 167.884C521.158 167.46 521.678 167.036 521.937 166.506L532.334 168.202C531.814 168.626 531.554 169.156 530.775 169.686ZM379.502 229.476C378.462 229.688 377.163 229.794 376.123 230.006L372.484 225.765C373.524 225.553 374.823 225.447 375.863 225.235L379.502 229.476ZM537.533 162.477L527.136 160.993C527.656 160.569 527.916 160.039 528.435 159.615L539.092 160.993C538.312 161.523 538.052 162.053 537.533 162.477ZM361.568 231.914C360.268 232.02 359.228 232.232 357.929 232.338L354.81 228.097C356.109 227.991 357.149 227.779 358.449 227.673L361.568 231.914ZM542.991 155.162L532.334 153.996C532.594 153.466 533.114 153.042 533.114 152.618L543.771 153.784C543.771 154.208 543.511 154.738 542.991 155.162ZM343.633 233.928C342.334 234.034 341.034 234.14 339.994 234.352L337.655 230.006C338.955 229.9 340.254 229.794 341.034 229.688L343.633 233.928ZM547.15 147.742L536.233 146.894C536.493 146.364 536.493 145.94 536.753 145.41L547.669 146.258C547.669 146.682 547.41 147.212 547.15 147.742ZM324.919 235.412C323.62 235.518 322.58 235.518 321.28 235.624L319.721 231.172C321.02 231.066 322.06 231.066 323.36 230.96L324.919 235.412ZM550.009 140.215L539.092 139.579C539.352 139.049 539.352 138.625 539.612 138.095L550.529 138.519C550.529 139.155 550.269 139.685 550.009 140.215ZM306.465 236.366C305.165 236.472 304.126 236.472 302.566 236.472L301.786 231.914C302.826 231.914 304.126 231.808 305.165 231.808L306.465 236.366ZM552.088 132.582L541.171 132.37C541.171 131.946 541.431 131.416 541.171 130.886L552.088 131.098C552.088 131.522 551.828 132.052 552.088 132.582ZM287.751 236.79C286.711 236.79 285.152 236.79 284.112 236.79L284.112 232.338C285.152 232.338 286.711 232.338 287.751 232.338L287.751 236.79ZM552.088 124.95L541.171 124.95C541.171 124.526 541.171 123.889 541.171 123.465L552.348 123.359C552.348 123.995 552.348 124.42 552.088 124.95ZM269.037 236.79C267.737 236.684 266.437 236.79 265.138 236.684L265.658 232.232C266.697 232.232 267.997 232.338 269.296 232.232L269.037 236.79ZM551.568 117.317L540.652 117.741C540.652 117.317 540.392 116.787 540.132 116.257L551.048 115.833C551.048 116.257 551.308 116.787 551.568 117.317ZM250.322 236.154C249.023 236.048 247.983 236.048 246.684 235.942L248.243 231.49C249.543 231.596 250.582 231.596 251.882 231.702L250.322 236.154ZM549.229 109.79L538.312 110.426C538.052 109.896 538.052 109.472 537.793 108.942L548.449 108.2C548.709 108.73 548.969 109.26 549.229 109.79ZM231.868 234.988C230.569 234.882 229.269 234.776 228.229 234.776L230.309 230.324C231.608 230.43 232.648 230.43 233.688 230.642L231.868 234.988ZM545.85 102.263L535.193 103.217C534.933 102.687 534.414 102.263 534.414 101.839L545.33 100.779C545.33 101.203 545.59 101.733 545.85 102.263ZM213.674 233.292C212.374 233.186 211.335 232.974 210.035 232.868L212.894 228.521C214.194 228.627 215.233 228.839 216.273 228.839L213.674 233.292ZM540.912 94.7367L530.515 96.0088C530.255 95.4788 529.735 95.0547 529.475 94.5247L540.132 93.1465C540.132 93.7826 540.652 94.2066 540.912 94.7367ZM195.48 231.172C194.18 231.066 193.14 230.854 192.101 230.642L195.739 226.401C196.779 226.613 198.079 226.719 199.118 226.931L195.48 231.172ZM535.193 87.528L525.057 89.1181C524.537 88.6941 524.277 88.1641 523.757 87.74L533.894 86.1499C534.414 86.5739 534.674 87.104 535.193 87.528ZM178.065 228.521C177.025 228.309 175.726 228.203 174.686 227.991L179.105 223.857C180.144 224.069 181.184 224.281 182.484 224.387L178.065 228.521ZM527.656 80.4253L517.779 82.3335C517.259 81.9095 516.739 81.4854 516.219 81.0614L526.096 79.1532C526.876 79.4712 527.396 79.8953 527.656 80.4253ZM160.91 225.341C159.871 225.129 158.831 224.917 157.531 224.599L162.73 220.571C163.769 220.783 164.809 220.995 165.849 221.207L160.91 225.341ZM519.598 73.5347L509.721 75.6549C509.201 75.2308 508.682 74.8068 508.162 74.3827L517.779 72.1565C518.299 72.5806 519.078 73.1106 519.598 73.5347ZM144.276 221.737C143.236 221.525 141.936 221.207 140.897 220.995L146.615 217.178C147.654 217.39 148.694 217.602 149.734 218.026L144.276 221.737ZM509.981 67.068L500.884 69.5063C500.364 69.0822 499.584 68.7642 498.805 68.2342L507.902 65.7959C508.682 66.114 509.201 66.538 509.981 67.068ZM128.68 217.708C127.641 217.496 126.601 217.072 125.561 216.86L132.059 213.15C133.099 213.362 133.879 213.68 135.178 213.998L128.68 217.708ZM499.325 60.6014L490.487 63.3577C489.708 63.0397 489.188 62.6156 488.148 62.1916L496.985 59.4353C498.025 59.8594 498.545 60.2834 499.325 60.6014ZM113.605 213.044C112.825 212.726 111.526 212.408 110.746 212.09L117.764 208.592C118.544 208.91 119.583 209.122 120.623 209.546L113.605 213.044ZM487.628 54.7709L479.311 57.7391C478.531 57.4211 477.751 57.1031 476.972 56.573L485.289 53.6048C486.069 53.9228 486.848 54.2408 487.628 54.7709ZM99.0497 208.168C98.2699 207.849 97.2303 207.425 96.4505 207.107L103.988 203.821C104.768 204.139 105.808 204.563 106.587 204.881L99.0497 208.168ZM475.152 49.0463L467.355 52.2266L464.755 51.1665L472.553 47.9862L475.152 49.0463ZM93.8513 199.687L85.7938 202.761C85.0141 202.443 83.9744 202.019 83.1947 201.701L91.2521 198.627C92.0319 198.945 93.0716 199.369 93.8513 199.687ZM454.099 47.2442C453.319 46.9261 452.279 46.5021 451.24 46.2901L458.517 42.8977C459.297 43.2158 460.337 43.6398 461.376 43.8518L454.099 47.2442ZM81.895 194.174L73.3177 197.036C72.538 196.718 71.7582 196.188 70.9785 195.87L79.5558 193.008C80.3355 193.538 81.1153 193.856 81.895 194.174ZM440.323 42.4737C439.543 42.1557 438.504 41.9437 437.464 41.5196L444.222 37.9153C445.002 38.2333 446.301 38.5513 447.081 38.8694L440.323 42.4737ZM70.9785 188.45L61.8813 191.1C61.3615 190.676 60.3218 190.252 59.802 189.828L68.8991 187.178C69.419 187.602 69.9388 188.026 70.9785 188.45ZM425.768 38.2333C424.728 38.0213 423.948 37.7032 422.649 37.3852L428.627 33.6749C429.666 33.8869 430.706 34.3109 431.746 34.5229L425.768 38.2333ZM60.8416 182.407L51.4846 184.739C50.9647 184.315 50.185 183.785 49.4052 183.467L58.7623 181.135C59.542 181.453 60.0619 181.877 60.8416 182.407ZM410.432 34.3109C409.393 34.0989 408.353 33.8869 407.313 33.6749L412.772 29.7525C413.811 29.9645 415.111 30.2825 416.151 30.4946L410.432 34.3109ZM51.7445 175.94L41.8676 178.061C41.3477 177.637 40.568 177.107 40.0481 176.683L49.925 174.562C50.7048 175.092 51.2246 175.516 51.7445 175.94ZM394.317 30.9186C393.278 30.7066 392.238 30.4946 391.198 30.2825L395.877 26.2542C396.917 26.4662 397.956 26.6782 399.256 26.9962L394.317 30.9186ZM43.9469 169.368L33.8101 171.17C33.2902 170.746 32.7704 170.322 32.2506 169.686L42.3874 167.884C42.9072 168.52 43.4271 168.944 43.9469 169.368ZM377.943 28.0563C376.903 27.8443 375.603 27.7383 374.564 27.5263L378.462 23.3919C379.502 23.6039 380.802 23.7099 381.841 23.9219L377.943 28.0563ZM37.189 162.583L26.7923 164.067C26.2724 163.643 26.0125 163.113 25.4927 162.689L35.8894 161.205C36.4093 161.629 36.9291 162.053 37.189 162.583ZM361.308 25.5121C360.268 25.3001 358.968 25.194 357.669 25.088L360.788 20.8476C362.087 20.9537 363.127 21.1657 364.427 21.2717L361.308 25.5121ZM31.7308 155.48L21.0741 156.647C20.8142 156.117 20.2943 155.693 20.0344 155.162L30.6911 153.996C31.2109 154.632 31.2109 155.056 31.7308 155.48ZM343.893 23.4979C342.594 23.3919 341.554 23.1799 340.514 23.1799L342.853 18.8334C344.153 18.9395 345.453 19.0455 346.492 19.2575L343.893 23.4979ZM27.3121 148.378L16.6555 149.332C16.3955 148.802 16.1356 148.272 15.8757 147.742L26.7923 146.894C27.0522 147.424 27.3121 147.954 27.3121 148.378ZM326.219 22.0137C324.919 21.9077 323.879 21.9077 322.58 21.8017L324.139 17.3493C325.439 17.4553 326.738 17.5613 327.778 17.5613L326.219 22.0137ZM24.1931 141.169L13.2765 141.805C13.0166 141.275 13.0166 140.851 12.7567 140.321L23.6733 139.685C23.9332 140.215 24.1931 140.745 24.1931 141.169ZM308.284 21.0597C306.985 20.9536 305.945 20.9537 304.645 20.8476L305.685 16.3952C306.985 16.5012 308.024 16.5012 309.324 16.6072L308.284 21.0597ZM22.3737 133.854L11.1972 134.172C10.9372 133.642 10.9372 133.218 10.9372 132.582L21.8538 132.37C22.1138 132.9 22.3737 133.43 22.3737 133.854ZM290.35 20.5296C289.31 20.5296 288.011 20.4236 286.711 20.5296L286.971 15.9712C288.011 15.9712 289.57 15.9712 290.61 15.9712L290.35 20.5296ZM21.5939 126.54H10.6773C10.6773 126.116 10.6773 125.48 10.6773 125.056L21.5939 125.056C21.8538 125.586 21.8538 126.01 21.5939 126.54ZM272.675 20.5296C271.636 20.5296 270.336 20.6356 269.037 20.5296L268.517 16.0772C269.816 15.9712 271.116 16.0772 272.156 16.0772L272.675 20.5296ZM22.3737 119.225L11.1972 118.907C11.4571 118.377 11.4571 117.953 11.4571 117.317L22.3737 117.741C22.6336 118.271 22.3737 118.801 22.3737 119.225ZM254.481 20.9537C253.181 21.0597 252.142 21.0597 250.842 21.1657L249.543 16.6072C250.842 16.5012 251.882 16.5012 253.182 16.3952L254.481 20.9537ZM24.1931 111.91L13.2765 111.274C13.5364 110.744 13.5364 110.32 13.7963 109.79L24.7129 110.426C24.453 110.956 24.453 111.38 24.1931 111.91ZM236.807 22.0137C235.507 22.1198 234.467 22.1198 233.168 22.2258L231.088 17.7733C232.388 17.6673 233.688 17.5613 234.727 17.5613L236.807 22.0137ZM27.3121 104.702L16.6555 103.748C16.9154 103.218 17.1753 102.687 17.4352 102.157L28.0919 103.111C27.572 103.748 27.572 104.172 27.3121 104.702ZM219.132 23.4979C217.833 23.6039 216.793 23.8159 215.753 23.8159L212.894 19.4695C214.194 19.3635 215.233 19.1515 216.533 19.0455L219.132 23.4979ZM31.4708 97.493L20.8142 96.3268C21.0741 95.7968 21.5939 95.3728 21.8538 94.8427L32.2506 96.1148C31.9907 96.6449 31.7307 97.1749 31.4708 97.493ZM201.718 25.5121C200.678 25.7241 199.378 25.8301 198.339 26.0421L194.7 21.8017C195.999 21.6957 197.039 21.4837 198.339 21.3777L201.718 25.5121ZM36.9291 90.6023L26.5324 89.1182C27.0522 88.6941 27.3121 88.1641 27.832 87.74L37.9688 89.3302C37.7089 89.6482 37.449 90.1783 36.9291 90.6023ZM184.563 28.0563C183.523 28.2683 182.224 28.3744 181.184 28.5864L176.765 24.452C177.805 24.24 179.105 24.134 180.144 23.9219L184.563 28.0563ZM43.687 83.8176L33.5502 82.0155C34.07 81.5914 34.5899 81.1674 35.1097 80.5313L45.2465 82.3335C44.4668 82.8636 43.9469 83.2876 43.687 83.8176ZM168.188 30.9186C167.148 31.1306 166.109 31.3426 165.069 31.5547L160.131 27.6323C161.17 27.4203 162.21 27.2082 163.51 26.8902L168.188 30.9186ZM51.2246 77.139L41.3477 75.0188C41.8676 74.5948 42.6473 74.0647 43.1672 73.6407L53.0441 75.7609C52.2643 76.2909 51.7445 76.715 51.2246 77.139ZM152.333 34.4169C151.293 34.629 150.254 34.841 149.214 35.053L143.496 31.2366C144.535 31.0246 145.835 30.7066 146.875 30.4946L152.333 34.4169ZM60.0619 70.7784L50.7048 68.4462C51.2246 68.0221 52.0044 67.4921 52.7842 67.1741L62.1412 69.5063C61.6214 69.9303 60.8416 70.4604 60.0619 70.7784ZM136.998 38.3393C135.958 38.5513 135.178 38.8694 133.879 39.1874L127.381 35.477C128.421 35.265 129.46 34.841 130.5 34.629L136.998 38.3393ZM70.1987 64.7358L61.1016 62.0856C61.6214 61.6615 62.6611 61.2375 63.1809 60.8135L72.0181 63.5697C71.7582 63.8877 70.7185 64.3118 70.1987 64.7358ZM122.442 42.5797C121.663 42.8977 120.623 43.1098 119.583 43.5338L112.565 40.0355C113.345 39.7174 114.645 39.3994 115.425 39.0814L122.442 42.5797ZM81.3752 58.9053L72.7979 56.043C73.5777 55.725 74.3574 55.1949 75.1372 54.8769L83.4546 57.8452C82.6748 58.1632 81.8951 58.4812 81.3752 58.9053ZM108.667 47.3502C107.887 47.6682 106.847 48.0922 106.067 48.4103L98.5299 45.124C99.3096 44.8059 100.349 44.3819 101.389 44.1699L108.667 47.3502ZM93.3315 53.3927L85.274 50.3184C86.0538 50.0004 87.0934 49.5764 87.8732 49.2583L95.6708 52.4387C94.6311 52.6507 94.1112 53.0747 93.3315 53.3927Z" fill="url(#paint2_linear_3_607)" fill-opacity="0.9"/>
<path d="M339.336 80.3383L338.796 78.2955L336.772 77.7508C329.89 75.8783 322.467 77.887 317.44 82.9938C313.561 86.909 311.503 92.186 311.604 97.5992L301.887 96.8502V80.5085L328.034 55.5193C333.972 51.8764 337.615 45.3057 337.615 38.2924C337.615 31.1088 333.769 24.4019 327.595 20.7931L325.774 19.7377L323.952 20.7931C317.778 24.4019 313.932 31.1088 313.932 38.2924C313.932 43.8758 316.26 49.1528 320.173 52.9318L294.6 77.3763V98.8248L278.035 116.835V80.6106L304.755 56.8811V27.0574C309.984 25.4913 313.83 20.5888 313.83 14.8011C313.898 7.75377 308.196 2.00012 301.213 2.00012C294.229 2.00012 288.527 7.75377 288.527 14.8011C288.527 20.5888 292.373 25.4913 297.603 27.0574V53.5787L278.102 70.9077V48.9826C283.332 47.4165 287.178 42.514 287.178 36.7263C287.178 29.6789 281.476 23.9253 274.493 23.9253C267.509 23.9253 261.807 29.6789 261.807 36.7263C261.807 42.514 265.653 47.4165 270.883 48.9826V70.9077L251.382 53.5787V27.0574C256.612 25.4913 260.458 20.5888 260.458 14.8011C260.491 7.75377 254.79 2.00012 247.806 2.00012C240.789 2.00012 235.121 7.75377 235.121 14.8011C235.121 20.5888 238.967 25.4913 244.196 27.0574V56.8811L270.916 80.6106V116.869L254.351 98.8589V77.4104L228.778 52.9659C232.692 49.1868 235.02 43.9098 235.02 38.3264C235.02 31.1429 231.174 24.4359 225 20.8271L223.178 19.7717L221.356 20.8271C215.249 24.4359 211.403 31.1088 211.403 38.3264C211.403 45.3397 215.081 51.9105 220.985 55.5533L247.131 80.5425V96.8842L237.415 97.6332C237.482 92.22 235.424 86.909 231.578 83.0278C226.518 77.921 219.129 75.9124 212.247 77.7849L210.223 78.3296L209.683 80.3723C207.827 87.3175 209.818 94.8075 214.878 99.8802C218.657 103.727 223.819 105.804 229.082 105.804C230.667 105.804 232.253 105.6 233.839 105.225L249.291 104.068L270.916 127.627V155.714H250.741C248.751 155.714 247.131 157.349 247.131 159.357C247.131 161.366 248.751 163 250.741 163H298.277C300.268 163 301.887 161.366 301.887 159.357C301.887 157.349 300.268 155.714 298.277 155.714H278.102V127.627L299.728 104.068L315.18 105.225C316.766 105.6 318.351 105.804 319.937 105.804C325.2 105.804 330.328 103.727 334.14 99.8802C339.167 94.7734 341.158 87.3175 339.336 80.3383ZM325.807 28.3852C328.675 30.8365 330.396 34.4452 330.396 38.2924C330.396 42.1395 328.675 45.7823 325.807 48.1995C322.94 45.7483 321.219 42.1395 321.219 38.2924C321.219 34.4452 322.906 30.8365 325.807 28.3852ZM295.747 14.8011C295.747 11.7711 298.21 9.28581 301.213 9.28581C304.215 9.28581 306.678 11.7711 306.678 14.8011C306.678 17.8652 304.215 20.3165 301.213 20.3165C298.21 20.3165 295.747 17.8652 295.747 14.8011ZM242.307 14.8011C242.307 11.7711 244.77 9.28581 247.772 9.28581C250.775 9.28581 253.238 11.7711 253.238 14.8011C253.238 17.8652 250.775 20.3165 247.772 20.3165C244.77 20.3165 242.307 17.8652 242.307 14.8011ZM223.211 28.3852C226.079 30.8365 227.8 34.4452 227.8 38.2924C227.8 42.1395 226.079 45.7823 223.211 48.1995C220.344 45.7483 218.623 42.1395 218.623 38.2924C218.623 34.4452 220.344 30.8365 223.211 28.3852ZM230.161 98.4503C226.417 98.7908 222.672 97.429 219.973 94.7053C217.274 91.9817 215.958 88.1687 216.262 84.4237C220.006 84.0832 223.751 85.445 226.45 88.1687C229.183 90.8582 230.499 94.6713 230.161 98.4503ZM269.027 36.6922C269.027 33.6622 271.49 31.1769 274.493 31.1769C277.495 31.1769 279.958 33.6622 279.958 36.6922C279.958 39.7223 277.495 42.2076 274.493 42.2076C271.49 42.2416 269.027 39.7563 269.027 36.6922ZM329.046 94.7053C326.347 97.429 322.602 98.7567 318.857 98.4503C318.52 94.6713 319.87 90.8923 322.569 88.1687C325.268 85.445 329.046 84.1173 332.757 84.4237C333.061 88.2027 331.745 91.9817 329.046 94.7053Z" fill="url(#paint3_linear_3_607)"/>
<path d="M197.807 135.356L197.651 134.747L197.064 134.584C195.067 134.026 192.914 134.625 191.456 136.147C190.331 137.315 189.734 138.888 189.763 140.502L186.944 140.278V135.406L194.529 127.956C196.251 126.87 197.308 124.911 197.308 122.82C197.308 120.678 196.193 118.679 194.402 117.603L193.873 117.288L193.345 117.603C191.554 118.679 190.438 120.678 190.438 122.82C190.438 124.485 191.113 126.058 192.249 127.185L184.831 134.473V140.867L180.025 146.237V135.437L187.776 128.362V119.471C189.293 119.004 190.409 117.542 190.409 115.817C190.428 113.715 188.775 112 186.749 112C184.723 112 183.069 113.715 183.069 115.817C183.069 117.542 184.185 119.004 185.702 119.471V127.378L180.045 132.544V126.007C181.562 125.54 182.678 124.079 182.678 122.353C182.678 120.252 181.024 118.537 178.998 118.537C176.972 118.537 175.318 120.252 175.318 122.353C175.318 124.079 176.434 125.54 177.951 126.007V132.544L172.294 127.378V119.471C173.811 119.004 174.927 117.542 174.927 115.817C174.936 113.715 173.283 112 171.257 112C169.221 112 167.577 113.715 167.577 115.817C167.577 117.542 168.693 119.004 170.21 119.471V128.362L177.96 135.437V146.247L173.155 140.877V134.483L165.737 127.195C166.872 126.068 167.548 124.495 167.548 122.83C167.548 120.689 166.432 118.689 164.641 117.613L164.113 117.298L163.584 117.613C161.813 118.689 160.697 120.678 160.697 122.83C160.697 124.921 161.764 126.88 163.477 127.966L171.061 135.416V140.289L168.243 140.512C168.262 138.898 167.665 137.315 166.549 136.157C165.081 134.635 162.938 134.036 160.942 134.594L160.355 134.757L160.198 135.366C159.66 137.436 160.237 139.669 161.705 141.182C162.801 142.329 164.299 142.948 165.825 142.948C166.285 142.948 166.745 142.887 167.205 142.775L171.687 142.43L177.96 149.454V157.828H172.108C171.531 157.828 171.061 158.315 171.061 158.914C171.061 159.513 171.531 160 172.108 160H185.897C186.475 160 186.944 159.513 186.944 158.914C186.944 158.315 186.475 157.828 185.897 157.828H180.045V149.454L186.318 142.43L190.8 142.775C191.26 142.887 191.72 142.948 192.18 142.948C193.707 142.948 195.194 142.329 196.3 141.182C197.758 139.659 198.336 137.436 197.807 135.356ZM193.883 119.866C194.715 120.597 195.214 121.673 195.214 122.82C195.214 123.967 194.715 125.053 193.883 125.774C193.051 125.043 192.552 123.967 192.552 122.82C192.552 121.673 193.041 120.597 193.883 119.866ZM185.163 115.817C185.163 114.913 185.878 114.172 186.749 114.172C187.62 114.172 188.334 114.913 188.334 115.817C188.334 116.73 187.62 117.461 186.749 117.461C185.878 117.461 185.163 116.73 185.163 115.817ZM169.662 115.817C169.662 114.913 170.376 114.172 171.247 114.172C172.118 114.172 172.832 114.913 172.832 115.817C172.832 116.73 172.118 117.461 171.247 117.461C170.376 117.461 169.662 116.73 169.662 115.817ZM164.122 119.866C164.954 120.597 165.453 121.673 165.453 122.82C165.453 123.967 164.954 125.053 164.122 125.774C163.291 125.043 162.791 123.967 162.791 122.82C162.791 121.673 163.291 120.597 164.122 119.866ZM166.138 140.755C165.052 140.857 163.966 140.451 163.183 139.639C162.4 138.827 162.018 137.69 162.106 136.574C163.193 136.472 164.279 136.878 165.062 137.69C165.855 138.492 166.236 139.629 166.138 140.755ZM177.412 122.343C177.412 121.44 178.127 120.699 178.998 120.699C179.869 120.699 180.583 121.44 180.583 122.343C180.583 123.246 179.869 123.987 178.998 123.987C178.127 123.998 177.412 123.257 177.412 122.343ZM194.823 139.639C194.04 140.451 192.953 140.847 191.867 140.755C191.769 139.629 192.161 138.502 192.944 137.69C193.726 136.878 194.823 136.482 195.899 136.574C195.987 137.7 195.605 138.827 194.823 139.639Z" fill="url(#paint4_linear_3_607)"/>
<path d="M401.802 104.869L401.642 104.273L401.039 104.114C398.99 103.567 396.78 104.153 395.284 105.644C394.129 106.787 393.516 108.328 393.546 109.908L390.654 109.689V104.919L398.438 97.6237C400.205 96.5603 401.29 94.6421 401.29 92.5948C401.29 90.4977 400.145 88.5398 398.307 87.4863L397.765 87.1782L397.222 87.4863C395.384 88.5398 394.239 90.4977 394.239 92.5948C394.239 94.2247 394.932 95.7652 396.097 96.8684L388.484 104.004V110.266L383.552 115.523V104.949L391.507 98.0213V89.315C393.064 88.8578 394.209 87.4266 394.209 85.7371C394.229 83.6798 392.532 82.0001 390.453 82.0001C388.374 82.0001 386.676 83.6798 386.676 85.7371C386.676 87.4266 387.821 88.8578 389.378 89.315V97.0572L383.572 102.116V95.7155C385.129 95.2583 386.274 93.8271 386.274 92.1376C386.274 90.0803 384.577 88.4006 382.498 88.4006C380.419 88.4006 378.721 90.0803 378.721 92.1376C378.721 93.8271 379.866 95.2583 381.423 95.7155V102.116L375.618 97.0572V89.315C377.174 88.8578 378.319 87.4266 378.319 85.7371C378.33 83.6798 376.632 82.0001 374.553 82.0001C372.464 82.0001 370.776 83.6798 370.776 85.7371C370.776 87.4266 371.921 88.8578 373.478 89.315V98.0213L381.433 104.949V115.533L376.502 110.276V104.014L368.888 96.8783C370.053 95.7751 370.746 94.2346 370.746 92.6047C370.746 90.5076 369.601 88.5497 367.763 87.4962L367.221 87.1881L366.678 87.4962C364.861 88.5497 363.715 90.4977 363.715 92.6047C363.715 94.6521 364.81 96.5702 366.568 97.6337L374.352 104.929V109.699L371.459 109.918C371.48 108.338 370.867 106.787 369.722 105.654C368.215 104.163 366.016 103.577 363.967 104.124L363.364 104.283L363.203 104.879C362.651 106.906 363.243 109.093 364.75 110.574C365.875 111.697 367.412 112.303 368.979 112.303C369.451 112.303 369.923 112.244 370.395 112.134L374.995 111.796L381.433 118.674V126.873H375.427C374.834 126.873 374.352 127.35 374.352 127.937C374.352 128.523 374.834 129 375.427 129H389.579C390.171 129 390.654 128.523 390.654 127.937C390.654 127.35 390.171 126.873 389.579 126.873H383.572V118.674L390.011 111.796L394.611 112.134C395.083 112.244 395.555 112.303 396.027 112.303C397.594 112.303 399.121 111.697 400.256 110.574C401.752 109.083 402.345 106.906 401.802 104.869ZM397.775 89.7026C398.628 90.4182 399.141 91.4717 399.141 92.5948C399.141 93.7178 398.628 94.7813 397.775 95.4869C396.921 94.7713 396.409 93.7178 396.409 92.5948C396.409 91.4717 396.911 90.4182 397.775 89.7026ZM388.825 85.7371C388.825 84.8525 389.559 84.127 390.453 84.127C391.347 84.127 392.08 84.8525 392.08 85.7371C392.08 86.6315 391.347 87.3471 390.453 87.3471C389.559 87.3471 388.825 86.6315 388.825 85.7371ZM372.916 85.7371C372.916 84.8525 373.649 84.127 374.543 84.127C375.437 84.127 376.17 84.8525 376.17 85.7371C376.17 86.6315 375.437 87.3471 374.543 87.3471C373.649 87.3471 372.916 86.6315 372.916 85.7371ZM367.231 89.7026C368.085 90.4182 368.597 91.4717 368.597 92.5948C368.597 93.7178 368.085 94.7813 367.231 95.4869C366.377 94.7713 365.865 93.7178 365.865 92.5948C365.865 91.4717 366.377 90.4182 367.231 89.7026ZM369.3 110.156C368.185 110.256 367.07 109.858 366.267 109.063C365.463 108.268 365.071 107.155 365.162 106.062C366.277 105.962 367.392 106.36 368.195 107.155C369.009 107.94 369.4 109.053 369.3 110.156ZM380.871 92.1276C380.871 91.2431 381.604 90.5176 382.498 90.5176C383.392 90.5176 384.125 91.2431 384.125 92.1276C384.125 93.0122 383.392 93.7377 382.498 93.7377C381.604 93.7476 380.871 93.0221 380.871 92.1276ZM398.739 109.063C397.935 109.858 396.821 110.246 395.706 110.156C395.605 109.053 396.007 107.95 396.81 107.155C397.614 106.36 398.739 105.972 399.844 106.062C399.934 107.165 399.542 108.268 398.739 109.063Z" fill="url(#paint5_linear_3_607)"/>
<path d="M103.429 203.044C-0.467852 159.728 2.91759 89.0651 111.53 44.7666C112.222 44.4845 112.914 44.2023 113.605 43.9202L95.054 36.3538C94.3622 36.636 93.6704 36.9181 92.9786 37.2003C-26.0108 85.7311 -29.435 163.338 84.5202 210.756L103.429 203.044Z" fill="url(#paint6_linear_3_607)" fill-opacity="0.4"/>
<path d="M480.732 207.946C428.144 229.394 357.969 240.858 283.09 240.29L283.267 233.618C353.77 234.275 419.803 223.369 469.175 203.232C512.806 185.437 538.882 161.792 543.058 136.522L559.42 137.013C555.025 163.881 527.119 189.026 480.732 207.946Z" fill="url(#paint7_linear_3_607)" fill-opacity="0.4"/>
<path d="M500.3 110.884L487.293 111.793C480.231 94.2102 460.348 78.3702 429.502 65.7891L438.793 61.9997C471.498 75.3386 492.867 92.2397 500.3 110.884Z" fill="url(#paint8_linear_3_607)" fill-opacity="0.4"/>
</g>
<defs>
<linearGradient id="paint0_linear_3_607" x1="87.6135" y1="205.623" x2="202.345" y2="-75.6793" gradientUnits="userSpaceOnUse">
<stop stop-color="#A82F93"/>
<stop offset="0.667955" stop-color="#504B9C"/>
<stop offset="1" stop-color="#33549F"/>
</linearGradient>
<linearGradient id="paint1_linear_3_607" x1="127.118" y1="189.296" x2="214.211" y2="-24.2415" gradientUnits="userSpaceOnUse">
<stop stop-color="#A82F93"/>
<stop offset="0.667955" stop-color="#504B9C"/>
<stop offset="1" stop-color="#33549F"/>
</linearGradient>
<linearGradient id="paint2_linear_3_607" x1="90.0825" y1="204.51" x2="198.143" y2="-60.4348" gradientUnits="userSpaceOnUse">
<stop stop-color="#A82F93"/>
<stop offset="0.667955" stop-color="#504B9C"/>
<stop offset="1" stop-color="#33549F"/>
</linearGradient>
<linearGradient id="paint3_linear_3_607" x1="209" y1="83.3847" x2="340" y2="83.3847" gradientUnits="userSpaceOnUse">
<stop stop-color="#A82F93"/>
<stop offset="1" stop-color="#33549F"/>
</linearGradient>
<linearGradient id="paint4_linear_3_607" x1="160" y1="136.264" x2="198" y2="136.264" gradientUnits="userSpaceOnUse">
<stop stop-color="#A82F93"/>
<stop offset="1" stop-color="#33549F"/>
</linearGradient>
<linearGradient id="paint5_linear_3_607" x1="363" y1="105.758" x2="402" y2="105.758" gradientUnits="userSpaceOnUse">
<stop stop-color="#A82F93"/>
<stop offset="1" stop-color="#33549F"/>
</linearGradient>
<linearGradient id="paint6_linear_3_607" x1="-14.4808" y1="81.0285" x2="45.0034" y2="226.874" gradientUnits="userSpaceOnUse">
<stop stop-color="#A82F93"/>
<stop offset="1" stop-color="#33549F"/>
</linearGradient>
<linearGradient id="paint7_linear_3_607" x1="407.387" y1="182.995" x2="426.572" y2="230.035" gradientUnits="userSpaceOnUse">
<stop stop-color="#A82F93"/>
<stop offset="1" stop-color="#33549F"/>
</linearGradient>
<linearGradient id="paint8_linear_3_607" x1="420.396" y1="69.5028" x2="446.263" y2="132.923" gradientUnits="userSpaceOnUse">
<stop stop-color="#A82F93"/>
<stop offset="1" stop-color="#33549F"/>
</linearGradient>
</defs>
</svg>
