<svg width="1317" height="412" viewBox="0 0 1317 412" fill="none" xmlns="http://www.w3.org/2000/svg">
<path d="M1242.42 200.637C1221.88 217.289 1231.56 236.056 1200.04 252.324C1164.65 270.59 1123.94 289.14 1046.38 301.82C968.843 314.495 715.975 405.256 623.942 410.907C527.799 416.811 539.767 369.235 446.531 366.617C353.391 364.003 338.974 316.781 277.933 303.614C220.79 291.289 183.275 276.336 142.799 261.363C97.6566 244.663 53.6427 222.067 36.9859 202.646C17.7992 180.275 -42.8128 149.967 51.4481 133.284C166.724 112.881 527.547 150.314 653.646 133.009C767.023 117.45 739.24 29.2142 844.686 11.3169C942.042 -5.20709 978.931 1.24166 1089.16 6.54816C1199.29 11.8502 1160.73 69.5887 1222.04 87.8952C1276.59 104.183 1312.38 123.446 1316.16 144.328C1319.55 163.108 1265.92 181.599 1242.42 200.637Z" fill="#3B27B6"/>
</svg>
