<svg width="636" height="267" viewBox="0 0 636 267" fill="none" xmlns="http://www.w3.org/2000/svg">
<path d="M383.067 -71.1718L447.079 638.079L745.607 190.651L383.067 -71.1718Z" stroke="url(#paint0_linear_77_1135)"/>
<path d="M404.019 -104.612L430.923 595.847L744.418 212.296L404.019 -104.612Z" stroke="url(#paint1_linear_77_1135)"/>
<path d="M424.796 -128.804L415.962 556.378L740.688 237.658L424.796 -128.804Z" stroke="url(#paint2_linear_77_1135)"/>
<path d="M444.873 -144.014L401.997 519.827L734.246 266.162L444.873 -144.014Z" stroke="url(#paint3_linear_77_1135)"/>
<path d="M463.778 -150.595L388.852 486.318L724.988 297.225L463.778 -150.595Z" stroke="url(#paint4_linear_77_1135)"/>
<path d="M481.07 -149.006L376.351 455.914L712.845 330.232L481.07 -149.006Z" stroke="url(#paint5_linear_77_1135)"/>
<path d="M496.324 -139.752L364.297 428.674L697.765 364.599L496.324 -139.752Z" stroke="url(#paint6_linear_77_1135)"/>
<path d="M509.157 -123.449L352.5 404.576L679.739 399.705L509.157 -123.449Z" stroke="url(#paint7_linear_77_1135)"/>
<path d="M519.245 -100.728L340.792 383.608L658.806 434.989L519.245 -100.728Z" stroke="url(#paint8_linear_77_1135)"/>
<path d="M526.252 -72.2568L328.952 365.738L634.984 469.919L526.252 -72.2568Z" stroke="url(#paint9_linear_77_1135)"/>
<path d="M530 -38.8719L316.882 350.771L608.434 503.866L530 -38.8719Z" stroke="url(#paint10_linear_77_1135)"/>
<path d="M530.249 -1.31817L304.381 338.609L579.236 536.349L530.249 -1.31817Z" stroke="url(#paint11_linear_77_1135)"/>
<path d="M526.855 39.6367L291.307 329.12L547.546 566.928L526.855 39.6367Z" stroke="url(#paint12_linear_77_1135)"/>
<path d="M519.724 83.135L277.528 322.069L513.543 595.121L519.724 83.135Z" stroke="url(#paint13_linear_77_1135)"/>
<path d="M508.779 128.409L262.899 317.289L477.396 620.582L508.779 128.409Z" stroke="url(#paint14_linear_77_1135)"/>
<path d="M494.051 174.629L247.343 314.522L439.352 642.943L494.051 174.629Z" stroke="url(#paint15_linear_77_1135)"/>
<path d="M475.551 221.031L230.738 313.544L399.61 661.938L475.551 221.031Z" stroke="url(#paint16_linear_77_1135)"/>
<path d="M453.389 266.827L213.026 314.061L358.431 677.298L453.389 266.827Z" stroke="url(#paint17_linear_77_1135)"/>
<path d="M427.69 311.318L194.14 315.829L316.057 688.864L427.69 311.318Z" stroke="url(#paint18_linear_77_1135)"/>
<path d="M398.627 353.836L174.042 318.581L272.747 696.52L398.627 353.836Z" stroke="url(#paint19_linear_77_1135)"/>
<path d="M366.408 393.733L152.701 322.015L228.756 700.173L366.408 393.733Z" stroke="url(#paint20_linear_77_1135)"/>
<path d="M331.293 430.437L130.128 325.853L184.36 699.804L331.293 430.437Z" stroke="url(#paint21_linear_77_1135)"/>
<path d="M293.524 463.465L106.303 329.843L139.782 695.472L293.524 463.465Z" stroke="url(#paint22_linear_77_1135)"/>
<path d="M253.431 492.371L81.2807 333.711L95.2992 687.257L253.431 492.371Z" stroke="url(#paint23_linear_77_1135)"/>
<path d="M211.31 516.799L55.0823 337.21L51.1256 675.306L211.31 516.799Z" stroke="url(#paint24_linear_77_1135)"/>
<defs>
<linearGradient id="paint0_linear_77_1135" x1="687.622" y1="476.643" x2="288.408" y2="395.703" gradientUnits="userSpaceOnUse">
<stop stop-color="#3A3BB8"/>
<stop offset="1" stop-color="#3C3CBB" stop-opacity="0"/>
</linearGradient>
<linearGradient id="paint1_linear_77_1135" x1="673.558" y1="480.321" x2="277.086" y2="375.502" gradientUnits="userSpaceOnUse">
<stop stop-color="#3A3BB8"/>
<stop offset="1" stop-color="#3C3CBB" stop-opacity="0"/>
</linearGradient>
<linearGradient id="paint2_linear_77_1135" x1="658.214" y1="485.876" x2="264.073" y2="354.917" gradientUnits="userSpaceOnUse">
<stop stop-color="#3A3BB8"/>
<stop offset="1" stop-color="#3C3CBB" stop-opacity="0"/>
</linearGradient>
<linearGradient id="paint3_linear_77_1135" x1="641.495" y1="493.018" x2="249.883" y2="332.905" gradientUnits="userSpaceOnUse">
<stop stop-color="#3A3BB8"/>
<stop offset="1" stop-color="#3C3CBB" stop-opacity="0"/>
</linearGradient>
<linearGradient id="paint4_linear_77_1135" x1="623.352" y1="501.457" x2="235.37" y2="308.378" gradientUnits="userSpaceOnUse">
<stop stop-color="#3A3BB8"/>
<stop offset="1" stop-color="#3C3CBB" stop-opacity="0"/>
</linearGradient>
<linearGradient id="paint5_linear_77_1135" x1="603.753" y1="510.875" x2="221.847" y2="280.241" gradientUnits="userSpaceOnUse">
<stop stop-color="#3A3BB8"/>
<stop offset="1" stop-color="#3C3CBB" stop-opacity="0"/>
</linearGradient>
<linearGradient id="paint6_linear_77_1135" x1="582.67" y1="520.987" x2="211.232" y2="247.623" gradientUnits="userSpaceOnUse">
<stop stop-color="#3A3BB8"/>
<stop offset="1" stop-color="#3C3CBB" stop-opacity="0"/>
</linearGradient>
<linearGradient id="paint7_linear_77_1135" x1="560.094" y1="531.465" x2="206.237" y2="210.145" gradientUnits="userSpaceOnUse">
<stop stop-color="#3A3BB8"/>
<stop offset="1" stop-color="#3C3CBB" stop-opacity="0"/>
</linearGradient>
<linearGradient id="paint8_linear_77_1135" x1="536.053" y1="542.038" x2="210.397" y2="168.61" gradientUnits="userSpaceOnUse">
<stop stop-color="#3A3BB8"/>
<stop offset="1" stop-color="#3C3CBB" stop-opacity="0"/>
</linearGradient>
<linearGradient id="paint9_linear_77_1135" x1="510.534" y1="552.455" x2="227.586" y2="125.82" gradientUnits="userSpaceOnUse">
<stop stop-color="#3A3BB8"/>
<stop offset="1" stop-color="#3C3CBB" stop-opacity="0"/>
</linearGradient>
<linearGradient id="paint10_linear_77_1135" x1="483.653" y1="562.353" x2="260.955" y2="87.2351" gradientUnits="userSpaceOnUse">
<stop stop-color="#3A3BB8"/>
<stop offset="1" stop-color="#3C3CBB" stop-opacity="0"/>
</linearGradient>
<linearGradient id="paint11_linear_77_1135" x1="455.431" y1="571.506" x2="310.491" y2="61.085" gradientUnits="userSpaceOnUse">
<stop stop-color="#3A3BB8"/>
<stop offset="1" stop-color="#3C3CBB" stop-opacity="0"/>
</linearGradient>
<linearGradient id="paint12_linear_77_1135" x1="425.95" y1="579.705" x2="370.924" y2="56.0213" gradientUnits="userSpaceOnUse">
<stop stop-color="#3A3BB8"/>
<stop offset="1" stop-color="#3C3CBB" stop-opacity="0"/>
</linearGradient>
<linearGradient id="paint13_linear_77_1135" x1="395.304" y1="586.685" x2="431.678" y2="76.8533" gradientUnits="userSpaceOnUse">
<stop stop-color="#3A3BB8"/>
<stop offset="1" stop-color="#3C3CBB" stop-opacity="0"/>
</linearGradient>
<linearGradient id="paint14_linear_77_1135" x1="363.566" y1="592.293" x2="480.591" y2="121.404" gradientUnits="userSpaceOnUse">
<stop stop-color="#3A3BB8"/>
<stop offset="1" stop-color="#3C3CBB" stop-opacity="0"/>
</linearGradient>
<linearGradient id="paint15_linear_77_1135" x1="330.878" y1="596.329" x2="509.281" y2="181.173" gradientUnits="userSpaceOnUse">
<stop stop-color="#3A3BB8"/>
<stop offset="1" stop-color="#3C3CBB" stop-opacity="0"/>
</linearGradient>
<linearGradient id="paint16_linear_77_1135" x1="297.326" y1="598.67" x2="515.592" y2="245.798" gradientUnits="userSpaceOnUse">
<stop stop-color="#3A3BB8"/>
<stop offset="1" stop-color="#3C3CBB" stop-opacity="0"/>
</linearGradient>
<linearGradient id="paint17_linear_77_1135" x1="263.048" y1="599.165" x2="502.398" y2="306.972" gradientUnits="userSpaceOnUse">
<stop stop-color="#3A3BB8"/>
<stop offset="1" stop-color="#3C3CBB" stop-opacity="0"/>
</linearGradient>
<linearGradient id="paint18_linear_77_1135" x1="228.167" y1="597.746" x2="474.646" y2="360" gradientUnits="userSpaceOnUse">
<stop stop-color="#3A3BB8"/>
<stop offset="1" stop-color="#3C3CBB" stop-opacity="0"/>
</linearGradient>
<linearGradient id="paint19_linear_77_1135" x1="192.812" y1="594.357" x2="437.204" y2="403.141" gradientUnits="userSpaceOnUse">
<stop stop-color="#3A3BB8"/>
<stop offset="1" stop-color="#3C3CBB" stop-opacity="0"/>
</linearGradient>
<linearGradient id="paint20_linear_77_1135" x1="157.111" y1="588.94" x2="393.904" y2="436.423" gradientUnits="userSpaceOnUse">
<stop stop-color="#3A3BB8"/>
<stop offset="1" stop-color="#3C3CBB" stop-opacity="0"/>
</linearGradient>
<linearGradient id="paint21_linear_77_1135" x1="121.213" y1="581.484" x2="347.463" y2="460.734" gradientUnits="userSpaceOnUse">
<stop stop-color="#3A3BB8"/>
<stop offset="1" stop-color="#3C3CBB" stop-opacity="0"/>
</linearGradient>
<linearGradient id="paint22_linear_77_1135" x1="85.2133" y1="572.031" x2="299.618" y2="477.25" gradientUnits="userSpaceOnUse">
<stop stop-color="#3A3BB8"/>
<stop offset="1" stop-color="#3C3CBB" stop-opacity="0"/>
</linearGradient>
<linearGradient id="paint23_linear_77_1135" x1="49.2685" y1="560.613" x2="251.516" y2="487.103" gradientUnits="userSpaceOnUse">
<stop stop-color="#3A3BB8"/>
<stop offset="1" stop-color="#3C3CBB" stop-opacity="0"/>
</linearGradient>
<linearGradient id="paint24_linear_77_1135" x1="13.4761" y1="547.307" x2="203.816" y2="491.321" gradientUnits="userSpaceOnUse">
<stop stop-color="#3A3BB8"/>
<stop offset="1" stop-color="#3C3CBB" stop-opacity="0"/>
</linearGradient>
</defs>
</svg>
