<svg width="500" height="267" viewBox="0 0 500 267" fill="none" xmlns="http://www.w3.org/2000/svg">
<path d="M115.562 175.717L676.123 56.2412L338.731 519.566L115.562 175.717Z" stroke="url(#paint0_linear_77_1173)"/>
<path d="M416.924 53.4346L463.429 -190.31L190.52 -23.3944L416.924 53.4346Z" stroke="url(#paint1_linear_77_1173)"/>
<path d="M349.746 499.386L670.273 42.3425L119.349 169.949L349.746 499.386Z" stroke="url(#paint2_linear_77_1173)"/>
<path d="M360.13 478.06L662.917 29.3062L123.965 164.06L360.13 478.06Z" stroke="url(#paint3_linear_77_1173)"/>
<path d="M369.841 456.485L655.225 16.3729L128.572 157.714L369.841 456.485Z" stroke="url(#paint4_linear_77_1173)"/>
<path d="M378.868 434.696L647.202 3.55932L133.155 150.929L378.868 434.696Z" stroke="url(#paint5_linear_77_1173)"/>
<path d="M387.199 412.698L638.855 -9.14459L137.701 143.694L387.199 412.698Z" stroke="url(#paint6_linear_77_1173)"/>
<path d="M394.818 390.533L630.182 -21.7128L142.187 136.037L394.818 390.533Z" stroke="url(#paint7_linear_77_1173)"/>
<path d="M401.711 368.215L621.183 -34.1496L146.592 127.956L401.711 368.215Z" stroke="url(#paint8_linear_77_1173)"/>
<path d="M407.867 345.772L611.863 -46.4432L150.903 119.464L407.867 345.772Z" stroke="url(#paint9_linear_77_1173)"/>
<path d="M413.271 323.227L602.223 -58.586L155.096 110.571L413.271 323.227Z" stroke="url(#paint10_linear_77_1173)"/>
<path d="M417.924 300.603L592.277 -70.5746L159.165 101.286L417.924 300.603Z" stroke="url(#paint11_linear_77_1173)"/>
<path d="M421.806 277.927L582.017 -82.3982L163.083 91.6209L421.806 277.927Z" stroke="url(#paint12_linear_77_1173)"/>
<path d="M424.912 255.223L571.451 -94.0499L166.836 81.5887L424.912 255.223Z" stroke="url(#paint13_linear_77_1173)"/>
<path d="M427.229 232.512L560.579 -105.526L170.401 71.1971L427.229 232.512Z" stroke="url(#paint14_linear_77_1173)"/>
<path d="M428.766 209.821L549.421 -116.819L173.78 60.4605L428.766 209.821Z" stroke="url(#paint15_linear_77_1173)"/>
<path d="M429.494 187.167L537.961 -127.929L176.933 49.3834L429.494 187.167Z" stroke="url(#paint16_linear_77_1173)"/>
<path d="M429.426 164.58L526.22 -138.841L179.862 37.9871L429.426 164.58Z" stroke="url(#paint17_linear_77_1173)"/>
<path d="M428.551 142.084L514.199 -149.552L182.545 26.2818L428.551 142.084Z" stroke="url(#paint18_linear_77_1173)"/>
<path d="M426.868 119.699L501.905 -160.06L184.968 14.2778L426.868 119.699Z" stroke="url(#paint19_linear_77_1173)"/>
<path d="M424.367 97.445L489.339 -170.361L187.113 1.98656L424.367 97.445Z" stroke="url(#paint20_linear_77_1173)"/>
<path d="M421.058 75.3464L476.516 -180.449L188.972 -10.5784L421.058 75.3464Z" stroke="url(#paint21_linear_77_1173)"/>
<defs>
<linearGradient id="paint0_linear_77_1173" x1="337.555" y1="30.7696" x2="561.516" y2="375.838" gradientUnits="userSpaceOnUse">
<stop stop-color="#3A3BB8" stop-opacity="0"/>
<stop offset="1" stop-color="#3A3BB8"/>
</linearGradient>
<linearGradient id="paint1_linear_77_1173" x1="269.496" y1="-124.932" x2="447.792" y2="13.7486" gradientUnits="userSpaceOnUse">
<stop stop-color="#3A3BB8" stop-opacity="0"/>
<stop offset="1" stop-color="#3A3BB8"/>
</linearGradient>
<linearGradient id="paint2_linear_77_1173" x1="334.818" y1="25.3924" x2="558.746" y2="359.17" gradientUnits="userSpaceOnUse">
<stop stop-color="#3A3BB8" stop-opacity="0"/>
<stop offset="1" stop-color="#3A3BB8"/>
</linearGradient>
<linearGradient id="paint3_linear_77_1173" x1="332.087" y1="19.7862" x2="555.76" y2="342.446" gradientUnits="userSpaceOnUse">
<stop stop-color="#3A3BB8" stop-opacity="0"/>
<stop offset="1" stop-color="#3A3BB8"/>
</linearGradient>
<linearGradient id="paint4_linear_77_1173" x1="329.35" y1="13.9483" x2="552.548" y2="325.659" gradientUnits="userSpaceOnUse">
<stop stop-color="#3A3BB8" stop-opacity="0"/>
<stop offset="1" stop-color="#3A3BB8"/>
</linearGradient>
<linearGradient id="paint5_linear_77_1173" x1="326.601" y1="7.8917" x2="549.11" y2="308.816" gradientUnits="userSpaceOnUse">
<stop stop-color="#3A3BB8" stop-opacity="0"/>
<stop offset="1" stop-color="#3A3BB8"/>
</linearGradient>
<linearGradient id="paint6_linear_77_1173" x1="323.835" y1="1.60272" x2="545.442" y2="291.898" gradientUnits="userSpaceOnUse">
<stop stop-color="#3A3BB8" stop-opacity="0"/>
<stop offset="1" stop-color="#3A3BB8"/>
</linearGradient>
<linearGradient id="paint7_linear_77_1173" x1="321.039" y1="-4.89582" x2="541.533" y2="274.924" gradientUnits="userSpaceOnUse">
<stop stop-color="#3A3BB8" stop-opacity="0"/>
<stop offset="1" stop-color="#3A3BB8"/>
</linearGradient>
<linearGradient id="paint8_linear_77_1173" x1="318.201" y1="-11.6109" x2="537.375" y2="257.881" gradientUnits="userSpaceOnUse">
<stop stop-color="#3A3BB8" stop-opacity="0"/>
<stop offset="1" stop-color="#3A3BB8"/>
</linearGradient>
<linearGradient id="paint9_linear_77_1173" x1="315.315" y1="-18.5333" x2="532.962" y2="240.775" gradientUnits="userSpaceOnUse">
<stop stop-color="#3A3BB8" stop-opacity="0"/>
<stop offset="1" stop-color="#3A3BB8"/>
</linearGradient>
<linearGradient id="paint10_linear_77_1173" x1="312.368" y1="-25.6576" x2="528.28" y2="223.606" gradientUnits="userSpaceOnUse">
<stop stop-color="#3A3BB8" stop-opacity="0"/>
<stop offset="1" stop-color="#3A3BB8"/>
</linearGradient>
<linearGradient id="paint11_linear_77_1173" x1="309.362" y1="-32.982" x2="523.333" y2="206.374" gradientUnits="userSpaceOnUse">
<stop stop-color="#3A3BB8" stop-opacity="0"/>
<stop offset="1" stop-color="#3A3BB8"/>
</linearGradient>
<linearGradient id="paint12_linear_77_1173" x1="306.278" y1="-40.4972" x2="518.099" y2="189.083" gradientUnits="userSpaceOnUse">
<stop stop-color="#3A3BB8" stop-opacity="0"/>
<stop offset="1" stop-color="#3A3BB8"/>
</linearGradient>
<linearGradient id="paint13_linear_77_1173" x1="303.11" y1="-48.1971" x2="512.572" y2="171.737" gradientUnits="userSpaceOnUse">
<stop stop-color="#3A3BB8" stop-opacity="0"/>
<stop offset="1" stop-color="#3A3BB8"/>
</linearGradient>
<linearGradient id="paint14_linear_77_1173" x1="299.845" y1="-56.0792" x2="506.737" y2="154.335" gradientUnits="userSpaceOnUse">
<stop stop-color="#3A3BB8" stop-opacity="0"/>
<stop offset="1" stop-color="#3A3BB8"/>
</linearGradient>
<linearGradient id="paint15_linear_77_1173" x1="296.491" y1="-64.1351" x2="500.599" y2="136.885" gradientUnits="userSpaceOnUse">
<stop stop-color="#3A3BB8" stop-opacity="0"/>
<stop offset="1" stop-color="#3A3BB8"/>
</linearGradient>
<linearGradient id="paint16_linear_77_1173" x1="293.017" y1="-72.3656" x2="494.124" y2="119.383" gradientUnits="userSpaceOnUse">
<stop stop-color="#3A3BB8" stop-opacity="0"/>
<stop offset="1" stop-color="#3A3BB8"/>
</linearGradient>
<linearGradient id="paint17_linear_77_1173" x1="289.432" y1="-80.7559" x2="487.317" y2="101.843" gradientUnits="userSpaceOnUse">
<stop stop-color="#3A3BB8" stop-opacity="0"/>
<stop offset="1" stop-color="#3A3BB8"/>
</linearGradient>
<linearGradient id="paint18_linear_77_1173" x1="285.724" y1="-89.3016" x2="480.161" y2="84.2695" gradientUnits="userSpaceOnUse">
<stop stop-color="#3A3BB8" stop-opacity="0"/>
<stop offset="1" stop-color="#3A3BB8"/>
</linearGradient>
<linearGradient id="paint19_linear_77_1173" x1="281.885" y1="-97.9988" x2="472.646" y2="66.6653" gradientUnits="userSpaceOnUse">
<stop stop-color="#3A3BB8" stop-opacity="0"/>
<stop offset="1" stop-color="#3A3BB8"/>
</linearGradient>
<linearGradient id="paint20_linear_77_1173" x1="277.903" y1="-106.842" x2="464.752" y2="49.0365" gradientUnits="userSpaceOnUse">
<stop stop-color="#3A3BB8" stop-opacity="0"/>
<stop offset="1" stop-color="#3A3BB8"/>
</linearGradient>
<linearGradient id="paint21_linear_77_1173" x1="273.781" y1="-115.825" x2="456.476" y2="31.3916" gradientUnits="userSpaceOnUse">
<stop stop-color="#3A3BB8" stop-opacity="0"/>
<stop offset="1" stop-color="#3A3BB8"/>
</linearGradient>
</defs>
</svg>
